<?xml version="1.0" encoding="UTF-8"?>
<svg version="1.1" xmlns="http://www.w3.org/2000/svg" width="765" height="808">
<path d="M0 0 C1.68967876 1.32534178 3.35619253 2.68067435 5 4.0625 C9.06880679 7.47566968 12.86288371 9.49062137 17.87109375 11.2109375 C20 12 20 12 23 14 C28.61189322 13.64084234 33.71626321 11.96166367 39.01171875 10.19921875 C39.86119583 9.92157181 40.71067291 9.64392487 41.58589172 9.35786438 C44.28824362 8.47316852 46.987867 7.58045367 49.6875 6.6875 C51.48094729 6.09908335 53.27456573 5.51118806 55.06835938 4.92382812 C56.82034833 4.34906754 58.57230197 3.77419931 60.32421875 3.19921875 C61.60264145 2.78021049 61.60264145 2.78021049 62.90689087 2.35273743 C66.49697404 1.1719303 70.07428283 -0.02635858 73.63623047 -1.2902832 C79.44740843 -3.34731701 84.5653776 -4.69693234 90.75 -4.5625 C91.83994263 -4.5471521 91.83994263 -4.5471521 92.9519043 -4.53149414 C97.83651786 -4.33742902 101.46380902 -3.59441502 105.45703125 -0.77734375 C107 1 107 1 108.6328125 4.4296875 C111.25435094 9.15935655 115.17488045 10.27029681 120.0625 12.0625 C138.67287919 19.46942762 156.65711156 28.83840798 173.35791016 39.91357422 C174.93998323 40.9602922 176.53810669 41.98262607 178.13671875 43.00390625 C207.19921875 61.80905331 207.19921875 61.80905331 211 75 C211.63822491 80.45682294 211.70800211 84.60840965 209.1875 89.5625 C207 92 207 92 204 94 C205.06796565 98.92907222 206.21067338 103.81162013 207.5 108.6875 C208.88184363 114.15237907 209.75364272 119.59973772 210.47265625 125.1875 C210.91223036 128.365458 211.4341822 131.50507884 211.98828125 134.6640625 C216.60495699 162.16348469 215.40026323 190.47587294 214.234375 218.2109375 C214.02336623 223.30696667 213.83014663 228.40008133 213.75 233.5 C213.71132812 235.34078125 213.71132812 235.34078125 213.671875 237.21875 C213.78015625 238.1365625 213.8884375 239.054375 214 240 C214.99 240.66 215.98 241.32 217 242 C217 242.66 217 243.32 217 244 C217.99 244.33 218.98 244.66 220 245 C220 245.66 220 246.32 220 247 C220.58136719 247.20753906 221.16273438 247.41507813 221.76171875 247.62890625 C224.81793192 249.50103683 225.94345891 251.89616095 227.8125 254.9375 C230.25014623 258.51184263 232.29314175 260.73861386 236.46484375 262.28125 C239.01992053 262.72423545 241.58502487 263.11238826 244.15625 263.44921875 C257.92607761 265.42233429 271.74219082 273.69753531 281 284 C288.53659569 295.06229925 291.02153828 307.16037234 288.546875 320.4296875 C288.36640625 321.07164062 288.1859375 321.71359375 288 322.375 C286.39084228 328.20819672 286.52216154 333.46448209 288 339.3125 C291.04118977 351.91484032 288.47523318 365.82087403 282 377 C270.40422414 393.73510636 253.55675313 402.65365443 233.625 406.3125 C232.08526909 406.55433094 230.54423729 406.78884919 229 407 C229.05800781 407.64324219 229.11601563 408.28648437 229.17578125 408.94921875 C229.63421316 418.13095498 227.10923317 426.33615025 222 434 C221.34 434 220.68 434 220 434 C219.74347656 434.598125 219.48695313 435.19625 219.22265625 435.8125 C215.19492648 443.01866189 205.61778429 446.67799784 198.06640625 448.83984375 C179.00561103 453.52921932 159.60275458 454.17340079 140.07885742 454.13037109 C137.20290814 454.12502862 134.32711633 454.13033812 131.45117188 454.13671875 C121.9995351 454.13895023 112.60482988 454.00857441 103.17875671 453.26150513 C100.06791217 453.0301476 98.00064833 452.99978389 95 454 C95 454.66 95 455.32 95 456 C93.30411736 457.54091405 91.54178328 459.00923297 89.75 460.4375 C88.77546875 461.21996094 87.8009375 462.00242187 86.796875 462.80859375 C85.87390625 463.53175781 84.9509375 464.25492188 84 465 C83.26265625 465.58910156 82.5253125 466.17820312 81.765625 466.78515625 C80 468 80 468 78 468 C80.37647256 480.4944845 83.37496257 490.73032933 91 501 C91.62455078 501.87398437 91.62455078 501.87398437 92.26171875 502.765625 C97.92613744 510.046019 106.13563165 515.35614884 113.67578125 520.546875 C123.19502225 527.11414739 133.78080583 534.64022202 136.25 546.6875 C137.89848787 556.19800693 136.25681442 563.87583226 131 572 C126.21199235 577.05400808 119.06681759 580.14328179 112.1328125 580.49609375 C110.46343733 580.50184965 108.79379739 580.48179295 107.125 580.4375 C105.81390259 580.41876831 105.81390259 580.41876831 104.47631836 580.3996582 C95.85612321 580.16507873 88.27544144 578.85029429 81 574 C79.4840625 573.4121875 79.4840625 573.4121875 77.9375 572.8125 C67.68299892 568.50649738 58.02278341 560.65293878 50 553 C50 552.34 50 551.68 50 551 C49.34 551 48.68 551 48 551 C46.36771913 549.11893282 44.86321634 547.2409959 43.375 545.25 C42.92987061 544.65799805 42.48474121 544.06599609 42.02612305 543.45605469 C40.67451106 541.64424237 39.33653084 539.82295362 38 538 C37.27683594 537.030625 36.55367188 536.06125 35.80859375 535.0625 C24.28756754 518.82935153 20.27451723 500.46719156 18 481 C17.410979 480.88930176 16.82195801 480.77860352 16.21508789 480.66455078 C13.49727126 480.15288034 10.77988601 479.63895228 8.0625 479.125 C7.13630859 478.95097656 6.21011719 478.77695312 5.25585938 478.59765625 C2.5017245 478.07582017 -0.24913944 477.53879477 -3 477 C-3.79736572 476.85385254 -4.59473145 476.70770508 -5.41625977 476.55712891 C-10.78042311 475.49963395 -15.24718856 473.6874506 -20.0625 471.125 C-20.71798828 470.78597656 -21.37347656 470.44695312 -22.04882812 470.09765625 C-22.70431641 469.75863281 -23.35980469 469.41960937 -24.03515625 469.0703125 C-24.68718018 468.73435059 -25.3392041 468.39838867 -26.01098633 468.05224609 C-27.36986267 467.33336098 -28.71326532 466.58464641 -30.04174805 465.81103516 C-33.52192594 463.86420504 -35.37773615 462.96476422 -39.44921875 463.1953125 C-40.51785156 463.50210937 -41.58648437 463.80890625 -42.6875 464.125 C-43.76386719 464.41632813 -44.84023438 464.70765625 -45.94921875 465.0078125 C-47.88296625 465.63671374 -49.80025193 466.3210313 -51.6875 467.078125 C-59.72119552 470.28074686 -69.49865002 469.09285455 -78 469 C-78.0825 470.19625 -78.165 471.3925 -78.25 472.625 C-80.81633747 493.87953854 -92.12987376 512.18448077 -106 528 C-106.64710938 528.7734375 -107.29421875 529.546875 -107.9609375 530.34375 C-115.33041517 539.06256865 -123.57119467 547.50863018 -133 554 C-133.66 554 -134.32 554 -135 554 C-135 554.66 -135 555.32 -135 556 C-136.86392955 557.30775702 -138.79531569 558.51973672 -140.75 559.6875 C-141.33330078 560.0376416 -141.91660156 560.3877832 -142.51757812 560.74853516 C-144.34082599 561.83963198 -146.17022962 562.91988635 -148 564 C-149.10859375 564.66386719 -150.2171875 565.32773437 -151.359375 566.01171875 C-164.51037473 573.81399098 -177.62814909 577.62778841 -193 576 C-202.25598094 573.54154422 -209.48845164 569.03318512 -214.8125 561.0625 C-219.02663614 553.70162404 -219.87385451 546.36715691 -219 538 C-216.08994904 527.45106527 -209.18342525 520.41747632 -200 515 C-196.78316469 513.40574984 -193.49843259 512.01091954 -190.1875 510.625 C-178.87448512 505.70172424 -169.5317016 499.51510594 -160.05859375 491.56640625 C-158 490 -158 490 -155 489 C-154.30377886 487.681858 -153.63985208 486.3464069 -153 485 C-151.51953125 483.46484375 -151.51953125 483.46484375 -149.8125 481.9375 C-145.31353386 477.58975962 -141.9891189 472.47853707 -139 467 C-139 466.34 -139 465.68 -139 465 C-139.54785156 464.85304688 -140.09570312 464.70609375 -140.66015625 464.5546875 C-146.20005269 462.98730217 -151.53668887 461.07907342 -156.875 458.9375 C-157.83805054 458.55150635 -157.83805054 458.55150635 -158.82055664 458.15771484 C-161.3509251 457.12961767 -163.81050896 456.10620939 -166.1953125 454.76953125 C-168.51167062 453.7818201 -169.59607353 454.07617213 -172 454.75 C-180.47306274 456.90299135 -189.00745213 458.12682108 -197.72265625 458.75390625 C-200.16181977 458.93589858 -200.16181977 458.93589858 -203 460 C-204.65291859 460.09312712 -206.30930516 460.13069176 -207.96484375 460.1328125 C-208.92970703 460.13410156 -209.89457031 460.13539063 -210.88867188 460.13671875 C-211.89478516 460.13285156 -212.90089844 460.12898438 -213.9375 460.125 C-214.93974609 460.12886719 -215.94199219 460.13273437 -216.97460938 460.13671875 C-217.94076172 460.13542969 -218.90691406 460.13414062 -219.90234375 460.1328125 C-221.22480103 460.13112061 -221.22480103 460.13112061 -222.57397461 460.12939453 C-224.87600593 460.00661335 -226.77650228 459.56901267 -229 459 C-230.88236038 458.81152121 -232.76862846 458.66041509 -234.65625 458.53515625 C-235.76226562 458.45716797 -236.86828125 458.37917969 -238.0078125 458.29882812 C-240.30456751 458.14339895 -242.60144063 457.98970364 -244.8984375 457.83789062 C-262.1357489 456.61376285 -279.3044194 454.25088003 -293 443 C-294.5778125 441.88625 -294.5778125 441.88625 -296.1875 440.75 C-304.2955687 432.8221106 -308.86129027 423.07131436 -309.171875 411.75 C-309.21366638 407.82893439 -309.1327563 403.91876941 -309 400 C-309.83402344 399.76925781 -310.66804688 399.53851563 -311.52734375 399.30078125 C-324.02909511 395.67770783 -336.59607785 390.07464754 -343.5625 378.3125 C-349.84252921 363.22257198 -344.90064615 343.45895598 -339 329 C-335.31876912 320.75000861 -330.41723231 313.51615754 -325.1875 306.1875 C-324.61193359 305.37949951 -324.03636719 304.57149902 -323.44335938 303.73901367 C-322.89873047 302.99369385 -322.35410156 302.24837402 -321.79296875 301.48046875 C-321.3033667 300.80910889 -320.81376465 300.13774902 -320.30932617 299.44604492 C-319.87724854 298.9688501 -319.4451709 298.49165527 -319 298 C-318.34 298 -317.68 298 -317 298 C-316.731875 297.360625 -316.46375 296.72125 -316.1875 296.0625 C-315 294 -315 294 -312 293 C-311.67 292.34 -311.34 291.68 -311 291 C-310 289 -310 289 -307 288 C-307 287.34 -307 286.68 -307 286 C-299.64423638 280.19649828 -291.47582791 276 -282 276 C-282.0825 275.0925 -282.165 274.185 -282.25 273.25 C-282.21167173 263.78291719 -277.55862648 255.34532785 -272 248 C-271.41734375 247.19175781 -270.8346875 246.38351562 -270.234375 245.55078125 C-267.14479098 241.37984283 -264.64897511 238.446829 -260 236 C-258.88431641 234.84951172 -258.88431641 234.84951172 -257.74609375 233.67578125 C-251.26208452 227.35779217 -242.27620422 222.64947012 -234 219 C-233.09507812 218.57847656 -232.19015625 218.15695312 -231.2578125 217.72265625 C-221.6541998 213.59142635 -211.44935665 212 -201 212 C-201 188.57 -201 165.14 -201 141 C-203.31 141 -205.62 141 -208 141 C-211.73339564 139.68233095 -213.68314341 138.34187159 -216.375 135.4375 C-218.56394834 130.80703237 -218.90807303 127.03422941 -218 122 C-216.20831131 117.75068523 -213.66680949 115.03193293 -209.5 113.0625 C-206.34577712 112.10496805 -204.2317767 111.90592431 -201 112 C-201.04640625 111.20335937 -201.0928125 110.40671875 -201.140625 109.5859375 C-201.43530103 100.93509111 -201.43530103 100.93509111 -199.3125 96.375 C-196.19892054 93.17726975 -193.62257867 92.07567582 -189.15234375 91.8671875 C-188.09144531 91.86976563 -187.03054687 91.87234375 -185.9375 91.875 C-175.83552761 91.28325266 -167.16981358 86.99959954 -158 83 C-155.27670849 81.83985062 -152.54650903 80.69713877 -149.8125 79.5625 C-148.81150269 79.1447229 -148.81150269 79.1447229 -147.7902832 78.71850586 C-140.3193558 75.64407508 -132.70266822 72.9764053 -125.0925293 70.27026367 C-118.22704715 67.82297972 -111.45588312 65.23936631 -104.7109375 62.4765625 C-99.27144878 60.31221857 -93.76746374 58.32745477 -88.25439453 56.35888672 C-87.48466309 56.08061035 -86.71493164 55.80233398 -85.921875 55.515625 C-85.23706055 55.27102539 -84.55224609 55.02642578 -83.84667969 54.77441406 C-81.72352474 53.95273592 -81.72352474 53.95273592 -79 52 C-78.5987142 48.92639163 -78.5987142 48.92639163 -78.625 45.3125 C-78.02272786 29.68372732 -71.52289251 15.50817071 -60.08984375 4.77734375 C-53.33906694 -0.96397111 -46.46285326 -4.40117105 -38 -7 C-37.36964844 -7.19464844 -36.73929687 -7.38929687 -36.08984375 -7.58984375 C-23.22410809 -10.11489467 -10.97325839 -6.68682933 0 0 Z M75.92578125 39.37109375 C75.16073776 39.61287857 74.39569427 39.85466339 73.60746765 40.10377502 C71.17363114 40.87500644 68.7431566 41.65631204 66.3125 42.4375 C64.6662121 42.95960429 63.0197296 43.48109542 61.37304688 44.00195312 C59.80711731 44.49945152 58.24135605 44.99748006 56.67578125 45.49609375 C55.5664196 45.84926918 55.5664196 45.84926918 54.43464661 46.20957947 C50.64243704 47.41487602 50.64243704 47.41487602 47 49 C46.81741285 51.26587658 46.73125198 53.53969986 46.6875 55.8125 C46.25927757 66.13920107 42.16104715 74.20710485 37 83 C37 83.66 37 84.32 37 85 C38.77074917 85.02705729 40.54161711 85.04642195 42.3125 85.0625 C43.29863281 85.07410156 44.28476562 85.08570313 45.30078125 85.09765625 C48.09963849 85.12329862 48.09963849 85.12329862 51 84 C54.71161142 83.72554986 58.4231093 83.55433119 62.140625 83.37890625 C65.98834655 83.00114411 69.29584118 82.07027614 73 81 C75.36908576 80.74857624 77.74578141 80.56038272 80.125 80.4375 C84.79757053 80.20512169 84.79757053 80.20512169 89.41015625 79.5 C93.72184741 78.66757697 98.11748601 78.642925 102.49804688 78.48242188 C106.1111384 78.31067851 109.15580779 77.95706998 112.671875 76.98828125 C118.64540352 75.37144718 124.79281249 75.63145112 130.9375 75.625 C132.16146484 75.60050781 133.38542969 75.57601562 134.64648438 75.55078125 C141.30000804 75.52930672 146.41804016 75.96411186 152.33032227 79.13818359 C153.98304078 80.15288759 153.98304078 80.15288759 156 80 C156 80.66 156 81.32 156 82 C157.12359581 83.79081118 157.12359581 83.79081118 159 85 C161.65466049 84.76956136 161.65466049 84.76956136 164 84 C162.85800716 80.57402148 162.23063734 80.20186721 159.31640625 78.29296875 C158.55263672 77.78830078 157.78886719 77.28363281 157.00195312 76.76367188 C156.19693359 76.24353516 155.39191406 75.72339844 154.5625 75.1875 C153.79228516 74.67896484 153.02207031 74.17042969 152.22851562 73.64648438 C146.57746289 69.94018296 140.80948184 66.45075343 135 63 C133.41475864 62.04788314 131.83011692 61.09476717 130.24609375 60.140625 C126.02311255 57.60066881 121.79627291 55.06721456 117.56738281 52.53710938 C115.90177714 51.53990004 114.2370115 50.54128578 112.57324219 49.54101562 C110.32263862 48.18895634 108.0681313 46.84365031 105.8125 45.5 C105.15499756 45.10329102 104.49749512 44.70658203 103.82006836 44.29785156 C93.68880991 38.29128829 87.50285432 35.62296379 75.92578125 39.37109375 Z M-85 91 C-88.19578478 92.02265113 -91.40731925 92.984714 -94.62109375 93.94921875 C-99.47896681 95.45993303 -104.2403695 97.20679252 -109 99 C-107.09796336 101.36641517 -107.09796336 101.36641517 -103.83203125 101.046875 C-102.49132256 100.96042141 -101.15144162 100.86049594 -99.8125 100.75 C-99.08909424 100.6969873 -98.36568848 100.64397461 -97.62036133 100.58935547 C-91.90529893 100.14162881 -86.24526659 99.41833174 -80.5703125 98.609375 C-74.25012527 97.73578071 -67.90402512 97.07234135 -61.5625 96.375 C-60.33362061 96.23980957 -59.10474121 96.10461914 -57.83862305 95.96533203 C-54.89255401 95.64226441 -51.94635834 95.32041687 -49 95 C-55.3956649 88.13241624 -55.3956649 88.13241624 -63.75 84.5 C-71.26129582 85.65558397 -78.04193114 88.00083239 -85 91 Z M162 103 C161.15266522 104.21955685 160.32268786 105.45118296 159.5 106.6875 C154.51799147 113.38948767 147.99748683 116.30556344 139.88671875 117.66796875 C135.07402748 118.22152593 130.25429671 118.50833105 125.41796875 118.75390625 C122.17142741 118.90800968 122.17142741 118.90800968 119.72387695 119.48852539 C116.46953698 120.09960742 113.308082 120.2707445 110 120.4296875 C108.56282305 120.50190398 107.1256487 120.57417221 105.68847656 120.64648438 C104.92668091 120.68346436 104.16488525 120.72044434 103.38000488 120.75854492 C88.63701448 121.47992836 73.90317837 122.34224725 59.17431641 123.30865479 C57.25157302 123.43446461 55.32872301 123.55865727 53.40576172 123.68109131 C43.53352814 124.31141343 33.71631648 125.06926207 23.89866638 126.29260254 C17.54802662 127.0800573 11.19537096 127.56671993 4.8125 128 C-1.89954705 128.48015288 -8.54505706 128.97423568 -15.1875 130.0625 C-22.4829987 131.24008365 -29.80919293 131.4271467 -37.18432617 131.65844727 C-38.13670166 131.68994873 -39.08907715 131.7214502 -40.0703125 131.75390625 C-40.92383301 131.77783447 -41.77735352 131.8017627 -42.65673828 131.82641602 C-44.94567013 131.92411873 -44.94567013 131.92411873 -46.88671875 132.49780273 C-49.84435368 133.20065105 -52.70501584 133.20443199 -55.7421875 133.28125 C-57.05574219 133.31863281 -58.36929688 133.35601562 -59.72265625 133.39453125 C-61.10675844 133.43017196 -62.4908733 133.46532392 -63.875 133.5 C-66.58091711 133.56814148 -69.28648173 133.64189842 -71.9921875 133.71875 C-73.79212158 133.76418945 -73.79212158 133.76418945 -75.62841797 133.81054688 C-78.94090389 133.93296241 -78.94090389 133.93296241 -81.93603516 134.50219727 C-85.63905656 135.1038276 -89.28997087 135.19153475 -93.03125 135.24609375 C-94.57943304 135.27901776 -96.12760999 135.31222964 -97.67578125 135.34570312 C-100.09159386 135.39311535 -102.50737922 135.43761969 -104.92333984 135.47680664 C-107.27205359 135.51669226 -109.62029873 135.56817174 -111.96875 135.62109375 C-112.68454224 135.6295079 -113.40033447 135.63792206 -114.13781738 135.64659119 C-117.29453623 135.72374432 -119.94519163 135.98143529 -122.94580078 136.99780273 C-126.97151321 138.31878991 -130.68770121 138.35328156 -134.8984375 138.4140625 C-136.15087753 138.44311172 -136.15087753 138.44311172 -137.42861938 138.4727478 C-140.07731126 138.53219614 -142.72604743 138.57878894 -145.375 138.625 C-147.17840364 138.66321182 -148.98178966 138.70226539 -150.78515625 138.7421875 C-155.19000883 138.83944275 -159.59468945 138.91928553 -164 139 C-164 151.21 -164 163.42 -164 176 C-157.50827015 176.28900467 -157.50827015 176.28900467 -151.01611328 176.56811523 C-150.20899902 176.60622314 -149.40188477 176.64433105 -148.5703125 176.68359375 C-147.74289551 176.72025146 -146.91547852 176.75690918 -146.06298828 176.79467773 C-144 177 -144 177 -142 178 C-138.93401811 178.09879503 -135.89071893 178.13625691 -132.82446289 178.12939453 C-131.39747826 178.13202301 -131.39747826 178.13202301 -129.94166565 178.13470459 C-126.78531083 178.13911912 -123.62901168 178.13618627 -120.47265625 178.1328125 C-118.28551726 178.13348571 -116.09837835 178.13445588 -113.91123962 178.13571167 C-109.32208546 178.13718815 -104.73295074 178.13503589 -100.14379883 178.13037109 C-94.25438672 178.12467721 -88.36502021 178.12795098 -82.47560978 178.13394356 C-77.9572668 178.13755338 -73.43893466 178.13640858 -68.92059135 178.13381577 C-66.74881421 178.13314749 -64.57703609 178.13397147 -62.40526009 178.13629532 C-59.37179066 178.13882834 -56.33839552 178.13497184 -53.30493164 178.12939453 C-52.40248718 178.13141876 -51.50004272 178.13344299 -50.57025146 178.13552856 C-49.74443069 178.13270874 -48.91860992 178.12988892 -48.06776428 178.12698364 C-47.3504416 178.12660662 -46.63311892 178.12622959 -45.89405918 178.12584114 C-43.77425046 178.06510589 -43.77425046 178.06510589 -41 177 C-38.62967395 176.87137064 -36.2562198 176.79782538 -33.8828125 176.75390625 C-32.45702516 176.7209656 -31.03124406 176.68775399 -29.60546875 176.65429688 C-27.36511544 176.60693782 -25.12478702 176.56249626 -22.88427734 176.52319336 C-20.7168577 176.48332124 -18.54994772 176.43181559 -16.3828125 176.37890625 C-15.08746582 176.3538501 -13.79211914 176.32879395 -12.45751953 176.30297852 C-9.09511128 176.17929258 -9.09511128 176.17929258 -6.54101562 175 C-3.04768616 173.62522315 0.33761581 173.6637362 4.0390625 173.62109375 C4.80173431 173.60409927 5.56440613 173.5871048 6.35018921 173.56959534 C8.77504309 173.51669084 11.19988217 173.47626529 13.625 173.4375 C16.05717395 173.3935016 18.48921942 173.34677043 20.92123413 173.29469299 C22.43140961 173.26285658 23.94169842 173.23592936 25.45205688 173.21446228 C28.55645334 173.15326974 31.03298471 172.9890051 34 172 C36.30908867 171.87164709 38.62135905 171.79790226 40.93359375 171.75390625 C42.31836581 171.72097266 43.70313128 171.68776093 45.08789062 171.65429688 C47.26468459 171.60688448 49.44145089 171.56242879 51.6184082 171.52319336 C53.72374662 171.48339805 55.82855143 171.43188116 57.93359375 171.37890625 C59.19228271 171.3538501 60.45097168 171.32879395 61.74780273 171.30297852 C64.85812929 171.24543036 64.85812929 171.24543036 66.70066833 170 C70.07764536 168.53132235 73.42080778 168.69983342 77.04150391 168.69702148 C78.25188072 168.68436249 78.25188072 168.68436249 79.48670959 168.67144775 C82.14999995 168.64568729 84.81317957 168.63353493 87.4765625 168.62109375 C89.32694375 168.60491958 91.17731646 168.58773967 93.02767944 168.56959534 C97.89632223 168.52391614 102.76497637 168.48910402 107.63372803 168.45739746 C115.43421002 168.40550991 123.23456675 168.34047631 131.03489304 168.26918221 C133.76369868 168.24630638 136.49248828 168.23006447 139.22134399 168.21446228 C140.88665953 168.20105928 142.55197337 168.1874448 144.21728516 168.17358398 C144.97992172 168.17097061 145.74255829 168.16835724 146.52830505 168.16566467 C150.39173124 168.19782965 150.39173124 168.19782965 154 167 C157.63386433 166.68286275 161.26847692 166.48828964 164.91015625 166.28125 C167.86908486 166.34428075 167.86908486 166.34428075 169 165 C169.63007161 150.94525072 167.78197262 136.67197174 166 122.75 C165.91046051 122.05019012 165.82092102 121.35038025 165.72866821 120.62936401 C164.59915622 111.77625385 164.59915622 111.77625385 163 103 C162.67 103 162.34 103 162 103 Z M-159 252 C-159 256.95 -159 261.9 -159 267 C-159.66 267 -160.32 267 -161 267 C-161 267.66 -161 268.32 -161 269 C-161.66 269 -162.32 269 -163 269 C-164.12637053 271.25274106 -164.13734301 272.53556476 -164.17578125 275.03515625 C-164.60300681 291.2163245 -164.60300681 291.2163245 -168.0625 297.30859375 C-169.09989577 299.18022861 -169.51634358 300.92439703 -170 303 C-145.14790748 305.79276992 -145.14790748 305.79276992 -120.25 308.125 C-111.96220029 308.81076042 -103.7206096 309.68442966 -95.46777344 310.70263672 C-92.53466232 311.05607255 -89.59961129 311.39007635 -86.6640625 311.72265625 C-85.53395752 311.85099854 -84.40385254 311.97934082 -83.23950195 312.11157227 C-81.02984661 312.36202191 -78.82005767 312.61129699 -76.61010742 312.85913086 C-71.10780528 313.48668727 -65.62723511 314.187519 -60.1484375 314.99609375 C-52.72223218 316.07419884 -45.28187289 316.8519336 -37.8125 317.5625 C-37.14278168 317.62725525 -36.47306335 317.6920105 -35.78305054 317.75872803 C-26.70949971 318.63349201 -17.64359244 319.37264676 -8.5324707 319.70922852 C-3.34743438 319.90867645 -3.34743438 319.90867645 -1.11450195 320.49560547 C1.38557407 321.09197506 3.7202393 321.19674628 6.2890625 321.28125 C7.82626953 321.33732422 7.82626953 321.33732422 9.39453125 321.39453125 C10.46058594 321.42933594 11.52664063 321.46414063 12.625 321.5 C14.72145465 321.5699682 16.81781401 321.64285586 18.9140625 321.71875 C19.8417041 321.74904297 20.7693457 321.77933594 21.72509766 321.81054688 C24.37419361 321.9637971 26.96642229 322.21130679 29.60122681 322.5057373 C34.63647306 323.01385468 39.59804913 323.12901064 44.65527344 323.09765625 C45.56439484 323.09619598 46.47351624 323.09473572 47.41018677 323.0932312 C49.36997783 323.08945049 51.32976558 323.08336112 53.28954315 323.07516479 C56.42385031 323.062234 59.5581143 323.05584091 62.69244385 323.05102539 C70.49294245 323.03774818 78.29340094 323.01382875 86.09387207 322.98962402 C132.83572035 322.84707126 132.83572035 322.84707126 150.640625 323.25 C151.81155701 323.26409912 152.98248901 323.27819824 154.18890381 323.29272461 C160.84367263 323.49418255 165.35654686 324.3745288 171 328 C173.81324623 332.43299406 174.51279619 336.0216487 173.5546875 341.0859375 C172.31424651 345.36633247 170.54138129 348.04555978 166.72265625 350.41015625 C159.66946647 354.0481173 153.48378839 356.22863807 145.4765625 356.34375 C144.77155609 356.3583728 144.06654968 356.37299561 143.34017944 356.38806152 C141.10184315 356.43423257 138.86358912 356.46859985 136.625 356.5 C133.67937812 356.54151462 130.73433997 356.59532625 127.7890625 356.65625 C126.48662598 356.67494141 125.18418945 356.69363281 123.84228516 356.71289062 C119.99399803 356.87561767 119.99399803 356.87561767 116.37568665 358.00177002 C111.61077163 359.2268267 107.04512211 359.28125222 102.14672852 359.25878906 C101.19441345 359.2622937 100.24209839 359.26579834 99.26092529 359.26940918 C96.13351001 359.2781642 93.00632358 359.27239889 89.87890625 359.265625 C87.69229591 359.26697355 85.50568586 359.26891567 83.31907654 359.27142334 C78.74385718 359.27436627 74.1687161 359.2701041 69.59350586 359.26074219 C63.74516591 359.249355 57.89700969 359.25590786 52.04867649 359.26788712 C47.53523896 359.27513392 43.02184456 359.27280472 38.50840569 359.26763153 C36.35275183 359.26630248 34.19709398 359.2679165 32.04144478 359.27259064 C29.0217472 359.27770154 26.00234197 359.26988144 22.98266602 359.25878906 C22.10186874 359.26283752 21.22107147 359.26688599 20.31358337 359.27105713 C15.34153153 359.23742769 10.8501349 358.70219697 6.0315485 357.45643997 C2.5127136 356.6658426 -1.00883683 356.68162591 -4.6015625 356.65625 C-6.23046945 356.62788843 -7.85937567 356.59948518 -9.48828125 356.57104492 C-10.74632568 356.5541713 -10.74632568 356.5541713 -12.02978516 356.53695679 C-34.22266672 356.22092222 -55.93568334 354.42133279 -77.91992188 351.40893555 C-85.2432768 350.41703206 -92.52444563 349.69341493 -99.89916992 349.21704102 C-103.67174132 348.95298181 -107.37790358 348.5091596 -111.125 348 C-116.95579688 347.22583655 -122.77543854 346.64276346 -128.64453125 346.24609375 C-131 346 -131 346 -134 345 C-136.18096151 344.74722399 -138.36702994 344.53768946 -140.5546875 344.3515625 C-141.8957735 344.23405103 -143.2368371 344.11628358 -144.57788086 343.99829102 C-145.27976532 343.93763458 -145.98164978 343.87697815 -146.70480347 343.81448364 C-157.13297051 342.9039822 -167.56081893 341.95159583 -177.9375 340.5625 C-178.73849121 340.46469238 -179.53948242 340.36688477 -180.36474609 340.26611328 C-185.40809843 339.5502479 -189.57768621 338.05825891 -194.15454102 335.82006836 C-195.96803498 334.86463921 -195.96803498 334.86463921 -198 335 C-198.68774405 333.67741528 -199.34711373 332.34013497 -200 331 C-200.53625 329.9275 -201.0725 328.855 -201.625 327.75 C-203.44423866 322.78844001 -204.02572322 318.73044633 -202.16796875 313.78515625 C-200.70362824 310.75227122 -199.39327439 308.39327439 -197 306 C-197.25417189 302.56867943 -199.12301137 300.00115364 -200.96484375 297.171875 C-203.72532123 291.38008075 -204.24641435 285.55537934 -204.1953125 279.21875 C-204.19106766 278.17031921 -204.19106766 278.17031921 -204.18673706 277.10070801 C-204.1756727 274.90028684 -204.15059606 272.70029507 -204.125 270.5 C-204.11495235 268.99479761 -204.10582965 267.48958874 -204.09765625 265.984375 C-204.07577893 262.32278062 -204.04134696 258.66143232 -204 255 C-207.6044089 253.19779555 -211.85627201 255.46414351 -215.55102539 256.61572266 C-222.53213377 258.94353524 -228.15163555 262.55626456 -234 267 C-234.83402344 267.59039062 -235.66804688 268.18078125 -236.52734375 268.7890625 C-242.53960959 273.17071381 -246.61687706 278.06015965 -250.453125 284.40234375 C-254.66739437 291.24498639 -254.66739437 291.24498639 -258.6875 292.5625 C-262.03412949 293.60027482 -262.03412949 293.60027482 -262.93359375 295.8046875 C-263.39369188 297.22397326 -263.84168525 298.64724152 -264.27734375 300.07421875 C-265.42864256 303.14227451 -267.26224969 304.29651092 -270 306 C-271.175625 306.495 -272.35125 306.99 -273.5625 307.5 C-285.17672728 313.15371819 -292.70877943 325.22241722 -299 336 C-299.5259375 336.87140625 -300.051875 337.7428125 -300.59375 338.640625 C-304.00707644 344.47503182 -306.41853764 350.09412889 -306 357 C-297.7945218 360.92435914 -289.98593233 362.00466996 -280.9375 362.375 C-275.25090667 362.61456823 -270.64599788 363.42369613 -265.6015625 366.16015625 C-264.00619467 367.1548035 -264.00619467 367.1548035 -262 367 C-262 367.66 -262 368.32 -262 369 C-261.34 369 -260.68 369 -260 369 C-259.71125 369.598125 -259.4225 370.19625 -259.125 370.8125 C-257.95257974 373.19327792 -257.95257974 373.19327792 -256 376 C-253.80124391 383.91552192 -255.52804082 390.45148076 -258 398 C-258.40307411 399.37289486 -258.79994435 400.74764396 -259.1875 402.125 C-259.455625 403.07375 -259.72375 404.0225 -260 405 C-251.32529175 413.67470825 -228.33404994 411.24714981 -216.78387451 411.35247803 C-215.27569922 411.3673506 -213.76757165 411.38858824 -212.25958252 411.41656494 C-203.45355577 411.56469459 -195.96956992 411.19977934 -188 407 C-187.25371338 406.63285889 -186.50742676 406.26571777 -185.73852539 405.88745117 C-183.81866495 404.93904485 -181.90852964 403.97100631 -180 403 C-171.83751124 400.27917041 -161.25928561 401.02713756 -153.52734375 404.66796875 C-152.69332031 405.10753906 -151.85929688 405.54710937 -151 406 C-136.49960179 413.49519957 -123.28082487 419.63161567 -106.70703125 419.89453125 C-103 420 -103 420 -100.19091797 420.49389648 C-94.926622 421.3288533 -89.65506092 421.22473492 -84.33422852 421.24023438 C-82.33532739 421.24988974 -80.33656798 421.28107117 -78.33789062 421.3125 C-67.49220717 421.35581776 -58.83533765 419.32754857 -49 415 C-39.38182343 412.39320448 -25.41503408 412.14110016 -16.421875 416.58984375 C-15.62265625 417.05519531 -14.8234375 417.52054688 -14 418 C-12.87078125 418.64066406 -11.7415625 419.28132812 -10.578125 419.94140625 C-8.72730749 420.99824418 -6.8797441 422.05973377 -5.03857422 423.13330078 C8.99584196 431.28765447 25.65536918 433.37855502 41.5 429.8125 C49.16527853 427.57285072 55.79266647 424.18370857 61 418 C61.33 417.01 61.66 416.02 62 415 C62.66 415 63.32 415 64 415 C64 414.34 64 413.68 64 413 C64.66 413 65.32 413 66 413 C66 412.34 66 411.68 66 411 C66.66 410.7525 67.32 410.505 68 410.25 C70.35394005 409.26919165 72.45786599 408.21205257 74.6875 407 C84.91965492 401.91239792 97.36207606 401.90635054 108.49194336 403.5 C114.00392241 404.20752138 119.50895276 404.1623018 125.05859375 404.16796875 C126.20231949 404.17129715 127.34604523 404.17462555 128.52442932 404.17805481 C130.93400676 404.18309875 133.34359112 404.18546392 135.75317383 404.18530273 C139.42215549 404.18749085 143.09083699 404.20567836 146.75976562 404.22460938 C149.10937398 404.22754357 151.45898375 404.22952819 153.80859375 404.23046875 C154.89635605 404.23765427 155.98411835 404.24483978 157.10484314 404.25224304 C163.38533836 404.23356647 168.92226249 403.60249666 175 402 C174.96519531 401.03320312 174.93039062 400.06640625 174.89453125 399.0703125 C174.67036892 388.2891718 175.56274989 379.87896566 182 371 C182 370.34 182 369.68 182 369 C182.66 369 183.32 369 184 369 C184 368.34 184 367.68 184 367 C192.12816553 363.47779494 200.13721725 361.78269752 208.875 360.625 C216.97265745 359.53053987 223.68018213 357.74646084 231 354 C231.7425 353.68160156 232.485 353.36320312 233.25 353.03515625 C235.34646618 352.05315429 235.34646618 352.05315429 236 349 C235.67358777 347.04470703 235.67358777 347.04470703 235.0625 344.875 C233.02736908 335.41925568 233.0863154 325.15085952 235.3125 315.75 C235.92183 313.25636701 235.92183 313.25636701 236 311 C234.0405988 307.8735887 234.0405988 307.8735887 231 306 C230.45085938 305.47019531 229.90171875 304.94039063 229.3359375 304.39453125 C225.93962773 302.36696839 222.58926995 302.68417955 218.75 302.6875 C212.37407325 302.53110171 208.21406734 301.98849306 203.4453125 297.375 C201.93356801 295.74186552 201.93356801 295.74186552 199 295 C198.81824219 296.15757812 198.63648438 297.31515625 198.44921875 298.5078125 C198.19582267 300.04695908 197.94188781 301.58601702 197.6875 303.125 C197.56955078 303.88554687 197.45160156 304.64609375 197.33007812 305.4296875 C196.54128974 310.1219671 195.29283067 313.77399838 193 318 C193 318.66 193 319.32 193 320 C189.12176115 322.56830179 184.98788483 322.40321226 180.5 322.4375 C179.74074219 322.47037109 178.98148438 322.50324219 178.19921875 322.53710938 C174.22925228 322.57534898 172.6044744 322.55639121 169.59375 319.78515625 C166.59741953 314.54892188 165.69925403 310.36565352 165.734375 304.35546875 C165.73246155 303.62685135 165.7305481 302.89823395 165.72857666 302.14753723 C165.72722004 300.61031752 165.73087984 299.07308615 165.73925781 297.53588867 C165.74991858 295.20529859 165.73936916 292.87548744 165.7265625 290.54492188 C165.72788509 289.04426916 165.73044955 287.54361692 165.734375 286.04296875 C165.73032654 285.35623581 165.72627808 284.66950287 165.72210693 283.96195984 C165.76938513 278.98268196 166.72872107 274.77111365 168 270 C167.83242824 266.480993 166.72183854 263.22314077 164.72167969 260.28759766 C160.54062568 257.16070049 154.14485611 258.33903055 149.1875 258.5 C147.92873047 258.5103125 146.66996094 258.520625 145.37304688 258.53125 C138.46770109 258.60348423 138.46770109 258.60348423 131.74609375 260.00170898 C126.90980834 261.29052357 122.37787974 261.3351152 117.39453125 261.37890625 C115.89209114 261.40439796 115.89209114 261.40439796 114.35929871 261.43040466 C111.17709558 261.48327621 107.99490357 261.52372251 104.8125 261.5625 C101.61944918 261.60650394 98.42649596 261.65323406 95.23356628 261.70530701 C93.25147384 261.73713489 91.26929526 261.76406457 89.2870636 261.78553772 C87.93997566 261.80577248 87.93997566 261.80577248 86.56567383 261.82641602 C85.77848465 261.83592789 84.99129547 261.84543976 84.18025208 261.85523987 C82.04703582 261.9199994 82.04703582 261.9199994 80.24760628 262.50111103 C77.40649125 263.13173792 74.76955489 263.12598205 71.85804749 263.12698364 C70.59765152 263.12980347 69.33725555 263.13262329 68.03866577 263.13552856 C66.644348 263.13358431 65.25003037 263.13153614 63.85571289 263.12939453 C62.38542131 263.13074976 60.91513007 263.13253038 59.44483948 263.13470459 C55.45312393 263.13926485 51.46143422 263.13749502 47.46971822 263.1343255 C43.29202152 263.13179418 39.11432703 263.13414165 34.93663025 263.13571167 C27.9197449 263.1375313 20.90287008 263.13513266 13.88598633 263.13037109 C5.77555817 263.12493099 -2.33484484 263.12669013 -10.44527239 263.1321975 C-17.40928231 263.13673701 -24.37328467 263.137375 -31.33729559 263.13475883 C-35.49627536 263.13320041 -39.65524332 263.13299037 -43.81422234 263.13629532 C-47.72529971 263.13918611 -51.63634471 263.13717607 -55.54741859 263.13140106 C-56.98210979 263.13007987 -58.41680372 263.13045672 -59.85149384 263.13266373 C-61.81134951 263.1354004 -63.77121114 263.13135854 -65.73106384 263.12698364 C-66.82741118 263.12660662 -67.92375853 263.12622959 -69.05332851 263.12584114 C-71.82098966 263.00764485 -74.29978775 262.58525162 -77 262 C-79.41230299 261.87662585 -81.82716036 261.79941209 -84.2421875 261.75390625 C-85.65234994 261.72096723 -87.06250604 261.68775559 -88.47265625 261.65429688 C-90.67329583 261.60698974 -92.87390979 261.56251948 -95.07470703 261.52319336 C-97.2141275 261.48316611 -99.35304922 261.43170652 -101.4921875 261.37890625 C-102.76433105 261.3538501 -104.03647461 261.32879395 -105.34716797 261.30297852 C-109.13010035 260.98920903 -112.38105236 260.11350139 -116 259 C-118.26535561 258.7705969 -120.53793412 258.60398015 -122.8125 258.5 C-129.72107293 258.08152109 -136.29775322 257.29325059 -142.8515625 255.00390625 C-146.19559236 253.9376337 -149.40280911 253.37102727 -152.875 252.875 C-154.89625 252.58625 -156.9175 252.2975 -159 252 Z " fill="#FBFAF1" transform="translate(429,109)"/>
<path d="M0 0 C0.74886475 0.00523682 1.49772949 0.01047363 2.26928711 0.01586914 C3.07817383 0.0190918 3.88706055 0.02231445 4.72045898 0.02563477 C5.5705957 0.03401367 6.42073242 0.04239258 7.29663086 0.05102539 C8.15063477 0.05553711 9.00463867 0.06004883 9.88452148 0.06469727 C12.00108749 0.07652166 14.11761771 0.0944577 16.23413086 0.11352539 C16.23413086 0.77352539 16.23413086 1.43352539 16.23413086 2.11352539 C16.85288086 1.90727539 17.47163086 1.70102539 18.10913086 1.48852539 C19.16100586 1.30290039 19.16100586 1.30290039 20.23413086 1.11352539 C20.89413086 1.77352539 21.55413086 2.43352539 22.23413086 3.11352539 C12.66413086 3.11352539 3.09413086 3.11352539 -6.76586914 3.11352539 C-5.44586914 2.45352539 -4.12586914 1.79352539 -2.76586914 1.11352539 C-1.76586914 0.11352539 -1.76586914 0.11352539 0 0 Z " fill="#D4DFEF" transform="translate(518.765869140625,465.886474609375)"/>
<path d="M0 0 C2.3329866 0.04022391 4.66706666 0.04320247 7 0 C3.20143621 2.49931612 -0.67980838 2.2973378 -5.0625 2.25 C-5.78244141 2.25773438 -6.50238281 2.26546875 -7.24414062 2.2734375 C-11.02934363 2.25937918 -12.77860465 2.1475969 -16 0 C-11.17247654 -1.24581251 -4.59543291 -2.29771645 0 0 Z " fill="#5E6CF1" transform="translate(249,683)"/>
<path d="M0 0 C0.99 0 1.98 0 3 0 C3 0.66 3 1.32 3 2 C2.34 2 1.68 2 1 2 C1 2.66 1 3.32 1 4 C-0.65 4.33 -2.3 4.66 -4 5 C-4 5.66 -4 6.32 -4 7 C-6 9 -6 9 -8.625 9.125 C-9.40875 9.08375 -10.1925 9.0425 -11 9 C-8.63202009 6.38275905 -6.10399646 4.67138271 -3 3 C-2.34 3 -1.68 3 -1 3 C-0.67 2.01 -0.34 1.02 0 0 Z " fill="#CDD2F1" transform="translate(486,529)"/>
<path d="M0 0 C-4.95 0 -9.9 0 -15 0 C-15 -0.66 -15 -1.32 -15 -2 C-13.25285767 -2.25002209 -11.50200859 -2.47423194 -9.75 -2.6875 C-8.77546875 -2.81511719 -7.8009375 -2.94273437 -6.796875 -3.07421875 C-4 -3 -4 -3 0 0 Z " fill="#CBD1E4" transform="translate(380,243)"/>
<path d="M0 0 C0.66 0 1.32 0 2 0 C2 0.66 2 1.32 2 2 C7.94 3.485 7.94 3.485 14 5 C13.67 5.66 13.34 6.32 13 7 C9.33827525 6.37321829 6.1181005 5.35548154 2.6875 3.9375 C1.36298828 3.39416016 1.36298828 3.39416016 0.01171875 2.83984375 C-0.65214844 2.56269531 -1.31601562 2.28554688 -2 2 C-1.34 1.34 -0.68 0.68 0 0 Z " fill="#BFC8EC" transform="translate(408,577)"/>
<path d="M0 0 C0.6875 1.6875 0.6875 1.6875 1 4 C0.04060332 5.69036558 -0.96642853 7.35394174 -2 9 C-2.72166191 11.31691454 -3.40059529 13.64848923 -4 16 C-4.66 15.67 -5.32 15.34 -6 15 C-5.19093245 12.68624595 -4.37793083 10.37401052 -3.5625 8.0625 C-3.33240234 7.40314453 -3.10230469 6.74378906 -2.86523438 6.06445312 C-1.11328125 1.11328125 -1.11328125 1.11328125 0 0 Z " fill="#B8DDE2" transform="translate(358,128)"/>
<path d="M0 0 C0.66 0.33 1.32 0.66 2 1 C1.55966813 6.19591612 1.11696661 9.66335081 -2 14 C-2.85712696 11.60004452 -3.22584094 10.48394488 -2.125 8.125 C-1.75375 7.42375 -1.3825 6.7225 -1 6 C-0.61709538 4.00889599 -0.27395385 2.00899487 0 0 Z " fill="#A6A6ED" transform="translate(602,443)"/>
<path d="M0 0 C0.66 0.33 1.32 0.66 2 1 C-3.0940919 7.70459519 -3.0940919 7.70459519 -6.875 8.9375 C-7.57625 8.958125 -8.2775 8.97875 -9 9 C-6.21000549 5.51250686 -3.74764169 2.49842779 0 0 Z " fill="#DCEFFA" transform="translate(174,340)"/>
<path d="M0 0 C0 3.99904969 -1.72586967 5.80200422 -4 9 C-5.32 8.67 -6.64 8.34 -8 8 C-5.36 5.36 -2.72 2.72 0 0 Z " fill="#C2C9EA" transform="translate(370,113)"/>
<path d="M0 0 C0.66 0 1.32 0 2 0 C2 0.66 2 1.32 2 2 C2.804375 2.226875 3.60875 2.45375 4.4375 2.6875 C5.283125 3.120625 6.12875 3.55375 7 4 C7.8125 6.625 7.8125 6.625 8 9 C3.33845958 7.50164772 2.13389249 4.11536409 0 0 Z " fill="#C7C6EC" transform="translate(126,540)"/>
<path d="M0 0 C0.66 0 1.32 0 2 0 C2 3.63 2 7.26 2 11 C1.34 10.67 0.68 10.34 0 10 C-0.44921875 7.96875 -0.44921875 7.96875 -0.6875 5.5 C-0.77386719 4.6853125 -0.86023438 3.870625 -0.94921875 3.03125 C-0.96597656 2.3609375 -0.98273438 1.690625 -1 1 C-0.67 0.67 -0.34 0.34 0 0 Z " fill="#96BDF8" transform="translate(448,588)"/>
<path d="M0 0 C-3.42346555 3.14958831 -6.44262737 3.56179109 -11 4 C-11 3.34 -11 2.68 -11 2 C-3.57142857 -1.57142857 -3.57142857 -1.57142857 0 0 Z " fill="#E2F4F8" transform="translate(342,167)"/>
<path d="M0 0 C0.66 0.33 1.32 0.66 2 1 C0 4 0 4 -3 5 C-4.68538601 6.99665314 -4.68538601 6.99665314 -6 9 C-6.66 8.67 -7.32 8.34 -8 8 C-5.58443874 4.80800833 -3.31996462 2.25283313 0 0 Z " fill="#BED5FE" transform="translate(224,627)"/>
<path d="M0 0 C1.9375 0.8125 1.9375 0.8125 4 2 C4.33 2.99 4.66 3.98 5 5 C5.66 5.33 6.32 5.66 7 6 C7 6.99 7 7.98 7 9 C6.34 9 5.68 9 5 9 C3.7109375 7.28515625 3.7109375 7.28515625 2.375 5.0625 C1.92898437 4.33160156 1.48296875 3.60070312 1.0234375 2.84765625 C0 1 0 1 0 0 Z " fill="#B3D1FA" transform="translate(227,405)"/>
<path d="M0 0 C6.75 0.75 6.75 0.75 9 3 C7.3125 3.6875 7.3125 3.6875 5 4 C2.25 2.625 2.25 2.625 0 1 C0 0.67 0 0.34 0 0 Z " fill="#A2AFDD" transform="translate(223,678)"/>
<path d="M0 0 C2.97 0.99 5.94 1.98 9 3 C8.67 3.66 8.34 4.32 8 5 C5.07120629 4.37240135 2.63904371 3.41377341 0 2 C0 1.34 0 0.68 0 0 Z " fill="#E1EEED" transform="translate(291,521)"/>
<path d="M0 0 C3.0831351 1.19899698 6.06279492 2.47700477 9 4 C9 4.66 9 5.32 9 6 C5.59687262 4.94124926 2.98646769 3.99097846 0 2 C0 1.34 0 0.68 0 0 Z " fill="#DCEEF6" transform="translate(98,498)"/>
<path d="M0 0 C0.33 0.66 0.66 1.32 1 2 C-0.30406884 4.01920337 -1.63823419 6.01924973 -3 8 C-3.33 8 -3.66 8 -4 8 C-4 6.35 -4 4.7 -4 3 C-3.34 3 -2.68 3 -2 3 C-2 2.34 -2 1.68 -2 1 C-1.34 0.67 -0.68 0.34 0 0 Z " fill="#BECDF0" transform="translate(639,193)"/>
<path d="M0 0 C0.33 0.66 0.66 1.32 1 2 C-1.46153846 5.81538462 -1.46153846 5.81538462 -4.1875 6.75 C-4.785625 6.8325 -5.38375 6.915 -6 7 C-6 6.34 -6 5.68 -6 5 C-5.34 5 -4.68 5 -4 5 C-4 4.34 -4 3.68 -4 3 C-3.34 3 -2.68 3 -2 3 C-2 2.34 -2 1.68 -2 1 C-1.34 0.67 -0.68 0.34 0 0 Z " fill="#DFE2F2" transform="translate(497,519)"/>
<path d="M0 0 C6.64615385 1.47692308 6.64615385 1.47692308 8.4375 4.125 C8.7159375 5.053125 8.7159375 5.053125 9 6 C5.88802644 4.50164236 2.91164984 2.86022073 0 1 C0 0.67 0 0.34 0 0 Z " fill="#B7C4ED" transform="translate(558,168)"/>
<path d="M0 0 C0.99 0.495 0.99 0.495 2 1 C2 1.66 2 2.32 2 3 C2.66 3.33 3.32 3.66 4 4 C4.33 4.99 4.66 5.98 5 7 C4.01 8.485 4.01 8.485 3 10 C2.01 6.7 1.02 3.4 0 0 Z " fill="#9EA6EE" transform="translate(452,616)"/>
<path d="M0 0 C1.98 0 3.96 0 6 0 C6.33 0.99 6.66 1.98 7 3 C4.69 3 2.38 3 0 3 C0 2.01 0 1.02 0 0 Z " fill="#8FB5FC" transform="translate(371,461)"/>
<path d="M0 0 C-3.6441774 2.4294516 -5.71241272 2.16179575 -10 2 C-6.19832777 -0.53444815 -4.31588991 -1.33941411 0 0 Z " fill="#DAD4ED" transform="translate(550,185)"/>
<path d="M0 0 C0 0.66 0 1.32 0 2 C-0.99 2 -1.98 2 -3 2 C-3 2.66 -3 3.32 -3 4 C-4.65 4 -6.3 4 -8 4 C-8 3.34 -8 2.68 -8 2 C-5.09399739 0.74335022 -3.20395416 0 0 0 Z " fill="#E0EBF0" transform="translate(507,107)"/>
</svg>
