<?xml version="1.0" encoding="UTF-8"?>
<svg version="1.1" xmlns="http://www.w3.org/2000/svg" width="765" height="808">
<path d="M0 0 C3.49211843 2.44616992 5.36907635 3.91706786 6.2421875 8.1953125 C7.26926073 11.22472255 7.26926073 11.22472255 9.50390625 11.97265625 C11.21710005 12.43888773 12.93665652 12.88203373 14.66015625 13.30859375 C20.26821777 14.87173903 25.39844692 17.58946588 30.6171875 20.1328125 C31.24963379 20.43880371 31.88208008 20.74479492 32.53369141 21.06005859 C99.06734521 53.33323305 99.06734521 53.33323305 107.6171875 76.1328125 C109.08013005 80.52164016 109.50206945 84.7761839 107.86328125 89.140625 C106.02682101 92.58308772 104.39959505 94.91703865 100.6171875 96.1328125 C100.7409375 97.3909375 100.8646875 98.6490625 100.9921875 99.9453125 C101.06179688 100.65300781 101.13140625 101.36070312 101.203125 102.08984375 C101.54384141 104.43269392 101.54384141 104.43269392 103.6171875 107.1328125 C105.8220254 114.20666743 106.56295569 121.82539746 107.6171875 129.1328125 C107.86978749 130.78385481 108.12239197 132.43489642 108.375 134.0859375 C111.65083926 156.0523925 111.93379665 177.9533312 111.6171875 200.1328125 C111.60461914 201.11266113 111.59205078 202.09250977 111.57910156 203.10205078 C111.28557949 220.37492607 107.72728026 235.10689527 102.20043945 251.39746094 C97.50153298 265.296533 94.96136501 277.41324097 95.6171875 292.1328125 C96.2771875 292.1328125 96.9371875 292.1328125 97.6171875 292.1328125 C97.60365234 290.96105469 97.60365234 290.96105469 97.58984375 289.765625 C97.82111795 280.73587562 99.57704587 272.47581053 101.9296875 263.7578125 C102.22560791 262.65324707 102.52152832 261.54868164 102.82641602 260.41064453 C104.60227754 254.04861941 106.71531333 248.06963074 109.6171875 242.1328125 C114.85958815 244.67458251 117.96562172 248.74932495 121.6171875 253.1328125 C122.72024804 254.40460605 123.82433764 255.67550815 124.9296875 256.9453125 C126.68193736 258.96640069 128.12085854 260.88831906 129.6171875 263.1328125 C132.74367463 263.98369576 132.74367463 263.98369576 136.4296875 264.5078125 C152.80729691 267.4304162 169.19535078 275.02752214 179.4296875 288.6328125 C183.55616687 294.88505397 185.21805873 300.74893026 185.6171875 308.1328125 C185.6790625 309.215625 185.6790625 309.215625 185.7421875 310.3203125 C185.93872883 317.19925899 184.79023297 323.97082066 182.92578125 330.5859375 C182.41955981 333.17982148 182.41955981 333.17982148 183.52734375 335.6953125 C187.24730293 347.42851709 186.18785117 363.93110801 181.296875 375.19140625 C170.272744 394.49645425 153.03495534 402.04900369 132.6171875 408.1328125 C130.62701103 408.52050921 128.6293194 408.88293991 126.6171875 409.1328125 C126.53082031 410.01582031 126.44445312 410.89882813 126.35546875 411.80859375 C124.90235655 424.22003834 121.4971514 434.89950925 111.6171875 443.1328125 C90.05945996 456.77896023 61.8212973 456.32237135 37.08764648 456.26318359 C34.45094968 456.25785547 31.81442583 456.26314523 29.17773438 456.26953125 C27.43489536 456.26932822 25.69205612 456.26803069 23.94921875 456.265625 C23.09562775 456.26556458 22.24203674 456.26550415 21.36257935 456.26544189 C16.97317314 456.24082112 12.63450554 456.08853384 8.25927734 455.72558594 C7.39711105 455.65838348 6.53494476 455.59118103 5.64665222 455.52194214 C4.0133979 455.38607765 2.38180303 455.22766549 0.75337219 455.04275513 C-1.75056868 454.7790407 -1.75056868 454.7790407 -5.3828125 455.1328125 C-8.29533286 457.48598262 -8.29533286 457.48598262 -10.3828125 460.1328125 C-11.0428125 460.1328125 -11.7028125 460.1328125 -12.3828125 460.1328125 C-12.3828125 460.7928125 -12.3828125 461.4528125 -12.3828125 462.1328125 C-14.11829419 463.57807986 -15.92257213 464.9415347 -17.7578125 466.2578125 C-18.75554687 466.98226563 -19.75328125 467.70671875 -20.78125 468.453125 C-23.3828125 470.1328125 -23.3828125 470.1328125 -25.3828125 470.1328125 C-22.43656874 486.32517658 -17.60347537 498.80634447 -5.3828125 510.1328125 C-4.856875 510.62910156 -4.3309375 511.12539063 -3.7890625 511.63671875 C0.40341214 515.46501657 4.84844365 518.7613619 9.4921875 522.0078125 C26.3337507 533.85203276 26.3337507 533.85203276 30.6171875 543.1328125 C30.96910156 543.86628906 31.32101562 544.59976563 31.68359375 545.35546875 C34.216216 552.88975502 33.83086637 562.70611118 30.4296875 569.8828125 C28.28980787 573.4572483 26.22753244 575.94981323 22.6171875 578.1328125 C22.03066406 578.48988281 21.44414063 578.84695313 20.83984375 579.21484375 C12.21562055 584.04782427 3.1943757 583.53207701 -6.3828125 582.1328125 C-6.7128125 581.8028125 -7.0428125 581.4728125 -7.3828125 581.1328125 C-8.53394531 581.03871094 -9.68507813 580.94460938 -10.87109375 580.84765625 C-16.03003423 580.24943502 -20.05372094 578.1575223 -24.5703125 575.6953125 C-25.39748779 575.25227783 -26.22466309 574.80924316 -27.0769043 574.3527832 C-34.45862023 570.29351968 -40.94311254 565.55236197 -47.3828125 560.1328125 C-47.93888184 559.69275879 -48.49495117 559.25270508 -49.06787109 558.79931641 C-50.54251517 557.62123916 -51.9671702 556.38117063 -53.3828125 555.1328125 C-53.3828125 554.4728125 -53.3828125 553.8128125 -53.3828125 553.1328125 C-54.0428125 553.1328125 -54.7028125 553.1328125 -55.3828125 553.1328125 C-57.01507641 551.25176487 -58.51952251 549.37372184 -60.0078125 547.3828125 C-60.4522168 546.79226074 -60.89662109 546.20170898 -61.35449219 545.59326172 C-62.70762816 543.78052444 -64.0466729 541.95810148 -65.3828125 540.1328125 C-66.11757813 539.14023437 -66.85234375 538.14765625 -67.609375 537.125 C-78.85744246 521.18661869 -83.31858319 502.28125544 -85.3828125 483.1328125 C-85.93517578 483.03782471 -86.48753906 482.94283691 -87.05664062 482.8449707 C-120.37203168 477.03133836 -120.37203168 477.03133836 -133.20703125 467.82421875 C-137.95579143 464.78779976 -141.12767483 465.13059713 -146.6328125 466.2578125 C-149.76827526 467.03140921 -152.64329958 467.76171147 -155.53125 469.2109375 C-162.8259369 472.84289131 -173.50454817 471.23498019 -181.3828125 471.1328125 C-181.475625 472.8653125 -181.475625 472.8653125 -181.5703125 474.6328125 C-185.24785413 506.72314148 -210.08601758 535.30658112 -234.3515625 554.734375 C-236.3828125 556.1328125 -236.3828125 556.1328125 -238.3828125 556.1328125 C-238.3828125 556.7928125 -238.3828125 557.4528125 -238.3828125 558.1328125 C-254.47071455 569.86816571 -275.1093888 580.58180801 -295.3828125 578.1328125 C-304.38295135 575.83386399 -311.93587612 572.39351267 -317.09765625 564.515625 C-321.6524059 556.60643619 -324.10847792 548.09891777 -321.8515625 538.98828125 C-318.19912036 528.60661146 -310.71127741 520.92609637 -301.00512695 515.90209961 C-298.4178498 514.68890161 -295.8143056 513.52585578 -293.1953125 512.3828125 C-292.30650391 511.98449219 -291.41769531 511.58617187 -290.50195312 511.17578125 C-286.81846972 509.54298245 -283.32726896 508.00973217 -279.3828125 507.1328125 C-279.3828125 506.4728125 -279.3828125 505.8128125 -279.3828125 505.1328125 C-277.74125481 503.9810505 -276.04168853 502.91146789 -274.3203125 501.8828125 C-270.74455973 499.68483045 -267.45350978 497.48996516 -264.3203125 494.6953125 C-261.3828125 492.1328125 -261.3828125 492.1328125 -259.3828125 492.1328125 C-259.3828125 491.4728125 -259.3828125 490.8128125 -259.3828125 490.1328125 C-258.27396639 488.98931495 -257.15743851 487.8526436 -256.01171875 486.74609375 C-250.61198513 481.39815614 -245.73984076 475.98674519 -242.3828125 469.1328125 C-242.3828125 468.4728125 -242.3828125 467.8128125 -242.3828125 467.1328125 C-243.90648437 466.69582031 -243.90648437 466.69582031 -245.4609375 466.25 C-253.3630808 463.9162613 -260.48486255 461.38617633 -267.63671875 457.171875 C-271.28889163 455.78997175 -273.58675646 456.33580506 -277.3828125 457.1328125 C-278.55199219 457.37 -279.72117187 457.6071875 -280.92578125 457.8515625 C-282.12847656 458.109375 -283.33117187 458.3671875 -284.5703125 458.6328125 C-290.20381551 459.80281002 -295.7591852 460.57066935 -301.50390625 460.921875 C-303.69845254 461.08266944 -305.88551386 461.34920708 -308.06347656 461.6628418 C-312.19579827 462.18391213 -316.22084016 462.12067832 -320.37109375 461.86328125 C-321.10778793 461.82307861 -321.84448212 461.78287598 -322.60350037 461.74145508 C-324.96801688 461.60954081 -327.33161365 461.46610408 -329.6953125 461.3203125 C-330.50238647 461.27202301 -331.30946045 461.22373352 -332.14099121 461.17398071 C-337.55647693 460.84898965 -342.96988566 460.49772526 -348.3828125 460.1328125 C-349.4641748 460.06191406 -350.54553711 459.99101563 -351.65966797 459.91796875 C-367.22164191 458.83501228 -380.94393391 455.41822282 -394.3828125 447.1328125 C-394.3828125 446.4728125 -394.3828125 445.8128125 -394.3828125 445.1328125 C-394.96160156 444.88273437 -395.54039062 444.63265625 -396.13671875 444.375 C-405.13562457 439.39821382 -409.03914344 429.48810092 -412.00390625 420.18359375 C-412.53350511 417.31720819 -412.51449285 414.54544338 -412.5078125 411.6328125 C-412.51039063 410.50875 -412.51296875 409.3846875 -412.515625 408.2265625 C-412.40547617 405.6607426 -412.13551912 403.57014823 -411.3828125 401.1328125 C-412.25292969 401.17664063 -413.12304688 401.22046875 -414.01953125 401.265625 C-423.70261533 400.88325002 -433.83160432 394.5739742 -440.64453125 387.92578125 C-447.8730807 380.10026003 -449.26043903 373.70142993 -449.3828125 363.1328125 C-448.11356968 335.8864 -434.14142939 310.63291876 -414.3828125 292.1328125 C-413.3928125 291.8028125 -412.4028125 291.4728125 -411.3828125 291.1328125 C-411.0528125 290.1428125 -410.7228125 289.1528125 -410.3828125 288.1328125 C-402.72524576 282.49965996 -394.82914258 278.96143795 -385.3828125 278.1328125 C-385.36863281 277.47796875 -385.35445313 276.823125 -385.33984375 276.1484375 C-384.50997213 260.26873187 -376.37531163 249.67738457 -365.1953125 239.0078125 C-359.07468232 233.59506902 -352.35586808 229.34247198 -345.3828125 225.1328125 C-344.09890625 224.31296875 -344.09890625 224.31296875 -342.7890625 223.4765625 C-340.29327558 222.08281136 -338.01334393 221.30764889 -335.2578125 220.5703125 C-332.05107901 219.70771094 -330.20062129 219.01135169 -327.3828125 217.1328125 C-320.10584875 214.66139085 -313.00610092 214.94008892 -305.3828125 215.1328125 C-304.81561749 238.16674746 -304.81561749 238.16674746 -306.4453125 248.9453125 C-306.52950439 249.63681396 -306.61369629 250.32831543 -306.70043945 251.04077148 C-307.04296875 252.96484375 -307.04296875 252.96484375 -308.3828125 256.1328125 C-311.80859375 258.0078125 -311.80859375 258.0078125 -315.3828125 259.1328125 C-316.4140625 259.5246875 -317.4453125 259.9165625 -318.5078125 260.3203125 C-321.29587727 261.10824385 -323.5054318 261.30207019 -326.3828125 261.1328125 C-326.3828125 261.7928125 -326.3828125 262.4528125 -326.3828125 263.1328125 C-328.39453125 264.5 -328.39453125 264.5 -331.0703125 266.0078125 C-334.77930832 268.1482231 -338.05641073 270.43011106 -341.3828125 273.1328125 C-342.0428125 273.1328125 -342.7028125 273.1328125 -343.3828125 273.1328125 C-343.7128125 274.1228125 -344.0428125 275.1128125 -344.3828125 276.1328125 C-345.0428125 276.1328125 -345.7028125 276.1328125 -346.3828125 276.1328125 C-346.65351563 276.70128906 -346.92421875 277.26976562 -347.203125 277.85546875 C-349.26227257 281.83057814 -351.8499183 285.44860275 -354.3828125 289.1328125 C-355.0221875 290.1021875 -355.6615625 291.0715625 -356.3203125 292.0703125 C-359.0571826 294.8071826 -361.65181467 295.34356296 -365.3828125 296.1328125 C-365.4446875 296.9990625 -365.5065625 297.8653125 -365.5703125 298.7578125 C-366.55849283 302.86256154 -368.17942301 305.46332126 -371.3828125 308.1328125 C-375.22880051 310.25822693 -379.22270374 311.74610958 -383.3828125 313.1328125 C-383.3828125 313.7928125 -383.3828125 314.4528125 -383.3828125 315.1328125 C-384.0428125 315.1328125 -384.7028125 315.1328125 -385.3828125 315.1328125 C-385.63933594 315.71417969 -385.89585937 316.29554688 -386.16015625 316.89453125 C-387.49428061 319.33687392 -389.00354023 320.95646697 -390.9453125 322.9453125 C-395.65899308 328.10709434 -399.02269942 333.85314276 -402.5 339.875 C-403.72835955 342.0004188 -405.02110856 344.09025659 -406.3828125 346.1328125 C-406.98702742 348.51364103 -407.5218448 350.91256344 -408.0078125 353.3203125 C-408.26820313 354.59261719 -408.52859375 355.86492187 -408.796875 357.17578125 C-409.08691406 358.63951172 -409.08691406 358.63951172 -409.3828125 360.1328125 C-408.50625 360.2771875 -407.6296875 360.4215625 -406.7265625 360.5703125 C-404.70335671 360.91066488 -402.68185699 361.26172386 -400.6640625 361.6328125 C-395.15950828 362.62239528 -389.78288486 363.27432218 -384.1953125 363.5703125 C-377.10302646 364.03217219 -371.17826506 364.78209103 -365.6328125 369.4453125 C-364.8903125 370.3321875 -364.1478125 371.2190625 -363.3828125 372.1328125 C-362.4753125 373.0403125 -361.5678125 373.9478125 -360.6328125 374.8828125 C-356.76699727 380.46676783 -356.9703345 385.72011569 -358.1328125 392.2578125 C-358.83031987 395.33448887 -359.71711299 398.13139644 -361.0078125 401.0078125 C-362.65130491 404.17400168 -362.65130491 404.17400168 -362.3828125 408.1328125 C-356.68756786 409.68134887 -351.19206946 410.64711573 -345.3203125 411.1953125 C-344.46687256 411.27620117 -343.61343262 411.35708984 -342.73413086 411.44042969 C-314.4610843 414.82739095 -314.4610843 414.82739095 -288.2578125 406.0703125 C-281.23286173 402.02469353 -272.83406945 401.51388414 -265.0078125 403.0078125 C-259.35655621 404.53371922 -254.51870575 407.08075307 -249.45922852 409.93139648 C-237.3369715 416.6257314 -224.64403184 420.85968403 -210.765625 421.0625 C-207.3828125 421.1328125 -207.3828125 421.1328125 -204.59667969 421.62011719 C-198.61326644 422.57462705 -192.55582447 422.46904319 -186.5078125 422.5078125 C-185.81228271 422.51270691 -185.11675293 422.51760132 -184.40014648 422.52264404 C-173.52439752 422.55437283 -164.48612674 421.34252677 -154.3828125 417.1328125 C-140.57067572 412.82499231 -128.64118703 413.50938442 -115.74389648 420.2409668 C-113.95212428 421.19636507 -112.16717663 422.16365976 -110.3828125 423.1328125 C-94.05179085 431.8887593 -77.28039836 435.51257781 -59.00390625 430.11328125 C-52.38074995 427.63576675 -47.55188017 424.96950723 -43.3828125 419.1328125 C-42.7228125 419.1328125 -42.0628125 419.1328125 -41.3828125 419.1328125 C-41.3828125 418.4728125 -41.3828125 417.8128125 -41.3828125 417.1328125 C-32.34393374 408.07432662 -21.4221615 404.01714891 -8.7890625 403.99609375 C-7.995 403.99996094 -7.2009375 404.00382812 -6.3828125 404.0078125 C-5.58875 404.00394531 -4.7946875 404.00007813 -3.9765625 403.99609375 C-3.203125 403.99738281 -2.4296875 403.99867188 -1.6328125 404 C-0.93671875 404.00112793 -0.240625 404.00225586 0.4765625 404.00341797 C2.6171875 404.1328125 2.6171875 404.1328125 4.89541626 404.6328125 C7.76140038 405.15930497 10.3934229 405.25984331 13.30615234 405.26220703 C14.42436371 405.26535919 15.54257507 405.26851135 16.69467163 405.27175903 C17.89371124 405.2697348 19.09275085 405.26771057 20.328125 405.265625 C21.56962311 405.26658173 22.81112122 405.26753845 24.09024048 405.26852417 C27.38535316 405.26937805 30.68041851 405.26536156 33.9755249 405.25976562 C35.98727938 405.25781725 37.99899012 405.25975548 40.01074219 405.26318359 C43.88739024 405.26937632 47.76397422 405.26860784 51.640625 405.265625 C52.83561615 405.26764923 54.0306073 405.26967346 55.2618103 405.27175903 C60.81853408 405.25618283 66.14579406 405.13330155 71.6171875 404.1328125 C71.51019531 403.16601562 71.40320313 402.19921875 71.29296875 401.203125 C70.30488833 390.47235919 70.67645809 381.91079381 77.6171875 373.1328125 C84.06528972 365.61002657 91.33449586 363.64409169 100.8671875 362.6328125 C108.85543476 361.64141769 116.12180246 360.17743056 123.6171875 357.1328125 C124.35582031 356.86339844 125.09445312 356.59398437 125.85546875 356.31640625 C127.98658902 355.5404409 127.98658902 355.5404409 130.6171875 354.1328125 C131.8018276 350.5788922 131.35263782 348.79225474 130.6796875 345.1328125 C128.83459373 333.7610101 129.90935996 323.4319215 131.6171875 312.1328125 C130.6271875 311.5140625 129.6371875 310.8953125 128.6171875 310.2578125 C127.6271875 309.5565625 126.6371875 308.8553125 125.6171875 308.1328125 C125.6171875 307.4728125 125.6171875 306.8128125 125.6171875 306.1328125 C124.38742187 306.09542969 123.15765625 306.05804688 121.890625 306.01953125 C120.25778349 305.95384222 118.62497232 305.88739591 116.9921875 305.8203125 C116.18394531 305.79775391 115.37570312 305.77519531 114.54296875 305.75195312 C109.52883625 305.52774395 106.01672014 304.78819385 101.6171875 302.1328125 C101.6171875 301.4728125 101.6171875 300.8128125 101.6171875 300.1328125 C100.9984375 299.8234375 100.3796875 299.5140625 99.7421875 299.1953125 C98.3671875 298.5078125 96.9921875 297.8203125 95.6171875 297.1328125 C95.6378125 298.0815625 95.6584375 299.0303125 95.6796875 300.0078125 C95.6171875 303.1328125 95.6171875 303.1328125 94.6171875 305.1328125 C94.51410757 306.67328486 94.43404374 308.21534344 94.3671875 309.7578125 C93.80294506 316.14022695 91.10080208 320.64919792 86.6171875 325.1328125 C83.80275876 325.35926079 81.11865715 325.45706676 78.3046875 325.4453125 C77.54478516 325.46142578 76.78488281 325.47753906 76.00195312 325.49414062 C71.45089057 325.49809463 68.1062543 325.35495616 64.6171875 322.1328125 C60.669985 315.19295975 61.19332993 307.57699661 61.28100586 299.81469727 C61.30466902 297.57206377 61.30154338 295.33061807 61.29492188 293.08789062 C61.32075439 286.39541301 61.62700169 280.57927342 63.6171875 274.1328125 C64.11789071 270.50638584 64.11789071 270.50638584 63.6171875 267.1328125 C61.72134641 264.81904103 61.72134641 264.81904103 59.6171875 263.1328125 C59.6171875 262.4728125 59.6171875 261.8128125 59.6171875 261.1328125 C55.61494712 261.22703694 51.61321556 261.33327507 47.61157227 261.45019531 C46.25293487 261.48825329 44.89420465 261.52314471 43.53540039 261.5546875 C41.57155831 261.60084464 39.60802787 261.65969747 37.64453125 261.71875 C35.87710571 261.76588135 35.87710571 261.76588135 34.07397461 261.81396484 C30.6021532 262.01588676 30.6021532 262.01588676 27.34301758 263.13500977 C22.50474228 264.43073292 17.96356099 264.46803873 12.9765625 264.51171875 C11.47056488 264.53721046 11.47056488 264.53721046 9.93414307 264.56321716 C6.74522079 264.61609082 3.55630995 264.6565441 0.3671875 264.6953125 C-2.8361536 264.73928275 -6.0393961 264.7859701 -9.24261475 264.83811951 C-11.23134911 264.87000886 -13.22017084 264.8969199 -15.20904541 264.91835022 C-16.10717957 264.93184006 -17.00531372 264.9453299 -17.93066406 264.95922852 C-18.72007385 264.96874039 -19.50948364 264.97825226 -20.32281494 264.98805237 C-22.58204482 265.06091884 -22.58204482 265.06091884 -25.3828125 266.1328125 C-27.39279998 266.2263769 -29.40580486 266.25910615 -31.41796875 266.25979614 C-33.31083618 266.26402588 -33.31083618 266.26402588 -35.24194336 266.26834106 C-36.64306655 266.2663967 -38.0441896 266.26434853 -39.4453125 266.26220703 C-40.91870161 266.26356184 -42.39209039 266.26534222 -43.86547852 266.26751709 C-47.86951526 266.27208198 -51.87352628 266.27030573 -55.87756348 266.267138 C-60.0642097 266.26460955 -64.25085369 266.2669533 -68.4375 266.26852417 C-75.46875403 266.27034444 -82.49999756 266.26794328 -89.53125 266.26318359 C-97.66498658 266.25774125 -105.7986981 266.259504 -113.93243408 266.26501 C-120.91082982 266.26954518 -127.88921801 266.27018969 -134.86761475 266.26757133 C-139.03772391 266.26601079 -143.20782128 266.26580871 -147.37792969 266.26910782 C-151.29801611 266.27199239 -155.21807016 266.27000001 -159.13815308 266.26421356 C-160.57852118 266.26288912 -162.018892 266.26327475 -163.45925903 266.26547623 C-165.42205713 266.26820004 -167.38486116 266.26418214 -169.34765625 266.25979614 C-170.447146 266.25941912 -171.54663574 266.25904209 -172.67944336 266.25865364 C-175.3828125 266.1328125 -175.3828125 266.1328125 -178.3828125 265.1328125 C-180.82362623 265.00342917 -183.24134725 264.9237981 -185.68359375 264.88671875 C-187.15039639 264.85377142 -188.61719312 264.82055993 -190.08398438 264.78710938 C-192.38789697 264.7398006 -194.69178712 264.69537273 -196.99584961 264.65600586 C-199.22535138 264.61606092 -201.45436555 264.56456633 -203.68359375 264.51171875 C-204.36504959 264.5033046 -205.04650543 264.49489044 -205.74861145 264.48622131 C-209.98866033 264.37775457 -213.41610013 263.58803498 -217.3828125 262.1328125 C-219.52315907 261.92118875 -221.67115226 261.77884876 -223.8203125 261.6953125 C-231.59113641 261.24015242 -241.3298812 260.65927815 -248.3828125 257.1328125 C-250.87738379 256.85901809 -253.37173317 256.68732105 -255.875 256.51171875 C-258.42339065 256.12668153 -260.1616789 255.40867296 -262.3828125 254.1328125 C-262.33640625 255.18082031 -262.29 256.22882813 -262.2421875 257.30859375 C-262.20466702 258.68747151 -262.16826714 260.06638008 -262.1328125 261.4453125 C-262.09929687 262.13560547 -262.06578125 262.82589844 -262.03125 263.53710938 C-261.9921875 265.55859375 -261.9921875 265.55859375 -262.3828125 269.1328125 C-263.36701172 269.82310547 -263.36701172 269.82310547 -264.37109375 270.52734375 C-266.55541707 271.90973184 -266.55541707 271.90973184 -266.72509766 274.01586914 C-266.85613873 277.35671577 -266.83243318 280.68488222 -266.78320312 284.02734375 C-266.88344049 291.77510273 -269.31317577 298.07243867 -272.3828125 305.1328125 C-271.18688477 305.22199951 -271.18688477 305.22199951 -269.96679688 305.31298828 C-231.21396423 308.25685903 -192.57940288 312.56000542 -154.01171875 317.32421875 C-140.62858134 318.9707006 -127.30324646 320.28359432 -113.82495117 320.79174805 C-113.03967041 320.82308838 -112.25438965 320.85442871 -111.4453125 320.88671875 C-110.41083984 320.92261108 -110.41083984 320.92261108 -109.35546875 320.95922852 C-107.3828125 321.1328125 -107.3828125 321.1328125 -105.52294922 321.63061523 C-102.69211665 322.29488886 -99.98415236 322.33503268 -97.078125 322.4140625 C-95.85480469 322.45144531 -94.63148438 322.48882812 -93.37109375 322.52734375 C-92.09621094 322.56214844 -90.82132812 322.59695313 -89.5078125 322.6328125 C-86.98947766 322.70198345 -84.47123909 322.77477458 -81.953125 322.8515625 C-80.83695801 322.88185547 -79.72079102 322.91214844 -78.57080078 322.94335938 C-75.3828125 323.1328125 -75.3828125 323.1328125 -72.69142151 323.63656616 C-68.86264133 324.2108311 -65.11759015 324.27280653 -61.25708008 324.26220703 C-60.46432678 324.26395935 -59.67157349 324.26571167 -58.85479736 324.26751709 C-56.24562358 324.2719017 -53.63651818 324.26900815 -51.02734375 324.265625 C-49.20139045 324.26629935 -47.37543724 324.26727047 -45.54948425 324.26852417 C-41.72398015 324.26999684 -37.89849943 324.26786166 -34.07299805 324.26318359 C-29.19563067 324.25750681 -24.31831857 324.26075501 -19.44095325 324.26675606 C-15.66861057 324.27039061 -11.89628071 324.26920951 -8.12393761 324.26662827 C-6.32719605 324.26596593 -4.5304533 324.2667629 -2.73371315 324.26910782 C9.85550875 324.30923949 9.85550875 324.30923949 22.39131165 323.24923706 C24.95782509 323.11499543 27.11494793 323.57912235 29.6171875 324.1328125 C31.94537626 324.22205887 34.27558832 324.26421816 36.60546875 324.2734375 C37.96551151 324.29176795 39.32553801 324.31133849 40.68554688 324.33203125 C42.80521241 324.36091686 44.92382634 324.38281115 47.04370117 324.38330078 C61.20848606 324.40641079 61.20848606 324.40641079 67.41870117 328.77246094 C68.6171875 330.1328125 68.6171875 330.1328125 68.6171875 333.1328125 C69.2771875 333.1328125 69.9371875 333.1328125 70.6171875 333.1328125 C71.91440199 337.02445598 71.74752743 340.02710476 71.6171875 344.1328125 C71.2871875 344.7928125 70.9571875 345.4528125 70.6171875 346.1328125 C69.9571875 346.1328125 69.2971875 346.1328125 68.6171875 346.1328125 C68.5553125 346.7103125 68.4934375 347.2878125 68.4296875 347.8828125 C66.94864183 351.98416975 63.40196269 353.68924392 59.7421875 355.7578125 C53.7431219 358.39740136 48.19056997 359.4268442 41.671875 359.4765625 C40.93897247 359.4911853 40.20606995 359.50580811 39.45095825 359.52087402 C36.34621779 359.58258418 33.24129225 359.62272093 30.13623047 359.66455078 C27.85623979 359.69839551 25.57665594 359.74345746 23.296875 359.7890625 C22.60093231 359.7943396 21.90498962 359.7996167 21.18795776 359.80505371 C18.3789531 359.86234259 16.08056473 359.91149176 13.51979065 361.13458252 C9.22733512 362.61079459 5.10634629 362.41091462 0.59790039 362.39160156 C-0.40756332 362.3951062 -1.41302704 362.39861084 -2.44895935 362.40222168 C-5.76942875 362.41101704 -9.08968471 362.40519705 -12.41015625 362.3984375 C-14.72034242 362.39978488 -17.03052831 362.40172603 -19.3407135 362.40423584 C-24.18184103 362.40718422 -29.02289473 362.40289897 -33.86401367 362.39355469 C-40.06584782 362.38216678 -46.26750873 362.38871734 -52.46933651 362.40069962 C-57.24000856 362.40793132 -62.01063965 362.40562413 -66.78131294 362.40044403 C-69.06783633 362.39911084 -71.35436346 362.40074368 -73.64088249 362.40540314 C-76.83873196 362.4104891 -80.03630215 362.4027285 -83.23413086 362.39160156 C-84.17718079 362.39565002 -85.12023071 362.39969849 -86.09185791 362.40386963 C-90.97087408 362.37246212 -94.77171575 361.89221659 -99.3828125 360.1328125 C-101.52723768 359.82491783 -101.52723768 359.82491783 -103.58056641 359.82983398 C-104.34801178 359.81319199 -105.11545715 359.79654999 -105.90615845 359.77940369 C-106.71571991 359.77098953 -107.52528137 359.76257538 -108.359375 359.75390625 C-109.63087906 359.72841454 -109.63087906 359.72841454 -110.92807007 359.70240784 C-113.62124296 359.64954427 -116.31440307 359.60909952 -119.0078125 359.5703125 C-121.70828643 359.52628303 -124.40864611 359.47952293 -127.10897827 359.42750549 C-128.78501742 359.3957234 -130.46115711 359.36877998 -132.13735962 359.34727478 C-135.71964223 359.28378535 -138.92890019 359.04103221 -142.3828125 358.1328125 C-144.03274381 358.01158679 -145.68611073 357.93293675 -147.33984375 357.88671875 C-148.28794922 357.85384766 -149.23605469 357.82097656 -150.21289062 357.78710938 C-152.18934727 357.72627541 -154.16591496 357.66894093 -156.14257812 357.61523438 C-161.58286826 357.42001746 -166.14507049 356.7121552 -171.3828125 355.1328125 C-174.12836247 354.80029477 -176.87025339 354.67597008 -179.6328125 354.5703125 C-187.02077062 354.25349313 -187.02077062 354.25349313 -190.3828125 353.1328125 C-192.90680891 352.94898386 -195.4181464 352.80714408 -197.9453125 352.6953125 C-208.7073299 352.13611078 -219.74107988 351.54701227 -230.2578125 349.0703125 C-235.07233968 347.99858556 -239.84678075 347.87868879 -244.7578125 347.6953125 C-255.82437388 347.27527548 -267.80856917 346.65756028 -278.3828125 343.1328125 C-280.46435765 342.98091596 -282.54821701 342.85961833 -284.6328125 342.7578125 C-289.91326347 342.39791584 -293.73442289 341.61916043 -298.3828125 339.1328125 C-298.3828125 338.4728125 -298.3828125 337.8128125 -298.3828125 337.1328125 C-299.2490625 337.0709375 -299.2490625 337.0709375 -300.1328125 337.0078125 C-304.39555066 335.35008099 -305.91513815 331.17951224 -307.6953125 327.1953125 C-308.69782905 322.72955694 -308.58983402 319.11880638 -306.16015625 315.12109375 C-305.46599609 314.10595703 -305.46599609 314.10595703 -304.7578125 313.0703125 C-302.89976459 310.28324063 -302.3828125 309.46466349 -302.3828125 306.0078125 C-303.33192653 303.08058743 -303.33192653 303.08058743 -304.8203125 300.2578125 C-308.84387376 292.21068997 -309.01431818 284.4427278 -307.5 275.69921875 C-307.31953125 274.63751465 -307.1390625 273.57581055 -306.953125 272.48193359 C-306.67082031 270.82411865 -306.67082031 270.82411865 -306.3828125 269.1328125 C-304.12041452 255.5850652 -302.01007409 242.14797156 -302.0078125 228.3828125 C-302.0063623 227.46201904 -302.00491211 226.54122559 -302.00341797 225.5925293 C-302.06734027 221.72163883 -302.26075106 218.53657237 -303.39160156 214.79589844 C-305.09049008 208.24659323 -304.62779065 201.4112633 -304.578125 194.6953125 C-304.57438897 193.20459178 -304.57154479 191.71386859 -304.56954956 190.22314453 C-304.56195953 186.32363962 -304.54235154 182.42428669 -304.5201416 178.52484131 C-304.49958272 174.53611303 -304.49052649 170.54735989 -304.48046875 166.55859375 C-304.45910067 158.74993116 -304.42502156 150.94139323 -304.3828125 143.1328125 C-305.63449219 143.16761719 -306.88617188 143.20242187 -308.17578125 143.23828125 C-312.63869092 143.36237864 -314.95750998 142.08016584 -318.3828125 139.1328125 C-321.73491982 135.33375754 -321.95727965 131.52906049 -321.796875 126.63671875 C-321.12401891 122.56784369 -319.35120422 119.93759208 -316.3828125 117.1328125 C-312.26691519 114.41807172 -309.27912772 113.7830757 -304.3828125 114.1328125 C-304.40601563 113.48054688 -304.42921875 112.82828125 -304.453125 112.15625 C-304.55710482 107.12065585 -304.63950994 102.75904225 -302.3828125 98.1328125 C-298.25354277 94.26994727 -294.41560518 94.05356857 -288.9453125 93.8828125 C-282.69325038 93.47800272 -277.97471625 92.07927722 -272.32421875 89.4609375 C-269.32315245 88.10587436 -266.33131217 87.06939204 -263.1953125 86.0703125 C-257.01220434 84.06585391 -251.18330377 81.62243552 -245.4453125 78.5703125 C-242.09377962 76.99714401 -238.7766987 76.03291757 -235.2265625 75.01171875 C-228.36336603 72.89053852 -221.64711405 70.21935964 -215.1328125 67.1953125 C-210.75829489 65.21133054 -206.27553459 63.56865744 -201.7578125 61.9453125 C-201.04077148 61.68306885 -200.32373047 61.4208252 -199.58496094 61.15063477 C-195.17033134 59.58962418 -191.03971137 58.64006001 -186.3828125 58.1328125 C-179.93580319 67.23447271 -174.2385137 77.08564353 -169.3828125 87.1328125 C-172.71895804 89.35690952 -175.52704739 90.05825501 -179.3828125 91.1328125 C-181.33359186 91.8418384 -183.2659102 92.58645469 -185.1953125 93.3515625 C-189.42040879 94.86052546 -193.77429222 95.96306737 -198.09375 97.16796875 C-199.30289063 97.50699219 -200.51203125 97.84601563 -201.7578125 98.1953125 C-202.98242188 98.53691406 -204.20703125 98.87851563 -205.46875 99.23046875 C-208.24845416 99.84301879 -208.24845416 99.84301879 -209.3828125 101.1328125 C-201.12111194 101.31940047 -193.29781361 101.38725213 -185.1796875 99.640625 C-180.66692731 98.8212691 -176.12109653 98.63188238 -171.546875 98.37890625 C-168.73367818 98.16010205 -166.13702334 97.71621677 -163.3828125 97.1328125 C-157.16806645 96.21365678 -153.3297648 96.73524236 -148.1953125 100.5078125 C-147.43863281 101.13429688 -146.68195313 101.76078125 -145.90234375 102.40625 C-135.61136604 109.45836186 -118.18231338 107.0266524 -106.5090332 105.00341797 C-92.25291943 102.17863408 -80.00511116 97.29355912 -67.59765625 89.83203125 C-63.8070274 87.82847894 -60.40195535 86.93136435 -56.17578125 86.38671875 C-54.36285028 86.31317553 -54.36285028 86.31317553 -53.3828125 85.1328125 C-49.64538922 84.89449502 -45.91451289 84.73701862 -42.171875 84.61523438 C-37.72749745 84.42341678 -34.5163737 83.83408528 -30.3828125 82.1328125 C-27.6526297 81.86638621 -24.9923613 81.67242225 -22.2578125 81.5703125 C-16.74218733 81.37604129 -16.74218733 81.37604129 -11.3828125 80.1328125 C-10.04604057 80.01053734 -8.70485069 79.93256458 -7.36328125 79.88671875 C-6.58791016 79.85384766 -5.81253906 79.82097656 -5.01367188 79.78710938 C-3.3966107 79.72635648 -1.77941749 79.66901348 -0.16210938 79.61523438 C0.61712891 79.58107422 1.39636719 79.54691406 2.19921875 79.51171875 C2.90280518 79.4866626 3.6063916 79.46160645 4.33129883 79.43579102 C6.75669022 79.19266423 6.75669022 79.19266423 9.48876953 78.13232422 C15.08632252 76.34393793 20.84832739 76.7218589 26.6796875 76.6953125 C27.92685547 76.66244141 29.17402344 76.62957031 30.45898438 76.59570312 C39.46960636 76.54416031 46.45832622 78.33817311 54.6171875 82.1328125 C47.64422411 76.40125202 40.2212436 71.54657069 32.62109375 66.703125 C29.71447092 64.84999429 26.87209021 62.9321514 24.0546875 60.9453125 C19.45980369 57.83727219 14.47976576 55.52527525 9.50219727 53.10400391 C4.22912923 50.51392177 -0.57220811 47.50443698 -5.3828125 44.1328125 C-11.16445034 40.1907867 -17.60339557 40.4358631 -24.3828125 41.1328125 C-25.3728125 41.7928125 -26.3628125 42.4528125 -27.3828125 43.1328125 C-29.59715224 43.82778317 -31.82925226 44.46704331 -34.0703125 45.0703125 C-38.11394579 46.18335383 -42.05637545 47.31084752 -45.9453125 48.8828125 C-51.63188313 50.95065637 -51.63188313 50.95065637 -54.3828125 50.1328125 C-59.0653822 44.07631516 -62.26722331 36.73144513 -65.72070312 29.93554688 C-67.95579573 25.60743731 -70.2624159 21.90179038 -73.3828125 18.1328125 C-73.3828125 17.4728125 -73.3828125 16.8128125 -73.3828125 16.1328125 C-65.18636941 12.23905754 -56.73293816 9.59357118 -48.07763672 6.90917969 C-46.2120374 6.32864433 -44.34817824 5.74252605 -42.484375 5.15625 C-41.38432129 4.81513184 -40.28426758 4.47401367 -39.15087891 4.12255859 C-36.22463253 3.20226545 -36.22463253 3.20226545 -33.3828125 1.1328125 C-22.70031095 -2.49420785 -10.38279922 -6.16074808 0 0 Z M55.6171875 83.1328125 C55.9471875 84.4528125 56.2771875 85.7728125 56.6171875 87.1328125 C57.6071875 87.1328125 58.5971875 87.1328125 59.6171875 87.1328125 C59.6171875 86.1428125 59.6171875 85.1528125 59.6171875 84.1328125 C58.2971875 83.8028125 56.9771875 83.4728125 55.6171875 83.1328125 Z M58.6171875 105.1328125 C57.70107709 106.38910723 56.80966809 107.66345101 55.9296875 108.9453125 C53.25633301 112.60256502 50.92710033 114.49094095 46.6171875 116.1328125 C46.6171875 116.7928125 46.6171875 117.4528125 46.6171875 118.1328125 C45.99070312 118.19339844 45.36421875 118.25398438 44.71875 118.31640625 C43.90148437 118.40019531 43.08421875 118.48398438 42.2421875 118.5703125 C41.43007813 118.65152344 40.61796875 118.73273438 39.78125 118.81640625 C37.57445945 119.02371364 37.57445945 119.02371364 35.6171875 120.1328125 C34.21730044 120.27183379 32.81190716 120.35803885 31.40625 120.4140625 C30.57351563 120.45144531 29.74078125 120.48882812 28.8828125 120.52734375 C27.57570313 120.57955078 27.57570313 120.57955078 26.2421875 120.6328125 C24.52588635 120.70197687 22.80972665 120.77476725 21.09375 120.8515625 C20.33143066 120.88185547 19.56911133 120.91214844 18.78369141 120.94335938 C16.6431743 121.06960165 16.6431743 121.06960165 14.72499084 121.6270752 C11.21063985 122.47029352 7.61005781 122.4741971 4.01171875 122.6328125 C3.17307785 122.67341797 2.33443695 122.71402344 1.47038269 122.75585938 C-1.20968454 122.8852989 -3.88995585 123.00952235 -6.5703125 123.1328125 C-9.23279198 123.25650268 -11.89518944 123.38143198 -14.55744934 123.50976562 C-16.21135937 123.58939076 -17.86539888 123.66638854 -19.51957703 123.74023438 C-24.16442856 123.96265315 -28.75164708 124.36995484 -33.36976624 124.91213989 C-35.83527699 125.18241221 -38.28681112 125.30665819 -40.765625 125.37890625 C-42.16397583 125.4262793 -42.16397583 125.4262793 -43.59057617 125.47460938 C-44.55326416 125.50619141 -45.51595215 125.53777344 -46.5078125 125.5703125 C-54.45971479 125.86978572 -62.19135 126.47155977 -70.0625 127.66015625 C-74.39372887 128.27671942 -78.72607673 128.59815656 -83.08984375 128.88671875 C-85.40958387 129.00069262 -85.40958387 129.00069262 -87.3828125 130.1328125 C-89.23263304 130.27444651 -91.08699262 130.358869 -92.94140625 130.4140625 C-94.04935547 130.45144531 -95.15730469 130.48882812 -96.29882812 130.52734375 C-97.46091797 130.56214844 -98.62300781 130.59695312 -99.8203125 130.6328125 C-102.11080355 130.70164195 -104.40118149 130.77437886 -106.69140625 130.8515625 C-107.71032959 130.88185547 -108.72925293 130.91214844 -109.77905273 130.94335938 C-112.49569023 131.03346702 -112.49569023 131.03346702 -115.3828125 132.1328125 C-117.8323549 132.34218131 -120.2648876 132.50686514 -122.71875 132.6328125 C-123.43511627 132.67341797 -124.15148254 132.71402344 -124.88955688 132.75585938 C-127.17877781 132.88541383 -129.46823799 133.00967572 -131.7578125 133.1328125 C-134.04023234 133.25613447 -136.32254044 133.38072978 -138.60464478 133.50976562 C-140.02354494 133.58997826 -141.44263264 133.66695889 -142.86190796 133.74023438 C-145.5871172 133.89411663 -148.21742876 134.09898656 -150.89428711 134.64648438 C-154.20774118 135.29402686 -157.42652174 135.33553792 -160.80078125 135.4140625 C-161.4992366 135.43247192 -162.19769196 135.45088135 -162.91731262 135.46984863 C-165.88963278 135.54815782 -168.86215863 135.61647342 -171.8347168 135.68505859 C-174.01102027 135.73673425 -176.18712767 135.79396821 -178.36328125 135.8515625 C-179.66160889 135.88185547 -180.95993652 135.91214844 -182.29760742 135.94335938 C-185.2940083 135.92526374 -185.2940083 135.92526374 -187.3828125 137.1328125 C-190.16660957 137.2657125 -192.9294866 137.34279748 -195.71484375 137.37890625 C-197.41732271 137.41185172 -199.11979655 137.44506324 -200.82226562 137.47851562 C-203.50818261 137.52587807 -206.19407982 137.57029445 -208.88012695 137.60961914 C-211.47108961 137.64943609 -214.06162064 137.70096456 -216.65234375 137.75390625 C-217.45146683 137.7623204 -218.2505899 137.77073456 -219.07392883 137.77940369 C-223.39655626 137.87481668 -226.35315345 138.51139019 -230.3828125 140.1328125 C-233.27068232 140.3650942 -236.07486941 140.50442187 -238.96484375 140.546875 C-239.68716187 140.56451904 -240.40947998 140.58216309 -241.15368652 140.6003418 C-243.83400831 140.66307722 -246.51469209 140.7094924 -249.1953125 140.7578125 C-255.1971875 140.8815625 -261.1990625 141.0053125 -267.3828125 141.1328125 C-267.3828125 153.3428125 -267.3828125 165.5528125 -267.3828125 178.1328125 C-260.84604705 178.42204936 -260.84604705 178.42204936 -254.30883789 178.70092773 C-253.49922607 178.73903564 -252.68961426 178.77714355 -251.85546875 178.81640625 C-251.02281494 178.85306396 -250.19016113 178.88972168 -249.33227539 178.92749023 C-247.3828125 179.1328125 -247.3828125 179.1328125 -246.3828125 180.1328125 C-243.28838211 180.23348471 -240.21622857 180.26895542 -237.12133789 180.26220703 C-236.14904739 180.26395935 -235.1767569 180.26571167 -234.17500305 180.26751709 C-230.94347375 180.27193792 -227.71199866 180.26899658 -224.48046875 180.265625 C-222.2446644 180.26629803 -220.00886013 180.26726804 -217.77305603 180.26852417 C-213.07957261 180.2700015 -208.38610817 180.26784566 -203.69262695 180.26318359 C-197.66520454 180.25748958 -191.63782669 180.26076303 -185.61040592 180.26675606 C-180.99087689 180.27036352 -176.37135849 180.26922217 -171.75182915 180.26662827 C-169.52898592 180.26595934 -167.30614175 180.26678622 -165.08329964 180.26910782 C-161.98006753 180.271637 -158.8769083 180.26778979 -155.77368164 180.26220703 C-154.38421326 180.26524338 -154.38421326 180.26524338 -152.9666748 180.26834106 C-152.12395523 180.26552124 -151.28123566 180.26270142 -150.41297913 180.25979614 C-149.31154115 180.2592306 -149.31154115 180.2592306 -148.18785191 180.25865364 C-146.28076941 180.24175984 -146.28076941 180.24175984 -144.3828125 179.1328125 C-141.9743391 179.00055852 -139.58989325 178.92303898 -137.1796875 178.88671875 C-135.70962984 178.85376362 -134.2395779 178.82055227 -132.76953125 178.78710938 C-130.45463222 178.73983154 -128.13975358 178.69543071 -125.82470703 178.65600586 C-123.58861477 178.61605001 -121.35300764 178.56454782 -119.1171875 178.51171875 C-118.4325946 178.5033046 -117.74800171 178.49489044 -117.04266357 178.48622131 C-113.93677901 178.40716043 -111.35184692 178.12244338 -108.39648438 177.1328125 C-104.71808526 175.91224196 -101.26298382 175.79956155 -97.4296875 175.75390625 C-96.31753876 175.72841454 -96.31753876 175.72841454 -95.18292236 175.70240784 C-92.83297044 175.64962202 -90.48303358 175.60911332 -88.1328125 175.5703125 C-85.76839376 175.52634008 -83.40410841 175.4796751 -81.03985596 175.42750549 C-79.57312128 175.3956143 -78.10626809 175.3687037 -76.63934326 175.34727478 C-72.88562375 175.32489531 -72.88562375 175.32489531 -69.3828125 174.1328125 C-67.01029717 173.98933745 -64.634034 173.90620164 -62.2578125 173.8515625 C-61.5551123 173.83315308 -60.85241211 173.81474365 -60.12841797 173.79577637 C-57.1176688 173.71704758 -54.10669327 173.64934863 -51.09570312 173.58056641 C-48.89962705 173.52884378 -46.70374287 173.47159175 -44.5078125 173.4140625 C-43.19039062 173.38376953 -41.87296875 173.35347656 -40.515625 173.32226562 C-37.47867938 173.34424898 -37.47867938 173.34424898 -35.3828125 172.1328125 C-32.74050041 171.98626918 -30.1210977 171.89774085 -27.4765625 171.8515625 C-26.66018311 171.83351563 -25.84380371 171.81546875 -25.00268555 171.796875 C-23.22717674 171.75822991 -21.45161903 171.72178439 -19.67602539 171.68725586 C-16.86919033 171.63254699 -14.06253804 171.57195344 -11.25585938 171.50976562 C-4.28496868 171.3565495 2.68612666 171.21363097 9.65722656 171.0703125 C15.54559117 170.94886379 21.43384953 170.82357995 27.32202148 170.69311523 C30.09287118 170.6333371 32.86379594 170.57927542 35.63476562 170.52539062 C37.32682905 170.48856177 39.01888671 170.45146696 40.7109375 170.4140625 C41.48606689 170.40052734 42.26119629 170.38699219 43.05981445 170.37304688 C46.96733121 170.35178583 46.96733121 170.35178583 50.6171875 169.1328125 C53.16333759 168.90108423 55.69114975 168.71386721 58.2421875 168.5703125 C58.94859375 168.52712891 59.655 168.48394531 60.3828125 168.43945312 C62.12737287 168.33336499 63.87225447 168.23258361 65.6171875 168.1328125 C65.50549861 163.73653812 65.37532247 159.34098555 65.2421875 154.9453125 C65.19578125 153.10549805 65.19578125 153.10549805 65.1484375 151.22851562 C64.92151794 144.06163938 64.29559458 137.14424587 63.10742188 130.07299805 C62.44612164 126.1068433 61.99068718 122.12884435 61.5546875 118.1328125 C61.07450769 113.75960463 60.56656815 109.43443101 59.6171875 105.1328125 C59.2871875 105.1328125 58.9571875 105.1328125 58.6171875 105.1328125 Z " fill="#301D1A" transform="translate(532.3828125,106.8671875)"/>
<path d="M0 0 C0.56719501 23.03393496 0.56719501 23.03393496 -1.0625 33.8125 C-1.14669189 34.50400146 -1.23088379 35.19550293 -1.31762695 35.90795898 C-1.66015625 37.83203125 -1.66015625 37.83203125 -3 41 C-6.42578125 42.875 -6.42578125 42.875 -10 44 C-11.546875 44.5878125 -11.546875 44.5878125 -13.125 45.1875 C-15.91306477 45.97543135 -18.1226193 46.16925769 -21 46 C-21 46.66 -21 47.32 -21 48 C-23.01171875 49.3671875 -23.01171875 49.3671875 -25.6875 50.875 C-29.39649582 53.0154106 -32.67359823 55.29729856 -36 58 C-36.66 58 -37.32 58 -38 58 C-38.33 58.99 -38.66 59.98 -39 61 C-39.66 61 -40.32 61 -41 61 C-41.27070313 61.56847656 -41.54140625 62.13695312 -41.8203125 62.72265625 C-43.87946007 66.69776564 -46.4671058 70.31579025 -49 74 C-49.9590625 75.4540625 -49.9590625 75.4540625 -50.9375 76.9375 C-53.6743701 79.6743701 -56.26900217 80.21075046 -60 81 C-60.061875 81.86625 -60.12375 82.7325 -60.1875 83.625 C-61.17568033 87.72974904 -62.79661051 90.33050876 -66 93 C-69.84598801 95.12541443 -73.83989124 96.61329708 -78 98 C-78 98.66 -78 99.32 -78 100 C-78.66 100 -79.32 100 -80 100 C-80.25652344 100.58136719 -80.51304687 101.16273438 -80.77734375 101.76171875 C-82.11146811 104.20406142 -83.62072773 105.82365447 -85.5625 107.8125 C-90.27618058 112.97428184 -93.63988692 118.72033026 -97.1171875 124.7421875 C-98.34554705 126.8676063 -99.63829606 128.95744409 -101 131 C-101.60421492 133.38082853 -102.1390323 135.77975094 -102.625 138.1875 C-102.88539062 139.45980469 -103.14578125 140.73210937 -103.4140625 142.04296875 C-103.60742188 143.01878906 -103.80078125 143.99460937 -104 145 C-103.1234375 145.144375 -102.246875 145.28875 -101.34375 145.4375 C-99.32054421 145.77785238 -97.29904449 146.12891136 -95.28125 146.5 C-89.77669578 147.48958278 -84.40007236 148.14150968 -78.8125 148.4375 C-71.72021396 148.89935969 -65.79545256 149.64927853 -60.25 154.3125 C-59.5075 155.199375 -58.765 156.08625 -58 157 C-57.0925 157.9075 -56.185 158.815 -55.25 159.75 C-51.38418477 165.33395533 -51.587522 170.58730319 -52.75 177.125 C-53.44750737 180.20167637 -54.33430049 182.99858394 -55.625 185.875 C-57.26849241 189.04118918 -57.26849241 189.04118918 -57 193 C-51.30475536 194.54853637 -45.80925696 195.51430323 -39.9375 196.0625 C-39.08406006 196.14338867 -38.23062012 196.22427734 -37.35131836 196.30761719 C-9.0782718 199.69457845 -9.0782718 199.69457845 17.125 190.9375 C24.14995077 186.89188103 32.54874305 186.38107164 40.375 187.875 C46.02625629 189.40090672 50.86410675 191.94794057 55.92358398 194.79858398 C68.045841 201.4929189 80.73878066 205.72687153 94.6171875 205.9296875 C98 206 98 206 100.78613281 206.48730469 C106.76954606 207.44181455 112.82698803 207.33623069 118.875 207.375 C119.57052979 207.37989441 120.26605957 207.38478882 120.98266602 207.38983154 C131.85841498 207.42156033 140.89668576 206.20971427 151 202 C164.81213678 197.69217981 176.74162547 198.37657192 189.63891602 205.1081543 C191.43068822 206.06355257 193.21563587 207.03084726 195 208 C211.33102165 216.7559468 228.10241414 220.37976531 246.37890625 214.98046875 C253.00206255 212.50295425 257.83093233 209.83669473 262 204 C262.66 204 263.32 204 264 204 C264 203.34 264 202.68 264 202 C273.03887876 192.94151412 283.960651 188.88433641 296.59375 188.86328125 C297.3878125 188.86714844 298.181875 188.87101563 299 188.875 C299.7940625 188.87113281 300.588125 188.86726562 301.40625 188.86328125 C302.1796875 188.86457031 302.953125 188.86585938 303.75 188.8671875 C304.44609375 188.86831543 305.1421875 188.86944336 305.859375 188.87060547 C308 189 308 189 310.27822876 189.5 C313.14421288 190.02649247 315.7762354 190.12703081 318.68896484 190.12939453 C319.80717621 190.13254669 320.92538757 190.13569885 322.07748413 190.13894653 C323.27652374 190.1369223 324.47556335 190.13489807 325.7109375 190.1328125 C326.95243561 190.13376923 328.19393372 190.13472595 329.47305298 190.13571167 C332.76816566 190.13656555 336.06323101 190.13254906 339.3583374 190.12695312 C341.37009188 190.12500475 343.38180262 190.12694298 345.39355469 190.13037109 C349.27020274 190.13656382 353.14678672 190.13579534 357.0234375 190.1328125 C358.21842865 190.13483673 359.4134198 190.13686096 360.6446228 190.13894653 C366.20134658 190.12337033 371.52860656 190.00048905 377 189 C376.89300781 188.03320312 376.78601563 187.06640625 376.67578125 186.0703125 C375.68770083 175.33954669 376.05927059 166.77798131 383 158 C389.44810222 150.47721407 396.71730836 148.51127919 406.25 147.5 C414.23824726 146.50860519 421.50461496 145.04461806 429 142 C429.73863281 141.73058594 430.47726562 141.46117187 431.23828125 141.18359375 C433.36940152 140.4076284 433.36940152 140.4076284 436 139 C437.1846401 135.4460797 436.73545032 133.65944224 436.0625 130 C434.21740623 118.6281976 435.29217246 108.299109 437 97 C435.515 96.071875 435.515 96.071875 434 95.125 C433.01 94.42375 432.02 93.7225 431 93 C431 92.34 431 91.68 431 91 C429.77023437 90.96261719 428.54046875 90.92523438 427.2734375 90.88671875 C425.64059599 90.82102972 424.00778482 90.75458341 422.375 90.6875 C421.56675781 90.66494141 420.75851562 90.64238281 419.92578125 90.61914062 C414.91164875 90.39493145 411.39953264 89.65538135 407 87 C407 86.34 407 85.68 407 85 C406.071875 84.566875 406.071875 84.566875 405.125 84.125 C403 83 403 83 401 81 C401.32613281 80.46632813 401.65226563 79.93265625 401.98828125 79.3828125 C403.25346732 76.40303064 403.16870831 74.11468696 403.1875 70.875 C403.59543765 63.16951098 405.30095673 56.06294687 407.3125 48.625 C407.60858154 47.5201123 407.90466309 46.41522461 408.2097168 45.27685547 C409.98508969 38.91506261 412.09829125 32.93647981 415 27 C420.24240065 29.54177001 423.34843422 33.61651245 427 38 C428.10306054 39.27179355 429.20715014 40.54269565 430.3125 41.8125 C432.06474986 43.83358819 433.50367104 45.75550656 435 48 C438.12648713 48.85088326 438.12648713 48.85088326 441.8125 49.375 C458.19010941 52.2976037 474.57816328 59.89470964 484.8125 73.5 C488.93897937 79.75224147 490.60087123 85.61611776 491 93 C491.061875 94.0828125 491.061875 94.0828125 491.125 95.1875 C491.32154133 102.06644649 490.17304547 108.83800816 488.30859375 115.453125 C487.80237231 118.04700898 487.80237231 118.04700898 488.91015625 120.5625 C492.63011543 132.29570459 491.57066367 148.79829551 486.6796875 160.05859375 C475.6555565 179.36364175 458.41776784 186.91619119 438 193 C436.00982353 193.38769671 434.0121319 193.75012741 432 194 C431.91363281 194.88300781 431.82726562 195.76601563 431.73828125 196.67578125 C430.28516905 209.08722584 426.8799639 219.76669675 417 228 C395.44227246 241.64614773 367.2041098 241.18955885 342.47045898 241.13037109 C339.83376218 241.12504297 337.19723833 241.13033273 334.56054688 241.13671875 C332.81770786 241.13651572 331.07486862 241.13521819 329.33203125 241.1328125 C328.47844025 241.13275208 327.62484924 241.13269165 326.74539185 241.13262939 C322.35598564 241.10800862 318.01731804 240.95572134 313.64208984 240.59277344 C312.77992355 240.52557098 311.91775726 240.45836853 311.02946472 240.38912964 C309.3962104 240.25326515 307.76461553 240.09485299 306.13618469 239.90994263 C303.63224382 239.6462282 303.63224382 239.6462282 300 240 C297.08747964 242.35317012 297.08747964 242.35317012 295 245 C294.34 245 293.68 245 293 245 C293 245.66 293 246.32 293 247 C291.26451831 248.44526736 289.46024037 249.8087222 287.625 251.125 C286.62726563 251.84945312 285.62953125 252.57390625 284.6015625 253.3203125 C282 255 282 255 280 255 C282.94624376 271.19236408 287.77933713 283.67353197 300 295 C300.78890625 295.74443359 300.78890625 295.74443359 301.59375 296.50390625 C305.78622464 300.33220407 310.23125615 303.6285494 314.875 306.875 C331.7165632 318.71922026 331.7165632 318.71922026 336 328 C336.35191406 328.73347656 336.70382812 329.46695312 337.06640625 330.22265625 C339.5990285 337.75694252 339.21367887 347.57329868 335.8125 354.75 C333.67262037 358.3244358 331.61034494 360.81700073 328 363 C327.41347656 363.35707031 326.82695313 363.71414063 326.22265625 364.08203125 C317.59843305 368.91501177 308.5771882 368.39926451 299 367 C298.67 366.67 298.34 366.34 298 366 C296.84886719 365.90589844 295.69773437 365.81179688 294.51171875 365.71484375 C289.35277827 365.11662252 285.32909156 363.0247098 280.8125 360.5625 C279.98532471 360.11946533 279.15814941 359.67643066 278.3059082 359.2199707 C270.92419227 355.16070718 264.43969996 350.41954947 258 345 C257.44393066 344.55994629 256.88786133 344.11989258 256.31494141 343.66650391 C254.84029733 342.48842666 253.4156423 341.24835813 252 340 C252 339.34 252 338.68 252 338 C251.34 338 250.68 338 250 338 C248.36773609 336.11895237 246.86328999 334.24090934 245.375 332.25 C244.9305957 331.65944824 244.48619141 331.06889648 244.02832031 330.46044922 C242.67518434 328.64771194 241.3361396 326.82528898 240 325 C239.26523437 324.00742187 238.53046875 323.01484375 237.7734375 321.9921875 C226.52537004 306.05380619 222.06422931 287.14844294 220 268 C219.44763672 267.90501221 218.89527344 267.81002441 218.32617188 267.7121582 C185.01078082 261.89852586 185.01078082 261.89852586 172.17578125 252.69140625 C167.42702107 249.65498726 164.25513767 249.99778463 158.75 251.125 C155.61453724 251.89859671 152.73951292 252.62889897 149.8515625 254.078125 C142.5568756 257.71007881 131.87826433 256.10216769 124 256 C123.9071875 257.7325 123.9071875 257.7325 123.8125 259.5 C120.13495837 291.59032898 95.29679492 320.17376862 71.03125 339.6015625 C69 341 69 341 67 341 C67 341.66 67 342.32 67 343 C50.91209795 354.73535321 30.2734237 365.44899551 10 363 C0.99986115 360.70105149 -6.55306362 357.26070017 -11.71484375 349.3828125 C-16.2695934 341.47362369 -18.72566542 332.96610527 -16.46875 323.85546875 C-12.81630786 313.47379896 -5.32846491 305.79328387 4.37768555 300.76928711 C6.9649627 299.55608911 9.5685069 298.39304328 12.1875 297.25 C13.07630859 296.85167969 13.96511719 296.45335937 14.88085938 296.04296875 C18.56434278 294.41016995 22.05554354 292.87691967 26 292 C26 291.34 26 290.68 26 290 C27.64155769 288.848238 29.34112397 287.77865539 31.0625 286.75 C34.63825277 284.55201795 37.92930272 282.35715266 41.0625 279.5625 C44 277 44 277 46 277 C46 276.34 46 275.68 46 275 C47.10884611 273.85650245 48.22537399 272.7198311 49.37109375 271.61328125 C54.77082737 266.26534364 59.64297174 260.85393269 63 254 C63 253.34 63 252.68 63 252 C61.47632813 251.56300781 61.47632813 251.56300781 59.921875 251.1171875 C52.0197317 248.7834488 44.89794995 246.25336383 37.74609375 242.0390625 C34.09392087 240.65715925 31.79605604 241.20299256 28 242 C26.83082031 242.2371875 25.66164062 242.474375 24.45703125 242.71875 C23.25433594 242.9765625 22.05164063 243.234375 20.8125 243.5 C15.17899699 244.66999752 9.6236273 245.43785685 3.87890625 245.7890625 C1.68435996 245.94985694 -0.50270136 246.21639458 -2.68066406 246.5300293 C-6.81298577 247.05109963 -10.83802766 246.98786582 -14.98828125 246.73046875 C-15.72497543 246.69026611 -16.46166962 246.65006348 -17.22068787 246.60864258 C-19.58520438 246.47672831 -21.94880115 246.33329158 -24.3125 246.1875 C-25.11957397 246.13921051 -25.92664795 246.09092102 -26.75817871 246.04116821 C-32.17366443 245.71617715 -37.58707316 245.36491276 -43 245 C-44.62204346 244.89365234 -44.62204346 244.89365234 -46.27685547 244.78515625 C-61.83882941 243.70219978 -75.56112141 240.28541032 -89 232 C-89 231.34 -89 230.68 -89 230 C-89.57878906 229.74992188 -90.15757812 229.49984375 -90.75390625 229.2421875 C-99.75281207 224.26540132 -103.65633094 214.35528842 -106.62109375 205.05078125 C-107.15069261 202.18439569 -107.13168035 199.41263088 -107.125 196.5 C-107.12757812 195.3759375 -107.13015625 194.251875 -107.1328125 193.09375 C-107.02266367 190.5279301 -106.75270662 188.43733573 -106 186 C-106.87011719 186.04382813 -107.74023438 186.08765625 -108.63671875 186.1328125 C-118.31980283 185.75043752 -128.44879182 179.4411617 -135.26171875 172.79296875 C-142.4902682 164.96744753 -143.87762653 158.56861743 -144 148 C-142.73075718 120.7535875 -128.75861689 95.50010626 -109 77 C-108.01 76.67 -107.02 76.34 -106 76 C-105.505 74.515 -105.505 74.515 -105 73 C-97.34243326 67.36684746 -89.44633008 63.82862545 -80 63 C-79.98582031 62.34515625 -79.97164063 61.6903125 -79.95703125 61.015625 C-79.12715963 45.13591937 -70.99249913 34.54457207 -59.8125 23.875 C-53.69186982 18.46225652 -46.97305558 14.20965948 -40 10 C-39.1440625 9.4534375 -38.288125 8.906875 -37.40625 8.34375 C-34.91046308 6.94999886 -32.63053143 6.17483639 -29.875 5.4375 C-26.66826651 4.57489844 -24.81780879 3.87853919 -22 2 C-14.72303625 -0.47142165 -7.62328842 -0.19272358 0 0 Z " fill="#FBFAF1" transform="translate(227,322)"/>
<path d="M0 0 C2.62391569 1.99478971 5.13391762 4.07926727 7.640625 6.21875 C9.9414821 7.95582093 11.72553373 8.74024505 14.4375 9.625 C20.97403902 12.19789302 24.68336966 18.61847956 28.64160156 24.13183594 C29.56027368 25.39525777 30.5005617 26.64319667 31.45996094 27.87597656 C39.15557208 37.77889472 49.02305147 51.66316598 47.56640625 64.69921875 C46.78590684 67.86966119 45.80254854 70.26509877 44 73 C43.66838867 73.60593994 43.33677734 74.21187988 42.99511719 74.83618164 C39.96029045 80.21106072 36.74249845 83.12151737 31.4375 86.1875 C30.37088135 86.82292725 30.37088135 86.82292725 29.28271484 87.47119141 C17.69707424 94.23795651 6.07291215 97.48848744 -7 100 C-7.99773437 100.1959375 -8.99546875 100.391875 -10.0234375 100.59375 C-23.2308852 102.39634129 -34.81838146 101.54109157 -46 94 C-46.845625 94.020625 -47.69125 94.04125 -48.5625 94.0625 C-51 94 -51 94 -53.8125 91.8125 C-56 89 -56 89 -55.921875 86.5078125 C-55.72468466 83.95594599 -55.72468466 83.95594599 -57.43359375 82.47265625 C-58.09488281 82.00730469 -58.75617188 81.54195313 -59.4375 81.0625 C-68.30995437 73.85756365 -75.84029095 60.63097197 -78.9375 49.6875 C-79.17590148 35.62181257 -74.609157 20.50698227 -65 10 C-64.48953125 9.41089844 -63.9790625 8.82179688 -63.453125 8.21484375 C-46.21572915 -10.45900175 -21.22189872 -12.66647358 0 0 Z " fill="#CC0001" transform="translate(429,109)"/>
<path d="M0 0 C0 1.65 0 3.3 0 5 C0.66 5 1.32 5 2 5 C2 5.66 2 6.32 2 7 C1.01 7.66 0.02 8.32 -1 9 C-1.6837045 10.32467746 -2.34964186 11.65863633 -3 13 C-4.5 14.75 -4.5 14.75 -6 16 C-6.66 16 -7.32 16 -8 16 C-8 18.97 -8 21.94 -8 25 C-10 22 -10 22 -9.9375 18.8125 C-8.93708857 14.74416017 -7.3900844 12.34174079 -5.078125 8.93359375 C-3.57665391 6.24073799 -3.62350449 4.0119641 -4 1 C-1 0 -1 0 0 0 Z " fill="#202551" transform="translate(234,409)"/>
<path d="M0 0 C7.56634615 -0.37211538 7.56634615 -0.37211538 9.76171875 1.51171875 C10.17035156 2.00285156 10.57898438 2.49398437 11 3 C9.86111328 3.07347656 9.86111328 3.07347656 8.69921875 3.1484375 C7.20841797 3.26058594 7.20841797 3.26058594 5.6875 3.375 C4.20830078 3.47941406 4.20830078 3.47941406 2.69921875 3.5859375 C-0.21528433 3.83865472 -0.21528433 3.83865472 -3 6 C-5.72783078 6.76974834 -8.43187795 7.47520266 -11.1875 8.125 C-11.93708984 8.30675781 -12.68667969 8.48851562 -13.45898438 8.67578125 C-15.30470781 9.12251686 -17.15219132 9.5619694 -19 10 C-19 9.34 -19 8.68 -19 8 C-13.74382191 5.83569137 -8.59000658 4.05756881 -3 3 C-2.01 2.67 -1.02 2.34 0 2 C0 1.34 0 0.68 0 0 Z " fill="#1E257D" transform="translate(508,144)"/>
<path d="M0 0 C0.99 0.66 1.98 1.32 3 2 C4.65583225 2.69313908 6.32110979 3.36474424 8 4 C8 4.99 8 5.98 8 7 C8.66 7.33 9.32 7.66 10 8 C9.01 8.495 9.01 8.495 8 9 C5.6171875 7.78515625 5.6171875 7.78515625 2.875 6.0625 C1.96492187 5.49660156 1.05484375 4.93070313 0.1171875 4.34765625 C-0.58148437 3.90292969 -1.28015625 3.45820313 -2 3 C-1.34 2.01 -0.68 1.02 0 0 Z " fill="#242063" transform="translate(572,174)"/>
<path d="M0 0 C1.32 0.33 2.64 0.66 4 1 C4 1.66 4 2.32 4 3 C5.62626404 4.38232443 7.2925002 5.71937515 9 7 C8.67 7.33 8.34 7.66 8 8 C8.40929986 10.05396726 8.40929986 10.05396726 9 12 C5.74483572 8.83525695 2.67991207 5.67247209 0 2 C0 1.34 0 0.68 0 0 Z " fill="#BAC3EE" transform="translate(467,645)"/>
<path d="M0 0 C0 0.66 0 1.32 0 2 C-4.62 2 -9.24 2 -14 2 C-14.33 2.99 -14.66 3.98 -15 5 C-16.65 4.67 -18.3 4.34 -20 4 C-19 2 -19 2 -16 1 C-13.64925634 0.77359068 -11.29412561 0.59103404 -8.9375 0.4375 C-7.68839844 0.35371094 -6.43929687 0.26992187 -5.15234375 0.18359375 C-3.43671304 0.08367474 -1.71853791 0 0 0 Z " fill="#3B332E" transform="translate(253,200)"/>
<path d="M0 0 C1.65 0.66 3.3 1.32 5 2 C1.89914429 4.06723714 1.27068319 4.24497423 -2.23046875 4.1953125 C-3.03291016 4.18886719 -3.83535156 4.18242187 -4.66210938 4.17578125 C-5.49548828 4.15902344 -6.32886719 4.14226562 -7.1875 4.125 C-8.03248047 4.11597656 -8.87746094 4.10695312 -9.74804688 4.09765625 C-11.83215243 4.07410703 -13.91611217 4.03823647 -16 4 C-16 3.67 -16 3.34 -16 3 C-15.01257813 2.95101562 -14.02515625 2.90203125 -13.0078125 2.8515625 C-11.72648437 2.77679688 -10.44515625 2.70203125 -9.125 2.625 C-7.21074219 2.52058594 -7.21074219 2.52058594 -5.2578125 2.4140625 C-1.91938301 2.32758894 -1.91938301 2.32758894 0 0 Z " fill="#303C50" transform="translate(300,244)"/>
<path d="M0 0 C1.1446875 0.0928125 1.1446875 0.0928125 2.3125 0.1875 C2.3125 0.8475 2.3125 1.5075 2.3125 2.1875 C-2.31515919 4.73271255 -6.5771856 6.0420847 -11.6875 7.1875 C-11.6875 6.1975 -11.6875 5.2075 -11.6875 4.1875 C-10.2953125 4.0328125 -10.2953125 4.0328125 -8.875 3.875 C-5.71178277 3.49414051 -5.71178277 3.49414051 -4.125 1.625 C-2.6875 0.1875 -2.6875 0.1875 0 0 Z " fill="#2C3238" transform="translate(332.6875,200.8125)"/>
<path d="M0 0 C0.33 0 0.66 0 1 0 C1.33 4.95 1.66 9.9 2 15 C1.01 15.33 0.02 15.66 -1 16 C-0.979375 14.7625 -0.95875 13.525 -0.9375 12.25 C-0.92492505 9.86914336 -0.98512403 8.05355351 -1.625 5.75 C-2.14899232 3.30470253 -1.26259247 2.07956407 0 0 Z " fill="#2C3548" transform="translate(640,243)"/>
<path d="M0 0 C-3.01490557 2.00993705 -5.2149927 2.72623341 -8.6875 3.625 C-9.68136719 3.88539063 -10.67523438 4.14578125 -11.69921875 4.4140625 C-12.45847656 4.60742188 -13.21773438 4.80078125 -14 5 C-14 4.34 -14 3.68 -14 3 C-3.71052632 -1.23684211 -3.71052632 -1.23684211 0 0 Z " fill="#25385B" transform="translate(503,149)"/>
<path d="M0 0 C-1.1196986 1.00593243 -2.2459412 2.0045849 -3.375 3 C-4.00148438 3.556875 -4.62796875 4.11375 -5.2734375 4.6875 C-7 6 -7 6 -9 6 C-9.33 4.68 -9.66 3.36 -10 2 C-8.71211992 1.46987262 -7.41953322 0.9511671 -6.125 0.4375 C-5.40570313 0.14746094 -4.68640625 -0.14257812 -3.9453125 -0.44140625 C-2 -1 -2 -1 0 0 Z " fill="#8F9EFC" transform="translate(307,654)"/>
<path d="M0 0 C2.64 0 5.28 0 8 0 C8 0.99 8 1.98 8 3 C4.04 3 0.08 3 -4 3 C-2.68 2.67 -1.36 2.34 0 2 C0 1.34 0 0.68 0 0 Z " fill="#26173C" transform="translate(245,446)"/>
<path d="M0 0 C4.04420651 1.77945087 7.46078487 4.39529673 11 7 C9.68 7.33 8.36 7.66 7 8 C7 7.34 7 6.68 7 6 C6.21625 5.938125 5.4325 5.87625 4.625 5.8125 C3.75875 5.544375 2.8925 5.27625 2 5 C0.6875 2.4375 0.6875 2.4375 0 0 Z " fill="#2D3162" transform="translate(609,154)"/>
<path d="M0 0 C3.10404867 2.06936578 5.47107279 4.26602464 8 7 C8 7.66 8 8.32 8 9 C6.25 8.875 6.25 8.875 4 8 C0 2.77777778 0 2.77777778 0 0 Z " fill="#202073" transform="translate(226,435)"/>
<path d="M0 0 C0.804375 0.4640625 0.804375 0.4640625 1.625 0.9375 C4.3984957 2.17827439 7.00042837 2.5909675 10 3 C10.33 4.32 10.66 5.64 11 7 C9.68 7 8.36 7 7 7 C7 6.34 7 5.68 7 5 C6.21625 4.731875 5.4325 4.46375 4.625 4.1875 C2 3 2 3 0 0 Z " fill="#121397" transform="translate(585,186)"/>
<path d="M0 0 C0.66 0.99 1.32 1.98 2 3 C0.35 5.31 -1.3 7.62 -3 10 C-3.66 9.01 -4.32 8.02 -5 7 C-4.34 5.68 -3.68 4.36 -3 3 C-2.34 3 -1.68 3 -1 3 C-0.67 2.01 -0.34 1.02 0 0 Z " fill="#B4BFED" transform="translate(332,620)"/>
<path d="M0 0 C0.66 0.66 1.32 1.32 2 2 C4.42715206 2.67940467 4.42715206 2.67940467 7.125 3.125 C8.03507812 3.29257812 8.94515625 3.46015625 9.8828125 3.6328125 C10.58148438 3.75398438 11.28015625 3.87515625 12 4 C12 4.33 12 4.66 12 5 C5.79895188 5.27560214 0.06815522 4.22899346 -6 3 C-6 2.67 -6 2.34 -6 2 C-4.02 2 -2.04 2 0 2 C0 1.34 0 0.68 0 0 Z " fill="#273F9A" transform="translate(320,454)"/>
<path d="M0 0 C0 0.99 0 1.98 0 3 C-3.15830185 6.06806466 -5.61999924 7.49942848 -10 8 C-8.33333333 6.33333333 -6.66666667 4.66666667 -5 3 C-4.443125 2.401875 -3.88625 1.80375 -3.3125 1.1875 C-2 0 -2 0 0 0 Z " fill="#E6F2FA" transform="translate(175,341)"/>
<path d="M0 0 C3.3 0 6.6 0 10 0 C10.33 0.66 10.66 1.32 11 2 C7.7 2.33 4.4 2.66 1 3 C0.67 2.01 0.34 1.02 0 0 Z " fill="#142292" transform="translate(311,208)"/>
<path d="M0 0 C0.66 1.32 1.32 2.64 2 4 C0.75 6 0.75 6 -1 8 C-2.32 8 -3.64 8 -5 8 C-3.62845496 5.04590299 -2.01136276 2.55991624 0 0 Z " fill="#E1E6F8" transform="translate(613,476)"/>
<path d="M0 0 C0.66 0.33 1.32 0.66 2 1 C0.375 3.5 0.375 3.5 -2 6 C-5.25 6.3125 -5.25 6.3125 -8 6 C-5.38485683 3.87961365 -2.80362384 1.86908256 0 0 Z " fill="#B2B2E6" transform="translate(261,607)"/>
<path d="M0 0 C5.75 1.75 5.75 1.75 8 4 C6.3125 4.6875 6.3125 4.6875 4 5 C1.25 3.5625 1.25 3.5625 -1 2 C-0.67 1.34 -0.34 0.68 0 0 Z " fill="#B8C4E7" transform="translate(224,677)"/>
<path d="M0 0 C0 1.65 0 3.3 0 5 C-0.66 5 -1.32 5 -2 5 C-2.33 6.32 -2.66 7.64 -3 9 C-3.66 8.67 -4.32 8.34 -5 8 C-4.835 7.21625 -4.67 6.4325 -4.5 5.625 C-3.9376293 3.11791961 -3.9376293 3.11791961 -4 1 C-1 0 -1 0 0 0 Z " fill="#294289" transform="translate(234,409)"/>
<path d="M0 0 C0 0.66 0 1.32 0 2 C-2.90548882 4.04169485 -4.40142046 5 -8 5 C-8.33 4.01 -8.66 3.02 -9 2 C-3.375 0 -3.375 0 0 0 Z " fill="#28224D" transform="translate(344,165)"/>
<path d="M0 0 C4.06815373 1.84916079 7.0094833 3.66442368 10 7 C8.02 7 6.04 7 4 7 C4 5.68 4 4.36 4 3 C2.68 2.67 1.36 2.34 0 2 C0 1.34 0 0.68 0 0 Z " fill="#253043" transform="translate(587,140)"/>
<path d="M0 0 C0.99 0.33 1.98 0.66 3 1 C0.525 5.455 0.525 5.455 -2 10 C-3.39195915 5.82412255 -1.82323219 3.86525224 0 0 Z " fill="#A8B1ED" transform="translate(129,442)"/>
<path d="M0 0 C2.01136276 2.55991624 3.62845496 5.04590299 5 8 C4.01 8 3.02 8 2 8 C0.93224776 6.03533587 -0.06553465 4.03144641 -1 2 C-0.67 1.34 -0.34 0.68 0 0 Z " fill="#C0DFF8" transform="translate(512,599)"/>
<path d="M0 0 C0 0.66 0 1.32 0 2 C-3.3 2 -6.6 2 -10 2 C-6.80505194 -1.19494806 -4.22040044 -1.35655728 0 0 Z " fill="#343032" transform="translate(372,241)"/>
<path d="M0 0 C-2.87164566 2.70272533 -4.30991841 3.94791837 -8.3125 4.25 C-9.199375 4.1675 -10.08625 4.085 -11 4 C-9.71264403 1.42528807 -8.71510189 1.29583343 -6.0625 0.3125 C-5.35222656 0.04050781 -4.64195312 -0.23148438 -3.91015625 -0.51171875 C-2 -1 -2 -1 0 0 Z " fill="#323F4B" transform="translate(324,173)"/>
<path d="M0 0 C3.36720387 1.39332574 4.9859524 2.9789286 7 6 C5.35 5.67 3.7 5.34 2 5 C2 4.34 2 3.68 2 3 C1.34 3 0.68 3 0 3 C0 2.01 0 1.02 0 0 Z " fill="#243861" transform="translate(626,167)"/>
<path d="M0 0 C0.99 0.495 0.99 0.495 2 1 C2.40729228 3.32156597 2.74438677 5.6568787 3 8 C2.01 8.33 1.02 8.66 0 9 C0 6.03 0 3.06 0 0 Z " fill="#B7C1ED" transform="translate(120,516)"/>
<path d="M0 0 C0.99 0.33 1.98 0.66 3 1 C2.74438677 3.3431213 2.40729228 5.67843403 2 8 C1.01 8.495 1.01 8.495 0 9 C0 6.03 0 3.06 0 0 Z " fill="#2D333D" transform="translate(261,397)"/>
<path d="M0 0 C0.66 0.33 1.32 0.66 2 1 C1.6875 2.875 1.6875 2.875 1 5 C0.01 5.66 -0.98 6.32 -2 7 C-2.125 4.625 -2.125 4.625 -2 2 C-1.34 1.34 -0.68 0.68 0 0 Z " fill="#2A2548" transform="translate(231,204)"/>
<path d="M0 0 C-5.75 4 -5.75 4 -8 4 C-8 3.01 -8 2.02 -8 1 C-4.93251126 -0.86240388 -3.40254489 -1.2151946 0 0 Z " fill="#7880F6" transform="translate(291,667)"/>
<path d="M0 0 C0.33 1.32 0.66 2.64 1 4 C1.66 4 2.32 4 3 4 C2.42655063 6.86724686 2.1385485 7.8614515 0 10 C0 6.7 0 3.4 0 0 Z " fill="#1E1926" transform="translate(594,391)"/>
<path d="M0 0 C3.465 1.98 3.465 1.98 7 4 C5.02 4.99 5.02 4.99 3 6 C2.67 5.01 2.34 4.02 2 3 C1.34 3 0.68 3 0 3 C0 2.01 0 1.02 0 0 Z " fill="#D6E1F6" transform="translate(694,381)"/>
<path d="M0 0 C3.465 1.98 3.465 1.98 7 4 C6.01 4.99 5.02 5.98 4 7 C2 6 2 6 0.875 2.9375 C0.58625 1.968125 0.2975 0.99875 0 0 Z " fill="#3A2829" transform="translate(584,190)"/>
<path d="M0 0 C1.37478516 0.01740234 1.37478516 0.01740234 2.77734375 0.03515625 C3.69644531 0.04417969 4.61554688 0.05320313 5.5625 0.0625 C6.27277344 0.07410156 6.98304688 0.08570313 7.71484375 0.09765625 C4.70138059 1.66209245 2.12530215 2.73866063 -1.28515625 3.09765625 C-1.94515625 2.43765625 -2.60515625 1.77765625 -3.28515625 1.09765625 C-2.28515625 0.09765625 -2.28515625 0.09765625 0 0 Z " fill="#2F294A" transform="translate(481.28515625,191.90234375)"/>
<path d="M0 0 C1.65 0 3.3 0 5 0 C5.33 1.32 5.66 2.64 6 4 C6.66 4 7.32 4 8 4 C7.67 4.66 7.34 5.32 7 6 C3.535 4.02 3.535 4.02 0 2 C0 1.34 0 0.68 0 0 Z " fill="#34326F" transform="translate(549,162)"/>
</svg>
