<?xml version="1.0" encoding="UTF-8"?>
<svg version="1.1" xmlns="http://www.w3.org/2000/svg" width="826" height="900">
<path d="M0 0 C1.83443665 -0.00855011 1.83443665 -0.00855011 3.70593262 -0.01727295 C6.28083447 -0.02666202 8.85574801 -0.03323246 11.43066406 -0.03710938 C15.30555988 -0.04677969 19.17991643 -0.07784877 23.0546875 -0.109375 C40.84933464 -0.18605116 58.16098533 0.65245816 75.28125 5.890625 C76.13630127 6.14408691 76.99135254 6.39754883 77.87231445 6.65869141 C87.72485641 9.65717382 97.31154825 13.3177575 106.84375 17.203125 C107.60751953 17.50943848 108.37128906 17.81575195 109.15820312 18.13134766 C129.28887996 26.28136577 150.45767558 37.69175681 165.84375 53.203125 C167.94517814 54.82778934 170.09450114 56.34736656 172.26953125 57.87109375 C172.78902344 58.31066406 173.30851563 58.75023437 173.84375 59.203125 C173.84375 59.863125 173.84375 60.523125 173.84375 61.203125 C174.43309326 61.4717334 175.02243652 61.7403418 175.62963867 62.01708984 C177.85474408 63.20901421 179.42920815 64.46289546 181.26953125 66.1796875 C181.89811035 66.76435791 182.52668945 67.34902832 183.17431641 67.95141602 C183.82835449 68.57072998 184.48239258 69.19004395 185.15625 69.828125 C185.82833496 70.45968506 186.50041992 71.09124512 187.19287109 71.74194336 C191.17996582 75.52284251 194.9745183 79.37356703 198.49609375 83.59765625 C201.14754035 86.75633612 204.16392313 89.56004553 207.15625 92.390625 C208.84375 94.203125 208.84375 94.203125 208.84375 96.203125 C209.50375 96.203125 210.16375 96.203125 210.84375 96.203125 C212.59327425 98.22904978 214.227246 100.26190915 215.84375 102.390625 C216.85019214 103.70187533 217.85670384 105.01307226 218.86328125 106.32421875 C219.36811035 106.98534668 219.87293945 107.64647461 220.39306641 108.32763672 C221.64408634 109.9449937 222.93382438 111.53226643 224.23046875 113.11328125 C237.58968037 129.60249491 248.04050047 148.40774419 256.69384766 167.71948242 C257.97262853 170.4814862 259.33951251 173.18915246 260.71875 175.90234375 C264.14341268 182.70405926 267.20844692 189.64770276 270.21875 196.640625 C270.64411041 197.62730164 270.64411041 197.62730164 271.07806396 198.63391113 C285.39217438 231.89803733 297.25170125 266.47125808 304.39404297 302.0144043 C304.99672699 304.94766286 305.65031337 307.86846591 306.3059082 310.7902832 C306.9028961 313.46846358 307.48387821 316.14982396 308.0625 318.83203125 C308.27261719 319.80462891 308.48273437 320.77722656 308.69921875 321.77929688 C309.12971184 323.77391484 309.5593964 325.76870748 309.98828125 327.76367188 C310.9068218 332.00980873 311.83588455 336.23970958 312.94140625 340.44140625 C313.85566775 344.25280809 314.37131325 347.93177379 314.78125 351.828125 C315.39491965 357.45893344 316.09236104 363.06614102 316.90087891 368.67236328 C328.9649438 452.90400505 328.9649438 452.90400505 321.84375 490.203125 C321.71097656 490.97269531 321.57820312 491.74226563 321.44140625 492.53515625 C320.33060759 498.23725602 318.48058572 503.7488475 316.69604492 509.26928711 C315.65038054 512.51910723 314.72521968 515.70919793 313.9453125 519.0390625 C312.70061594 524.14020662 310.71883163 528.9206726 308.71875 533.765625 C308.12803711 535.20675659 308.12803711 535.20675659 307.52539062 536.67700195 C304.54122033 543.82647716 301.17144059 550.65409703 297.375 557.40234375 C295.75915613 560.16086447 295.75915613 560.16086447 294.84375 563.203125 C294.18375 563.203125 293.52375 563.203125 292.84375 563.203125 C292.75222656 563.90308594 292.66070313 564.60304688 292.56640625 565.32421875 C291.69257453 568.8053754 290.20089047 571.23402057 288.28125 574.265625 C287.92047363 574.83651855 287.55969727 575.40741211 287.18798828 575.99560547 C286.08196956 577.73721178 284.96399599 579.4706457 283.84375 581.203125 C283.24433594 582.14285156 282.64492188 583.08257813 282.02734375 584.05078125 C277.81565268 590.51841051 273.32365436 596.77745355 268.78125 603.015625 C267.9147583 604.21662842 267.9147583 604.21662842 267.03076172 605.44189453 C263.75719992 609.89605475 260.33821097 613.89280912 256.35961914 617.73071289 C254.64335753 619.3977726 253.11206607 621.16778429 251.59375 623.015625 C228.82761627 649.26482575 195.35901629 668.13832555 165.28125 684.640625 C163.96241821 685.36644775 163.96241821 685.36644775 162.61694336 686.10693359 C153.41316342 691.09972607 143.86039434 695.26256497 134.21875 699.328125 C133.43757813 699.66199219 132.65640625 699.99585938 131.8515625 700.33984375 C123.11784634 704.02709147 114.39637257 706.66589822 105.15625 708.765625 C98.40373579 710.25655278 98.40373579 710.25655278 91.81640625 712.3203125 C87.55793301 713.58498392 83.39003645 713.63094986 78.96875 713.765625 C71.8946853 713.99500437 71.8946853 713.99500437 64.859375 714.71484375 C44.73739646 717.43219229 22.27827901 715.24482683 2.78125 709.890625 C-5.19525823 707.74184349 -11.97162591 708.47759621 -19.97851562 709.85205078 C-23.77066053 710.46338535 -27.58877014 710.84834636 -31.40625 711.265625 C-36.51812861 711.82159117 -36.51812861 711.82159117 -41.57421875 712.73828125 C-55.62959279 715.26867385 -70.47556516 712.90143971 -84.46875 710.953125 C-85.21867218 710.85070496 -85.96859436 710.74828491 -86.74124146 710.64276123 C-102.59321493 708.44790258 -117.81312041 704.94879661 -132.96875 699.765625 C-134.07927734 699.39630859 -135.18980469 699.02699219 -136.33398438 698.64648438 C-147.46404018 694.8930991 -158.09575153 690.46455556 -168.46875 684.953125 C-169.37101318 684.47786377 -170.27327637 684.00260254 -171.20288086 683.51293945 C-177.26758917 680.28865733 -183.18248207 676.87481685 -189.03076172 673.27539062 C-193.73274913 670.39752885 -198.56770966 667.93642991 -203.5234375 665.53125 C-206.50339155 664.02800908 -209.26984671 662.31900937 -212.06640625 660.50390625 C-216.30923079 657.86304537 -220.75106853 655.55957317 -225.15625 653.203125 C-225.15625 652.543125 -225.15625 651.883125 -225.15625 651.203125 C-225.836875 650.955625 -226.5175 650.708125 -227.21875 650.453125 C-233.62411547 647.72743757 -239.13221133 643.90375639 -244.77734375 639.87890625 C-246.74944361 638.48969305 -248.74231097 637.17761489 -250.78125 635.890625 C-251.565 635.33375 -252.34875 634.776875 -253.15625 634.203125 C-253.15625 633.543125 -253.15625 632.883125 -253.15625 632.203125 C-253.71054688 632.1309375 -254.26484375 632.05875 -254.8359375 631.984375 C-258.03580767 630.90697764 -259.83556538 629.01009915 -262.28125 626.703125 C-265.46407183 623.58933716 -265.46407183 623.58933716 -269.15625 621.203125 C-269.15625 620.543125 -269.15625 619.883125 -269.15625 619.203125 C-270.14625 618.873125 -271.13625 618.543125 -272.15625 618.203125 C-272.15625 617.543125 -272.15625 616.883125 -272.15625 616.203125 C-272.81625 616.203125 -273.47625 616.203125 -274.15625 616.203125 C-275.78125 614.828125 -275.78125 614.828125 -277.15625 613.203125 C-277.15625 612.543125 -277.15625 611.883125 -277.15625 611.203125 C-278.14625 610.873125 -279.13625 610.543125 -280.15625 610.203125 C-280.15625 609.543125 -280.15625 608.883125 -280.15625 608.203125 C-281.14625 607.873125 -282.13625 607.543125 -283.15625 607.203125 C-283.15625 606.543125 -283.15625 605.883125 -283.15625 605.203125 C-283.81625 605.203125 -284.47625 605.203125 -285.15625 605.203125 C-286.43383789 603.86474609 -286.43383789 603.86474609 -287.87890625 601.9765625 C-288.41273926 601.28199951 -288.94657227 600.58743652 -289.49658203 599.87182617 C-290.34905518 598.73644409 -290.34905518 598.73644409 -291.21875 597.578125 C-292.09829346 596.41277222 -292.09829346 596.41277222 -292.99560547 595.22387695 C-309.32724524 573.37152531 -322.02379251 549.2666595 -330.15625 523.203125 C-330.69589573 521.63992587 -331.23744749 520.07738294 -331.78125 518.515625 C-334.60131092 509.97513047 -335.87569656 501.13590572 -337.21875 492.265625 C-337.39212891 491.14994141 -337.56550781 490.03425781 -337.74414062 488.88476562 C-339.41874694 477.93245533 -340.30850293 467.32816795 -340.2890625 456.2421875 C-340.29001923 455.01639984 -340.29097595 453.79061218 -340.29196167 452.52767944 C-340.29263938 449.94081572 -340.29081374 447.35395026 -340.28662109 444.76708984 C-340.28131342 440.87463394 -340.28655614 436.98229588 -340.29296875 433.08984375 C-340.29625582 420.62896217 -340.11820972 408.22943214 -339.39697266 395.78955078 C-339.13327899 391.11845903 -339.02218981 386.45091184 -338.9453125 381.7734375 C-338.932155 381.00304642 -338.9189975 380.23265533 -338.90544128 379.43891907 C-338.87868438 377.87182649 -338.85194605 376.30473359 -338.82522583 374.73764038 C-338.45930363 354.68810017 -337.85201144 334.31282361 -333.66699219 314.63769531 C-333.13578915 312.10559363 -332.67815091 309.56765929 -332.23046875 307.01953125 C-326.4377507 274.9147003 -318.50182246 243.14177341 -306.03125 212.953125 C-305.71873291 212.1907251 -305.40621582 211.4283252 -305.08422852 210.64282227 C-303.18056729 206.15657862 -300.94950129 202.11518554 -298.30322266 198.02539062 C-296.79700697 195.63237362 -295.60159952 193.13853416 -294.40625 190.578125 C-291.20222022 184.06380935 -287.37561366 178.05553715 -283.36376953 172.02392578 C-282.15691499 170.20412772 -280.96589118 168.37476447 -279.77734375 166.54296875 C-274.06959999 157.79924012 -267.96276454 149.40512332 -261.60742188 141.12158203 C-260.56579528 139.74454607 -259.54317919 138.35305178 -258.53320312 136.95263672 C-258.00146484 136.21932129 -257.46972656 135.48600586 -256.921875 134.73046875 C-256.44008789 134.0562085 -255.95830078 133.38194824 -255.46191406 132.68725586 C-255.03104492 132.19749268 -254.60017578 131.70772949 -254.15625 131.203125 C-253.49625 131.203125 -252.83625 131.203125 -252.15625 131.203125 C-251.76566406 130.33494141 -251.76566406 130.33494141 -251.3671875 129.44921875 C-250.07432675 127.05117058 -248.60899925 125.28093803 -246.78125 123.265625 C-244.81384599 121.07557239 -242.941964 118.92187462 -241.15625 116.578125 C-238.93816181 113.94414528 -236.51194656 111.86524247 -233.875 109.6640625 C-230.7623215 107.01828578 -227.97412411 104.05111463 -225.140625 101.11328125 C-224.42390625 100.37980469 -223.7071875 99.64632812 -222.96875 98.890625 C-222.29457031 98.19324219 -221.62039062 97.49585938 -220.92578125 96.77734375 C-219.15625 95.203125 -219.15625 95.203125 -217.15625 95.203125 C-217.15625 94.543125 -217.15625 93.883125 -217.15625 93.203125 C-215.83374023 91.94140625 -215.83374023 91.94140625 -213.96484375 90.515625 C-213.27430908 89.98646484 -212.58377441 89.45730469 -211.87231445 88.91210938 C-210.74442505 88.06616211 -210.74442505 88.06616211 -209.59375 87.203125 C-208.82957764 86.62369141 -208.06540527 86.04425781 -207.27807617 85.44726562 C-201.70772761 81.26389531 -196.01751731 77.30306069 -190.15600586 73.5390625 C-184.63839481 69.97640014 -179.738814 66.4111265 -175.96875 60.953125 C-171.76898216 55.39948463 -166.7063453 51.35640916 -161.15625 47.203125 C-160.28613281 46.53410156 -159.41601562 45.86507812 -158.51953125 45.17578125 C-144.71911772 35.23397122 -128.07459909 29.96666985 -112.03515625 24.8046875 C-107.88876504 23.46435915 -103.8415211 21.97231929 -99.78125 20.390625 C-80.63055632 13.13149046 -61.69057979 7.00458338 -41.46875 3.640625 C-40.73635101 3.51856689 -40.00395203 3.39650879 -39.24935913 3.27075195 C-26.16397693 1.12828442 -13.2670692 0.04928609 0 0 Z M2.84375 57.203125 C1.51802339 57.88479294 0.18629191 58.5552026 -1.15625 59.203125 C-1.15625 59.863125 -1.15625 60.523125 -1.15625 61.203125 C-1.73375 61.43 -2.31125 61.656875 -2.90625 61.890625 C-5.72052613 63.53228607 -7.18362733 65.63871553 -9.15625 68.203125 C-10.14625 68.698125 -10.14625 68.698125 -11.15625 69.203125 C-11.32125 69.863125 -11.48625 70.523125 -11.65625 71.203125 C-11.82125 71.863125 -11.98625 72.523125 -12.15625 73.203125 C-12.81625 73.533125 -13.47625 73.863125 -14.15625 74.203125 C-15.19839826 84.06364487 -15.19839826 84.06364487 -12.21875 93.015625 C-7.35026127 96.49311695 -2.96066287 97.42747803 2.96875 96.953125 C7.55081222 94.16404365 10.21105782 89.81423083 12.84375 85.203125 C12.84375 84.543125 12.84375 83.883125 12.84375 83.203125 C15.48375 83.203125 18.12375 83.203125 20.84375 83.203125 C20.7336583 86.62044292 20.60307939 90.03668074 20.46875 93.453125 C20.42234375 94.90525391 20.42234375 94.90525391 20.375 96.38671875 C20.33632813 97.32128906 20.29765625 98.25585938 20.2578125 99.21875 C20.2263916 100.07758789 20.1949707 100.93642578 20.16259766 101.82128906 C19.82340323 104.35511816 19.06148707 105.97661339 17.84375 108.203125 C17.02258209 111.26197548 16.32735575 114.33770623 15.625 117.42578125 C14.84375 120.203125 14.84375 120.203125 12.84375 123.203125 C12.84375 124.523125 12.84375 125.843125 12.84375 127.203125 C12.18375 127.203125 11.52375 127.203125 10.84375 127.203125 C10.51375 128.853125 10.18375 130.503125 9.84375 132.203125 C9.18375 132.203125 8.52375 132.203125 7.84375 132.203125 C7.84375 133.193125 7.84375 134.183125 7.84375 135.203125 C6.85375 135.203125 5.86375 135.203125 4.84375 135.203125 C4.84375 136.193125 4.84375 137.183125 4.84375 138.203125 C3.35875 138.698125 3.35875 138.698125 1.84375 139.203125 C-1.04232059 144.44080866 -1.55214705 148.2646693 -1.15625 154.203125 C-0.82625 155.193125 -0.49625 156.183125 -0.15625 157.203125 C0.50375 157.203125 1.16375 157.203125 1.84375 157.203125 C2.029375 157.80125 2.215 158.399375 2.40625 159.015625 C4.56495549 162.30061161 7.1465475 163.33096441 10.84375 164.203125 C23.07590646 165.48706766 38.29815174 163.81997096 48.84375 157.203125 C49.66875 156.708125 50.49375 156.213125 51.34375 155.703125 C51.83875 155.208125 52.33375 154.713125 52.84375 154.203125 C52.84375 152.883125 52.84375 151.563125 52.84375 150.203125 C53.50375 150.203125 54.16375 150.203125 54.84375 150.203125 C54.84375 147.563125 54.84375 144.923125 54.84375 142.203125 C54.18375 142.203125 53.52375 142.203125 52.84375 142.203125 C52.84375 141.48125 52.84375 140.759375 52.84375 140.015625 C51.31564121 135.71781903 47.84586489 134.12643174 43.84375 132.203125 C43.18375 132.203125 42.52375 132.203125 41.84375 132.203125 C41.95773665 130.57731534 42.08530659 128.95245343 42.21875 127.328125 C42.28835938 126.42320312 42.35796875 125.51828125 42.4296875 124.5859375 C42.84375 122.203125 42.84375 122.203125 44.84375 120.203125 C45.4897813 118.16695823 45.4897813 118.16695823 45.9140625 115.80078125 C46.08856934 114.91592041 46.26307617 114.03105957 46.44287109 113.11938477 C46.70318115 111.70677368 46.70318115 111.70677368 46.96875 110.265625 C47.23486084 108.8269104 47.23486084 108.8269104 47.50634766 107.35913086 C48.6525863 100.88887199 49.48512927 94.77479569 48.84375 88.203125 C48.74964844 87.07648438 48.65554688 85.94984375 48.55859375 84.7890625 C47.42663625 74.52451586 44.47483356 65.49504929 36.84375 58.203125 C27.0304126 50.89160682 13.01500433 50.55268947 2.84375 57.203125 Z M-78.96875 63.890625 C-83.37298377 72.46729076 -82.4324343 82.61474253 -82.38671875 91.98046875 C-82.38552481 93.59949202 -82.38507424 95.21851599 -82.3853302 96.83753967 C-82.38377406 100.21213179 -82.37554648 103.58661651 -82.36206055 106.96118164 C-82.34497622 111.29118921 -82.34124941 115.62108018 -82.34200573 119.95111752 C-82.34173437 123.28559994 -82.33626029 126.62005678 -82.32900429 129.95453072 C-82.32581988 131.55216847 -82.32385074 133.14980912 -82.32311058 134.74744987 C-82.32095 136.97092561 -82.31221475 139.19427574 -82.30151367 141.41772461 C-82.29770187 142.6829747 -82.29389008 143.94822479 -82.28996277 145.2518158 C-82.35958591 148.13501459 -82.35958591 148.13501459 -81.15625 150.203125 C-81.0256678 152.57681916 -80.92640865 154.9522792 -80.84375 157.328125 C-80.42568689 165.10059183 -79.02371605 170.66219118 -73.40625 176.203125 C-69.08012532 178.86535557 -67.17242604 178.84009974 -62.15625 178.203125 C-57.98216479 176.40067911 -55.73256342 173.90336798 -53.15625 170.203125 C-52.10147185 166.92759703 -52.10147185 166.92759703 -51.53125 163.328125 C-51.31210937 162.15507812 -51.09296875 160.98203125 -50.8671875 159.7734375 C-50.75818115 159.0721875 -50.6491748 158.3709375 -50.53686523 157.6484375 C-50.26458104 155.89911199 -49.96101741 154.15454149 -49.63696289 152.4140625 C-47.54796825 139.70671087 -47.81678602 126.88341685 -47.84057617 114.04101562 C-47.8463979 110.62662602 -47.82933019 107.21277413 -47.8062315 103.79847336 C-47.78782851 100.49062796 -47.79168109 97.18289605 -47.79296875 93.875 C-47.783759 92.6664032 -47.77454926 91.4578064 -47.76506042 90.21258545 C-47.80536349 82.75863526 -48.79172104 76.2789377 -51.15625 69.203125 C-51.81625 69.203125 -52.47625 69.203125 -53.15625 69.203125 C-53.15625 68.213125 -53.15625 67.223125 -53.15625 66.203125 C-53.81625 66.203125 -54.47625 66.203125 -55.15625 66.203125 C-55.48625 65.213125 -55.81625 64.223125 -56.15625 63.203125 C-56.81625 63.203125 -57.47625 63.203125 -58.15625 63.203125 C-58.15625 62.543125 -58.15625 61.883125 -58.15625 61.203125 C-66.59595668 57.23149833 -71.9212175 57.32912923 -78.96875 63.890625 Z M135.15625 113.578125 C131.93607521 117.56500808 131.59294714 120.72936746 131.65625 125.828125 C131.66269531 126.97539062 131.66914062 128.12265625 131.67578125 129.3046875 C131.64891183 132.1423803 131.64891183 132.1423803 132.84375 134.203125 C132.98901859 137.14406504 133.07811438 140.06497445 133.125 143.0078125 C133.15261414 144.32110031 133.15261414 144.32110031 133.18078613 145.66091919 C133.23962857 148.46658511 133.29238612 151.2723128 133.34375 154.078125 C133.4114638 157.76314792 133.48518902 161.44797989 133.5625 165.1328125 C133.57607544 165.98084442 133.58965088 166.82887634 133.6036377 167.7026062 C133.62035522 168.49667877 133.63707275 169.29075134 133.65429688 170.10888672 C133.66682495 170.80456757 133.67935303 171.50024841 133.69226074 172.2170105 C133.85154876 174.30537138 134.28010378 176.18931249 134.84375 178.203125 C135.50375 178.203125 136.16375 178.203125 136.84375 178.203125 C136.8746875 179.069375 136.8746875 179.069375 136.90625 179.953125 C138.14645955 182.92962791 140.06561068 184.04458313 142.87109375 185.5078125 C146.13981772 186.65995679 148.57134739 186.12927668 151.84375 185.203125 C154.2649819 183.9120379 154.2649819 183.9120379 155.84375 182.203125 C155.84375 181.543125 155.84375 180.883125 155.84375 180.203125 C156.50375 180.203125 157.16375 180.203125 157.84375 180.203125 C160.37497558 173.79814637 161.30086851 168.20322256 161.27734375 161.33984375 C161.2825856 160.42660843 161.28782745 159.51337311 161.29322815 158.57246399 C161.29961164 156.65224212 161.29835937 154.73198096 161.28979492 152.81176758 C161.28130168 149.90829132 161.31007105 147.00679746 161.34179688 144.10351562 C161.38476129 132.51599409 160.43894679 123.53732645 155.28125 113.015625 C149.49903367 108.71602824 140.74408073 109.02507774 135.15625 113.578125 Z M-154.15625 113.265625 C-154.81625 113.46285156 -155.47625 113.66007812 -156.15625 113.86328125 C-159.30605371 115.97340366 -160.87664247 118.72363875 -162.15625 122.203125 C-162.65525334 125.53695929 -162.62714716 128.77665347 -162.53125 132.140625 C-162.52996094 132.99591797 -162.52867187 133.85121094 -162.52734375 134.73242188 C-162.4621524 139.48052543 -161.89023031 143.62269609 -160.61083984 148.18188477 C-159.5884241 152.72784606 -159.79542138 157.49593282 -159.765625 162.13671875 C-159.56317906 169.07611576 -157.61513552 174.18900726 -153.21875 179.578125 C-149.63109919 182.40475897 -147.26031316 183.24255583 -142.65625 183.078125 C-137.52700591 181.79581398 -135.05268757 179.54778136 -132.15625 175.203125 C-130.53449477 169.23988124 -131.22929932 163.1265375 -131.46875 157.015625 C-131.52192383 155.24348633 -131.52192383 155.24348633 -131.57617188 153.43554688 C-131.8060516 147.2425185 -132.35978052 141.41423487 -133.71704102 135.36791992 C-134.31940055 132.39898052 -134.39730685 129.47629847 -134.46875 126.453125 C-134.83028945 121.10662535 -134.83028945 121.10662535 -137.34375 116.515625 C-142.51437098 112.26422553 -147.74496361 111.1744437 -154.15625 113.265625 Z M-211.15625 128.203125 C-214.10793629 133.34477208 -215.12923589 137.5759395 -213.58203125 143.34375 C-213.07069379 145.0211533 -212.54915967 146.69546935 -212.01953125 148.3671875 C-209.85266276 155.48549755 -208.15234018 162.57320533 -207.78125 170.015625 C-207.32350282 176.41474373 -204.67340923 180.60206046 -200.28125 185.140625 C-197.11212658 186.72518671 -194.70910792 187.14290707 -191.15625 187.203125 C-185.74071678 185.39039422 -182.81853107 182.2471457 -180.15625 177.203125 C-179.64337411 174.01727328 -179.68613103 170.92215134 -179.78125 167.703125 C-179.78253906 166.87425781 -179.78382813 166.04539063 -179.78515625 165.19140625 C-179.85316018 160.43868736 -180.49289194 156.69358248 -182.15625 152.203125 C-182.92521471 148.3985614 -183.60369318 144.58420454 -184.27734375 140.76171875 C-185.12323858 137.33678455 -186.19350101 135.09752552 -188.15625 132.203125 C-188.48625 131.543125 -188.81625 130.883125 -189.15625 130.203125 C-189.81625 130.203125 -190.47625 130.203125 -191.15625 130.203125 C-191.383125 129.584375 -191.61 128.965625 -191.84375 128.328125 C-193.59739371 125.48889232 -194.96488187 125.07349813 -198.15625 124.203125 C-203.37591751 123.5222988 -207.20760154 124.80289994 -211.15625 128.203125 Z M-271.15625 212.203125 C-275.09061752 217.19277477 -275.67029703 222.03456063 -275.15625 228.203125 C-274.99125 228.7909375 -274.82625 229.37875 -274.65625 229.984375 C-273.94677543 233.1326684 -273.95611902 236.22973938 -273.84375 239.453125 C-273.38210229 249.004915 -271.91168384 259.7584981 -267.15625 268.203125 C-266.49625 268.203125 -265.83625 268.203125 -265.15625 268.203125 C-265.15625 268.863125 -265.15625 269.523125 -265.15625 270.203125 C-262.6197147 272.95103824 -261.04709962 273.21544843 -257.28125 273.640625 C-252.93777518 273.44686404 -250.446114 272.11914082 -247.15625 269.203125 C-243.26977012 263.67584145 -242.65468861 260.08895987 -243.34375 253.453125 C-243.40111328 252.69902344 -243.45847656 251.94492187 -243.51757812 251.16796875 C-243.77828963 248.01139721 -244.15173806 245.21666082 -245.15625 242.203125 C-245.30987037 240.2259739 -245.43042224 238.24617024 -245.53125 236.265625 C-246.20809866 227.07689171 -246.92282612 217.59545308 -254.15625 211.203125 C-260.07820337 208.54428879 -265.692139 208.41247723 -271.15625 212.203125 Z M-229.21875 217.203125 C-233.70731672 224.64132128 -232.56208968 233.74705549 -230.71875 241.828125 C-227.91149878 251.16633523 -222.97530567 259.6583788 -214.16015625 264.40234375 C-208.28589555 266.74975787 -203.0513159 266.60481852 -197.15625 264.203125 C-191.50086846 260.74064651 -187.82582861 255.6594557 -185.66601562 249.35888672 C-184.57890777 244.76158672 -184.56316078 240.09486792 -184.53125 235.390625 C-184.51505615 233.9048999 -184.51505615 233.9048999 -184.49853516 232.38916016 C-184.61945166 226.15933163 -185.57213282 222.32227244 -189.15625 217.203125 C-189.81625 217.203125 -190.47625 217.203125 -191.15625 217.203125 C-191.15625 216.543125 -191.15625 215.883125 -191.15625 215.203125 C-197.53286513 209.41165808 -204.12982713 208.31445065 -212.5234375 208.6875 C-219.20403869 209.63571436 -224.71108965 212.082525 -229.21875 217.203125 Z M181.84375 214.203125 C180.915625 214.739375 179.9875 215.275625 179.03125 215.828125 C176.96452372 217.12721009 175.39652237 218.32345318 173.84375 220.203125 C173.84375 220.863125 173.84375 221.523125 173.84375 222.203125 C173.18375 222.203125 172.52375 222.203125 171.84375 222.203125 C169.65525034 226.7624993 168.27018778 230.04106505 168.84375 235.203125 C169.74206016 237.50543266 169.74206016 237.50543266 170.84375 239.203125 C171.50375 239.203125 172.16375 239.203125 172.84375 239.203125 C173.07320312 239.83863281 173.30265625 240.47414063 173.5390625 241.12890625 C174.66976071 243.40247854 174.66976071 243.40247854 177.0859375 243.99609375 C178.38917969 244.19138672 178.38917969 244.19138672 179.71875 244.390625 C180.58242188 244.52855469 181.44609375 244.66648437 182.3359375 244.80859375 C183.16351562 244.93878906 183.99109375 245.06898438 184.84375 245.203125 C186.18096134 245.52054385 187.51604368 245.84804075 188.84375 246.203125 C188.84375 247.853125 188.84375 249.503125 188.84375 251.203125 C188.18375 251.203125 187.52375 251.203125 186.84375 251.203125 C185.58710022 254.10912761 184.84375 255.99917084 184.84375 259.203125 C184.18375 259.203125 183.52375 259.203125 182.84375 259.203125 C182.52921875 259.79480469 182.2146875 260.38648438 181.890625 260.99609375 C179.50085679 265.40852722 177.05470829 269.32783051 173.84375 273.203125 C171.29211415 276.90299699 171.32385238 280.85946421 171.84375 285.203125 C173.36821373 289.86619054 175.39667724 292.20779139 179.8125 294.453125 C184.10605537 296.03843775 188.64189107 296.67614124 193.13598633 295.71069336 C195.94472713 295.18419691 198.52339493 295.07710993 201.37890625 295.0625 C219.40704036 295.51957615 219.40704036 295.51957615 234.69140625 287.33984375 C237.12951535 283.99150726 237.83310583 281.80984253 237.90625 277.640625 C236.61111356 273.4504777 235.48214285 270.74412594 232.84375 267.203125 C227.2434057 264.6886847 220.91756615 264.62049392 214.84375 264.203125 C214.84375 262.223125 214.84375 260.243125 214.84375 258.203125 C215.50375 257.873125 216.16375 257.543125 216.84375 257.203125 C217.6608676 254.36408866 218.34907773 251.58574858 218.96875 248.703125 C219.15050781 247.92453125 219.33226562 247.1459375 219.51953125 246.34375 C221.52883713 237.21878192 222.35150098 226.29010464 217.515625 217.8984375 C216.04321387 215.86829488 214.58546007 214.00733663 212.84375 212.203125 C212.31007813 211.64496094 211.77640625 211.08679688 211.2265625 210.51171875 C207.47519619 208.45154217 203.80455543 208.69014871 199.59375 208.703125 C198.36205078 208.66058594 198.36205078 208.66058594 197.10546875 208.6171875 C190.68427652 208.59683507 186.95001664 210.45403273 181.84375 214.203125 Z M-27.96875 232.265625 C-28.690625 233.235 -29.4125 234.204375 -30.15625 235.203125 C-30.60871094 235.67621094 -31.06117188 236.14929688 -31.52734375 236.63671875 C-35.75045785 241.43408066 -35.8171615 246.28456417 -36.015625 252.5078125 C-36.15625 255.203125 -36.15625 255.203125 -37.15625 256.203125 C-37.28862003 257.535017 -37.35944626 258.87317148 -37.40234375 260.2109375 C-37.43521484 261.03335937 -37.46808594 261.85578125 -37.50195312 262.703125 C-37.56232775 264.42958244 -37.61970484 266.15614778 -37.67382812 267.8828125 C-37.83052838 271.69092428 -38.08006673 274.94374617 -39.16015625 278.62109375 C-40.77972101 284.44517564 -40.58873328 290.35832976 -40.72265625 296.37304688 C-40.75230469 297.32115234 -40.78195312 298.26925781 -40.8125 299.24609375 C-40.83119141 300.10227295 -40.84988281 300.95845215 -40.86914062 301.84057617 C-41.15625 304.203125 -41.15625 304.203125 -42.1570282 305.96591187 C-43.45588119 308.87398591 -43.41752005 311.17858028 -43.4309082 314.36108398 C-43.44044022 315.60595078 -43.44997223 316.85081757 -43.45979309 318.13340759 C-43.45953165 319.48867827 -43.45859455 320.84394895 -43.45703125 322.19921875 C-43.46092016 323.59400052 -43.46525524 324.98878111 -43.47001648 326.38356018 C-43.47747101 329.30465537 -43.47719304 332.22562968 -43.47192383 335.14672852 C-43.46613017 338.88373718 -43.48306082 342.62025006 -43.5062685 346.35717678 C-43.52102491 349.23715593 -43.52187498 352.11701619 -43.51875877 354.99702644 C-43.51927103 356.37449183 -43.52449088 357.75196403 -43.53457069 359.12939262 C-43.54695327 361.05814687 -43.53819083 362.98700151 -43.52856445 364.91577148 C-43.52919388 366.01179184 -43.5298233 367.10781219 -43.5304718 368.23704529 C-43.10373339 371.61937135 -42.26418453 373.53432183 -40.15625 376.203125 C-39.16625 376.203125 -38.17625 376.203125 -37.15625 376.203125 C-36.82625 377.193125 -36.49625 378.183125 -36.15625 379.203125 C-34.6403125 379.38875 -34.6403125 379.38875 -33.09375 379.578125 C-29.3191719 380.17726438 -25.81734403 381.12633264 -22.15625 382.203125 C-21.49625 382.203125 -20.83625 382.203125 -20.15625 382.203125 C-20.15625 382.863125 -20.15625 383.523125 -20.15625 384.203125 C-14.66626908 384.61365647 -14.66626908 384.61365647 -9.65625 382.828125 C-7.93015663 381.32676981 -7.93015663 381.32676981 -8.15625 379.203125 C-7.16625 379.203125 -6.17625 379.203125 -5.15625 379.203125 C-3.44845027 377.57863257 -1.78074243 375.91092473 -0.15625 374.203125 C0.50375 373.873125 1.16375 373.543125 1.84375 373.203125 C1.84375 372.543125 1.84375 371.883125 1.84375 371.203125 C2.83375 371.203125 3.82375 371.203125 4.84375 371.203125 C4.84375 370.213125 4.84375 369.223125 4.84375 368.203125 C5.83375 368.203125 6.82375 368.203125 7.84375 368.203125 C7.84375 367.543125 7.84375 366.883125 7.84375 366.203125 C10.49603812 365.12787306 13.12743454 364.10856349 15.84375 363.203125 C15.84375 362.213125 15.84375 361.223125 15.84375 360.203125 C16.83375 360.203125 17.82375 360.203125 18.84375 360.203125 C18.84375 359.543125 18.84375 358.883125 18.84375 358.203125 C19.606875 357.935 20.37 357.666875 21.15625 357.390625 C23.79392529 356.41840534 23.79392529 356.41840534 25.21875 354.828125 C27.72912854 352.31774646 30.7360841 350.90354596 33.84375 349.203125 C33.84375 348.543125 33.84375 347.883125 33.84375 347.203125 C34.42125 347.079375 34.99875 346.955625 35.59375 346.828125 C37.86710767 346.19663676 39.7691029 345.31454309 41.84375 344.203125 C41.84375 343.543125 41.84375 342.883125 41.84375 342.203125 C42.545 342.1 43.24625 341.996875 43.96875 341.890625 C47.23512647 341.10953497 49.8909352 339.78253757 52.84375 338.203125 C52.84375 337.543125 52.84375 336.883125 52.84375 336.203125 C53.9884375 335.9865625 53.9884375 335.9865625 55.15625 335.765625 C57.92547908 335.2398656 57.92547908 335.2398656 60.84375 334.203125 C60.84375 333.543125 60.84375 332.883125 60.84375 332.203125 C61.6275 331.955625 62.41125 331.708125 63.21875 331.453125 C67.82776329 329.86381007 72.32922716 328.04105327 76.84375 326.203125 C76.84375 325.543125 76.84375 324.883125 76.84375 324.203125 C77.606875 324.1 78.37 323.996875 79.15625 323.890625 C82.13498061 323.12862415 82.7805854 322.35225479 84.84375 320.203125 C87.53125 319.015625 87.53125 319.015625 89.84375 318.203125 C89.84375 317.213125 89.84375 316.223125 89.84375 315.203125 C90.50375 315.203125 91.16375 315.203125 91.84375 315.203125 C91.84375 314.543125 91.84375 313.883125 91.84375 313.203125 C92.42769531 312.9246875 93.01164063 312.64625 93.61328125 312.359375 C97.24966101 310.47431649 100.30523649 308.46121715 102.84375 305.203125 C104.27086414 300.27524469 104.32362094 295.13602813 102.84375 290.203125 C102.18375 290.203125 101.52375 290.203125 100.84375 290.203125 C100.51375 289.213125 100.18375 288.223125 99.84375 287.203125 C95.36194642 284.96222321 89.69172735 285.59989494 84.84375 286.203125 C81.4102582 287.72755783 78.51008819 289.54367657 75.84375 292.203125 C75.84375 292.863125 75.84375 293.523125 75.84375 294.203125 C75.039375 294.491875 74.235 294.780625 73.40625 295.078125 C70.7111032 295.93575068 70.7111032 295.93575068 69.84375 298.203125 C67.78125 299.328125 67.78125 299.328125 65.84375 300.203125 C65.84375 300.863125 65.84375 301.523125 65.84375 302.203125 C63.262803 302.7193144 60.69362184 303.22700903 58.09375 303.640625 C57.35125 303.82625 56.60875 304.011875 55.84375 304.203125 C55.51375 304.863125 55.18375 305.523125 54.84375 306.203125 C53.19125513 306.90418343 51.52007417 307.56112851 49.84375 308.203125 C48.41904113 308.85242735 47.00264119 309.52017954 45.59375 310.203125 C44.90796875 310.533125 44.2221875 310.863125 43.515625 311.203125 C41.669122 312.10401812 41.669122 312.10401812 40.84375 314.203125 C38.28125 314.828125 38.28125 314.828125 35.84375 315.203125 C35.84375 315.863125 35.84375 316.523125 35.84375 317.203125 C34.19375 317.533125 32.54375 317.863125 30.84375 318.203125 C30.84375 318.863125 30.84375 319.523125 30.84375 320.203125 C29.19375 320.203125 27.54375 320.203125 25.84375 320.203125 C25.84375 321.193125 25.84375 322.183125 25.84375 323.203125 C24.85375 323.203125 23.86375 323.203125 22.84375 323.203125 C22.84375 323.863125 22.84375 324.523125 22.84375 325.203125 C20.19146188 326.27837694 17.56006546 327.29768651 14.84375 328.203125 C14.51375 328.863125 14.18375 329.523125 13.84375 330.203125 C12.19303604 331.22924449 10.52404994 332.22620643 8.84375 333.203125 C6.57920927 334.67083771 6.57920927 334.67083771 4.84375 336.203125 C4.84375 336.863125 4.84375 337.523125 4.84375 338.203125 C2.36875 338.698125 2.36875 338.698125 -0.15625 339.203125 C-0.15625 339.863125 -0.15625 340.523125 -0.15625 341.203125 C-1.14625 341.203125 -2.13625 341.203125 -3.15625 341.203125 C-3.15625 342.193125 -3.15625 343.183125 -3.15625 344.203125 C-4.14625 344.203125 -5.13625 344.203125 -6.15625 344.203125 C-6.15625 344.863125 -6.15625 345.523125 -6.15625 346.203125 C-9.45625 347.193125 -12.75625 348.183125 -16.15625 349.203125 C-16.06251284 343.88258856 -15.95637382 338.5624963 -15.83886719 333.24243164 C-15.80064633 331.43358082 -15.7657815 329.62465579 -15.734375 327.81567383 C-15.68857443 325.21148198 -15.63060526 322.607798 -15.5703125 320.00390625 C-15.55298569 318.79581047 -15.55298569 318.79581047 -15.53530884 317.56330872 C-15.42345106 313.28252365 -14.92541022 310.15960271 -13.15625 306.203125 C-12.8157563 303.95994307 -12.8157563 303.95994307 -12.77734375 301.69921875 C-12.74318359 300.87615234 -12.70902344 300.05308594 -12.67382812 299.20507812 C-12.64740234 298.35880859 -12.62097656 297.51253906 -12.59375 296.640625 C-12.53356809 294.95169003 -12.46989001 293.26287522 -12.40234375 291.57421875 C-12.37841553 290.83099365 -12.3544873 290.08776855 -12.32983398 289.32202148 C-12.15449109 287.18165441 -11.67663578 285.28238127 -11.15625 283.203125 C-11.0371668 281.76039268 -10.95714096 280.31406337 -10.91015625 278.8671875 C-10.87728516 278.04992187 -10.84441406 277.23265625 -10.81054688 276.390625 C-10.74963334 274.69023005 -10.69230745 272.98970258 -10.63867188 271.2890625 C-10.48836015 267.6815812 -10.31473265 264.66699154 -9.140625 261.23046875 C-7.72170354 256.86672219 -7.8270755 252.69943359 -7.84375 248.140625 C-7.82763672 247.25568359 -7.81152344 246.37074219 -7.79492188 245.45898438 C-7.79128952 240.6170571 -7.860388 237.06032602 -11.15625 233.203125 C-11.81625 233.203125 -12.47625 233.203125 -13.15625 233.203125 C-13.15625 232.543125 -13.15625 231.883125 -13.15625 231.203125 C-17.9191989 228.82165055 -23.75978551 229.17905104 -27.96875 232.265625 Z M-283.15625 327.203125 C-284.71388902 329.47448096 -285.89977369 331.73670854 -287.15625 334.203125 C-287.81625 335.193125 -288.47625 336.183125 -289.15625 337.203125 C-291.27621236 343.80934575 -291.45925011 349.98736006 -291.40625 356.890625 C-291.41398437 357.90962891 -291.42171875 358.92863281 -291.4296875 359.97851562 C-291.42710937 360.96400391 -291.42453125 361.94949219 -291.421875 362.96484375 C-291.41961914 363.85131592 -291.41736328 364.73778809 -291.41503906 365.65112305 C-290.83710646 371.35030183 -288.42049983 374.50744182 -284.15625 378.203125 C-280.03941793 380.92023417 -276.05730631 382.66493177 -271.4140625 384.32421875 C-270.42809082 384.67798584 -269.44211914 385.03175293 -268.42626953 385.39624023 C-267.67716309 385.66251221 -266.92805664 385.92878418 -266.15625 386.203125 C-266.1469043 387.44400879 -266.13755859 388.68489258 -266.12792969 389.96337891 C-266.08795717 394.58190366 -266.02217793 399.19976738 -265.94873047 403.81787109 C-265.92056297 405.81387825 -265.89932748 407.80999606 -265.88525391 409.80615234 C-265.86376597 412.68123864 -265.81708574 415.55500029 -265.765625 418.4296875 C-265.76439636 419.31741852 -265.76316772 420.20514954 -265.76190186 421.11978149 C-265.62905537 426.78176946 -264.75763498 429.80076309 -261.15625 434.203125 C-260.723125 434.780625 -260.29 435.358125 -259.84375 435.953125 C-257.04082466 438.02936599 -254.5821992 438.63213347 -251.15625 439.203125 C-245.77069236 437.88035646 -242.64885123 435.46418524 -239.41998291 430.98098755 C-236.59826311 424.77845084 -237.34877545 417.51406488 -237.4296875 410.82421875 C-237.43072631 409.12606305 -237.4296847 407.42790492 -237.42666626 405.72975159 C-237.42684508 402.18152669 -237.44757373 398.63421657 -237.48388672 395.08618164 C-237.52929624 390.55113438 -237.53033721 386.01741947 -237.51685143 381.4822073 C-237.51015114 377.97927626 -237.52346982 374.47664592 -237.54310989 370.97377205 C-237.55077605 369.30213052 -237.5531261 367.63045543 -237.5499382 365.95879936 C-237.5491917 363.61829376 -237.57457179 361.27946159 -237.60693359 358.93920898 C-237.60197876 358.25693741 -237.59702393 357.57466583 -237.59191895 356.87171936 C-237.70826578 351.56780873 -239.33470287 348.53304404 -242.15625 344.203125 C-242.81625 344.203125 -243.47625 344.203125 -244.15625 344.203125 C-244.65125 342.718125 -244.65125 342.718125 -245.15625 341.203125 C-245.795625 340.6875 -246.435 340.171875 -247.09375 339.640625 C-249.38673877 336.93072918 -249.52877885 335.80950085 -250.03125 332.390625 C-250.93752816 326.9609762 -252.9919725 323.76508805 -257.15625 320.203125 C-266.74415247 314.39992087 -276.32681451 320.04135688 -283.15625 327.203125 Z M208.65625 346.515625 C207.87572266 346.72896484 207.09519531 346.94230469 206.29101562 347.16210938 C202.06111517 348.36398949 198.51525749 349.70595998 194.84375 352.203125 C193.915625 352.80125 192.9875 353.399375 192.03125 354.015625 C188.40126514 359.30503151 188.96173444 365.00678039 189.84375 371.203125 C191.40777708 374.68394651 191.40777708 374.68394651 194.84375 376.203125 C198.48791949 377.14999488 202.1062474 377.76457391 205.84375 378.203125 C205.78574219 379.44449219 205.72773437 380.68585938 205.66796875 381.96484375 C205.62105762 383.60673314 205.57555891 385.24866332 205.53125 386.890625 C205.48935547 387.70724609 205.44746094 388.52386719 205.40429688 389.36523438 C205.31597034 393.72856529 205.37623759 395.59399093 208.11328125 399.16015625 C212.78667774 402.65684632 215.6442961 403.45578532 221.53125 403.765625 C227.74492647 404.10430147 227.74492647 404.10430147 228.84375 405.203125 C228.78125 408.515625 228.78125 408.515625 227.84375 412.203125 C224.78125 414.515625 224.78125 414.515625 221.84375 416.203125 C221.84375 416.863125 221.84375 417.523125 221.84375 418.203125 C221.286875 418.30625 220.73 418.409375 220.15625 418.515625 C217.78135419 419.08227529 217.78135419 419.08227529 215.87890625 420.62890625 C210.66022075 423.3356376 204.81024753 423.68084505 199.03515625 424.48828125 C192.66247472 425.50270811 188.72095717 426.91091976 183.84375 431.203125 C181.65173168 435.49582755 181.50043536 438.5974748 182.84375 443.203125 C185.25251093 447.50448381 187.68348926 450.54906903 191.84375 453.203125 C194.75412002 453.78107604 197.57223047 453.7733515 200.53125 453.703125 C201.3363501 453.69176514 202.1414502 453.68040527 202.97094727 453.66870117 C209.32544687 453.4616077 214.20058695 452.15538011 219.84375 449.203125 C221.63530606 448.45286084 223.42697809 447.70287353 225.21875 446.953125 C231.48889409 444.07370261 237.42733803 440.48520986 242.84375 436.203125 C242.84375 435.543125 242.84375 434.883125 242.84375 434.203125 C243.4315625 433.94660156 244.019375 433.69007813 244.625 433.42578125 C251.59565911 429.58455537 255.0913736 422.33562729 257.84375 415.203125 C258.17375 414.543125 258.50375 413.883125 258.84375 413.203125 C259.87052365 402.56507667 257.57045847 393.61151059 250.84375 385.203125 C246.48807311 380.35284143 246.48807311 380.35284143 240.84375 378.203125 C240.82957031 376.94757813 240.81539062 375.69203125 240.80078125 374.3984375 C240.79596848 360.90024818 240.79596848 360.90024818 234.84375 349.203125 C230.17004671 345.3217257 226.17181399 343.83925458 220.03588867 343.99414062 C216.11531363 344.36790299 212.42610533 345.41279222 208.65625 346.515625 Z M-256.5390625 480.36328125 C-258.37631547 482.04523014 -258.37631547 482.04523014 -258.15625 484.203125 C-258.81625 484.203125 -259.47625 484.203125 -260.15625 484.203125 C-265.02310093 492.56222012 -268.1932522 499.33589195 -267.15625 509.203125 C-265.9321044 512.89307463 -265.9321044 512.89307463 -264.15625 516.203125 C-261.41296795 521.68968911 -261.24664247 524.23083348 -262.15625 530.203125 C-262.35105562 533.49519986 -262.38635718 536.7808898 -262.40625 540.078125 C-262.426875 540.92503906 -262.4475 541.77195312 -262.46875 542.64453125 C-262.52048701 551.09059772 -260.56795772 558.55445552 -255.15625 565.203125 C-250.04984873 569.19943904 -245.38496601 571.56072633 -238.84375 571.015625 C-227.81054021 569.35788062 -218.55735507 564.51400718 -211.09375 556.015625 C-207.32466975 550.54437948 -206.74018612 545.94157136 -206.71875 539.453125 C-206.71488281 538.65342285 -206.71101563 537.8537207 -206.70703125 537.02978516 C-206.82957016 530.76370717 -208.112999 526.14166729 -212.15625 521.203125 C-212.81625 521.203125 -213.47625 521.203125 -214.15625 521.203125 C-214.48625 520.213125 -214.81625 519.223125 -215.15625 518.203125 C-215.81625 518.203125 -216.47625 518.203125 -217.15625 518.203125 C-217.15625 517.543125 -217.15625 516.883125 -217.15625 516.203125 C-217.81625 515.77 -218.47625 515.336875 -219.15625 514.890625 C-221.15625 513.203125 -221.15625 513.203125 -221.59375 510.953125 C-221.02841282 507.39957703 -219.61964015 504.48111895 -218.15625 501.203125 C-216.52433535 495.43449645 -218.13566283 490.6994547 -220.15625 485.203125 C-221.92065022 482.37179699 -221.92065022 482.37179699 -224.15625 480.203125 C-224.960625 479.171875 -225.765 478.140625 -226.59375 477.078125 C-229.04302009 474.33016343 -230.82038134 472.7042659 -234.15625 471.203125 C-243.42731727 470.68124373 -249.88593249 474.18208606 -256.5390625 480.36328125 Z M171.84375 497.203125 C168.87016903 502.30069237 168.42194212 506.90053242 168.15234375 512.75 C167.84375 515.203125 167.84375 515.203125 165.84375 518.203125 C165.6724586 520.74542097 165.61132066 523.17501981 165.6484375 525.71484375 C165.6512674 526.44306839 165.65409729 527.17129303 165.65701294 527.92158508 C165.66819743 530.24476637 165.69329834 532.56756047 165.71875 534.890625 C165.72878206 536.4667913 165.73790752 538.04296365 165.74609375 539.61914062 C165.76813104 543.48061767 165.80264859 547.34180571 165.84375 551.203125 C166.50375 551.533125 167.16375 551.863125 167.84375 552.203125 C168.14410156 552.82832031 168.44445312 553.45351563 168.75390625 554.09765625 C170.71146994 557.87947284 174.0322445 559.53130262 177.84375 561.203125 C186.19342432 563.25438357 194.51376522 561.67455297 202.84375 560.203125 C202.82054687 561.11835937 202.79734375 562.03359375 202.7734375 562.9765625 C202.75539063 564.16507813 202.73734375 565.35359375 202.71875 566.578125 C202.69554687 567.76148438 202.67234375 568.94484375 202.6484375 570.1640625 C202.51508771 573.31466317 202.51508771 573.31466317 204.84375 575.203125 C204.905625 575.96625 204.9675 576.729375 205.03125 577.515625 C206.10981239 581.08317754 207.80748224 582.2651943 210.87890625 584.25 C214.07874399 585.80220757 216.36746086 585.77197231 219.84375 585.203125 C224.22442181 582.8839458 227.01764004 580.24208297 229.84375 576.203125 C232.08636651 568.70305375 231.97186148 560.78091274 231.88256836 553.01977539 C231.76561181 542.83470679 232.01496748 531.94629878 237.84375 523.203125 C238.45341003 518.53170401 238.3729405 514.40583068 236.46875 510.078125 C235.9325 509.459375 235.39625 508.840625 234.84375 508.203125 C234.18375 508.203125 233.52375 508.203125 232.84375 508.203125 C232.84375 507.213125 232.84375 506.223125 232.84375 505.203125 C226.88360966 501.9639183 222.46099917 501.88414628 215.84375 503.203125 C212.87999851 504.13207454 212.87999851 504.13207454 210.84375 505.203125 C210.84375 506.193125 210.84375 507.183125 210.84375 508.203125 C210.18375 508.203125 209.52375 508.203125 208.84375 508.203125 C206.74009565 511.77019107 205.66482437 514.68046599 205.34375 518.765625 C204.98371423 522.66055744 204.56775473 525.21550691 201.84375 528.203125 C199.20765361 529.48991514 196.66185186 530.32535557 193.84375 531.203125 C193.74609375 525.05078125 193.74609375 525.05078125 193.84375 523.203125 C194.17375 522.873125 194.50375 522.543125 194.84375 522.203125 C196.17803045 513.90093551 197.39483656 505.69039644 192.84375 498.203125 C188.26473838 494.63149594 184.71421459 493.57539563 178.921875 493.890625 C175.841671 494.35381357 174.15500368 495.09580547 171.84375 497.203125 Z M-159.78125 557.578125 C-162.09643104 560.71633283 -163.15625 563.22804636 -163.15625 567.203125 C-162.12750396 572.24398058 -160.04215476 574.88588923 -156.15625 578.203125 C-147.40603434 581.11986355 -137.05338653 578.53176406 -128.15625 577.203125 C-128.10170591 579.55761175 -128.0623221 581.91080375 -128.03125 584.265625 C-128.00804687 585.57660156 -127.98484375 586.88757813 -127.9609375 588.23828125 C-128.15706888 592.2197483 -128.98964064 595.40941821 -130.15625 599.203125 C-130.47856832 601.76335798 -130.65033973 604.29679949 -130.8125 606.87109375 C-131.17994851 609.36389786 -131.97235771 610.99739411 -133.15625 613.203125 C-133.465625 614.3375 -133.775 615.471875 -134.09375 616.640625 C-135.15625 620.203125 -135.15625 620.203125 -136.71875 622.703125 C-139.12617591 626.88995268 -139.47150714 630.62683929 -138.53125 635.328125 C-136.90141432 638.73596323 -135.02007711 640.75839454 -132.15625 643.203125 C-126.7949103 644.99023823 -121.28518598 644.98768415 -115.96875 642.953125 C-110.41554062 639.82736643 -108.28742602 633.93549615 -106.15625 628.203125 C-105.44706266 625.55525467 -104.89403936 622.96993917 -104.48046875 620.26171875 C-104.15625 618.203125 -104.15625 618.203125 -103.15625 615.203125 C-102.79381268 612.79065156 -102.46477073 610.37308447 -102.15625 607.953125 C-101.17386449 600.30893778 -101.17386449 600.30893778 -100.609375 596.91796875 C-99.18355569 585.22870873 -97.71235527 568.94622624 -103.15625 558.203125 C-107.04209032 553.38228116 -111.14389902 550.70974942 -117.15625 549.203125 C-120.2661821 548.95326782 -123.35071219 548.96879281 -126.46875 549.015625 C-127.27248047 549.01626953 -128.07621094 549.01691406 -128.90429688 549.01757812 C-139.44641433 549.09390882 -152.13131196 549.28610583 -159.78125 557.578125 Z M76.84375 559.203125 C76.84375 559.863125 76.84375 560.523125 76.84375 561.203125 C75.85375 561.203125 74.86375 561.203125 73.84375 561.203125 C65.46925226 568.50853792 63.97089902 579.79608233 63.03125 590.390625 C62.60371722 599.86047616 62.22709618 610.04929308 67.84375 618.203125 C68.83375 618.533125 69.82375 618.863125 70.84375 619.203125 C70.84375 619.863125 70.84375 620.523125 70.84375 621.203125 C77.1896592 623.78653271 81.40896469 624.76609742 87.8359375 622.0625 C88.49851562 621.77890625 89.16109375 621.4953125 89.84375 621.203125 C93.52464888 620.04357444 93.52464888 620.04357444 95.84375 621.203125 C95.71875 624.515625 95.71875 624.515625 94.84375 628.203125 C91.13182184 630.70651841 87.06717581 631.7953164 82.84375 633.203125 C79.08091832 634.67874527 77.26205642 635.58960892 74.96875 638.953125 C73.66458279 642.72071916 73.34851929 645.24127932 73.84375 649.203125 C76.29331225 654.00803557 78.91217704 656.99241988 83.84375 659.203125 C95.33394742 661.22636607 103.52895351 657.37757185 112.84375 651.203125 C114.72925046 649.70992505 114.72925046 649.70992505 115.84375 648.203125 C115.84375 647.543125 115.84375 646.883125 115.84375 646.203125 C116.83375 645.873125 117.82375 645.543125 118.84375 645.203125 C123.94664204 637.16220421 125.71123515 627.79893852 124.15625 618.390625 C123.7538928 616.65294485 123.31876732 614.92236383 122.84375 613.203125 C122.658125 612.49542969 122.4725 611.78773438 122.28125 611.05859375 C119.49954689 602.24407203 113.47530724 595.73038878 105.48828125 591.2890625 C101.34037068 589.5857846 97.29709446 589.2220754 92.84375 589.203125 C93.22345588 586.38245272 93.48698353 584.64320113 94.84375 582.203125 C98.93419966 579.39423253 103.84586975 578.19609362 108.53125 576.703125 C113.02362413 575.25017183 117.41311514 573.53343745 119.98046875 569.3515625 C121.46066744 565.6678101 121.40856625 562.1010544 120.84375 558.203125 C118.56355851 554.31835431 115.94998337 552.02811761 111.84375 550.203125 C99.41321055 547.32171643 87.64104945 553.50455029 76.84375 559.203125 Z M-35.15625 564.203125 C-38.87177266 569.1881179 -40.74075067 574.36984888 -41.796875 580.453125 C-42.15625 582.203125 -42.15625 582.203125 -43.15625 583.203125 C-43.2593535 584.56311928 -43.2947388 585.92835625 -43.30151367 587.29223633 C-43.30789352 588.16016312 -43.31427338 589.0280899 -43.32084656 589.9223175 C-43.32195938 590.86705429 -43.3230722 591.81179108 -43.32421875 592.78515625 C-43.32754715 593.75088058 -43.33087555 594.71660492 -43.33430481 595.71159363 C-43.33937927 597.76027956 -43.34171298 599.8089738 -43.34155273 601.85766602 C-43.34373345 604.99183846 -43.36186776 608.12565581 -43.38085938 611.25976562 C-43.38379433 613.24739463 -43.38577844 615.2350253 -43.38671875 617.22265625 C-43.39390427 618.16132034 -43.40108978 619.09998444 -43.40849304 620.0670929 C-43.40541641 620.94447617 -43.40233978 621.82185944 -43.39916992 622.72583008 C-43.40059494 623.4955867 -43.40201996 624.26534332 -43.40348816 625.0584259 C-43.12365457 627.48587825 -42.27762191 629.05104935 -41.15625 631.203125 C-40.96337433 633.49007933 -40.84538828 635.78394816 -40.78125 638.078125 C-40.44727371 643.82132436 -40.04411204 646.97221631 -36.15625 651.203125 C-35.640625 651.80125 -35.125 652.399375 -34.59375 653.015625 C-31.01561518 655.97147551 -26.52767686 655.46516986 -22.15625 655.203125 C-18.77012183 654.78405992 -15.44071363 654.17392003 -12.09375 653.515625 C-11.23458984 653.36673828 -10.37542969 653.21785156 -9.49023438 653.06445312 C-3.57865249 651.91284627 0.26054898 650.15201597 4.84375 646.203125 C4.84375 645.543125 4.84375 644.883125 4.84375 644.203125 C5.83375 643.873125 6.82375 643.543125 7.84375 643.203125 C13.34408997 634.63498978 14.10652957 625.07385194 12.84375 615.203125 C11.43484377 611.828421 11.43484377 611.828421 9.84375 609.203125 C9.18375 609.203125 8.52375 609.203125 7.84375 609.203125 C7.51375 608.213125 7.18375 607.223125 6.84375 606.203125 C4.33799224 603.42700916 2.1013437 602.97357357 -1.484375 602.69140625 C-3.12443349 602.61866172 -4.7651924 602.56049767 -6.40625 602.515625 C-7.24671875 602.48146484 -8.0871875 602.44730469 -8.953125 602.41210938 C-11.02037204 602.32988932 -13.08828874 602.26482343 -15.15625 602.203125 C-15.21048638 600.28677283 -15.24914963 598.36997575 -15.28125 596.453125 C-15.30445313 595.38578125 -15.32765625 594.3184375 -15.3515625 593.21875 C-15.15673358 590.21059147 -14.59910289 588.77730572 -13.15625 586.203125 C-12.69733958 583.4955535 -12.36777657 580.92893336 -12.15625 578.203125 C-12.04023438 577.06037109 -12.04023438 577.06037109 -11.921875 575.89453125 C-11.6689024 571.72751037 -11.78227914 569.08135931 -14.46875 565.765625 C-17.83156611 562.55921894 -19.84052837 560.91460542 -24.46875 560.890625 C-28.77881308 561.03033531 -31.62077856 561.55152142 -35.15625 564.203125 Z " fill="#FCFBF0" transform="translate(396.15625,75.796875)"/>
<path d="M0 0 C0.66 0 1.32 0 2 0 C2.00808685 0.56740906 2.01617371 1.13481812 2.02450562 1.71942139 C2.11055457 7.62437375 2.21005838 13.52899055 2.31738281 19.43359375 C2.35566886 21.63731247 2.39052237 23.84109361 2.421875 26.04492188 C2.4675333 29.21246652 2.52552702 32.37958162 2.5859375 35.546875 C2.60326431 37.02519806 2.60326431 37.02519806 2.62094116 38.53338623 C2.64081085 39.4540387 2.66068054 40.37469116 2.68115234 41.32324219 C2.69447601 42.1315448 2.70779968 42.93984741 2.7215271 43.77264404 C3.02723048 46.21780207 3.78047506 47.87506846 5 50 C3.125 49.8125 3.125 49.8125 1 49 C-1.64671757 44.38427709 -1.27225807 39.55090029 -1.23046875 34.39453125 C-1.23001053 33.47411545 -1.22955231 32.55369965 -1.2290802 31.60539246 C-1.22606683 29.66635849 -1.21820802 27.72732675 -1.20581055 25.78833008 C-1.18750047 22.81257613 -1.18530137 19.83713265 -1.18554688 16.86132812 C-1.18063333 14.9765598 -1.17480573 13.09179358 -1.16796875 11.20703125 C-1.16685593 10.31434036 -1.1657431 9.42164948 -1.16459656 8.50190735 C-1.15821671 7.67732529 -1.15183685 6.85274323 -1.14526367 6.00317383 C-1.14145187 5.27657059 -1.13764008 4.54996735 -1.13371277 3.80134583 C-1 2 -1 2 0 0 Z " fill="#829FF3" transform="translate(351,401)"/>
<path d="M0 0 C0.66 0 1.32 0 2 0 C2 13.53 2 27.06 2 41 C1.34 41 0.68 41 0 41 C-0.33 41.66 -0.66 42.32 -1 43 C-0.99476318 42.42145264 -0.98952637 41.84290527 -0.98413086 41.24682617 C-0.78494282 27.02609016 -0.78494282 27.02609016 -1.87890625 12.86328125 C-2 11 -2 11 -1 9 C-0.77532169 7.46331135 -0.59203195 5.92031946 -0.4375 4.375 C-0.35371094 3.55773437 -0.26992188 2.74046875 -0.18359375 1.8984375 C-0.12300781 1.27195313 -0.06242187 0.64546875 0 0 Z " fill="#9E94F0" transform="translate(312,171)"/>
<path d="M0 0 C15.18 0 30.36 0 46 0 C46 0.33 46 0.66 46 1 C31.46542761 4.89443088 14.63125908 4.09188871 0 1 C0 0.67 0 0.34 0 0 Z " fill="#000EF4" transform="translate(317,786)"/>
<path d="M0 0 C6.55087271 2.96779869 9.39198754 7.81849779 12.1875 14.21875 C13.07868956 17.26936041 13.14878401 19.83833972 13 23 C12.731875 22.443125 12.46375 21.88625 12.1875 21.3125 C6.54711416 10.21012049 6.54711416 10.21012049 -3 3 C-6.01896391 2.78071715 -8.98000589 2.82235329 -12 3 C-8.48971107 -0.51028893 -4.7164101 -1.0100479 0 0 Z " fill="#0933EF" transform="translate(165,545)"/>
<path d="M0 0 C0.99 0.33 1.98 0.66 3 1 C3 10.9 3 20.8 3 31 C2.67 31 2.34 31 2 31 C2 28.69 2 26.38 2 24 C1.34 24 0.68 24 0 24 C0 16.08 0 8.16 0 0 Z " fill="#989AEE" transform="translate(350,666)"/>
<path d="M0 0 C0.99 0.33 1.98 0.66 3 1 C3 9.25 3 17.5 3 26 C0 23 0 23 -0.328125 19.49609375 C-0.31752305 18.14302008 -0.29094594 16.78999554 -0.25 15.4375 C-0.24226563 14.40979492 -0.24226563 14.40979492 -0.234375 13.36132812 C-0.15506269 8.31012538 -0.15506269 8.31012538 1 6 C0.71887936 3.99199544 0.38932033 1.98985949 0 0 Z " fill="#DED8ED" transform="translate(128,461)"/>
<path d="M0 0 C1.98 0 3.96 0 6 0 C3.96608067 2.16461294 1.98141068 3.75455268 -0.57421875 5.26171875 C-1.24130859 5.65810547 -1.90839844 6.05449219 -2.59570312 6.46289062 C-3.28599609 6.86701172 -3.97628906 7.27113281 -4.6875 7.6875 C-5.38939453 8.10322266 -6.09128906 8.51894531 -6.81445312 8.94726562 C-8.54059738 9.9688612 -10.26998515 10.98497284 -12 12 C-12.33 11.01 -12.66 10.02 -13 9 C-11.46446743 5.92893485 -9.07883346 5.32812424 -6 4 C-4.68 4 -3.36 4 -2 4 C-1.34 2.68 -0.68 1.36 0 0 Z " fill="#9BA4DF" transform="translate(593,737)"/>
<path d="M0 0 C4.28973106 -0.07149552 7.85066638 -0.03733341 12 1 C13.33568021 0.67619874 14.66923011 0.34342449 16 0 C16.99 0.33 17.98 0.66 19 1 C19 1.66 19 2.32 19 3 C20.423125 2.938125 20.423125 2.938125 21.875 2.875 C25 3 25 3 27 5 C20.4576343 5.20956527 14.78261159 4.54580496 8.4375 3 C7.61958984 2.80921875 6.80167969 2.6184375 5.95898438 2.421875 C3.97056956 1.95674873 1.98496244 1.47964573 0 1 C0 0.67 0 0.34 0 0 Z " fill="#91A6EC" transform="translate(396,784)"/>
<path d="M0 0 C0.99 0.33 1.98 0.66 3 1 C2.01 1.495 2.01 1.495 1 2 C0.70996094 2.60328125 0.41992188 3.2065625 0.12109375 3.828125 C-1.20830651 6.40354849 -2.75822497 7.85074355 -4.9375 9.75 C-5.62714844 10.36359375 -6.31679687 10.9771875 -7.02734375 11.609375 C-9 13 -9 13 -12 13 C-10.71480435 10.13302508 -9.42870746 8.02392288 -7 6 C-6.34 6 -5.68 6 -5 6 C-5 5.34 -5 4.68 -5 4 C-2.6875 1.8125 -2.6875 1.8125 0 0 Z " fill="#DFEBEA" transform="translate(184,165)"/>
<path d="M0 0 C0.33 0 0.66 0 1 0 C1.60565429 10.33938394 2.18615302 20.6374817 2 31 C1.01 30.67 0.02 30.34 -1 30 C-1.33 26.7 -1.66 23.4 -2 20 C-1.34 20 -0.68 20 0 20 C0 13.4 0 6.8 0 0 Z " fill="#6A6FE3" transform="translate(717,490)"/>
<path d="M0 0 C1.485 0.680625 1.485 0.680625 3 1.375 C6.92110131 3.06692715 10.84092487 4.05143901 15 5 C15 7.31 15 9.62 15 12 C14.01 11.67 13.02 11.34 12 11 C12.33 9.68 12.66 8.36 13 7 C12.01 7 11.02 7 10 7 C10 6.34 10 5.68 10 5 C7.36 5.33 4.72 5.66 2 6 C1.67 5.01 1.34 4.02 1 3 C0.34 2.67 -0.32 2.34 -1 2 C-0.67 1.34 -0.34 0.68 0 0 Z " fill="#92A4DE" transform="translate(587,449)"/>
<path d="M0 0 C0.99 0.33 1.98 0.66 3 1 C0.36 6.28 -2.28 11.56 -5 17 C-5.66 16.67 -6.32 16.34 -7 16 C-6.125 11.25 -6.125 11.25 -5 9 C-4.34 9 -3.68 9 -3 9 C-2.67 6.69 -2.34 4.38 -2 2 C-1.34 2 -0.68 2 0 2 C0 1.34 0 0.68 0 0 Z " fill="#C1C5E8" transform="translate(699,615)"/>
<path d="M0 0 C0.33 0 0.66 0 1 0 C1.05802698 3.43742918 1.09360486 6.87473253 1.125 10.3125 C1.14175781 11.28896484 1.15851563 12.26542969 1.17578125 13.27148438 C1.18222656 14.20927734 1.18867188 15.14707031 1.1953125 16.11328125 C1.20578613 16.97735596 1.21625977 17.84143066 1.22705078 18.73168945 C1 21 1 21 -1 24 C-2.89157542 16.19725138 -2.24308761 7.6905861 0 0 Z " fill="#9BA0F6" transform="translate(355,359)"/>
<path d="M0 0 C1.19238281 0.08378906 2.38476562 0.16757812 3.61328125 0.25390625 C5.17966708 0.35708136 6.74607451 0.45992889 8.3125 0.5625 C9.09818359 0.61857422 9.88386719 0.67464844 10.69335938 0.73242188 C11.45068359 0.78076172 12.20800781 0.82910156 12.98828125 0.87890625 C13.68477783 0.9260376 14.38127441 0.97316895 15.09887695 1.02172852 C17.22639828 1.09418115 17.22639828 1.09418115 20 0 C22.26171875 0.33984375 22.26171875 0.33984375 24.6875 0.9375 C25.49574219 1.13214844 26.30398438 1.32679688 27.13671875 1.52734375 C28.05904297 1.76130859 28.05904297 1.76130859 29 2 C29 2.33 29 2.66 29 3 C20.04578171 4.37757204 7.82442098 5.21628065 0 0 Z " fill="#769AF5" transform="translate(291,782)"/>
<path d="M0 0 C3.63 0 7.26 0 11 0 C11.33 0.99 11.66 1.98 12 3 C11.09507812 3.09087891 11.09507812 3.09087891 10.171875 3.18359375 C8.97304688 3.30927734 8.97304688 3.30927734 7.75 3.4375 C6.96109375 3.51871094 6.1721875 3.59992187 5.359375 3.68359375 C3.17635361 3.97634993 1.1226818 4.42064419 -1 5 C-0.67 3.35 -0.34 1.7 0 0 Z " fill="#8D92F1" transform="translate(364,634)"/>
<path d="M0 0 C0.66 0.99 1.32 1.98 2 3 C1.67 3.66 1.34 4.32 1 5 C1.66 5.33 2.32 5.66 3 6 C2.01 6.33 1.02 6.66 0 7 C0 9.64 0 12.28 0 15 C-0.99 15.495 -0.99 15.495 -2 16 C-2.72159424 17.64363134 -3.39351421 19.31050386 -4 21 C-5.09178911 17.72463268 -4.93042848 16.95586381 -4.00390625 13.76953125 C-3.77509766 12.96708984 -3.54628906 12.16464844 -3.31054688 11.33789062 C-2.94026367 10.08782227 -2.94026367 10.08782227 -2.5625 8.8125 C-2.31951172 7.96751953 -2.07652344 7.12253906 -1.82617188 6.25195312 C-1.22506507 4.1657589 -0.61352166 2.08257699 0 0 Z " fill="#C2CFEF" transform="translate(79,319)"/>
<path d="M0 0 C1.32 0.66 2.64 1.32 4 2 C2.42065361 2.98558449 0.83634827 3.96322541 -0.75 4.9375 C-2.07257812 5.75541016 -2.07257812 5.75541016 -3.421875 6.58984375 C-5.68399917 7.82715712 -7.48566325 8.53590513 -10 9 C-9.67 8.01 -9.34 7.02 -9 6 C-8.34 6 -7.68 6 -7 6 C-7 5.01 -7 4.02 -7 3 C-5.02 3 -3.04 3 -1 3 C-0.67 2.01 -0.34 1.02 0 0 Z " fill="#A9AEF5" transform="translate(572,750)"/>
<path d="M0 0 C0.66 0.33 1.32 0.66 2 1 C2.5546875 3.8359375 2.5546875 3.8359375 2.875 7.375 C2.99617188 8.53773438 3.11734375 9.70046875 3.2421875 10.8984375 C3 14 3 14 1.0078125 15.9140625 C0.01394531 16.45160156 0.01394531 16.45160156 -1 17 C-1.66 16.34 -2.32 15.68 -3 15 C-2.01 14.67 -1.02 14.34 0 14 C0 9.38 0 4.76 0 0 Z " fill="#6B74F0" transform="translate(499,367)"/>
<path d="M0 0 C2.31 0 4.62 0 7 0 C7 0.66 7 1.32 7 2 C7.99 2 8.98 2 10 2 C10 2.99 10 3.98 10 5 C10.99 4.67 11.98 4.34 13 4 C13.99 5.65 14.98 7.3 16 9 C9.96948745 7.34160905 4.44012834 4.44012834 0 0 Z " fill="#8DB6FB" transform="translate(180,733)"/>
<path d="M0 0 C0.33 0 0.66 0 1 0 C3.29612756 16.70842825 3.29612756 16.70842825 3 25 C2.67 25 2.34 25 2 25 C1.80083984 24.04287109 1.80083984 24.04287109 1.59765625 23.06640625 C1.42105469 22.24011719 1.24445312 21.41382813 1.0625 20.5625 C0.88847656 19.73878906 0.71445312 18.91507812 0.53515625 18.06640625 C0.19247006 16.02338796 0.19247006 16.02338796 -1 15 C-1.23255814 10.46511628 -1.23255814 10.46511628 0 8 C0.0689472 6.62657169 0.08467708 5.24997898 0.0625 3.875 C0.041875 2.59625 0.02125 1.3175 0 0 Z " fill="#7884F6" transform="translate(712,443)"/>
<path d="M0 0 C0.33 0 0.66 0 1 0 C1.19600577 2.22843488 1.38146569 4.45779893 1.5625 6.6875 C1.66691406 7.92886719 1.77132813 9.17023438 1.87890625 10.44921875 C1.98493841 13.55835533 1.77228525 16.00810972 1 19 C0.34 19 -0.32 19 -1 19 C-1.02697137 16.39576408 -1.04682489 13.79180756 -1.0625 11.1875 C-1.07087891 10.44951172 -1.07925781 9.71152344 -1.08789062 8.95117188 C-1.10259828 5.70077932 -1.03531702 3.10595105 0 0 Z " fill="#8996E3" transform="translate(386,337)"/>
<path d="M0 0 C0.33 0 0.66 0 1 0 C1 6.27 1 12.54 1 19 C0.01 19 -0.98 19 -2 19 C-2.09765625 12.84765625 -2.09765625 12.84765625 -2 11 C-1.67 10.67 -1.34 10.34 -1 10 C-0.76712992 8.31816052 -0.58735834 6.6287584 -0.4375 4.9375 C-0.35371094 4.01839844 -0.26992188 3.09929688 -0.18359375 2.15234375 C-0.12300781 1.44207031 -0.06242188 0.73179687 0 0 Z " fill="#697EE5" transform="translate(561,603)"/>
<path d="M0 0 C2.1519437 3.22791555 2.20086443 4.28400809 2 8 C2.99 8.33 3.98 8.66 5 9 C5 13.29 5 17.58 5 22 C0.75366453 15.6304968 0.59272252 7.47142329 0 0 Z " fill="#5468F2" transform="translate(60,571)"/>
<path d="M0 0 C0.33 0 0.66 0 1 0 C1.13277344 0.84304688 1.26554688 1.68609375 1.40234375 2.5546875 C1.57894531 3.65039062 1.75554688 4.74609375 1.9375 5.875 C2.19853516 7.51082031 2.19853516 7.51082031 2.46484375 9.1796875 C2.85551159 11.93821546 2.85551159 11.93821546 4 14 C4.04022391 16.3329866 4.04320247 18.66706666 4 21 C3.67 21 3.34 21 3 21 C2.566875 19.3603125 2.566875 19.3603125 2.125 17.6875 C1.18106796 13.95986155 1.18106796 13.95986155 -1 11 C-0.9765625 8.30078125 -0.9765625 8.30078125 -0.625 5.3125 C-0.51414062 4.31863281 -0.40328125 3.32476562 -0.2890625 2.30078125 C-0.19367187 1.54152344 -0.09828125 0.78226562 0 0 Z " fill="#7C92F6" transform="translate(706,406)"/>
<path d="M0 0 C1.8141927 0.28094582 3.62635001 0.57506433 5.4375 0.875 C6.95150391 1.11863281 6.95150391 1.11863281 8.49609375 1.3671875 C9.32238281 1.57601562 10.14867187 1.78484375 11 2 C11.33 2.66 11.66 3.32 12 4 C11.40832031 3.97679687 10.81664062 3.95359375 10.20703125 3.9296875 C5.65513494 3.82572902 2.14118852 3.86666046 -2 6 C-2.99 6.495 -2.99 6.495 -4 7 C-4.33 5.68 -4.66 4.36 -5 3 C-3.35 2.67 -1.7 2.34 0 2 C0 1.34 0 0.68 0 0 Z " fill="#7479ED" transform="translate(535,183)"/>
<path d="M0 0 C0.99 0.33 1.98 0.66 3 1 C2.34 7.27 1.68 13.54 1 20 C0.67 20 0.34 20 0 20 C0 13.4 0 6.8 0 0 Z " fill="#EDE4E2" transform="translate(59,431)"/>
<path d="M0 0 C5.61 0 11.22 0 17 0 C13 3 13 3 10.96484375 3.07421875 C10.29582031 2.94660156 9.62679687 2.81898438 8.9375 2.6875 C5.17362982 1.91399949 5.17362982 1.91399949 2 2 C1.34 1.34 0.68 0.68 0 0 Z " fill="#BDB7EF" transform="translate(588,529)"/>
<path d="M0 0 C1.62490954 -0.02698189 3.24994633 -0.04638757 4.875 -0.0625 C5.77992188 -0.07410156 6.68484375 -0.08570313 7.6171875 -0.09765625 C10 0 10 0 12 1 C12 1.66 12 2.32 12 3 C8.04 3 4.08 3 0 3 C0 2.01 0 1.02 0 0 Z " fill="#7A87E2" transform="translate(590,282)"/>
<path d="M0 0 C-0.98872458 2.69652159 -1.59212453 3.79023547 -4.1875 5.125 C-7.44450171 6.13828942 -10.71067273 7.09704742 -14 8 C-14 7.34 -14 6.68 -14 6 C-12.04414675 4.99515796 -10.08523763 3.99626195 -8.125 3 C-6.48917969 2.1646875 -6.48917969 2.1646875 -4.8203125 1.3125 C-2 0 -2 0 0 0 Z " fill="#D2D5EB" transform="translate(256,112)"/>
<path d="M0 0 C0.33 0 0.66 0 1 0 C1.07347656 1.01320313 1.07347656 1.01320313 1.1484375 2.046875 C1.22320313 2.93890625 1.29796875 3.8309375 1.375 4.75 C1.44460938 5.63171875 1.51421875 6.5134375 1.5859375 7.421875 C2.00383252 10.02386288 2.60645133 11.77433233 4 14 C4.66 14.33 5.32 14.66 6 15 C4.68 15 3.36 15 2 15 C-0.5092636 10.14875705 -1.2037995 6.50258639 -1 1 C-0.67 0.67 -0.34 0.34 0 0 Z " fill="#5873F6" transform="translate(601,462)"/>
<path d="M0 0 C0.99 0.33 1.98 0.66 3 1 C4.1875 4.5625 4.1875 4.5625 5 8 C5.66 8 6.32 8 7 8 C7.66 9.32 8.32 10.64 9 12 C7.35 12 5.7 12 4 12 C3.566875 10.6078125 3.566875 10.6078125 3.125 9.1875 C2.1125 5.90208333 2.1125 5.90208333 0 3 C0 2.01 0 1.02 0 0 Z " fill="#8692FA" transform="translate(562,307)"/>
<path d="M0 0 C0.33 0.66 0.66 1.32 1 2 C0.67 2.66 0.34 3.32 0 4 C-0.66 4 -1.32 4 -2 4 C-1.67 4.99 -1.34 5.98 -1 7 C-1.66 7.66 -2.32 8.32 -3 9 C-4.32 9 -5.64 9 -7 9 C-7.33 9.99 -7.66 10.98 -8 12 C-8.99 11.67 -9.98 11.34 -11 11 C-10.54109375 10.62488281 -10.0821875 10.24976563 -9.609375 9.86328125 C-5.96703891 6.82545052 -2.82808093 3.84619007 0 0 Z " fill="#B6B7E2" transform="translate(221,136)"/>
<path d="M0 0 C2.875 1.5 2.875 1.5 5 3 C3 4 3 4 1.3125 3.5 C-3.11289887 2.543157 -7.69360147 3.79420841 -12 5 C-7.91758653 0.78150608 -5.98640902 -0.46952228 0 0 Z " fill="#0622F2" transform="translate(137,283)"/>
<path d="M0 0 C0.66 0 1.32 0 2 0 C2 1.32 2 2.64 2 4 C1.34 4 0.68 4 0 4 C-0.309375 4.94875 -0.61875 5.8975 -0.9375 6.875 C-2 10 -2 10 -3 12 C-3.99 11.67 -4.98 11.34 -6 11 C-4.54997977 6.89160936 -2.6020866 3.49655387 0 0 Z " fill="#C7D1F1" transform="translate(117,241)"/>
<path d="M0 0 C2 2 2 2 2.1953125 5.0390625 C2.17210937 6.22242188 2.14890625 7.40578125 2.125 8.625 C2.10695313 9.81351562 2.08890625 11.00203125 2.0703125 12.2265625 C2.04710937 13.14179688 2.02390625 14.05703125 2 15 C1.67 13.68 1.34 12.36 1 11 C0.34 11 -0.32 11 -1 11 C-1.14285714 3.57142857 -1.14285714 3.57142857 0 0 Z " fill="#83ACE6" transform="translate(715,474)"/>
<path d="M0 0 C2.4375 0.8125 2.4375 0.8125 5 2 C5.33 2.99 5.66 3.98 6 5 C5.01 5.495 5.01 5.495 4 6 C3.13375 5.690625 2.2675 5.38125 1.375 5.0625 C-2.67515894 3.78744996 -5.77475879 3.85430203 -10 4 C-6.3558226 1.5705484 -4.28758728 1.83820425 0 2 C0 1.34 0 0.68 0 0 Z " fill="#698BEC" transform="translate(252,185)"/>
<path d="M0 0 C1.4540625 0.0309375 1.4540625 0.0309375 2.9375 0.0625 C2.9375 0.3925 2.9375 0.7225 2.9375 1.0625 C5.9075 1.5575 5.9075 1.5575 8.9375 2.0625 C5.73369983 4.19836678 4.91810033 4.29382175 1.25 4.1875 C0.44175781 4.16945313 -0.36648438 4.15140625 -1.19921875 4.1328125 C-2.12154297 4.09800781 -2.12154297 4.09800781 -3.0625 4.0625 C-3.3925 3.0725 -3.7225 2.0825 -4.0625 1.0625 C-3.0625 0.0625 -3.0625 0.0625 0 0 Z " fill="#8381FA" transform="translate(456.0625,786.9375)"/>
<path d="M0 0 C-3.36423277 2.96052484 -6.69159287 3.92289822 -11 5 C-11 4.01 -11 3.02 -11 2 C-3.57142857 -1.57142857 -3.57142857 -1.57142857 0 0 Z " fill="#8B8AEA" transform="translate(553,764)"/>
<path d="M0 0 C0.12375 0.515625 0.2475 1.03125 0.375 1.5625 C1.78689646 7.42474683 1.78689646 7.42474683 4 13 C2.02 12.34 0.04 11.68 -2 11 C-3.2295082 6.57377049 -3.2295082 6.57377049 -2.125 3.8125 C-1.75375 3.214375 -1.3825 2.61625 -1 2 C-0.67 1.34 -0.34 0.68 0 0 Z " fill="#888AF0" transform="translate(257,703)"/>
<path d="M0 0 C0.66 1.65 1.32 3.3 2 5 C1.360625 4.67 0.72125 4.34 0.0625 4 C-4.01236841 2.66943072 -7.75190425 2.83340801 -12 3 C-8.2391768 -0.7608232 -5.0273023 -0.25136512 0 0 Z " fill="#0A18FA" transform="translate(165,545)"/>
<path d="M0 0 C0.99 0 1.98 0 3 0 C4.4216319 3.3171411 5.39009109 6.44219804 6 10 C6.66 10 7.32 10 8 10 C8 10.99 8 11.98 8 13 C7.34 13 6.68 13 6 13 C4.99491199 11.21118264 3.99607264 9.41885304 3 7.625 C2.1646875 6.12839844 2.1646875 6.12839844 1.3125 4.6015625 C0 2 0 2 0 0 Z " fill="#A2ACD8" transform="translate(84,639)"/>
<path d="M0 0 C0.99 0.33 1.98 0.66 3 1 C2.50886719 1.54140625 2.01773438 2.0828125 1.51171875 2.640625 C-0.3667612 5.57241283 -0.31060725 7.30299691 -0.1875 10.75 C-0.14689453 12.22726562 -0.14689453 12.22726562 -0.10546875 13.734375 C-0.07066406 14.48203125 -0.03585938 15.2296875 0 16 C-0.66 16 -1.32 16 -2 16 C-3.52940159 5.35619163 -3.52940159 5.35619163 -1 1 C-0.67 0.67 -0.34 0.34 0 0 Z " fill="#EAE9F6" transform="translate(233,632)"/>
<path d="M0 0 C0.33 0 0.66 0 1 0 C1.19335938 0.81984375 1.38671875 1.6396875 1.5859375 2.484375 C1.84632813 3.56203125 2.10671875 4.6396875 2.375 5.75 C2.63023437 6.81734375 2.88546875 7.8846875 3.1484375 8.984375 C3.87533541 11.55852722 4.7026224 13.67600186 6 16 C4.125 15.8125 4.125 15.8125 2 15 C-0.89257512 10.51650857 -0.17931081 5.13028158 0 0 Z " fill="#CFD0F0" transform="translate(350,435)"/>
<path d="M0 0 C1.93938819 2.90908228 2.96774957 5.40862379 4.125 8.6875 C4.47820313 9.68136719 4.83140625 10.67523438 5.1953125 11.69921875 C5.46085938 12.45847656 5.72640625 13.21773438 6 14 C5.01 13.67 4.02 13.34 3 13 C3.33 12.34 3.66 11.68 4 11 C3.01 10.67 2.02 10.34 1 10 C-0.1577506 6.52674819 -0.06866652 3.63932552 0 0 Z " fill="#A0B1F0" transform="translate(670,283)"/>
<path d="M0 0 C0.66 0.99 1.32 1.98 2 3 C-1.51187196 5.40814077 -3.72656908 6.36629408 -8 6 C-8.33 5.34 -8.66 4.68 -9 4 C-6.03 2.68 -3.06 1.36 0 0 Z " fill="#D4D7EF" transform="translate(265,107)"/>
<path d="M0 0 C1.98 0 3.96 0 6 0 C6.33 1.65 6.66 3.3 7 5 C7.99 5.33 8.98 5.66 10 6 C9.01 6.66 8.02 7.32 7 8 C6.401875 7.236875 5.80375 6.47375 5.1875 5.6875 C3.53040668 3.6516425 1.89702326 1.8021721 0 0 Z " fill="#8691FD" transform="translate(376,637)"/>
<path d="M0 0 C0.66 0 1.32 0 2 0 C2 0.99 2 1.98 2 3 C3.32 3.33 4.64 3.66 6 4 C6.33 5.98 6.66 7.96 7 10 C6.01 10.33 5.02 10.66 4 11 C2.68 7.37 1.36 3.74 0 0 Z " fill="#A7B3ED" transform="translate(70,610)"/>
<path d="M0 0 C3.57142857 3.57142857 3.57142857 3.57142857 4 7 C3.67 7.99 3.34 8.98 3 10 C2.34 10 1.68 10 1 10 C0.67 10.66 0.34 11.32 0 12 C0 8.04 0 4.08 0 0 Z " fill="#D4E2F1" transform="translate(59,556)"/>
<path d="M0 0 C2.74554724 2.37115444 3.95117186 4.53079925 5 8 C5.125 11.3125 5.125 11.3125 5 14 C4.731875 13.443125 4.46375 12.88625 4.1875 12.3125 C2.34475342 8.72399349 0.23673964 5.35510946 -2 2 C-1.34 1.34 -0.68 0.68 0 0 Z " fill="#012EFC" transform="translate(173,554)"/>
<path d="M0 0 C0.36923077 6.52307692 0.36923077 6.52307692 -1.5 8.9375 C-1.995 9.288125 -2.49 9.63875 -3 10 C-3.33 9.67 -3.66 9.34 -4 9 C-3.94921875 7.1875 -3.94921875 7.1875 -3.6875 5 C-3.60886719 4.278125 -3.53023438 3.55625 -3.44921875 2.8125 C-3.30097656 2.214375 -3.15273437 1.61625 -3 1 C-1 0 -1 0 0 0 Z " fill="#BAC8E8" transform="translate(68,376)"/>
<path d="M0 0 C0.680625 0.33 1.36125 0.66 2.0625 1 C5.50840238 2.17307315 8.38397422 2.14180493 12 2 C11.01 3.485 11.01 3.485 10 5 C8.0546875 5.29296875 8.0546875 5.29296875 5.875 5.1875 C4.59625 5.125625 3.3175 5.06375 2 5 C1.34 3.35 0.68 1.7 0 0 Z " fill="#D5D8E5" transform="translate(536,259)"/>
<path d="M0 0 C3.20607196 4.27476261 3.37377101 5.08751973 3.25 10.125 C3.23453125 11.17945313 3.2190625 12.23390625 3.203125 13.3203125 C3 16 3 16 2 18 C1.34 18 0.68 18 0 18 C0 12.06 0 6.12 0 0 Z " fill="#92AAEA" transform="translate(264,231)"/>
<path d="M0 0 C0.99 0.33 1.98 0.66 3 1 C0.14723863 3.93200474 -2.65079784 6.64315404 -6 9 C-5.67 7.68 -5.34 6.36 -5 5 C-4.34 5 -3.68 5 -3 5 C-2.87625 4.360625 -2.7525 3.72125 -2.625 3.0625 C-2.41875 2.381875 -2.2125 1.70125 -2 1 C-1.34 0.67 -0.68 0.34 0 0 Z " fill="#A9A9EF" transform="translate(638,704)"/>
<path d="M0 0 C0.33 0 0.66 0 1 0 C1.21824777 6.0018137 0.5056904 11.19233704 -1 17 C-3 14 -3 14 -2.75 11.3125 C-1.89217283 7.52376334 -0.97266787 3.76098244 0 0 Z " fill="#4667F7" transform="translate(717,558)"/>
<path d="M0 0 C0.66 0 1.32 0 2 0 C1.979375 0.928125 1.95875 1.85625 1.9375 2.8125 C1.84230396 6.02286011 1.84230396 6.02286011 3 9 C2.01 9.33 1.02 9.66 0 10 C-1.25664978 7.09399739 -2 5.20395416 -2 2 C-1.34 2 -0.68 2 0 2 C0 1.34 0 0.68 0 0 Z " fill="#EEF0F9" transform="translate(177,552)"/>
<path d="M0 0 C0.33 0.66 0.66 1.32 1 2 C-0.0625 4.5625 -0.0625 4.5625 -2 7 C-5.1875 7.8125 -5.1875 7.8125 -8 8 C-8 7.34 -8 6.68 -8 6 C-7.01 6 -6.02 6 -5 6 C-4.67 5.01 -4.34 4.02 -4 3 C-1.9375 1.3125 -1.9375 1.3125 0 0 Z " fill="#B2BEE0" transform="translate(396,449)"/>
<path d="M0 0 C0.66 0 1.32 0 2 0 C3.65 3.3 5.3 6.6 7 10 C6.01 10 5.02 10 4 10 C3.34 8.35 2.68 6.7 2 5 C1.34 5 0.68 5 0 5 C0 3.35 0 1.7 0 0 Z " fill="#C1CEED" transform="translate(636,215)"/>
<path d="M0 0 C5.41538462 -0.36923077 5.41538462 -0.36923077 8.375 1.5 C8.91125 1.995 9.4475 2.49 10 3 C9.67 3.99 9.34 4.98 9 6 C6.03 4.35 3.06 2.7 0 1 C0 0.67 0 0.34 0 0 Z " fill="#A4B4E4" transform="translate(196,742)"/>
<path d="M0 0 C2 3 2 3 1.64453125 4.97265625 C1.36996094 5.66230469 1.09539062 6.35195313 0.8125 7.0625 C0.55082031 7.75472656 0.28914063 8.44695312 0.01953125 9.16015625 C-1 11 -1 11 -4 13 C-3.52343588 11.20763933 -3.04366502 9.41613103 -2.5625 7.625 C-2.29566406 6.62726563 -2.02882813 5.62953125 -1.75390625 4.6015625 C-1 2 -1 2 0 0 Z " fill="#B6BBD7" transform="translate(86,299)"/>
<path d="M0 0 C3.83219177 1.56126332 6.17361222 4.02866925 9 7 C9.598125 7.598125 10.19625 8.19625 10.8125 8.8125 C11.204375 9.204375 11.59625 9.59625 12 10 C10.02 9.34 8.04 8.68 6 8 C6 7.34 6 6.68 6 6 C4.02 5.34 2.04 4.68 0 4 C0 2.68 0 1.36 0 0 Z " fill="#ACBFDE" transform="translate(553,122)"/>
<path d="M0 0 C2.61580479 0.3269756 4.64078137 0.82039068 7 2 C7 2.99 7 3.98 7 5 C4.03 4.01 1.06 3.02 -2 2 C-1.34 1.34 -0.68 0.68 0 0 Z " fill="#A7A7EC" transform="translate(236,762)"/>
<path d="M0 0 C0.99 0.33 1.98 0.66 3 1 C1.4169423 5.2742558 -1.50568404 7.26531794 -5 10 C-4.75 7.625 -4.75 7.625 -4 5 C-1.9375 3.6875 -1.9375 3.6875 0 3 C0 2.01 0 1.02 0 0 Z " fill="#9BA4EE" transform="translate(656,684)"/>
<path d="M0 0 C2.3125 0.5625 2.3125 0.5625 5 2 C6.34776978 4.27962623 7.11364216 6.48087772 8 9 C7.01 9.495 7.01 9.495 6 10 C4.99723227 8.52270825 3.99785546 7.04311423 3 5.5625 C2.443125 4.73878906 1.88625 3.91507813 1.3125 3.06640625 C0 1 0 1 0 0 Z " fill="#A5BCE1" transform="translate(94,657)"/>
<path d="M0 0 C0.99 0 1.98 0 3 0 C3 0.99 3 1.98 3 3 C5.31 3.33 7.62 3.66 10 4 C10 4.33 10 4.66 10 5 C4.46342706 5.42589023 0.10334017 3.905247 -5 2 C-4.01 1.67 -3.02 1.34 -2 1 C-1.34 1.33 -0.68 1.66 0 2 C0 1.34 0 0.68 0 0 Z " fill="#5A72E6" transform="translate(280,777)"/>
<path d="M0 0 C1.1957045 3.5871135 2.02181612 7.21126694 2 11 C1.34 12.32 0.68 13.64 0 15 C-0.66 10.38 -1.32 5.76 -2 1 C-1.34 0.67 -0.68 0.34 0 0 Z " fill="#ABBAD7" transform="translate(152,314)"/>
<path d="M0 0 C2.375 0.4375 2.375 0.4375 5 2 C6.07001562 4.94119871 6.57343918 7.90584243 7 11 C4.43797473 8.47467997 2.11663151 5.91949174 0 3 C0 2.01 0 1.02 0 0 Z " fill="#CBE4EE" transform="translate(608,285)"/>
<path d="M0 0 C1.1446875 0.3403125 1.1446875 0.3403125 2.3125 0.6875 C1.3225 1.0175 0.3325 1.3475 -0.6875 1.6875 C-0.6875 2.3475 -0.6875 3.0075 -0.6875 3.6875 C-1.615625 3.81125 -1.615625 3.81125 -2.5625 3.9375 C-4.87187567 4.50008459 -4.87187567 4.50008459 -5.9375 6.75 C-6.185 7.389375 -6.4325 8.02875 -6.6875 8.6875 C-6.09018456 3.31166107 -6.09018456 3.31166107 -4.4375 0.75 C-2.6875 -0.3125 -2.6875 -0.3125 0 0 Z " fill="#D6DDEE" transform="translate(242.6875,186.3125)"/>
<path d="M0 0 C-1.0975223 2.99324263 -1.67682892 3.84610901 -4.625 5.25 C-5.40875 5.4975 -6.1925 5.745 -7 6 C-6.67 4.35 -6.34 2.7 -6 1 C-3 0 -3 0 0 0 Z " fill="#B6BEE2" transform="translate(587,743)"/>
<path d="M0 0 C0 0.66 0 1.32 0 2 C-3.3 2.33 -6.6 2.66 -10 3 C-10 2.34 -10 1.68 -10 1 C-6.78548731 -0.60725635 -3.56387464 -0.05748185 0 0 Z " fill="#89A0ED" transform="translate(622,576)"/>
<path d="M0 0 C0.33 0.99 0.66 1.98 1 3 C1.66 3.33 2.32 3.66 3 4 C3 4.66 3 5.32 3 6 C2.01 6.495 2.01 6.495 1 7 C0.34444881 9.52733235 0.34444881 9.52733235 0 12 C-0.66 12 -1.32 12 -2 12 C-1.44687265 7.97007218 -0.8441938 3.97977076 0 0 Z " fill="#D6D3E7" transform="translate(70,355)"/>
<path d="M0 0 C0.886875 0.185625 1.77375 0.37125 2.6875 0.5625 C5.85178811 0.98042484 7.94839642 0.80777742 11 0 C10.67 0.99 10.34 1.98 10 3 C4.58461538 4.23076923 4.58461538 4.23076923 1.625 3.0625 C1.08875 2.711875 0.5525 2.36125 0 2 C0 1.34 0 0.68 0 0 Z " fill="#92A0E2" transform="translate(471,698)"/>
<path d="M0 0 C5.75 1.625 5.75 1.625 8 5 C7.34 5 6.68 5 6 5 C5.67 5.66 5.34 6.32 5 7 C4.67 6.01 4.34 5.02 4 4 C3.34 4 2.68 4 2 4 C1.34 2.68 0.68 1.36 0 0 Z " fill="#B9C7F7" transform="translate(109,677)"/>
<path d="M0 0 C1.32 0.33 2.64 0.66 4 1 C3.01 3.97 2.02 6.94 1 10 C0.67 10 0.34 10 0 10 C0 6.7 0 3.4 0 0 Z " fill="#ADB3F8" transform="translate(705,596)"/>
<path d="M0 0 C1.875 0.1875 1.875 0.1875 4 1 C5.25 3.5625 5.25 3.5625 6 6 C5.34 6.66 4.68 7.32 4 8 C0 3.375 0 3.375 0 0 Z " fill="#F0EEE7" transform="translate(169,545)"/>
<path d="M0 0 C3.375 -0.1875 3.375 -0.1875 7 0 C7.66 0.99 8.32 1.98 9 3 C2.25 3.125 2.25 3.125 0 2 C0 1.34 0 0.68 0 0 Z " fill="#7E87C5" transform="translate(360,455)"/>
<path d="M0 0 C0.66 0 1.32 0 2 0 C2 1.32 2 2.64 2 4 C-0.25 5.8125 -0.25 5.8125 -3 7 C-5.3125 6.6875 -5.3125 6.6875 -7 6 C-6.030625 5.38125 -5.06125 4.7625 -4.0625 4.125 C-0.97164638 2.34321154 -0.97164638 2.34321154 0 0 Z " fill="#AACAEA" transform="translate(262,252)"/>
<path d="M0 0 C3.37503669 1.1858237 5.64722731 2.27573689 8 5 C5 6 5 6 2.3125 4.75 C1.549375 4.1725 0.78625 3.595 0 3 C0 2.01 0 1.02 0 0 Z " fill="#C8D2D9" transform="translate(472,730)"/>
<path d="M0 0 C-0.1875 1.875 -0.1875 1.875 -1 4 C-3.5625 5.25 -3.5625 5.25 -6 6 C-5.67 4.35 -5.34 2.7 -5 1 C-2 0 -2 0 0 0 Z " fill="#A3B1DE" transform="translate(614,725)"/>
<path d="M0 0 C2.97 0.495 2.97 0.495 6 1 C6.33 2.65 6.66 4.3 7 6 C3.535 4.02 3.535 4.02 0 2 C0 1.34 0 0.68 0 0 Z " fill="#A2B0F5" transform="translate(143,708)"/>
<path d="M0 0 C0 0.99 0 1.98 0 3 C-0.66 3 -1.32 3 -2 3 C-2 3.66 -2 4.32 -2 5 C-3.32 5.33 -4.64 5.66 -6 6 C-6 3 -6 3 -4.6875 1.3125 C-3 0 -3 0 0 0 Z " fill="#CED0F5" transform="translate(555,256)"/>
<path d="M0 0 C0.99 0.33 1.98 0.66 3 1 C1.35 2.98 -0.3 4.96 -2 7 C-2.99 6.67 -3.98 6.34 -5 6 C-3.35 4.02 -1.7 2.04 0 0 Z " fill="#C5CFEA" transform="translate(214,255)"/>
<path d="M0 0 C2.67901932 2.31881505 3.66204403 4.31814468 4.6875 7.6875 C4.93886719 8.49574219 5.19023438 9.30398437 5.44921875 10.13671875 C5.63097656 10.75160156 5.81273437 11.36648438 6 12 C0.07681278 6.12658746 0.07681278 6.12658746 -0.1875 2.25 C-0.125625 1.5075 -0.06375 0.765 0 0 Z " fill="#A6ACFB" transform="translate(653,246)"/>
<path d="M0 0 C0 0.99 0 1.98 0 3 C-4.455 4.485 -4.455 4.485 -9 6 C-3.15384615 0 -3.15384615 0 0 0 Z " fill="#DEE5EC" transform="translate(197,157)"/>
<path d="M0 0 C1.98 0 3.96 0 6 0 C6 0.66 6 1.32 6 2 C3.69 2.66 1.38 3.32 -1 4 C-0.67 2.68 -0.34 1.36 0 0 Z " fill="#A9B2CC" transform="translate(529,771)"/>
<path d="M0 0 C0.33 0.66 0.66 1.32 1 2 C1.99 2.33 2.98 2.66 4 3 C4.33 4.65 4.66 6.3 5 8 C2.69 6.35 0.38 4.7 -2 3 C-1.34 2.01 -0.68 1.02 0 0 Z " fill="#A9B7EA" transform="translate(129,694)"/>
<path d="M0 0 C0.33 0 0.66 0 1 0 C1.33 4.95 1.66 9.9 2 15 C1.34 15 0.68 15 0 15 C-1.5111995 9.96266834 -0.64599773 5.11828973 0 0 Z " fill="#C5C6E8" transform="translate(459,673)"/>
<path d="M0 0 C0.66 0 1.32 0 2 0 C2 1.65 2 3.3 2 5 C0.02 5.99 0.02 5.99 -2 7 C-2.125 4.625 -2.125 4.625 -2 2 C-1.34 1.34 -0.68 0.68 0 0 Z " fill="#DEE3E7" transform="translate(654,490)"/>
<path d="M0 0 C2.5 1.3125 2.5 1.3125 5 3 C5 3.99 5 4.98 5 6 C3.68 5.67 2.36 5.34 1 5 C1 4.34 1 3.68 1 3 C0.34 2.67 -0.32 2.34 -1 2 C-0.67 1.34 -0.34 0.68 0 0 Z " fill="#BBCCEB" transform="translate(587,449)"/>
<path d="M0 0 C0.99 0 1.98 0 3 0 C3 2.64 3 5.28 3 8 C2.01 7.34 1.02 6.68 0 6 C-0.1875 2.875 -0.1875 2.875 0 0 Z " fill="#97B1F4" transform="translate(102,429)"/>
<path d="M0 0 C0.33 1.32 0.66 2.64 1 4 C0.01 4.495 0.01 4.495 -1 5 C-1 5.99 -1 6.98 -1 8 C-2.32 7.34 -3.64 6.68 -5 6 C-3.35 4.02 -1.7 2.04 0 0 Z " fill="#A3ABEA" transform="translate(152,340)"/>
<path d="M0 0 C0.33 0 0.66 0 1 0 C1 2.31 1 4.62 1 7 C0.01 7 -0.98 7 -2 7 C-2 7.66 -2 8.32 -2 9 C-2.66 8.67 -3.32 8.34 -4 8 C-2.68 5.36 -1.36 2.72 0 0 Z " fill="#D4CDEE" transform="translate(102,266)"/>
<path d="M0 0 C-2.85306797 2.32472205 -5.54074837 3.7508258 -9 5 C-8.625 3.0625 -8.625 3.0625 -8 1 C-5.29120665 -0.35439668 -2.99066732 -0.06501451 0 0 Z " fill="#BBB5DC" transform="translate(192,200)"/>
<path d="M0 0 C3.73639216 1.24546405 4.18756513 2.63404953 6 6 C5.01 6.33 4.02 6.66 3 7 C0 3.375 0 3.375 0 0 Z " fill="#D0C7F3" transform="translate(617,187)"/>
<path d="M0 0 C-1.485 1.485 -1.485 1.485 -3 3 C-5.31 2.34 -7.62 1.68 -10 1 C-10 0.67 -10 0.34 -10 0 C-3.375 -1.125 -3.375 -1.125 0 0 Z " fill="#C0C0E9" transform="translate(368,79)"/>
<path d="M0 0 C2.4375 0.75 2.4375 0.75 5 2 C5.8125 4.125 5.8125 4.125 6 6 C5.01 6.33 4.02 6.66 3 7 C2.01 4.69 1.02 2.38 0 0 Z " fill="#A6C0EA" transform="translate(77,626)"/>
<path d="M0 0 C0.66 0.33 1.32 0.66 2 1 C1.25 2.9375 1.25 2.9375 0 5 C-2.125 5.75 -2.125 5.75 -4 6 C-4 5.01 -4 4.02 -4 3 C-3.01 3 -2.02 3 -1 3 C-0.67 2.01 -0.34 1.02 0 0 Z " fill="#D1CEF4" transform="translate(630,362)"/>
<path d="M0 0 C0.33 0 0.66 0 1 0 C1.66 3.63 2.32 7.26 3 11 C2.01 11.495 2.01 11.495 1 12 C-0.26237731 9.47524538 -0.09856404 7.68799534 -0.0625 4.875 C-0.05347656 3.96492188 -0.04445313 3.05484375 -0.03515625 2.1171875 C-0.02355469 1.41851562 -0.01195312 0.71984375 0 0 Z " fill="#8585D6" transform="translate(567,355)"/>
<path d="M0 0 C2.29633824 3.44450737 2.54016485 5.93812283 3 10 C0.51559898 7.83965128 -0.58789525 6.29683798 -1 3 C-0.67 2.01 -0.34 1.02 0 0 Z " fill="#B4AED0" transform="translate(689,337)"/>
<path d="M0 0 C0.66 0.99 1.32 1.98 2 3 C1.67 3.66 1.34 4.32 1 5 C1.66 5.33 2.32 5.66 3 6 C2.01 6.33 1.02 6.66 0 7 C0 7.66 0 8.32 0 9 C-0.66 9 -1.32 9 -2 9 C-1.34 6.03 -0.68 3.06 0 0 Z " fill="#AEB5FA" transform="translate(79,319)"/>
<path d="M0 0 C1.32 0.66 2.64 1.32 4 2 C4 2.66 4 3.32 4 4 C4.99 4.33 5.98 4.66 7 5 C6.67 5.99 6.34 6.98 6 8 C5.5875 7.566875 5.175 7.13375 4.75 6.6875 C2.93945495 4.94161728 1.03525768 3.47380729 -1 2 C-0.67 1.34 -0.34 0.68 0 0 Z " fill="#DEE0EC" transform="translate(136,280)"/>
<path d="M0 0 C3.465 1.98 3.465 1.98 7 4 C6.01 4.99 5.02 5.98 4 7 C0 2.25 0 2.25 0 0 Z " fill="#AAC2E1" transform="translate(546,117)"/>
<path d="M0 0 C1.67542976 0.28604898 3.34385343 0.61781233 5 1 C5.33 2.32 5.66 3.64 6 5 C3.08482708 3.92598892 1.22189824 3.22189824 -1 1 C-0.67 0.67 -0.34 0.34 0 0 Z " fill="#98A3E3" transform="translate(218,753)"/>
<path d="M0 0 C0.99 0.33 1.98 0.66 3 1 C3 2.65 3 4.3 3 6 C2.34 6 1.68 6 1 6 C0.67 6.66 0.34 7.32 0 8 C0 5.36 0 2.72 0 0 Z " fill="#B7B7EF" transform="translate(520,696)"/>
<path d="M0 0 C0.99 0.33 1.98 0.66 3 1 C1.02 3.97 1.02 3.97 -1 7 C-1.99 6.34 -2.98 5.68 -4 5 C-3.34 4.01 -2.68 3.02 -2 2 C-1.34 2 -0.68 2 0 2 C0 1.34 0 0.68 0 0 Z " fill="#BAB4F1" transform="translate(669,668)"/>
<path d="M0 0 C1.65 0 3.3 0 5 0 C5.66 1.32 6.32 2.64 7 4 C6.34 4.66 5.68 5.32 5 6 C3.35 4.02 1.7 2.04 0 0 Z " fill="#7395F5" transform="translate(585,571)"/>
<path d="M0 0 C0.66 0.33 1.32 0.66 2 1 C0.1875 3.5 0.1875 3.5 -2 6 C-2.99 6 -3.98 6 -5 6 C-3.86695008 2.60085025 -2.87481525 1.94745549 0 0 Z " fill="#EFF0F7" transform="translate(204,335)"/>
<path d="M0 0 C0.66 0.99 1.32 1.98 2 3 C1.34 3 0.68 3 0 3 C0.33 3.99 0.66 4.98 1 6 C0.0625 8.1875 0.0625 8.1875 -1 10 C-1.66 9.01 -2.32 8.02 -3 7 C-1.625 3.3125 -1.625 3.3125 0 0 Z " fill="#C7C6DD" transform="translate(93,283)"/>
<path d="M0 0 C1.31223496 3.93670488 0.24296256 6.12488144 -1 10 C-1.99 9.67 -2.98 9.34 -4 9 C-2.94124926 5.59687262 -1.99097846 2.98646769 0 0 Z " fill="#AAB4F7" transform="translate(529,191)"/>
<path d="M0 0 C0.66 0 1.32 0 2 0 C1.75 1.875 1.75 1.875 1 4 C-1.0625 5.25 -1.0625 5.25 -3 6 C-2.42655063 3.13275314 -2.1385485 2.1385485 0 0 Z " fill="#F9F2F6" transform="translate(154,194)"/>
<path d="M0 0 C0.99 0 1.98 0 3 0 C3.66 2.97 4.32 5.94 5 9 C4.34 9 3.68 9 3 9 C2.67 7.02 2.34 5.04 2 3 C1.34 3 0.68 3 0 3 C0 2.01 0 1.02 0 0 Z " fill="#D3D3F3" transform="translate(343,142)"/>
<path d="M0 0 C0.99 1.32 1.98 2.64 3 4 C2.34 4.66 1.68 5.32 1 6 C1 5.34 1 4.68 1 4 C0.360625 3.87625 -0.27875 3.7525 -0.9375 3.625 C-1.618125 3.41875 -2.29875 3.2125 -3 3 C-3.33 2.34 -3.66 1.68 -4 1 C-2.68 0.67 -1.36 0.34 0 0 Z " fill="#BFC4F0" transform="translate(337,133)"/>
<path d="M0 0 C2.475 0.99 2.475 0.99 5 2 C2.36095629 3.41377341 -0.07120629 4.37240135 -3 5 C-3 4.34 -3 3.68 -3 3 C-2.34 3 -1.68 3 -1 3 C-0.67 2.01 -0.34 1.02 0 0 Z " fill="#9DAEEC" transform="translate(512,777)"/>
<path d="M0 0 C1.32 0.66 2.64 1.32 4 2 C2.02 3.32 0.04 4.64 -2 6 C-2.66 5.67 -3.32 5.34 -4 5 C-3.525625 4.54625 -3.05125 4.0925 -2.5625 3.625 C-0.90972192 2.06741796 -0.90972192 2.06741796 0 0 Z " fill="#6261D5" transform="translate(572,750)"/>
<path d="M0 0 C2.31 0 4.62 0 7 0 C7 1.32 7 2.64 7 4 C4.08482708 2.92598892 2.22189824 2.22189824 0 0 Z " fill="#9C9BDE" transform="translate(180,733)"/>
<path d="M0 0 C2.31 0.33 4.62 0.66 7 1 C7 2.32 7 3.64 7 5 C4.11562221 3.70700306 2.12780579 2.34058637 0 0 Z " fill="#90BEEF" transform="translate(158,719)"/>
<path d="M0 0 C0.33 0 0.66 0 1 0 C1.125 3.375 1.125 3.375 1 7 C0.34 7.66 -0.32 8.32 -1 9 C-1.625 6.1875 -1.625 6.1875 -2 3 C-1.34 2.01 -0.68 1.02 0 0 Z " fill="#AEBBF5" transform="translate(265,678)"/>
<path d="M0 0 C1.32 0 2.64 0 4 0 C5.0625 2.375 5.0625 2.375 6 5 C5.67 5.66 5.34 6.32 5 7 C3.35 4.69 1.7 2.38 0 0 Z " fill="#83A4DA" transform="translate(103,670)"/>
<path d="M0 0 C-0.99 1.485 -0.99 1.485 -2 3 C-4.625 3.1875 -4.625 3.1875 -7 3 C-7.33 2.34 -7.66 1.68 -8 1 C-5.07175348 0.02391783 -3.04386724 -0.08226668 0 0 Z " fill="#D9D3F6" transform="translate(167,645)"/>
<path d="M0 0 C1.32 0 2.64 0 4 0 C4 0.99 4 1.98 4 3 C4.99 3 5.98 3 7 3 C7 3.66 7 4.32 7 5 C4.0280615 3.87548273 1.66559313 2.77706209 -1 1 C-0.67 0.67 -0.34 0.34 0 0 Z " fill="#F3F1E9" transform="translate(582,567)"/>
<path d="M0 0 C0.33 0 0.66 0 1 0 C1.33 3.3 1.66 6.6 2 10 C1.34 10 0.68 10 0 10 C-0.74926071 6.33694766 -1.2380014 3.57644848 0 0 Z " fill="#F7EFF5" transform="translate(708,422)"/>
<path d="M0 0 C0.33 0 0.66 0 1 0 C1 3.3 1 6.6 1 10 C0.01 9.01 -0.98 8.02 -2 7 C-1.34 4.69 -0.68 2.38 0 0 Z " fill="#BABAD2" transform="translate(701,382)"/>
<path d="M0 0 C0.66 0 1.32 0 2 0 C2.33 1.32 2.66 2.64 3 4 C1.68 4.99 0.36 5.98 -1 7 C-1.04254356 5.00045254 -1.04080783 2.99958364 -1 1 C-0.67 0.67 -0.34 0.34 0 0 Z " fill="#C7C2D4" transform="translate(64,387)"/>
<path d="M0 0 C2.32472205 2.85306797 3.7508258 5.54074837 5 9 C0.23021583 5.57553957 0.23021583 5.57553957 -0.875 2.8125 C-0.91625 2.214375 -0.9575 1.61625 -1 1 C-0.67 0.67 -0.34 0.34 0 0 Z " fill="#CADBFE" transform="translate(644,228)"/>
<path d="M0 0 C0.66 0.33 1.32 0.66 2 1 C2.37849614 5.54195365 1.9891703 6.0144396 -1 10 C-0.67 6.7 -0.34 3.4 0 0 Z " fill="#CBD3EF" transform="translate(412,184)"/>
<path d="M0 0 C0 0.99 0 1.98 0 3 C-4.75 4.125 -4.75 4.125 -7 3 C-4.69 2.01 -2.38 1.02 0 0 Z " fill="#DDD5EE" transform="translate(212,147)"/>
<path d="M0 0 C0.99 0.33 1.98 0.66 3 1 C3 1.66 3 2.32 3 3 C3.99 3.33 4.98 3.66 6 4 C5.67 5.32 5.34 6.64 5 8 C4.16382818 6.8562364 3.33113541 5.70992861 2.5 4.5625 C2.0359375 3.92441406 1.571875 3.28632813 1.09375 2.62890625 C0 1 0 1 0 0 Z " fill="#B3E9F0" transform="translate(435,136)"/>
<path d="M0 0 C0.99 0.33 1.98 0.66 3 1 C2.67 1.66 2.34 2.32 2 3 C1.01 3.33 0.02 3.66 -1 4 C-2.66710346 5.49985609 -2.66710346 5.49985609 -4 7 C-4.33 6.34 -4.66 5.68 -5 5 C-4.34 5 -3.68 5 -3 5 C-3 4.01 -3 3.02 -3 2 C-2.01 2 -1.02 2 0 2 C0 1.34 0 0.68 0 0 Z " fill="#A6B5EE" transform="translate(321,134)"/>
</svg>
