<?xml version="1.0" encoding="UTF-8"?>
<svg version="1.1" xmlns="http://www.w3.org/2000/svg" width="720" height="911">
<path d="M0 0 C2.265625 1.6875 2.265625 1.6875 4.25 3.4375 C4.84296875 3.9325 5.4359375 4.4275 6.046875 4.9375 C23.61320777 21.05340162 34.14109454 44.921637 36.25 68.4375 C36.56707495 76.10200978 36.44819116 83.77105955 36.25 91.4375 C37.33796875 91.40011719 38.4259375 91.36273438 39.546875 91.32421875 C44.70424188 91.4819863 47.26343735 93.72494599 51.0625 97 C54.74098192 101.45289917 53.47618765 108.61096409 53.04541016 113.99414062 C51.79662761 125.40779207 49.61611515 135.77660636 45.25 146.4375 C44.71230999 147.89003548 44.18005839 149.34459201 43.65234375 150.80078125 C38.11250327 165.92196572 31.15634101 182.166606 17.25 191.4375 C17.25 192.0975 17.25 192.7575 17.25 193.4375 C17.76046875 193.23253906 18.2709375 193.02757812 18.796875 192.81640625 C26.27908091 190.04374484 33.96577514 187.83883589 41.68359375 190.71875 C44.62004633 192.18524693 47.45078866 193.72521647 50.25 195.4375 C50.31316406 194.65890625 50.37632812 193.8803125 50.44140625 193.078125 C52.24834753 176.56838786 58.27292323 161.33688146 67.25 147.4375 C67.76046875 146.64214844 68.2709375 145.84679687 68.796875 145.02734375 C70.125 143.0625 70.125 143.0625 72.25 140.4375 C72.91 140.4375 73.57 140.4375 74.25 140.4375 C74.25 139.7775 74.25 139.1175 74.25 138.4375 C84.22821621 129.65293956 92.5024723 126.82278343 105.66796875 127.1640625 C116.15391409 127.96451634 123.17728703 132.96093998 130.26171875 140.609375 C144.13640111 157.58404062 146.11051866 179.25013515 145.25 200.4375 C145.04761719 201.66339844 144.84523438 202.88929688 144.63671875 204.15234375 C144.06390996 207.80351268 143.70040113 210.77808754 144.25 214.4375 C147.3588754 218.01868532 151.20679405 220.03384189 155.25 222.4375 C167.07115606 232.01348685 178.62880388 244.28468162 181.9375 259.625 C183.2653856 275.82520438 180.87081209 289.00471442 170.0625 301.75 C158.59954388 313.6516383 144.34923394 318.03776209 128.34375 319.984375 C121.58412656 320.97442086 116.03774423 323.94073786 110.25 327.4375 C111.59191406 327.44136719 111.59191406 327.44136719 112.9609375 327.4453125 C123.72682848 327.78963737 130.58101844 330.32242481 138.0625 338.125 C142.84957384 344.02718046 145.6288016 350.86538993 147.4375 358.1875 C148.99764335 363.237675 152.49918704 365.15868367 156.81640625 367.890625 C160.24274605 370.06852317 163.23714603 372.52865983 165.1640625 376.16015625 C167.55920046 380.46591952 169.8106672 381.91203762 174.59790039 383.34936523 C177.46715064 384.11704211 180.34810277 384.80528694 183.25 385.4375 C183.36214844 384.29796875 183.47429687 383.1584375 183.58984375 381.984375 C185.38284348 367.80252673 191.35577196 352.85271542 202.5 343.5625 C213.01594952 336.20856279 221.24513909 332.93668985 234 335.0625 C243.00339116 338.87162703 247.49016716 346.27355279 251.37109375 354.94140625 C256.95384836 369.8649565 258.65172155 386.52074873 258.92260742 402.34326172 C259.057519 408.84954067 259.72665612 413.16788438 264.375 418 C275.53345288 430.32321832 282.80951034 443.49012727 282.5 460.26171875 C282.14875189 464.72366737 281.10826152 468.38379242 279.25 472.4375 C278.73953125 473.56091797 278.73953125 473.56091797 278.21875 474.70703125 C273.18314597 484.69317844 264.20907341 492.4579633 254.25 497.4375 C255.22165489 499.89931619 256.20827072 502.34380595 257.28515625 504.76171875 C262.40994244 516.55067557 261.20712762 525.52680792 257.25 537.4375 C256.32421426 539.75882203 255.33750162 542.00553433 254.24072266 544.25 C253.28120052 546.36860974 252.5720207 548.44638726 251.890625 550.66796875 C250.36482791 555.32210269 248.37407394 559.56418653 246.0625 563.875 C245.46876587 564.98294922 245.46876587 564.98294922 244.86303711 566.11328125 C235.71379222 582.77817307 221.5257836 595.61402997 203.25 601.4375 C200.92182036 601.80510731 198.5881615 602.13991581 196.25 602.4375 C193.21101993 603.33131767 190.23304326 604.37377915 187.25 605.4375 C183.91715694 606.54844769 181.40460452 606.56686473 177.89453125 606.5703125 C176.63189453 606.57160156 175.36925781 606.57289063 174.06835938 606.57421875 C173.08065552 606.57107666 173.08065552 606.57107666 172.07299805 606.56787109 C170.08708278 606.56256567 168.10114797 606.56832292 166.11523438 606.57421875 C159.73543468 606.56773851 153.55390815 606.44676611 147.25 605.4375 C148.80947733 607.64802126 150.37246817 609.85591611 151.9375 612.0625 C152.59008789 612.98869141 152.59008789 612.98869141 153.25585938 613.93359375 C155.42623611 616.98819804 157.63509896 619.93378768 160.08203125 622.7734375 C162.25 625.4375 162.25 625.4375 162.25 627.4375 C162.91 627.4375 163.57 627.4375 164.25 627.4375 C166.00237104 629.48587967 167.6362676 631.53431991 169.25 633.6875 C169.70117188 634.27402344 170.15234375 634.86054687 170.6171875 635.46484375 C172.79964621 638.33819916 174.80507217 641.12073384 176.25 644.4375 C176.91 644.4375 177.57 644.4375 178.25 644.4375 C179.55567127 645.93231057 180.79251025 647.487316 182 649.0625 C191.47464578 660.8829584 202.612517 672.01251134 215.25 680.4375 C215.25 681.0975 215.25 681.7575 215.25 682.4375 C215.76820313 682.67339844 216.28640625 682.90929687 216.8203125 683.15234375 C220.07599342 684.87440006 223.08005704 686.93694365 226.125 689 C235.61391832 695.37460667 245.19513319 701.5813539 254.9375 707.5625 C255.99195313 708.21089844 257.04640625 708.85929688 258.1328125 709.52734375 C260.20631074 710.79794605 262.28444301 712.06101765 264.3671875 713.31640625 C265.33914063 713.91324219 266.31109375 714.51007812 267.3125 715.125 C268.16972656 715.64449219 269.02695312 716.16398438 269.91015625 716.69921875 C273.67857138 719.49879259 276.55169058 723.0408614 278.25 727.4375 C278.98522165 733.22378988 278.87939061 738.67392483 275.25 743.4375 C268.05289823 748.90729734 258.90273042 748.53513727 250.25 747.4375 C242.5129705 745.85136686 235.24205632 743.09286457 228.25 739.4375 C226.81333984 738.70853516 226.81333984 738.70853516 225.34765625 737.96484375 C204.57326065 727.08301749 187.03566176 712.6858773 170.25 696.4375 C169.43474854 695.65511963 169.43474854 695.65511963 168.60302734 694.85693359 C163.05613065 689.52262956 157.93200972 684.06130353 153.21875 677.9765625 C151.0732454 675.20954268 148.8554851 672.51138697 146.625 669.8125 C143.04082007 665.43796245 139.58900398 661.00080543 136.25 656.4375 C135.62351562 655.59574219 134.99703125 654.75398437 134.3515625 653.88671875 C112.60424118 624.43201344 112.60424118 624.43201344 114.7109375 609.078125 C114.88882812 608.20671875 115.06671875 607.3353125 115.25 606.4375 C109.98295708 608.77296399 105.94172493 611.90445382 101.5625 615.5625 C100.50857056 616.42875 100.50857056 616.42875 99.43334961 617.3125 C96.29697271 619.89299522 93.17837685 622.4934335 90.078125 625.1171875 C84.70092693 629.62856554 79.52223499 633.30607027 73.25 636.4375 C72.08855469 637.05367187 70.92710937 637.66984375 69.73046875 638.3046875 C52.01938811 647.59374682 35.22758643 652.42530229 15.25 653.4375 C15.21261719 654.68144531 15.17523438 655.92539062 15.13671875 657.20703125 C15.0709807 658.8880471 15.00453621 660.56903542 14.9375 662.25 C14.91494141 663.06404297 14.89238281 663.87808594 14.86914062 664.71679688 C14.67482075 669.22148488 14.12133717 673.08061833 12.70703125 677.3671875 C10.28330989 685.6221016 11.04675319 694.23702367 11.25 702.75 C11.33014616 706.14189997 11.38985551 709.53328667 11.4375 712.92578125 C11.46239502 713.69150955 11.48729004 714.45723785 11.51293945 715.24617004 C11.57886604 720.06829149 10.89490639 723.24568375 8.25 727.4375 C2.80958602 732.34714188 -0.58069904 732.72035642 -7.76171875 732.66015625 C-12.22784588 732.32738599 -14.99612009 730.75290993 -18.5 728.125 C-24.71459777 719.73529301 -21.78520629 706.61766687 -20.875 696.9375 C-20.75753418 695.64658447 -20.75753418 695.64658447 -20.63769531 694.32958984 C-20.1918054 689.98088193 -19.47045945 686.48233527 -17.75 682.4375 C-17.53776449 680.61066269 -17.39578138 678.77473779 -17.3125 676.9375 C-16.92683326 671.25768077 -15.85097393 665.96038596 -14.46875 660.4453125 C-13.75422807 657.45519355 -13.22141571 654.47450506 -12.75 651.4375 C-13.37648438 651.37691406 -14.00296875 651.31632813 -14.6484375 651.25390625 C-15.46570313 651.17011719 -16.28296875 651.08632813 -17.125 651 C-17.93710937 650.91878906 -18.74921875 650.83757813 -19.5859375 650.75390625 C-21.75 650.4375 -21.75 650.4375 -23.75 649.4375 C-25.47490129 649.14071119 -27.2052189 648.87514046 -28.9375 648.625 C-38.79364397 647.02574587 -48.62385096 644.77737211 -57.65625 640.4296875 C-59.92223097 639.35588308 -62.22103236 638.45907463 -64.5625 637.5625 C-72.9767795 634.2123702 -80.66380731 630.19376982 -88.125 625.0625 C-94.85744016 620.80187362 -100.92988404 620.15171274 -108.75 621.4375 C-109.74 622.0975 -110.73 622.7575 -111.75 623.4375 C-111.42 624.0975 -111.09 624.7575 -110.75 625.4375 C-110.62657302 627.14251461 -110.57440414 628.8530652 -110.5625 630.5625 C-110.54832031 631.47257813 -110.53414062 632.38265625 -110.51953125 633.3203125 C-111.03571837 640.30196209 -113.45119127 646.79945178 -115.875 653.3125 C-116.33350342 654.54589111 -116.33350342 654.54589111 -116.80126953 655.80419922 C-125.93164401 679.99622435 -137.52409124 703.93053483 -154.75 723.4375 C-155.35328125 724.16839844 -155.9565625 724.89929688 -156.578125 725.65234375 C-157.04734375 726.22082031 -157.5165625 726.78929687 -158 727.375 C-158.47953125 727.96152344 -158.9590625 728.54804687 -159.453125 729.15234375 C-160.75 730.4375 -160.75 730.4375 -162.75 730.4375 C-163.1521875 731.3346875 -163.1521875 731.3346875 -163.5625 732.25 C-164.74917406 734.43597854 -165.84599113 735.85082594 -167.75 737.4375 C-168.41 737.4375 -169.07 737.4375 -169.75 737.4375 C-170.04003906 738.26894531 -170.04003906 738.26894531 -170.3359375 739.1171875 C-172.35684141 742.43325634 -175.26068558 744.35155344 -178.375 746.5625 C-179.04088135 747.04041992 -179.7067627 747.51833984 -180.39282227 748.01074219 C-192.61280803 756.68234476 -204.8171291 763.88286708 -218.75 769.4375 C-219.53246094 769.7984375 -220.31492187 770.159375 -221.12109375 770.53125 C-226.22892112 772.68191416 -231.40354957 772.77005453 -236.875 772.875 C-237.63989746 772.89747803 -238.40479492 772.91995605 -239.19287109 772.94311523 C-245.88973508 772.91480636 -250.13432972 770.91178269 -255.0625 766.25 C-257.37740277 762.39182872 -258.67893941 758.97116554 -258.75 754.4375 C-257.77676222 750.90828419 -256.39871728 747.70087016 -254.75 744.4375 C-254.09 744.4375 -253.43 744.4375 -252.75 744.4375 C-252.5128125 743.83421875 -252.275625 743.2309375 -252.03125 742.609375 C-248.19998537 736.11491422 -237.46649737 733.3827692 -230.75 730.4375 C-212.6174863 722.47515595 -197.93815116 712.13640457 -183.75 698.4375 C-183.07324219 697.82390625 -182.39648438 697.2103125 -181.69921875 696.578125 C-163.45558818 679.63461523 -154.05009408 652.87850625 -144.75 630.4375 C-145.46285156 630.52128906 -146.17570313 630.60507812 -146.91015625 630.69140625 C-152.47660733 631.28326309 -157.24855594 631.37391601 -162.75 630.4375 C-163.41 630.7675 -164.07 631.0975 -164.75 631.4375 C-166.91490195 631.53435088 -169.08293803 631.56729438 -171.25 631.5625 C-172.4153125 631.56507813 -173.580625 631.56765625 -174.78125 631.5703125 C-177.75 631.4375 -177.75 631.4375 -179.75 630.4375 C-181.63647601 630.34348957 -183.52340785 630.2543433 -185.41137695 630.19775391 C-192.54592929 629.96970536 -198.51141367 629.27947626 -205.15234375 626.46484375 C-207.9569467 625.35565492 -210.67558312 624.74410837 -213.625 624.125 C-230.18200645 620.10859069 -247.57464634 606.94449231 -256.88720703 592.69775391 C-262.56807567 583.36543057 -266.42243928 573.51782384 -268.44140625 562.75 C-269.44944643 559.2104712 -269.44944643 559.2104712 -272.69140625 557.6875 C-274.48384766 557.06875 -274.48384766 557.06875 -276.3125 556.4375 C-282.75152035 554.01412429 -287.64643784 551.04091307 -292.75 546.4375 C-293.37390625 545.92832031 -293.9978125 545.41914062 -294.640625 544.89453125 C-303.15374249 537.39928651 -307.05036353 525.57748816 -308.0012207 514.51464844 C-309.28928328 488.20165984 -305.28745326 461.68148521 -289.1875 440.1875 C-284.63285258 433.9609923 -282.5496954 427.5730813 -280.26879883 420.25170898 C-275.80921391 406.00906232 -269.3346967 391.92862544 -255.7109375 384.3359375 C-249.41748817 381.45248462 -243.5052281 380.68491209 -236.75 382.4375 C-232.36315613 384.23755358 -228.12734594 386.06015406 -224.75 389.4375 C-218.55897734 389.20493568 -213.56812542 386.79594528 -208 384.25 C-200.93393424 381.11944084 -193.88037589 378.30136771 -186.5 376 C-185.75137695 375.76579346 -185.00275391 375.53158691 -184.23144531 375.2902832 C-178.39771994 373.52412741 -178.39771994 373.52412741 -175.40063477 373.12329102 C-170.80367661 372.47057656 -170.80367661 372.47057656 -167.13916016 369.80151367 C-165.68150387 367.67531787 -164.42186824 365.51281005 -163.1875 363.25 C-158.644742 355.58983521 -154.19980416 349.072693 -145.75 345.4375 C-143.08646245 344.92229018 -140.45500869 344.70800087 -137.75 344.4375 C-138.69101563 344.01339844 -139.63203125 343.58929688 -140.6015625 343.15234375 C-153.64636572 337.08771584 -153.64636572 337.08771584 -157.75 330.4375 C-158.13414062 329.87933594 -158.51828125 329.32117188 -158.9140625 328.74609375 C-162.76348802 322.33500017 -163.02884286 314.72498269 -163.75 307.4375 C-164.37003906 307.31375 -164.99007812 307.19 -165.62890625 307.0625 C-175.50444945 304.76251905 -184.34329358 300.04197094 -192.75 294.4375 C-192.75 293.7775 -192.75 293.1175 -192.75 292.4375 C-193.64525391 292.06625 -193.64525391 292.06625 -194.55859375 291.6875 C-199.90847277 288.6358756 -202.75997596 282.09444496 -204.625 276.4375 C-207.35977172 265.77680304 -205.31618703 256.00722738 -200.06640625 246.3359375 C-197.75505826 242.64772201 -195.59916331 239.23005242 -192.40625 236.25 C-190.15916634 232.43419756 -191.09749235 230.63178831 -192.13769531 226.47558594 C-193.38850707 220.26940509 -193.14346038 213.87362994 -193.125 207.5625 C-193.12412384 206.83272949 -193.12324768 206.10295898 -193.12234497 205.35107422 C-193.03094055 182.23998752 -188.88411939 159.03070497 -172.75 141.4375 C-164.35293467 133.50786575 -153.7708564 128.0183799 -142.14453125 128.23046875 C-133.99715408 128.93489125 -128.10948647 132.35808251 -122.75 138.4375 C-108.61202933 156.79850087 -100.40060541 177.48883737 -97.75 200.4375 C-92.20608197 202.40097097 -88.54259627 202.51747558 -82.75 201.4375 C-82.09 201.1075 -81.43 200.7775 -80.75 200.4375 C-77.56905908 200.1705679 -74.37838646 200.20585161 -71.1875 200.1875 C-69.88329102 200.1565625 -69.88329102 200.1565625 -68.55273438 200.125 C-62.42305396 200.08843218 -57.42958111 201.1417754 -51.75 203.4375 C-51.64367597 199.95538789 -51.73704682 196.78601879 -52.75 193.4375 C-55.18896134 191.38526614 -57.7187586 190.36275364 -60.75 189.4375 C-60.75 188.7775 -60.75 188.1175 -60.75 187.4375 C-61.4925 187.19 -62.235 186.9425 -63 186.6875 C-65.98023087 185.33284961 -67.64919252 183.9273459 -69.75 181.4375 C-69.75 180.7775 -69.75 180.1175 -69.75 179.4375 C-70.41 179.4375 -71.07 179.4375 -71.75 179.4375 C-84.51909617 161.95284549 -94.35811503 137.17761247 -93.75 115.4375 C-92.74566026 109.31489045 -89.273352 104.58102855 -84.75 100.4375 C-80.94720941 98.29233608 -77.04246642 98.01533202 -72.75 97.4375 C-71.04689419 95.73439419 -71.56032167 93.51038526 -71.50390625 91.1796875 C-71.47248535 90.08615967 -71.44106445 88.99263184 -71.40869141 87.8659668 C-71.36107666 86.10700073 -71.36107666 86.10700073 -71.3125 84.3125 C-70.98819464 74.55752717 -70.48537286 65.05775494 -68.75 55.4375 C-68.56824219 54.37273437 -68.38648438 53.30796875 -68.19921875 52.2109375 C-64.75570502 34.8454879 -55.68365155 15.93459225 -41.625 4.75 C-30.14082014 -2.68689181 -12.69509674 -7.21003967 0 0 Z M-21.75 200.4375 C-22.45677446 204.7470674 -23.13688776 209.06044661 -23.8125 213.375 C-24.01166016 214.58736328 -24.21082031 215.79972656 -24.41601562 217.04882812 C-25.83630543 226.2433358 -26.12128034 233.47382085 -22.6875 242.1875 C-18.68743673 254.67121395 -19.25792344 268.82304743 -23.875 281.0390625 C-24.92136283 283.48170737 -24.92136283 283.48170737 -24.75 286.4375 C-24.13253906 286.41429687 -23.51507813 286.39109375 -22.87890625 286.3671875 C-22.03199219 286.34914063 -21.18507813 286.33109375 -20.3125 286.3125 C-19.48878906 286.28929687 -18.66507812 286.26609375 -17.81640625 286.2421875 C-13.67740964 286.50581786 -9.77093721 287.4553793 -5.75 288.4375 C-5.894375 287.20257813 -6.03875 285.96765625 -6.1875 284.6953125 C-7.13695165 276.15194769 -7.85113997 267.84727965 -7.5625 259.25 C-7.34446488 251.29039395 -9.01885862 244.51694399 -11.55859375 237.01171875 C-13.27529804 231.86160588 -13.89303942 227.24812401 -14.06640625 221.82421875 C-14.10830078 220.57705078 -14.15019531 219.32988281 -14.19335938 218.04492188 C-14.23267578 216.75134766 -14.27199219 215.45777344 -14.3125 214.125 C-14.35568359 212.81208984 -14.39886719 211.49917969 -14.44335938 210.14648438 C-14.54927227 206.91025712 -14.65134885 203.67395542 -14.75 200.4375 C-17.06 200.4375 -19.37 200.4375 -21.75 200.4375 Z M125.25 253.4375 C124.87230469 253.86160156 124.49460937 254.28570312 124.10546875 254.72265625 C116.0391598 263.31790349 106.10855487 269.84914986 94.1328125 270.64453125 C89.34600903 270.70890147 84.92889285 270.49429911 80.25 269.4375 C80.17483154 270.25988159 80.17483154 270.25988159 80.09814453 271.09887695 C78.23528635 291.22915053 78.23528635 291.22915053 76.25 300.4375 C81.26009084 299.90891243 85.0499149 298.19182526 89.375 295.75 C90.72251241 295.02056755 92.07017003 294.29140329 93.41796875 293.5625 C95.66073151 292.33208398 97.85852921 291.07085478 100.05078125 289.75 C107.89324326 285.2885105 116.09305886 283.75890364 124.88647461 282.1730957 C125.89202393 281.98835693 126.89757324 281.80361816 127.93359375 281.61328125 C128.83650146 281.45770752 129.73940918 281.30213379 130.66967773 281.1418457 C134.74042534 280.03066141 137.51163229 278.37276577 140.125 275.0625 C141.4875298 271.8832638 141.21570058 270.71097736 140.25 267.4375 C136.37866354 261.61366341 130.96030993 257.35314109 125.25 253.4375 Z M-169.75 262.4375 C-170.08 263.7575 -170.41 265.0775 -170.75 266.4375 C-163.82406899 272.71477886 -155.39623024 276.53006115 -145.9375 276.375 C-142.10913573 275.24901051 -138.45145079 273.93106786 -134.75 272.4375 C-134.75 272.1075 -134.75 271.7775 -134.75 271.4375 C-135.78898437 271.41171875 -136.82796875 271.3859375 -137.8984375 271.359375 C-146.30299706 271.05557142 -153.11422606 270.22241731 -160.75 266.4375 C-162.45628302 265.68284709 -164.16455465 264.93267077 -165.875 264.1875 C-167.16753112 263.60608462 -168.45954304 263.02350461 -169.75 262.4375 Z M-128.4375 268.4375 C-130.0771875 269.4275 -130.0771875 269.4275 -131.75 270.4375 C-131.75 270.7675 -131.75 271.0975 -131.75 271.4375 C-128.45 271.7675 -125.15 272.0975 -121.75 272.4375 C-121.75 270.4575 -121.75 268.4775 -121.75 266.4375 C-124.9243622 266.4375 -125.81292462 266.85285071 -128.4375 268.4375 Z M-114.75 301.4375 C-114.75 302.0975 -114.75 302.7575 -114.75 303.4375 C-117.1449463 304.72708647 -119.30975338 305.60213335 -121.9375 306.375 C-123.3296875 306.9009375 -123.3296875 306.9009375 -124.75 307.4375 C-125.08 308.4275 -125.41 309.4175 -125.75 310.4375 C-120.02462414 312.89123251 -115.16341408 313.56288802 -108.9375 313.5 C-107.19533203 313.48646484 -107.19533203 313.48646484 -105.41796875 313.47265625 C-104.53753906 313.46105469 -103.65710938 313.44945312 -102.75 313.4375 C-103.14832031 312.90640625 -103.54664063 312.3753125 -103.95703125 311.828125 C-108.75 305.4375 -108.75 305.4375 -110.26171875 303.171875 C-110.75285156 302.59953125 -111.24398437 302.0271875 -111.75 301.4375 C-112.74 301.4375 -113.73 301.4375 -114.75 301.4375 Z M-31.125 331.75 C-31.785 332.05873047 -32.445 332.36746094 -33.125 332.68554688 C-36.79484798 334.42177974 -40.30570027 336.27650113 -43.75 338.4375 C-43.6778125 339.24445313 -43.605625 340.05140625 -43.53125 340.8828125 C-42.47768474 354.66695797 -42.57682008 368.45561298 -42.72717285 382.2713623 C-42.75057868 384.49241266 -42.76932084 386.71347637 -42.78808594 388.93457031 C-43.22069934 434.24743276 -43.22069934 434.24743276 -49.75 449.4375 C-50.16984655 451.18189471 -50.56395841 452.93260664 -50.9375 454.6875 C-53.98835622 467.08923055 -59.23558563 478.36725885 -66.24609375 488.99609375 C-67.9248258 491.24340185 -67.9248258 491.24340185 -67.75 493.4375 C-68.41 493.4375 -69.07 493.4375 -69.75 493.4375 C-70.141875 494.118125 -70.53375 494.79875 -70.9375 495.5 C-75.02874405 502.13063691 -81.07288904 507.6788939 -88.62890625 510.01953125 C-95.46770085 511.36713903 -102.01074562 511.19284612 -108.09765625 507.6328125 C-112.89089702 504.16536173 -114.71650393 500.16870547 -115.75 494.4375 C-115.9460431 481.10656908 -107.98499344 472.07113519 -99.75 462.4375 C-99.09 462.1075 -98.43 461.7775 -97.75 461.4375 C-96.75096425 459.8495898 -95.82483593 458.21542656 -94.9375 456.5625 C-94.45667969 455.67820312 -93.97585938 454.79390625 -93.48046875 453.8828125 C-89.0467877 445.05548364 -85.59933095 436.41559365 -83 426.875 C-82.69707031 425.81603516 -82.39414062 424.75707031 -82.08203125 423.66601562 C-80.33159732 417.35278392 -78.7743842 411.02907151 -78.75 404.4375 C-79.88701597 403.07217451 -79.88701597 403.07217451 -82.91015625 403.33984375 C-84.19792969 403.35144531 -85.48570312 403.36304688 -86.8125 403.375 C-88.10285156 403.38402344 -89.39320313 403.39304687 -90.72265625 403.40234375 C-91.72167969 403.41394531 -92.72070312 403.42554688 -93.75 403.4375 C-93.59144531 404.73816406 -93.43289063 406.03882813 -93.26953125 407.37890625 C-91.20751804 426.13480264 -92.33444068 448.25571696 -103.68359375 464.14453125 C-109.9821994 471.63324777 -118.15314388 478.69958882 -128.203125 479.67578125 C-134.43121449 479.84105178 -140.09911881 479.15074903 -146.125 477.6875 C-146.79047852 477.53063721 -147.45595703 477.37377441 -148.14160156 477.2121582 C-159.17713389 474.32302148 -164.48344758 466.40033886 -170.1796875 457.21484375 C-172.35770299 453.36268202 -173.7057908 449.72668842 -174.75 445.4375 C-175.14832031 443.85775391 -175.14832031 443.85775391 -175.5546875 442.24609375 C-177.94732805 431.68429476 -178.43222188 421.23099836 -178.75 410.4375 C-187.91413889 411.52223481 -195.45054202 414.58461294 -203.75 418.4375 C-203.22635623 421.47704142 -202.48374854 424.37223289 -201.55859375 427.30859375 C-195.29319026 447.75716857 -195.31369551 471.14577541 -204.37890625 490.86328125 C-209.49817326 500.4746686 -217.48223133 509.14943855 -227.9453125 512.81640625 C-237.86097315 515.01221411 -247.52995193 514.07709469 -256.2734375 508.9609375 C-264.13920999 503.78795199 -269.7914263 497.37121792 -274.75 489.4375 C-279.18220785 496.08581178 -278.42001297 504.69491993 -277.75 512.4375 C-276.23362417 519.24292164 -272.5095251 523.6505818 -266.75 527.4375 C-262.87178558 529.52024478 -259.64619139 530.53306209 -255.3125 530.875 C-250.68643771 531.29411334 -246.29956156 532.30553391 -242.75 535.4375 C-239.80073511 540.80286747 -239.43556447 545.0977537 -239.4375 551.125 C-239.20244365 559.43258716 -237.35831019 565.40033926 -232.75 572.4375 C-232.29496094 573.16066406 -231.83992188 573.88382813 -231.37109375 574.62890625 C-219.75153207 591.54513422 -200.87513152 600.53165984 -181.2980957 604.30981445 C-173.36975576 605.68317417 -165.78050407 605.88012621 -157.75 605.4375 C-156.84121094 605.40527344 -155.93242187 605.37304688 -154.99609375 605.33984375 C-150.35371568 605.04922939 -146.34470991 604.0390844 -141.9375 602.5625 C-134.98263926 600.26923057 -127.98362817 599.31384739 -120.7331543 598.38916016 C-119.85828369 598.27749512 -118.98341309 598.16583008 -118.08203125 598.05078125 C-117.29546143 597.95579346 -116.5088916 597.86080566 -115.69848633 597.76293945 C-113.67690061 597.52334852 -113.67690061 597.52334852 -111.75 596.4375 C-107.75703804 596.1116281 -103.75459968 596.11272873 -99.75 596.0625 C-98.65042969 596.02511719 -97.55085937 595.98773437 -96.41796875 595.94921875 C-88.6078343 595.86583653 -83.36318693 597.31573678 -76.75 601.4375 C-75.15478516 602.40623047 -75.15478516 602.40623047 -73.52734375 603.39453125 C-72.59019531 604.00683594 -71.65304687 604.61914062 -70.6875 605.25 C-63.04480136 610.03688598 -54.97871999 613.7746079 -46.75 617.4375 C-45.62464844 617.94539063 -44.49929688 618.45328125 -43.33984375 618.9765625 C-39.01797284 620.73540877 -34.65300505 622.15503547 -30.1875 623.5 C-29.31432129 623.76385498 -28.44114258 624.02770996 -27.54150391 624.29956055 C-21.14406668 626.1702214 -14.93764653 627.3875575 -8.3046875 628.11328125 C-5.75 628.4375 -5.75 628.4375 -3.75 629.4375 C-1.96038895 629.53404864 -0.16721235 629.56825451 1.625 629.5703125 C3.22601563 629.57224609 3.22601563 629.57224609 4.859375 629.57421875 C5.97828125 629.57035156 7.0971875 629.56648438 8.25 629.5625 C9.92835938 629.56830078 9.92835938 629.56830078 11.640625 629.57421875 C12.70796875 629.57292969 13.7753125 629.57164062 14.875 629.5703125 C15.85726563 629.56918457 16.83953125 629.56805664 17.8515625 629.56689453 C20.26407894 629.59645235 20.26407894 629.59645235 22.25 628.4375 C23.4875 628.355 24.725 628.2725 26 628.1875 C46.95512501 625.94827612 66.96469263 611.83614121 82.43945312 598.53955078 C95.38639215 587.42036887 108.41708228 578.59322617 126.2265625 578.40625 C132.41975945 578.91778249 132.41975945 578.91778249 134.86230469 580.44677734 C138.35397813 581.89557191 141.81523588 581.78285836 145.5390625 581.80859375 C146.35635834 581.81762222 147.17365417 581.8266507 148.01571655 581.83595276 C149.75230257 581.8504585 151.48894327 581.85934281 153.22558594 581.86303711 C155.81807487 581.87474297 158.40802722 581.92375233 161 581.97460938 C180.48995086 582.16358561 199.67791459 577.55445835 214.0859375 563.6953125 C219.55335868 557.99103553 223.46266017 551.5701557 227.5 544.8125 C227.93699219 544.08353516 228.37398437 543.35457031 228.82421875 542.60351562 C233.20945259 535.11036684 236.1491637 527.26774864 235.25 518.4375 C233.41871175 515.16519804 231.24493483 512.69532227 228.25 510.4375 C227.59 510.4375 226.93 510.4375 226.25 510.4375 C225.58333333 509.10416667 224.91666667 507.77083333 224.25 506.4375 C223.71375 505.591875 223.1775 504.74625 222.625 503.875 C220.71997474 499.11243685 220.3473248 494.49816728 221.25 489.4375 C224.12416498 483.56356387 227.61948339 481.9376415 233.375 479.625 C240.90582067 476.34206787 246.66369833 472.57910004 252.25 466.4375 C252.82621094 465.81746094 253.40242187 465.19742188 253.99609375 464.55859375 C256.36023881 461.69471071 257.23710254 459.78573139 257.375 456.0625 C255.94285619 451.44781439 253.77133048 447.54047691 251.25 443.4375 C250.59 443.4375 249.93 443.4375 249.25 443.4375 C248.1967013 445.0922562 247.20827689 446.78846219 246.25 448.5 C240.72357707 457.36506606 233.24674157 461.84251306 223.32421875 464.77734375 C213.12586389 466.96733355 204.32520666 465.36970879 195.25390625 460.328125 C186.31248898 453.87596643 182.8148585 441.73246158 181.02807617 431.36132812 C180.19314431 425.89923189 179.85664621 420.43462279 179.75390625 414.9140625 C179.51433823 412.35982416 179.51433823 412.35982416 177.625 411.17578125 C174.6680884 410.25660972 171.72600146 409.60091034 168.6875 409 C162.46114391 407.72213006 156.35689042 406.19478888 150.25 404.4375 C148.72702223 407.98895455 147.75097215 411.41458621 146.9375 415.1875 C145.34093935 421.76824744 142.75575987 427.22256281 138.59375 432.5625 C137.05582702 434.32397372 137.05582702 434.32397372 137.25 436.4375 C136.59 436.4375 135.93 436.4375 135.25 436.4375 C135.25 437.0975 135.25 437.7575 135.25 438.4375 C134.445625 438.72625 133.64125 439.015 132.8125 439.3125 C130.1173532 440.17012568 130.1173532 440.17012568 129.25 442.4375 C121.51396392 447.14788641 113.04944819 447.37546316 104.25 446.4375 C100.83384138 445.5959099 98.18651491 444.35842181 95.25 442.4375 C94.57710938 442.02113281 93.90421875 441.60476563 93.2109375 441.17578125 C86.01648715 435.88411024 82.70977356 427.41987985 79.25 419.4375 C78.71632813 418.24821899 78.71632813 418.24821899 78.171875 417.03491211 C77.19216289 414.2745421 76.93838377 412.05643742 76.8359375 409.13671875 C76.79726563 408.16025391 76.75859375 407.18378906 76.71875 406.17773438 C76.67234375 404.66663086 76.67234375 404.66663086 76.625 403.125 C76.58632813 402.09826172 76.54765625 401.07152344 76.5078125 400.01367188 C76.41385103 397.48845735 76.3281846 394.96324408 76.25 392.4375 C65.02210003 394.02115841 65.02210003 394.02115841 54.25 397.4375 C52.81165796 400.31418408 53.72455602 401.84162213 54.5859375 404.9140625 C54.90377197 406.04835693 55.22160645 407.18265137 55.54907227 408.35131836 C56.08165649 410.18835327 56.08165649 410.18835327 56.625 412.0625 C56.987146 413.31619385 57.34929199 414.5698877 57.72241211 415.86157227 C64.46869058 438.88970804 72.9138959 459.61326047 87.171875 479.05859375 C93.37761914 487.5583416 97.74039714 495.64120855 96.25 506.4375 C94.6194349 511.67247217 92.46179373 514.9276719 88.25 518.4375 C82.19775716 521.3660046 75.47156276 521.45125435 68.97265625 519.890625 C58.3559571 515.43371368 52.76337215 502.58521536 47.875 492.9375 C47.55362061 492.31010925 47.23224121 491.68271851 46.90112305 491.03631592 C40.35116973 478.20683133 34.92512564 465.06745743 30.25 451.4375 C29.92064453 450.48246582 29.59128906 449.52743164 29.25195312 448.54345703 C17.64307784 414.25691688 13.84606394 379.37587469 13.25 343.4375 C12.16203125 343.07398438 11.0740625 342.71046875 9.953125 342.3359375 C0.06592608 338.97514727 -9.52263297 335.38948293 -18.390625 329.76171875 C-23.13978164 327.09621527 -26.65942938 329.60773301 -31.125 331.75 Z M97.75 332.5625 C81.79931418 339.96967864 64.44598402 343.98440654 46.9375 345.2265625 C45.21653932 345.26631381 45.21653932 345.26631381 44.25 346.4375 C44.40128394 353.60603154 45.51532315 360.49879261 47.25 367.4375 C47.88236572 367.26009277 48.51473145 367.08268555 49.16625977 366.89990234 C54.45415642 365.43503456 59.75186664 364.06018851 65.08984375 362.7890625 C66.25451172 362.50546875 67.41917969 362.221875 68.61914062 361.9296875 C71.02211183 361.3457142 73.42850231 360.77565516 75.83789062 360.21875 C76.99353516 359.93257813 78.14917969 359.64640625 79.33984375 359.3515625 C80.38003662 359.1035791 81.42022949 358.8555957 82.49194336 358.60009766 C87.36284933 356.54687519 89.49113049 352.4453339 91.5 347.75 C91.83515625 346.98300781 92.1703125 346.21601563 92.515625 345.42578125 C93.3654913 343.47807481 93.3654913 343.47807481 93.25 341.4375 C93.91 341.4375 94.57 341.4375 95.25 341.4375 C96.47115084 339.72128801 97.68875984 338.00224374 98.875 336.26171875 C100.68185196 333.86456004 102.81799548 332.17464609 105.25 330.4375 C101.92934565 330.4375 100.67743088 331.08952054 97.75 332.5625 Z M-81.42382812 346.43310547 C-85.66848671 347.52403936 -89.60470569 347.69694546 -93.96875 347.6328125 C-94.71209595 347.6299826 -95.45544189 347.62715271 -96.22131348 347.62423706 C-98.56438217 347.61316157 -100.90704947 347.58808228 -103.25 347.5625 C-104.85155693 347.55245381 -106.45311993 347.54333085 -108.0546875 347.53515625 C-111.9532765 347.5132639 -115.85157052 347.47882386 -119.75 347.4375 C-118.95779053 348.22809814 -118.16558105 349.01869629 -117.34936523 349.83325195 C-109.57679148 357.6204262 -109.57679148 357.6204262 -107.60424805 361.95556641 C-106.24985363 364.89900469 -104.98485991 367.07911444 -102.75 369.4375 C-98.32595482 370.84686745 -94.11082733 370.74832453 -89.5 370.625 C-87.705625 370.64143555 -87.705625 370.64143555 -85.875 370.65820312 C-80.13683282 370.92009037 -80.13683282 370.92009037 -74.75 369.4375 C-74.45893025 366.88988948 -74.28298869 364.4312466 -74.1875 361.875 C-74.11642416 360.41527379 -74.04352695 358.95563505 -73.96875 357.49609375 C-73.93394531 356.79468262 -73.89914062 356.09327148 -73.86328125 355.37060547 C-73.66753687 352.03029517 -73.23257157 348.74656221 -72.75 345.4375 C-75.95798694 345.23700082 -78.28609981 345.58278276 -81.42382812 346.43310547 Z " fill="#FCFAF0" transform="translate(364.75,62.5625)"/>
<path d="M0 0 C9.75998877 6.16193552 14.30138929 17.2167547 17 28 C19.79498494 40.57363815 21.45203662 53.02216477 21.67260742 65.90576172 C21.807519 72.41204067 22.47665612 76.73038438 27.125 81.5625 C38.28345288 93.88571832 45.55951034 107.05262727 45.25 123.82421875 C44.89875189 128.28616737 43.85826152 131.94629242 42 136 C41.6596875 136.74894531 41.319375 137.49789062 40.96875 138.26953125 C35.93314597 148.25567844 26.95907341 156.0204633 17 161 C17.97165489 163.46181619 18.95827072 165.90630595 20.03515625 168.32421875 C25.15994244 180.11317557 23.95712762 189.08930792 20 201 C19.07421426 203.32132203 18.08750162 205.56803433 16.99072266 207.8125 C16.03120052 209.93110974 15.3220207 212.00888726 14.640625 214.23046875 C13.11482791 218.88460269 11.12407394 223.12668653 8.8125 227.4375 C8.41667725 228.17613281 8.02085449 228.91476562 7.61303711 229.67578125 C-1.53620778 246.34067307 -15.7242164 259.17652997 -34 265 C-36.32817964 265.36760731 -38.6618385 265.70241581 -41 266 C-44.03898007 266.89381767 -47.01695674 267.93627915 -50 269 C-53.33284306 270.11094769 -55.84539548 270.12936473 -59.35546875 270.1328125 C-60.61810547 270.13410156 -61.88074219 270.13539063 -63.18164062 270.13671875 C-63.84010986 270.13462402 -64.4985791 270.1325293 -65.17700195 270.13037109 C-67.16291722 270.12506567 -69.14885203 270.13082292 -71.13476562 270.13671875 C-77.51456532 270.13023851 -83.69609185 270.00926611 -90 269 C-88.44052267 271.21052126 -86.87753183 273.41841611 -85.3125 275.625 C-84.87744141 276.24246094 -84.44238281 276.85992188 -83.99414062 277.49609375 C-81.82376389 280.55069804 -79.61490104 283.49628768 -77.16796875 286.3359375 C-75 289 -75 289 -75 291 C-74.34 291 -73.68 291 -73 291 C-71.24762896 293.04837967 -69.6137324 295.09681991 -68 297.25 C-67.54882812 297.83652344 -67.09765625 298.42304687 -66.6328125 299.02734375 C-64.45035379 301.90069916 -62.44492783 304.68323384 -61 308 C-60.34 308 -59.68 308 -59 308 C-57.69432873 309.49481057 -56.45748975 311.049816 -55.25 312.625 C-45.77535422 324.4454584 -34.637483 335.57501134 -22 344 C-22 344.66 -22 345.32 -22 346 C-21.48179687 346.23589844 -20.96359375 346.47179687 -20.4296875 346.71484375 C-17.17400658 348.43690006 -14.16994296 350.49944365 -11.125 352.5625 C-1.63608168 358.93710667 7.94513319 365.1438539 17.6875 371.125 C18.74195313 371.77339844 19.79640625 372.42179687 20.8828125 373.08984375 C22.95631074 374.36044605 25.03444301 375.62351765 27.1171875 376.87890625 C28.08914063 377.47574219 29.06109375 378.07257813 30.0625 378.6875 C30.91972656 379.20699219 31.77695312 379.72648437 32.66015625 380.26171875 C36.42857138 383.06129259 39.30169058 386.6033614 41 391 C41.73522165 396.78628988 41.62939061 402.23642483 38 407 C30.80289823 412.46979734 21.65273042 412.09763727 13 411 C5.2629705 409.41386686 -2.00794368 406.65536457 -9 403 C-10.43666016 402.27103516 -10.43666016 402.27103516 -11.90234375 401.52734375 C-32.67673935 390.64551749 -50.21433824 376.2483773 -67 360 C-67.54350098 359.47841309 -68.08700195 358.95682617 -68.64697266 358.41943359 C-74.19386935 353.08512956 -79.31799028 347.62380353 -84.03125 341.5390625 C-86.1767546 338.77204268 -88.3945149 336.07388697 -90.625 333.375 C-94.20917993 329.00046245 -97.66099602 324.56330543 -101 320 C-101.62648438 319.15824219 -102.25296875 318.31648438 -102.8984375 317.44921875 C-124.64575882 287.99451344 -124.64575882 287.99451344 -122.5390625 272.640625 C-122.36117188 271.76921875 -122.18328125 270.8978125 -122 270 C-127.26704292 272.33546399 -131.30827507 275.46695382 -135.6875 279.125 C-136.74142944 279.99125 -136.74142944 279.99125 -137.81665039 280.875 C-140.95302729 283.45549522 -144.07162315 286.0559335 -147.171875 288.6796875 C-152.54907307 293.19106554 -157.72776501 296.86857027 -164 300 C-165.16144531 300.61617187 -166.32289063 301.23234375 -167.51953125 301.8671875 C-185.23061189 311.15624682 -202.02241357 315.98780229 -222 317 C-222.03738281 318.24394531 -222.07476562 319.48789062 -222.11328125 320.76953125 C-222.1790193 322.4505471 -222.24546379 324.13153542 -222.3125 325.8125 C-222.33505859 326.62654297 -222.35761719 327.44058594 -222.38085938 328.27929688 C-222.57517925 332.78398488 -223.12866283 336.64311833 -224.54296875 340.9296875 C-226.96669011 349.1846016 -226.20324681 357.79952367 -226 366.3125 C-225.91985384 369.70439997 -225.86014449 373.09578667 -225.8125 376.48828125 C-225.77515747 377.6368737 -225.77515747 377.6368737 -225.73706055 378.80867004 C-225.67113396 383.63079149 -226.35509361 386.80818375 -229 391 C-234.44041398 395.90964188 -237.83069904 396.28285642 -245.01171875 396.22265625 C-249.47784588 395.88988599 -252.24612009 394.31540993 -255.75 391.6875 C-261.96459777 383.29779301 -259.03520629 370.18016687 -258.125 360.5 C-258.00753418 359.20908447 -258.00753418 359.20908447 -257.88769531 357.89208984 C-257.4418054 353.54338193 -256.72045945 350.04483527 -255 346 C-254.78776449 344.17316269 -254.64578138 342.33723779 -254.5625 340.5 C-254.17683326 334.82018077 -253.10097393 329.52288596 -251.71875 324.0078125 C-251.00422807 321.01769355 -250.47141571 318.03700506 -250 315 C-250.62648438 314.93941406 -251.25296875 314.87882812 -251.8984375 314.81640625 C-252.71570313 314.73261719 -253.53296875 314.64882813 -254.375 314.5625 C-255.18710937 314.48128906 -255.99921875 314.40007812 -256.8359375 314.31640625 C-259 314 -259 314 -261 313 C-262.72490129 312.70321119 -264.4552189 312.43764046 -266.1875 312.1875 C-276.04364397 310.58824587 -285.87385096 308.33987211 -294.90625 303.9921875 C-297.17223097 302.91838308 -299.47103236 302.02157463 -301.8125 301.125 C-310.2267795 297.7748702 -317.91380731 293.75626982 -325.375 288.625 C-332.10744016 284.36437362 -338.17988404 283.71421274 -346 285 C-346.99 285.66 -347.98 286.32 -349 287 C-348.67 287.66 -348.34 288.32 -348 289 C-347.87657302 290.70501461 -347.82440414 292.4155652 -347.8125 294.125 C-347.79832031 295.03507812 -347.78414062 295.94515625 -347.76953125 296.8828125 C-348.28571837 303.86446209 -350.70119127 310.36195178 -353.125 316.875 C-353.58350342 318.10839111 -353.58350342 318.10839111 -354.05126953 319.36669922 C-363.18164401 343.55872435 -374.77409124 367.49303483 -392 387 C-392.60328125 387.73089844 -393.2065625 388.46179688 -393.828125 389.21484375 C-394.29734375 389.78332031 -394.7665625 390.35179687 -395.25 390.9375 C-395.72953125 391.52402344 -396.2090625 392.11054687 -396.703125 392.71484375 C-398 394 -398 394 -400 394 C-400.268125 394.598125 -400.53625 395.19625 -400.8125 395.8125 C-401.99917406 397.99847854 -403.09599113 399.41332594 -405 401 C-405.66 401 -406.32 401 -407 401 C-407.19335938 401.55429687 -407.38671875 402.10859375 -407.5859375 402.6796875 C-409.60684141 405.99575634 -412.51068558 407.91405344 -415.625 410.125 C-416.29088135 410.60291992 -416.9567627 411.08083984 -417.64282227 411.57324219 C-429.86280803 420.24484476 -442.0671291 427.44536708 -456 433 C-456.78246094 433.3609375 -457.56492187 433.721875 -458.37109375 434.09375 C-463.47892112 436.24441416 -468.65354957 436.33255453 -474.125 436.4375 C-474.88989746 436.45997803 -475.65479492 436.48245605 -476.44287109 436.50561523 C-483.13973508 436.47730636 -487.38432972 434.47428269 -492.3125 429.8125 C-494.62740277 425.95432872 -495.92893941 422.53366554 -496 418 C-495.02676222 414.47078419 -493.64871728 411.26337016 -492 408 C-491.34 408 -490.68 408 -490 408 C-489.7628125 407.39671875 -489.525625 406.7934375 -489.28125 406.171875 C-485.44998537 399.67741422 -474.71649737 396.9452692 -468 394 C-449.8674863 386.03765595 -435.18815116 375.69890457 -421 362 C-420.32324219 361.38640625 -419.64648438 360.7728125 -418.94921875 360.140625 C-400.70558818 343.19711523 -391.30009408 316.44100625 -382 294 C-383.06927734 294.12568359 -383.06927734 294.12568359 -384.16015625 294.25390625 C-389.72660733 294.84576309 -394.49855594 294.93641601 -400 294 C-400.66 294.33 -401.32 294.66 -402 295 C-404.16490195 295.09685088 -406.33293803 295.12979438 -408.5 295.125 C-409.6653125 295.12757813 -410.830625 295.13015625 -412.03125 295.1328125 C-415 295 -415 295 -417 294 C-418.88647601 293.90598957 -420.77340785 293.8168433 -422.66137695 293.76025391 C-429.79592929 293.53220536 -435.76141367 292.84197626 -442.40234375 290.02734375 C-445.2069467 288.91815492 -447.92558312 288.30660837 -450.875 287.6875 C-467.43200645 283.67109069 -484.82464634 270.50699231 -494.13720703 256.26025391 C-499.81807567 246.92793057 -503.67243928 237.08032384 -505.69140625 226.3125 C-506.69944643 222.7729712 -506.69944643 222.7729712 -509.94140625 221.25 C-511.13636719 220.8375 -512.33132813 220.425 -513.5625 220 C-520.00152035 217.57662429 -524.89643784 214.60341307 -530 210 C-530.93585938 209.23623047 -530.93585938 209.23623047 -531.890625 208.45703125 C-540.40374249 200.96178651 -544.30036353 189.13998816 -545.2512207 178.07714844 C-546.53928328 151.76415984 -542.53745326 125.24398521 -526.4375 103.75 C-521.88285258 97.5234923 -519.7996954 91.1355813 -517.51879883 83.81420898 C-513.05921391 69.57156232 -506.5846967 55.49112544 -492.9609375 47.8984375 C-486.66748817 45.01498462 -480.7552281 44.24741209 -474 46 C-469.61315613 47.80005358 -465.37734594 49.62265406 -462 53 C-455.80897734 52.76743568 -450.81812542 50.35844528 -445.25 47.8125 C-438.18393424 44.68194084 -431.13037589 41.86386771 -423.75 39.5625 C-423.00137695 39.32829346 -422.25275391 39.09408691 -421.48144531 38.8527832 C-415.64771994 37.08662741 -415.64771994 37.08662741 -412.65063477 36.68579102 C-408.05367661 36.03307656 -408.05367661 36.03307656 -404.38916016 33.36401367 C-402.93150387 31.23781787 -401.67186824 29.07531005 -400.4375 26.8125 C-395.93258847 19.21615331 -391.45180225 12.50560289 -383 9 C-380.15917969 8.77294922 -380.15917969 8.77294922 -376.921875 8.8046875 C-375.18164062 8.81435547 -375.18164062 8.81435547 -373.40625 8.82421875 C-372.1996875 8.84097656 -370.993125 8.85773438 -369.75 8.875 C-367.91695313 8.88853516 -367.91695313 8.88853516 -366.046875 8.90234375 C-363.03105218 8.92590487 -360.01562508 8.95880294 -357 9 C-356.67 9.99 -356.34 10.98 -356 12 C-354.33437932 13.57307672 -354.33437932 13.57307672 -352.3125 15.125 C-345.18283187 21.20693912 -341.52465499 28.1076041 -339 37 C-338.70609375 37.92039062 -338.4121875 38.84078125 -338.109375 39.7890625 C-335.98952061 46.43463777 -334.10825389 53.1360396 -332.3125 59.875 C-332.09803223 60.67147949 -331.88356445 61.46795898 -331.66259766 62.28857422 C-326.39655771 82.33146687 -327.36663818 106.70436274 -338 125 C-343.92881959 133.0554614 -352.64715471 142.24767016 -363 144 C-370.02795896 144.68265206 -376.56054693 143.90473589 -383.375 142.25 C-384.04047852 142.09313721 -384.70595703 141.93627441 -385.39160156 141.7746582 C-396.80860179 138.78565199 -402.57710595 130.29196881 -408.46484375 120.7421875 C-410.61577869 116.90005944 -411.95472573 113.26655978 -413 109 C-413.27714844 107.94683594 -413.55429687 106.89367187 -413.83984375 105.80859375 C-416.33373076 95.15498428 -416.29834806 84.88417913 -416 74 C-418.54377987 74.76434241 -421.08486141 75.53622297 -423.625 76.3125 C-424.33785156 76.52583984 -425.05070312 76.73917969 -425.78515625 76.95898438 C-429.15413495 77.99440444 -432.16900144 79.08450072 -435.3359375 80.66796875 C-438 82 -438 82 -441 82 C-440.74605469 82.64324219 -440.49210937 83.28648437 -440.23046875 83.94921875 C-432.00906719 105.53424682 -430.86792795 129.74281544 -439.3125 151.5625 C-441.61317341 156.5896431 -444.34970578 160.85642278 -448 165 C-448.53496094 165.61617187 -449.06992187 166.23234375 -449.62109375 166.8671875 C-455.46173548 173.15295896 -462.45869914 177.64116109 -471.13671875 178.203125 C-483.53644818 178.3668178 -491.41928223 176.02500636 -501 168 C-505.03602149 163.94345637 -508.60450747 159.60000976 -512 155 C-515.7489827 160.71344963 -514.61261247 169.41842519 -514 176 C-512.61375355 182.52764152 -509.43064754 186.19619594 -503.9375 189.8515625 C-500.10388229 192.12390848 -497.09442336 193.02154369 -492.6875 193.375 C-487.87270893 193.84120681 -483.96358252 195.19285097 -480 198 C-476.5548733 202.5564579 -475.94282759 206.41605263 -475.86254883 212.05517578 C-475.66779445 221.32548428 -474.17891196 228.09790428 -469 236 C-468.53335938 236.73476563 -468.06671875 237.46953125 -467.5859375 238.2265625 C-456.21789501 254.67529437 -437.60451164 263.1946338 -418.5480957 266.87231445 C-410.61975576 268.24567417 -403.03050407 268.44262621 -395 268 C-394.09121094 267.96777344 -393.18242187 267.93554688 -392.24609375 267.90234375 C-387.60371568 267.61172939 -383.59470991 266.6015844 -379.1875 265.125 C-372.23263926 262.83173057 -365.23362817 261.87634739 -357.9831543 260.95166016 C-357.10828369 260.83999512 -356.23341309 260.72833008 -355.33203125 260.61328125 C-354.54546143 260.51829346 -353.7588916 260.42330566 -352.94848633 260.32543945 C-350.92690061 260.08584852 -350.92690061 260.08584852 -349 259 C-345.00703804 258.6741281 -341.00459968 258.67522873 -337 258.625 C-335.90042969 258.58761719 -334.80085937 258.55023437 -333.66796875 258.51171875 C-325.8578343 258.42833653 -320.61318693 259.87823678 -314 264 C-312.40478516 264.96873047 -312.40478516 264.96873047 -310.77734375 265.95703125 C-309.84019531 266.56933594 -308.90304687 267.18164062 -307.9375 267.8125 C-300.29480136 272.59938598 -292.22871999 276.3371079 -284 280 C-282.87464844 280.50789063 -281.74929688 281.01578125 -280.58984375 281.5390625 C-276.26797284 283.29790877 -271.90300505 284.71753547 -267.4375 286.0625 C-266.56432129 286.32635498 -265.69114258 286.59020996 -264.79150391 286.86206055 C-258.39406668 288.7327214 -252.18764653 289.9500575 -245.5546875 290.67578125 C-243 291 -243 291 -241 292 C-239.21038895 292.09654864 -237.41721235 292.13075451 -235.625 292.1328125 C-234.02398437 292.13474609 -234.02398437 292.13474609 -232.390625 292.13671875 C-231.27171875 292.13285156 -230.1528125 292.12898438 -229 292.125 C-227.32164062 292.13080078 -227.32164062 292.13080078 -225.609375 292.13671875 C-224.54203125 292.13542969 -223.4746875 292.13414062 -222.375 292.1328125 C-221.39273437 292.13168457 -220.41046875 292.13055664 -219.3984375 292.12939453 C-216.98592106 292.15895235 -216.98592106 292.15895235 -215 291 C-213.7625 290.9175 -212.525 290.835 -211.25 290.75 C-190.29487499 288.51077612 -170.28530737 274.39864121 -154.81054688 261.10205078 C-141.86360785 249.98286887 -128.83291772 241.15572617 -111.0234375 240.96875 C-104.83024055 241.48028249 -104.83024055 241.48028249 -102.38769531 243.00927734 C-98.89602187 244.45807191 -95.43476412 244.34535836 -91.7109375 244.37109375 C-90.89364166 244.38012222 -90.07634583 244.3891507 -89.23428345 244.39845276 C-87.49769743 244.4129585 -85.76105673 244.42184281 -84.02441406 244.42553711 C-81.43192513 244.43724297 -78.84197278 244.48625233 -76.25 244.53710938 C-56.87700928 244.72495155 -37.59626437 240.16494001 -23.23828125 226.40234375 C-12.92490141 215.33300936 -3.86619868 200.12954362 -2.7734375 184.90625 C-3.08588908 180.89825042 -4.47285964 179.16919631 -7.30859375 176.4453125 C-7.86675781 175.96835937 -8.42492187 175.49140625 -9 175 C-14.3866222 169.86391837 -17.12979984 166.06942382 -17.4375 158.5 C-17.54491106 153.51612697 -16.21975314 150.80842025 -13 147 C-10.5401448 145.36881316 -7.9457064 144.1897582 -5.25 143 C5.09787924 138.11899068 12.5896375 132.61554375 19 123 C18.77838618 117.23804076 16.90945902 113.78652936 14 109 C14 108.34 14 107.68 14 107 C13.34 107 12.68 107 12 107 C11.79375 107.66 11.5875 108.32 11.375 109 C7.01776925 118.50668527 -0.01388208 123.93610381 -9.51171875 128.1015625 C-18.85908306 131.32271542 -28.3485481 131.11396912 -37.46875 127.30078125 C-46.75753301 122.52737887 -51.56771372 114.65616541 -55 105 C-56.52493602 99.75406461 -57.35290649 94.41592018 -58 89 C-58.07976074 88.33806641 -58.15952148 87.67613281 -58.24169922 86.99414062 C-59.50829074 75.76388055 -59.50829074 75.76388055 -57 71 C-56.73796638 68.98747373 -56.5554997 66.96357988 -56.4375 64.9375 C-56.23948365 61.66820969 -56.03869566 59.11608697 -55 56 C-54.7590211 53.81376973 -54.53205679 51.62598542 -54.3125 49.4375 C-52.41144381 33.86612154 -47.15431645 17.46566887 -34.75 7.125 C-23.874274 -0.48053347 -13.04186763 -5.51771323 0 0 Z " fill="#FAF9F1" transform="translate(602,399)"/>
<path d="M0 0 C9.34912765 9.89907633 10.55528137 22.22474634 10.4375 35.3125 C10.42614014 37.08862671 10.42614014 37.08862671 10.41455078 38.90063477 C10.0495922 58.32468937 2.86667115 76.13332885 -11 90 C-14.10022521 90.57435751 -16.90650983 90.62588027 -20 90 C-24.30899338 86.80746957 -26.99910986 81.89106478 -29 77 C-29 76.01 -29 75.02 -29 74 C-29.65226563 74.2165625 -30.30453125 74.433125 -30.9765625 74.65625 C-35.77521132 76.18502308 -39.89921898 77.40269324 -45 77 C-44.67 77.7425 -44.34 78.485 -44 79.25 C-42.59675861 84.5121552 -42.84230438 89.5857837 -43 95 C-41.02 95.33 -39.04 95.66 -37 96 C-36.67 96.99 -36.34 97.98 -36 99 C-35.071875 99.28875 -34.14375 99.5775 -33.1875 99.875 C-29.2875415 101.25145594 -28.32490069 102.6239892 -26 106 C-21.35313484 116.86070678 -18.79605382 128.79198439 -15.9230957 140.21630859 C-15.18588355 143.13139178 -14.42619372 146.04005213 -13.66601562 148.94921875 C-9.91456242 163.61225879 -6.98786933 177.0219832 -15.09765625 190.875 C-18.17356736 195.04572693 -22.063732 197.64118284 -27 199 C-34.39655054 199.75233486 -40.4969962 199.91647761 -47 196 C-52.05531314 191.74869091 -54.87546824 186.45668653 -56 180 C-57.31979973 164.29071715 -53.72615173 149.96648976 -48.33764648 135.35693359 C-46.40949604 129.97669692 -45.55931403 125.72253079 -46 120 C-46.33 119.34 -46.66 118.68 -47 118 C-47.51046875 118.43570313 -48.0209375 118.87140625 -48.546875 119.3203125 C-64.70134036 132.55322562 -83.71952144 137.74561337 -104.34912109 136.29541016 C-116.70769117 134.91818877 -129.63186366 130.49896557 -138 121 C-138.46921875 120.53335938 -138.9384375 120.06671875 -139.421875 119.5859375 C-149.50524696 109.03478024 -152.55757016 94.99585755 -152.3046875 80.890625 C-150.723465 60.69963003 -137.6579269 38.88965115 -123.359375 24.98828125 C-119.67993155 21.88755821 -117.16310761 20.09856844 -112.3125 19.6875 C-109 20 -109 20 -107 22 C-106.98828125 24.49609375 -106.98828125 24.49609375 -107.3125 27.4375 C-107.41175781 28.40558594 -107.51101563 29.37367187 -107.61328125 30.37109375 C-108 33 -108 33 -109 36 C-106.95999027 36.22397733 -104.91783811 36.42848537 -102.875 36.625 C-101.73804688 36.74101563 -100.60109375 36.85703125 -99.4296875 36.9765625 C-95.79498091 37.00140104 -93.40139586 36.19410706 -90 35 C-87.0078125 34.8046875 -87.0078125 34.8046875 -84.125 34.875 C-82.67480469 34.90207031 -82.67480469 34.90207031 -81.1953125 34.9296875 C-80.47085938 34.95289063 -79.74640625 34.97609375 -79 35 C-79 32.69 -79 30.38 -79 28 C-80.485 28.495 -80.485 28.495 -82 29 C-86.5143091 29.25079495 -89.96327876 29.13708771 -94 27 C-95.20272819 24.59454362 -95.10071472 23.05003047 -95.0625 20.375 C-95.05347656 19.55773437 -95.04445313 18.74046875 -95.03515625 17.8984375 C-95.02355469 17.27195312 -95.01195312 16.64546875 -95 16 C-96.32 15.34 -97.64 14.68 -99 14 C-99 10.41079759 -98.85036846 8.11503645 -96.64453125 5.22265625 C-73.66109635 -16.38863328 -24.20844779 -20.3860613 0 0 Z M-66 39 C-64.68 40.32 -63.36 41.64 -62 43 C-61.67 41.68 -61.34 40.36 -61 39 C-62.65 39 -64.3 39 -66 39 Z M-54 54 C-53.54917531 55.46067199 -53.08906463 56.91848032 -52.625 58.375 C-52.36976563 59.18710938 -52.11453125 59.99921875 -51.8515625 60.8359375 C-51.10145717 63.16459185 -51.10145717 63.16459185 -49 65 C-47.35 61.37 -45.7 57.74 -44 54 C-48.00001715 52.99999571 -50.05523353 53.19311595 -54 54 Z " fill="#FEFCF0" transform="translate(664,78)"/>
<path d="M0 0 C19.34133116 18.21683516 27.3652279 52.12837701 28.5625 77.75 C28.60036621 78.39404785 28.63823242 79.0380957 28.67724609 79.70166016 C29.70371229 99.15254493 28.16040547 123.42051542 14.98046875 138.75390625 C8.02077535 146.20491431 1.28072166 150.80187104 -8.625 153 C-9.37040039 153.1662085 -10.11580078 153.33241699 -10.88378906 153.50366211 C-24.57931989 156.38219975 -35.30298153 154.37973131 -47.3125 146.9375 C-60.14685643 137.66954609 -65.50495489 123.71910725 -67.95874023 108.52172852 C-68.78156878 102.03938371 -68.68135519 95.52497346 -68.6875 89 C-68.68850708 88.26145782 -68.68951416 87.52291565 -68.69055176 86.76199341 C-68.67985711 75.1663212 -67.9554377 64.08756932 -65.4375 52.75 C-65.1671514 51.372556 -64.89761909 49.99495154 -64.62890625 48.6171875 C-62.51055325 38.46487453 -58.43809974 29.78550049 -53.4375 20.75 C-52.83421875 19.63109375 -52.2309375 18.5121875 -51.609375 17.359375 C-46.64052753 8.45126107 -41.52605977 0.10109503 -31.4375 -3.25 C-20.64320025 -5.99591836 -9.41653744 -7.02924626 0 0 Z " fill="#E89469" transform="translate(371.4375,531.25)"/>
<path d="M0 0 C4.14352039 3.05882919 7.85019921 6.57365954 11.25 10.4375 C11.86875 11.13875 12.4875 11.84 13.125 12.5625 C14.25 14.4375 14.25 14.4375 14.75 17.0625 C15.03722409 19.80115337 15.03722409 19.80115337 18.25 21.4375 C19.27734375 23.1015625 19.27734375 23.1015625 20.1875 25.0625 C20.52394531 25.77277344 20.86039062 26.48304687 21.20703125 27.21484375 C21.72330078 28.31505859 21.72330078 28.31505859 22.25 29.4375 C22.95513597 30.83495128 23.66337178 32.2308436 24.375 33.625 C37.39157588 59.17406423 37.55800303 96.60159083 29.0078125 123.59375 C24.56550599 136.23007944 17.00065385 152.86974869 5.25 160.4375 C3.45091763 152.23413701 2.10677024 144.27991603 1.875 135.875 C1.59800973 127.60939852 0.541613 119.49794391 -0.73590088 111.33694458 C-0.95137052 109.9601093 -1.16236675 108.58256552 -1.36859131 107.20431519 C-3.19025037 94.91847787 -3.19025037 94.91847787 -9.5 84.4375 C-12.85227306 82.94760086 -16.18675124 82.7606818 -19.75 83.4375 C-26.98794248 86.82190829 -29.98260566 94.27991523 -32.98046875 101.33203125 C-39.01633192 118.23707332 -39.93890819 135.96534052 -39.8125 153.75 C-39.80798828 154.97912109 -39.80347656 156.20824219 -39.79882812 157.47460938 C-39.78720289 160.46229356 -39.77086559 163.44986855 -39.75 166.4375 C-44.80997917 162.46246162 -48.67462508 158.34104896 -52.25 153 C-52.71994385 152.30261719 -53.1898877 151.60523438 -53.67407227 150.88671875 C-66.85300143 130.85275749 -69.40807976 111.78745776 -69.21655273 88.16430664 C-69.18748353 84.24778083 -69.19600175 80.3326043 -69.20898438 76.41601562 C-69.20274818 73.88801436 -69.19435818 71.36001729 -69.18359375 68.83203125 C-69.18652939 67.68064163 -69.18946503 66.52925201 -69.19248962 65.3429718 C-69.06846251 54.50317944 -67.04961515 44.18214568 -62.5 34.3125 C-62.19771484 33.6421875 -61.89542969 32.971875 -61.58398438 32.28125 C-55.01912065 18.09135823 -46.45292134 6.17455169 -32 -0.375 C-22.26681672 -3.90820179 -9.33149497 -5.29971928 0 0 Z " fill="#E9946A" transform="translate(364.75,62.5625)"/>
<path d="M0 0 C1.125 2.375 1.125 2.375 2 5 C3.02482025 6.07875815 4.09415403 7.11575757 5.1875 8.125 C17.51780763 19.9938824 21.999299 36.9092327 26 53 C26.20044922 53.8048584 26.40089844 54.6097168 26.60742188 55.43896484 C31.21395185 74.36727202 32.72358002 95.70582511 22.78125 113.32421875 C15.77550295 123.8482028 6.64983079 131.76483455 -5.90063477 134.625 C-13.62317157 136.00444139 -23.20515257 136.87522199 -30.0625 132.5625 C-32.1015625 130.86328125 -32.1015625 130.86328125 -34 129 C-34.64710938 128.41605469 -35.29421875 127.83210937 -35.9609375 127.23046875 C-52.3284142 110.83064525 -58.99751785 87.24430714 -59.12963867 64.75024414 C-59.12303064 60.83237637 -59.07224362 56.91720952 -59 53 C-58.34 53 -57.68 53 -57 53 C-57.0825 51.72125 -57.165 50.4425 -57.25 49.125 C-57.18107646 32.90499406 -51.59008419 15.59008419 -40 4 C-39.236875 3.484375 -38.47375 2.96875 -37.6875 2.4375 C-35.1976118 0.31648413 -35.27993597 -1.85072038 -35 -5 C-34.34 -4.67 -33.68 -4.34 -33 -4 C-33 -3.34 -33 -2.68 -33 -2 C-32.41992188 -2.20496094 -31.83984375 -2.40992188 -31.2421875 -2.62109375 C-19.94612422 -6.51693076 -10.0140722 -7.72327137 0 0 Z " fill="#E89469" transform="translate(415,258)"/>
<path d="M0 0 C1.74023438 0.00966797 1.74023438 0.00966797 3.515625 0.01953125 C4.7221875 0.03628906 5.92875 0.05304688 7.171875 0.0703125 C9.00492188 0.08384766 9.00492188 0.08384766 10.875 0.09765625 C13.89082282 0.12121737 16.90624992 0.15411544 19.921875 0.1953125 C20.416875 1.6803125 20.416875 1.6803125 20.921875 3.1953125 C22.58749568 4.76838922 22.58749568 4.76838922 24.609375 6.3203125 C31.73904313 12.40225162 35.39722001 19.3029166 37.921875 28.1953125 C38.21578125 29.11570312 38.5096875 30.03609375 38.8125 30.984375 C40.93235439 37.62995027 42.81362111 44.3313521 44.609375 51.0703125 C44.82384277 51.86679199 45.03831055 52.66327148 45.25927734 53.48388672 C50.52531729 73.52677937 49.55523682 97.89967524 38.921875 116.1953125 C32.99305541 124.2507739 24.27472029 133.44298266 13.921875 135.1953125 C6.89391604 135.87796456 0.36132807 135.10004839 -6.453125 133.4453125 C-7.45134277 133.21001831 -7.45134277 133.21001831 -8.46972656 132.9699707 C-19.88672679 129.98096449 -25.65523095 121.48728131 -31.54296875 111.9375 C-33.69390369 108.09537194 -35.03285073 104.46187228 -36.078125 100.1953125 C-36.49384766 98.61556641 -36.49384766 98.61556641 -36.91796875 97.00390625 C-41.38740059 77.91098774 -38.8064158 60.7396742 -33.80810547 41.96582031 C-33.21981447 39.73306905 -32.67995244 37.50257577 -32.17578125 35.25 C-28.88127467 22.17031717 -19.95738929 8.23999997 -8.34838867 1.13696289 C-5.4430789 -0.06808924 -3.14157728 -0.03079978 0 0 Z " fill="#E89469" transform="translate(225.078125,407.8046875)"/>
<path d="M0 0 C10.53447112 6.65090229 14.83309106 18.78587668 17.55566406 30.36279297 C22.25628773 51.55536786 23.64043218 73.0805434 16.69677734 93.88330078 C16.0095672 95.97093635 15.39773138 98.06858499 14.80078125 100.18359375 C11.3728714 111.95834223 6.48082315 119.29881161 -4.1796875 125.55859375 C-13.94662717 130.55028452 -24.195959 131.82413556 -34.75 128.4375 C-44.32078582 124.43592145 -49.33157173 118.30155203 -53.52734375 108.87890625 C-56.11375124 102.4819776 -57.18523338 95.81927877 -58 89 C-58.07976074 88.33806641 -58.15952148 87.67613281 -58.24169922 86.99414062 C-59.50829074 75.76388055 -59.50829074 75.76388055 -57 71 C-56.73796638 68.98747373 -56.5554997 66.96357988 -56.4375 64.9375 C-56.23948365 61.66820969 -56.03869566 59.11608697 -55 56 C-54.7590211 53.81376973 -54.53205679 51.62598542 -54.3125 49.4375 C-52.41144381 33.86612154 -47.15431645 17.46566887 -34.75 7.125 C-23.874274 -0.48053347 -13.04186763 -5.51771323 0 0 Z " fill="#E89469" transform="translate(602,399)"/>
<path d="M0 0 C2.78599428 2.76488826 4.92779415 5.6735643 7 9 C7.67289063 10.05574219 7.67289063 10.05574219 8.359375 11.1328125 C14.77244439 22.49423791 17.75314961 37.06503932 18 50 C18.05027344 51.30195312 18.10054687 52.60390625 18.15234375 53.9453125 C18.69238578 72.74525553 14.88450528 90.96048762 3 106 C2.34 106 1.68 106 1 106 C1 106.66 1 107.32 1 108 C0.34 108 -0.32 108 -1 108 C-1 108.66 -1 109.32 -1 110 C-2.9765625 111.4375 -2.9765625 111.4375 -5.625 113 C-6.48351562 113.515625 -7.34203125 114.03125 -8.2265625 114.5625 C-16.00860689 118.59601033 -24.24605607 119.42032838 -32.78515625 117.3125 C-44.05856965 113.13070832 -53.10370488 104.85855285 -58.17578125 93.95703125 C-58.44777344 93.31121094 -58.71976562 92.66539062 -59 92 C-59.34160156 91.23171875 -59.68320312 90.4634375 -60.03515625 89.671875 C-67.70221348 68.44002421 -63.79309262 39.28345388 -54.7265625 19.17578125 C-49.29925504 8.42611427 -41.26264655 -0.87687576 -30.11328125 -5.83984375 C-19.70093018 -9.17965447 -8.50604004 -6.48858182 0 0 Z " fill="#FCFAF1" transform="translate(547,522)"/>
<path d="M0 0 C11.36273743 3.8274484 18.63213547 11.56871698 24 22 C26.5399516 27.12295323 28.50511476 32.31196996 30.20703125 37.765625 C31.02077659 40.05854291 32.06597308 42.09352016 33.1875 44.25 C35.78760604 49.87858204 35.7505917 55.91671613 35 62 C33 64 33 64 30 64.3125 C29.01 64.209375 28.02 64.10625 27 64 C25.13089041 61.19633561 24.66481217 59.78207357 23.9375 56.625 C22.6520722 52.47780399 21.10608592 51.01267474 17.3125 48.9375 C15.88828631 48.26287246 14.45441966 47.60677047 13 47 C13.01160156 46.01257813 13.02320313 45.02515625 13.03515625 44.0078125 C13.04417969 42.72648437 13.05320312 41.44515625 13.0625 40.125 C13.07410156 38.84882813 13.08570313 37.57265625 13.09765625 36.2578125 C13.23176569 33.11335348 13.23176569 33.11335348 12 31 C9.65092125 30.31068656 9.65092125 30.31068656 6.9375 29.875 C6.01839844 29.70742187 5.09929688 29.53984375 4.15234375 29.3671875 C3.44207031 29.24601562 2.73179687 29.12484375 2 29 C1.98582031 28.39671875 1.97164062 27.7934375 1.95703125 27.171875 C1.71718862 23.15289042 1.5640103 20.70501288 -1 17.5 C-4.96309245 15.51845378 -8.61459542 15.19108517 -13 15 C-13.08078641 12.87561661 -13.13909141 10.7503677 -13.1875 8.625 C-13.22230469 7.44164063 -13.25710938 6.25828125 -13.29296875 5.0390625 C-13.19628906 4.03617187 -13.09960938 3.03328125 -13 2 C-8.68522195 -0.8765187 -5.06340236 -0.68948458 0 0 Z " fill="#E0CC70" transform="translate(583,116)"/>
<path d="M0 0 C14.26876763 12.10683314 19.8946202 35.0991366 22 53 C22.40934907 59.00192739 22.42908669 64.99982058 22 71 C21.67 71.33 21.34 71.66 21 72 C20.63239269 74.32817964 20.29758419 76.6618385 20 79 C19.67 79 19.34 79 19 79 C18.99589111 78.24195068 18.99178223 77.48390137 18.98754883 76.70288086 C18.76994671 53.61442565 17.98389101 28.47756248 4 9 C3.67 8.01 3.34 7.02 3 6 C2.01 5.34 1.02 4.68 0 4 C0 2.68 0 1.36 0 0 Z " fill="#E9DDDD" transform="translate(379,78)"/>
<path d="M0 0 C9.55103307 2.49157384 16.10855331 5.90813346 22 14 C23.55727754 16.69928106 24 17.80990584 24 21 C20.7 20.67 17.4 20.34 14 20 C13.938125 18.5975 13.87625 17.195 13.8125 15.75 C13.41538 12.38242239 13.1747346 11.21841825 11 8.5 C7.03690755 6.51845378 3.38540458 6.19108517 -1 6 C-0.67 4.02 -0.34 2.04 0 0 Z " fill="#E4CB62" transform="translate(571,125)"/>
<path d="M0 0 C0.33 0 0.66 0 1 0 C1.1143729 10.17918796 0.98390326 20.32794895 0.5625 30.5 C0.52326416 31.50877197 0.48402832 32.51754395 0.44360352 33.55688477 C0.40162842 34.49717529 0.35965332 35.43746582 0.31640625 36.40625 C0.27974854 37.24478516 0.24309082 38.08332031 0.20532227 38.94726562 C0 41 0 41 -1 43 C-3.31 43 -5.62 43 -8 43 C-7.360625 42.690625 -6.72125 42.38125 -6.0625 42.0625 C-4.06389179 41.1654837 -4.06389179 41.1654837 -3 40 C-2.86580657 38.23887632 -2.79637271 36.47274954 -2.75390625 34.70703125 C-2.72224365 33.6072998 -2.69058105 32.50756836 -2.65795898 31.37451172 C-2.62645752 30.19904785 -2.59495605 29.02358398 -2.5625 27.8125 C-2.26520075 18.40294662 -1.73575235 9.26858051 0 0 Z " fill="#E6EDE8" transform="translate(296,119)"/>
<path d="M0 0 C7.71025938 6.54203826 11.87177674 16.0704747 15.5 25.3125 C15.90109985 26.29827026 15.90109985 26.29827026 16.31030273 27.30395508 C18.02397409 31.90179392 18.03574055 35.23436043 17 40 C15.54445908 37.3165336 14.70462906 35.00048508 14.1875 32 C12.43412699 23.64731755 8.9636635 15.91367416 4 9 C3.67 8.01 3.34 7.02 3 6 C2.01 5.34 1.02 4.68 0 4 C0 2.68 0 1.36 0 0 Z " fill="#ECE3DE" transform="translate(379,78)"/>
<path d="M0 0 C0.99 0.33 1.98 0.66 3 1 C2.29101562 1.70640625 1.58203125 2.4128125 0.8515625 3.140625 C-1.04302615 5.0338785 -2.91863248 6.94179128 -4.7890625 8.859375 C-5.73434983 9.82294136 -6.67966246 10.7864829 -7.625 11.75 C-8.34042969 12.49056641 -8.34042969 12.49056641 -9.0703125 13.24609375 C-11.37606524 15.58387083 -12.83592819 16.9453094 -16 18 C-13.77998459 10.10661187 -6.81936333 4.06538968 0 0 Z " fill="#E8B295" transform="translate(327,65)"/>
<path d="M0 0 C0.66 0 1.32 0 2 0 C0.17498904 3.77295011 -1.8741166 7.41655832 -3.9375 11.0625 C-4.28490234 11.68705078 -4.63230469 12.31160156 -4.99023438 12.95507812 C-6.71482908 15.9982895 -8.32484542 18.71060438 -11 21 C-8.9071487 13.4903571 -5.62130724 5.62130724 0 0 Z " fill="#DCE2ED" transform="translate(564,409)"/>
<path d="M0 0 C0.66 0 1.32 0 2 0 C2.12036664 5.77759884 1.8320582 11.27959989 1 17 C0.01 17.33 -0.98 17.66 -2 18 C-1.34 12.06 -0.68 6.12 0 0 Z " fill="#BDC1E6" transform="translate(285,466)"/>
<path d="M0 0 C0.66 0.33 1.32 0.66 2 1 C0.45512856 3.57478574 -1.09068503 6.1444243 -2.6875 8.6875 C-4.16453517 10.84672765 -4.16453517 10.84672765 -4 13 C-4.99 13 -5.98 13 -7 13 C-5.74875245 7.31251115 -3.95897432 4.27152492 0 0 Z " fill="#E1ECEA" transform="translate(257,534)"/>
<path d="M0 0 C1.65 0 3.3 0 5 0 C3.68 0.99 2.36 1.98 1 3 C1.99 3.33 2.98 3.66 4 4 C4 4.66 4 5.32 4 6 C1 7 1 7 -2 7 C-2.66 6.67 -3.32 6.34 -4 6 C-4 5.01 -4 4.02 -4 3 C-2.68 2.67 -1.36 2.34 0 2 C0 1.34 0 0.68 0 0 Z " fill="#ACA9EB" transform="translate(474,387)"/>
<path d="M0 0 C1 2 1 2 0.5 3.875 C-1.74484172 7.05519243 -4.56027306 8.21643788 -8 10 C-8 7 -8 7 -6.25 5.17578125 C-5.5075 4.56089844 -4.765 3.94601562 -4 3.3125 C-3.2575 2.68988281 -2.515 2.06726563 -1.75 1.42578125 C-1.1725 0.95527344 -0.595 0.48476563 0 0 Z " fill="#E3E7E5" transform="translate(176,766)"/>
<path d="M0 0 C2 2 2 2 2.1953125 4.8203125 C2.16050781 6.45613281 2.16050781 6.45613281 2.125 8.125 C2.10695312 9.22070312 2.08890625 10.31640625 2.0703125 11.4453125 C2.04710937 12.28835938 2.02390625 13.13140625 2 14 C1.34 14 0.68 14 0 14 C-0.19627391 12.41773035 -0.38165538 10.83410729 -0.5625 9.25 C-0.66691406 8.36828125 -0.77132812 7.4865625 -0.87890625 6.578125 C-0.99456676 4.11567549 -0.73638695 2.33461936 0 0 Z " fill="#E2E3F4" transform="translate(249,547)"/>
<path d="M0 0 C0.33 0 0.66 0 1 0 C1 4.29 1 8.58 1 13 C0.34 13 -0.32 13 -1 13 C-2.4783226 10.04335481 -2.06032783 7.25770263 -2 4 C-1.34 4 -0.68 4 0 4 C0 2.68 0 1.36 0 0 Z " fill="#DEE4F8" transform="translate(86,560)"/>
<path d="M0 0 C0.99 0 1.98 0 3 0 C3 0.99 3 1.98 3 3 C3.66 3 4.32 3 5 3 C5.69965443 4.26418246 6.38434763 5.53665402 7.0625 6.8125 C7.63677734 7.87404297 7.63677734 7.87404297 8.22265625 8.95703125 C9 11 9 11 8 14 C6.66397562 11.85580015 5.33107996 9.70976582 4 7.5625 C3.6184375 6.95083984 3.236875 6.33917969 2.84375 5.70898438 C0 1.11328125 0 1.11328125 0 0 Z " fill="#B2B2EF" transform="translate(285,228)"/>
<path d="M0 0 C0.66 0 1.32 0 2 0 C2.433125 1.3921875 2.433125 1.3921875 2.875 2.8125 C3.8875 6.09791667 3.8875 6.09791667 6 9 C6 10.32 6 11.64 6 13 C5.34 13 4.68 13 4 13 C3.32942113 11.2097939 2.6636531 9.41778511 2 7.625 C1.62875 6.62726562 1.2575 5.62953125 0.875 4.6015625 C0 2 0 2 0 0 Z " fill="#BBCFF0" transform="translate(480,681)"/>
<path d="M0 0 C0.33 1.32 0.66 2.64 1 4 C-1.25 6.75 -1.25 6.75 -4 9 C-4.99 9 -5.98 9 -7 9 C-4.69 6.03 -2.38 3.06 0 0 Z " fill="#D5E4F6" transform="translate(172,299)"/>
<path d="M0 0 C0.66 0 1.32 0 2 0 C4.22923777 4.32734391 3.92470553 7.28400182 3 12 C0.60926555 8.17482487 0.44033448 4.40334476 0 0 Z " fill="#B8BEF3" transform="translate(272,189)"/>
<path d="M0 0 C0.99 0.33 1.98 0.66 3 1 C2.09507812 1.58007812 2.09507812 1.58007812 1.171875 2.171875 C-4.82801813 6.07616197 -4.82801813 6.07616197 -10 11 C-10 10.01 -10 9.02 -10 8 C-7.91796875 5.921875 -7.91796875 5.921875 -5.1875 3.75 C-4.29417969 3.02296875 -3.40085937 2.2959375 -2.48046875 1.546875 C-1.25263672 0.78117187 -1.25263672 0.78117187 0 0 Z " fill="#D3DBDA" transform="translate(327,65)"/>
<path d="M0 0 C0 4.24645065 -1.81750806 6.38524772 -4 10 C-4.33 10 -4.66 10 -5 10 C-5.25 4.375 -5.25 4.375 -3 1 C-2.01 0.67 -1.02 0.34 0 0 Z " fill="#E1E0F0" transform="translate(225,762)"/>
<path d="M0 0 C0.33 0 0.66 0 1 0 C1 1.98 1 3.96 1 6 C-0.32 6.33 -1.64 6.66 -3 7 C-3 6.34 -3 5.68 -3 5 C-3.99 5 -4.98 5 -6 5 C-6 4.01 -6 3.02 -6 2 C-3.525 2.495 -3.525 2.495 -1 3 C-0.67 2.01 -0.34 1.02 0 0 Z " fill="#B2C9F1" transform="translate(483,664)"/>
<path d="M0 0 C1.65 0 3.3 0 5 0 C5 0.33 5 0.66 5 1 C8.63 1.33 12.26 1.66 16 2 C16 2.33 16 2.66 16 3 C10.72 3 5.44 3 0 3 C0 2.01 0 1.02 0 0 Z " fill="#8E9FFA" transform="translate(263,408)"/>
<path d="M0 0 C2.475 0.495 2.475 0.495 5 1 C4.01 1.495 4.01 1.495 3 2 C3.020625 2.94875 3.04125 3.8975 3.0625 4.875 C3 8 3 8 2 10 C1.34 10 0.68 10 0 10 C0 6.7 0 3.4 0 0 Z " fill="#9EA4EB" transform="translate(340,261)"/>
<path d="M0 0 C2.3828125 0.2421875 2.3828125 0.2421875 5.125 0.875 C6.03507813 1.07867187 6.94515625 1.28234375 7.8828125 1.4921875 C8.58148437 1.65976562 9.28015625 1.82734375 10 2 C10.33 2.99 10.66 3.98 11 5 C6.71 4.01 2.42 3.02 -2 2 C-1.34 1.34 -0.68 0.68 0 0 Z " fill="#CED1F0" transform="translate(524,468)"/>
<path d="M0 0 C0.66 0 1.32 0 2 0 C2.66 3.3 3.32 6.6 4 10 C2.35 9.67 0.7 9.34 -1 9 C-1 8.34 -1 7.68 -1 7 C-0.34 7 0.32 7 1 7 C0.67 4.69 0.34 2.38 0 0 Z " fill="#C6DEFB" transform="translate(242,328)"/>
<path d="M0 0 C0.99 0.495 0.99 0.495 2 1 C3.08562787 5.93467213 2.90896604 10.05118487 2 15 C1.67 15 1.34 15 1 15 C-0.03590199 9.94997778 -0.10251672 5.12583611 0 0 Z " fill="#F6E8E1" transform="translate(396,113)"/>
<path d="M0 0 C0.99 0 1.98 0 3 0 C3.33 0.66 3.66 1.32 4 2 C4.99 2.33 5.98 2.66 7 3 C7 3.66 7 4.32 7 5 C7.99 5.33 8.98 5.66 10 6 C9.01 6.495 9.01 6.495 8 7 C3 4.54385965 3 4.54385965 1 3 C0.67 2.01 0.34 1.02 0 0 Z " fill="#C1C4F0" transform="translate(503,631)"/>
<path d="M0 0 C0.99 0 1.98 0 3 0 C3.99 2.64 4.98 5.28 6 8 C2.00003714 6.66667905 1.16217663 4.5042173 -1 1 C-0.67 0.67 -0.34 0.34 0 0 Z " fill="#BEC4ED" transform="translate(495,708)"/>
<path d="M0 0 C0.99 0.33 1.98 0.66 3 1 C1.68 2.65 0.36 4.3 -1 6 C-2.32 5.67 -3.64 5.34 -5 5 C-3.35 3.35 -1.7 1.7 0 0 Z " fill="#E4EAF7" transform="translate(195,201)"/>
<path d="M0 0 C3.37503669 1.1858237 5.64722731 2.27573689 8 5 C6.02 5 4.04 5 2 5 C1.34 3.35 0.68 1.7 0 0 Z " fill="#E4E6F1" transform="translate(290,665)"/>
<path d="M0 0 C0.33 0 0.66 0 1 0 C1 3.63 1 7.26 1 11 C0.01 11.495 0.01 11.495 -1 12 C-1.92470553 7.28400182 -2.22923777 4.32734391 0 0 Z " fill="#EBDEF1" transform="translate(344,322)"/>
<path d="M0 0 C0 0.66 0 1.32 0 2 C-1.45505358 2.52992692 -2.91418127 3.0486789 -4.375 3.5625 C-5.59316406 3.99755859 -5.59316406 3.99755859 -6.8359375 4.44140625 C-9 5 -9 5 -11 4 C-9.73308493 3.32591692 -8.46129251 2.66099503 -7.1875 2 C-6.47980469 1.62875 -5.77210938 1.2575 -5.04296875 0.875 C-3 0 -3 0 0 0 Z " fill="#DBE8F4" transform="translate(142,791)"/>
<path d="M0 0 C1.98 0 3.96 0 6 0 C5.67 2.97 5.34 5.94 5 9 C4.67 9 4.34 9 4 9 C3.71125 7.88625 3.4225 6.7725 3.125 5.625 C2.30758671 1.99708908 2.30758671 1.99708908 0 0 Z " fill="#8B8BF6" transform="translate(93,620)"/>
<path d="M0 0 C1 4 1 4 1 7 C-0.5 9.1875 -0.5 9.1875 -2 11 C-2.66 10.67 -3.32 10.34 -4 10 C-2.68 6.7 -1.36 3.4 0 0 Z " fill="#C1B5E9" transform="translate(280,493)"/>
<path d="M0 0 C1.90318884 2.85478326 2.4619099 4.41941308 3.125 7.6875 C3.29257812 8.49574219 3.46015625 9.30398438 3.6328125 10.13671875 C3.75398438 10.75160156 3.87515625 11.36648438 4 12 C3.34 12 2.68 12 2 12 C0.00214565 7.8794254 -0.17835515 4.54805635 0 0 Z " fill="#BABAF1" transform="translate(419,466)"/>
<path d="M0 0 C2.97 0.495 2.97 0.495 6 1 C6.33 2.32 6.66 3.64 7 5 C5.68 5 4.36 5 3 5 C1.25 2.5 1.25 2.5 0 0 Z " fill="#D9E8F5" transform="translate(259,372)"/>
<path d="M0 0 C4.0042343 3.49087093 5.62671065 5.64951939 6 11 C4 9 4 9 3 6 C2.01 5.34 1.02 4.68 0 4 C0 2.68 0 1.36 0 0 Z " fill="#DDBEB9" transform="translate(379,78)"/>
<path d="M0 0 C0.66 0 1.32 0 2 0 C1.3125 2.375 1.3125 2.375 0 5 C-2.625 6.3125 -2.625 6.3125 -5 7 C-5 6.34 -5 5.68 -5 5 C-4.34 5 -3.68 5 -3 5 C-2.5359375 4.0409375 -2.5359375 4.0409375 -2.0625 3.0625 C-1 1 -1 1 0 0 Z " fill="#CDD2F0" transform="translate(115,802)"/>
<path d="M0 0 C2.6875 -0.3125 2.6875 -0.3125 5 0 C2.6875 2.5 2.6875 2.5 0 5 C-0.99 5 -1.98 5 -3 5 C-1.8125 2.5 -1.8125 2.5 0 0 Z " fill="#D3DBF5" transform="translate(469,671)"/>
<path d="M0 0 C0.33 1.32 0.66 2.64 1 4 C-1.375 5.5625 -1.375 5.5625 -4 7 C-4.66 6.67 -5.32 6.34 -6 6 C-4.02 4.02 -2.04 2.04 0 0 Z " fill="#D6DAFA" transform="translate(580,624)"/>
<path d="M0 0 C-0.33 0.66 -0.66 1.32 -1 2 C-3.75078884 2.91692961 -5.35948913 3.10886083 -8.1875 3.0625 C-10.0746875 3.0315625 -10.0746875 3.0315625 -12 3 C-12 2.67 -12 2.34 -12 2 C-7.82262526 0.40861915 -4.46839215 -0.21278058 0 0 Z " fill="#D4D6ED" transform="translate(452,581)"/>
<path d="M0 0 C0.33 0 0.66 0 1 0 C1.25 6.625 1.25 6.625 -1 10 C-2.15837626 5.94568308 -1.83691257 3.78187881 0 0 Z " fill="#EBEEFC" transform="translate(165,532)"/>
<path d="M0 0 C0.66 0.33 1.32 0.66 2 1 C0.02 3.97 0.02 3.97 -2 7 C-2.99 6.67 -3.98 6.34 -5 6 C-3.35 4.02 -1.7 2.04 0 0 Z " fill="#E9E9EE" transform="translate(264,526)"/>
<path d="M0 0 C3.14958831 3.42346555 3.56179109 6.44262737 4 11 C1.29727467 8.12835434 0.05208163 6.69008159 -0.25 2.6875 C-0.1675 1.800625 -0.085 0.91375 0 0 Z " fill="#D1D3EF" transform="translate(428,497)"/>
<path d="M0 0 C-0.33 0.66 -0.66 1.32 -1 2 C-3.06640625 2.4140625 -3.06640625 2.4140625 -5.5625 2.625 C-6.38878906 2.69976562 -7.21507812 2.77453125 -8.06640625 2.8515625 C-9.02353516 2.92503906 -9.02353516 2.92503906 -10 3 C-10 2.34 -10 1.68 -10 1 C-3.71428571 -1.42857143 -3.71428571 -1.42857143 0 0 Z " fill="#D8E2F3" transform="translate(437,455)"/>
<path d="M0 0 C2.89932357 2.39509338 3.50168276 4.31245243 4 8 C3.34 8 2.68 8 2 8 C0.3125 5.6875 0.3125 5.6875 -1 3 C-0.67 2.01 -0.34 1.02 0 0 Z " fill="#C7C8D0" transform="translate(554,533)"/>
<path d="M0 0 C2 3 2 3 1.625 5.6875 C1.41875 6.450625 1.2125 7.21375 1 8 C-0.32 7.67 -1.64 7.34 -3 7 C-2.01 4.69 -1.02 2.38 0 0 Z " fill="#D7E8F8" transform="translate(82,491)"/>
<path d="M0 0 C-0.33 0.99 -0.66 1.98 -1 3 C-3.31 3.33 -5.62 3.66 -8 4 C-8 3.34 -8 2.68 -8 2 C-5.09399739 0.74335022 -3.20395416 0 0 0 Z " fill="#ECEEF3" transform="translate(422,427)"/>
<path d="M0 0 C0.66 0 1.32 0 2 0 C0.47291037 3.43595166 -1.59927045 6.11912454 -4 9 C-3.4739075 5.21213403 -2.61896089 2.82847776 0 0 Z " fill="#F2E6E3" transform="translate(564,409)"/>
<path d="M0 0 C0.99 0.33 1.98 0.66 3 1 C-0.465 3.97 -0.465 3.97 -4 7 C-3.04065919 3.16263678 -2.76390737 2.40339772 0 0 Z " fill="#DBA285" transform="translate(570,404)"/>
<path d="M0 0 C0.33 0 0.66 0 1 0 C1.12375 0.94875 1.2475 1.8975 1.375 2.875 C1.71687177 6.08667191 1.71687177 6.08667191 4 8 C3.67 8.99 3.34 9.98 3 11 C2.34 11 1.68 11 1 11 C-0.20272819 8.59454362 -0.10071472 7.05003047 -0.0625 4.375 C-0.05347656 3.55773437 -0.04445312 2.74046875 -0.03515625 1.8984375 C-0.02355469 1.27195312 -0.01195312 0.64546875 0 0 Z " fill="#E9E7E9" transform="translate(172,277)"/>
<path d="M0 0 C0.33 0 0.66 0 1 0 C0.67 3.96 0.34 7.92 0 12 C-0.33 12 -0.66 12 -1 12 C-1.92470553 7.28400182 -2.22923777 4.32734391 0 0 Z " fill="#B5B7E9" transform="translate(340,278)"/>
<path d="M0 0 C3.26460973 1.80412643 4.88929795 2.83394693 7 6 C4.03824877 5.38722388 2.61941217 4.74627478 0 3 C0 2.01 0 1.02 0 0 Z " fill="#DCDCE9" transform="translate(633,779)"/>
<path d="M0 0 C5.75 3.625 5.75 3.625 8 7 C5.125 6.3125 5.125 6.3125 2 5 C0.625 2.375 0.625 2.375 0 0 Z " fill="#CEE0E6" transform="translate(564,731)"/>
<path d="M0 0 C0.99 0.33 1.98 0.66 3 1 C3 1.99 3 2.98 3 4 C3.66 4 4.32 4 5 4 C4.67 5.32 4.34 6.64 4 8 C0 2.25 0 2.25 0 0 Z " fill="#C2C5E0" transform="translate(106,650)"/>
<path d="M0 0 C2.99324263 1.0975223 3.84610901 1.67682892 5.25 4.625 C5.4975 5.40875 5.745 6.1925 6 7 C5.01 7 4.02 7 3 7 C0 2.77777778 0 2.77777778 0 0 Z " fill="#D7D6EF" transform="translate(490,617)"/>
<path d="M0 0 C2.86697492 1.28519565 4.97607712 2.57129254 7 5 C7 5.66 7 6.32 7 7 C3.17053157 5.54744301 1.87949705 3.57104439 0 0 Z " fill="#BDCFE4" transform="translate(423,573)"/>
<path d="M0 0 C0.33 0 0.66 0 1 0 C1.25 2.25 1.25 2.25 1 5 C-1 7.3125 -1 7.3125 -3 9 C-2.5020163 5.26512223 -2.12508244 3.18762365 0 0 Z " fill="#F2E5FA" transform="translate(497,533)"/>
<path d="M0 0 C3.63 0.66 7.26 1.32 11 2 C6.80184617 4.09907691 6.20805526 4.21812126 2 3 C1.34 2.67 0.68 2.34 0 2 C0 1.34 0 0.68 0 0 Z " fill="#DAD4E8" transform="translate(528,515)"/>
<path d="M0 0 C1.65 0 3.3 0 5 0 C5.33 1.65 5.66 3.3 6 5 C5.34 5 4.68 5 4 5 C4 4.34 4 3.68 4 3 C2.68 2.67 1.36 2.34 0 2 C0 1.34 0 0.68 0 0 Z " fill="#C4CBF6" transform="translate(300,247)"/>
<path d="M0 0 C2.0625 1.5625 2.0625 1.5625 4 4 C3.75 7.75 3.75 7.75 3 11 C0.87953208 7.46588679 0.46800711 4.05606165 0 0 Z " fill="#E6C9AB" transform="translate(393,107)"/>
</svg>
