<?xml version="1.0" encoding="UTF-8"?>
<svg version="1.1" xmlns="http://www.w3.org/2000/svg" width="1252" height="881">
<path d="M0 0 C2.20522522 1.6991937 2.92102146 2.53020189 3.38818359 5.30908203 C3.39156738 6.19966309 3.39495117 7.09024414 3.3984375 8.0078125 C3.40230469 8.99523437 3.40617188 9.98265625 3.41015625 11 C3.39275391 12.546875 3.39275391 12.546875 3.375 14.125 C3.38660156 15.13304687 3.39820313 16.14109375 3.41015625 17.1796875 C3.38014652 24.90219136 3.06535412 31.88500526 -2.54971313 37.59100342 C-6.24025859 40.57951997 -9.82634311 40.68104705 -14.43359375 40.58349609 C-15.27274448 40.58580986 -16.11189522 40.58812363 -16.97647476 40.59050751 C-19.79742184 40.59207947 -22.6167765 40.55766181 -25.4375 40.5234375 C-27.48036138 40.51693433 -29.52323067 40.51261226 -31.56610107 40.51028442 C-37.18860978 40.49737646 -42.81049671 40.45284628 -48.43278503 40.40322876 C-54.47887398 40.35538371 -60.52506236 40.33689969 -66.57128906 40.31445312 C-80.59087814 40.25624498 -94.60999834 40.15573886 -108.62926888 40.04814506 C-115.77765891 39.99350935 -122.92608145 39.94390208 -130.07451153 39.89483297 C-142.62390676 39.80866973 -155.17328848 39.72068796 -167.72265625 39.63061523 C-168.8342928 39.6226417 -168.8342928 39.6226417 -169.96838665 39.61450708 C-179.00766798 39.5495834 -188.04693571 39.48303038 -197.08619261 39.41479129 C-235.35222864 39.12596201 -273.61763916 38.86936519 -311.8848877 38.82275391 C-316.50950499 38.81706178 -321.13407041 38.80689383 -325.75866699 38.79199219 C-355.49063023 38.7008765 -385.1269325 39.39724485 -414.83265686 40.64421844 C-428.02173767 41.1846534 -441.21730124 41.45221847 -454.41440487 41.709939 C-461.51200152 41.85521273 -468.55640251 42.20726368 -475.63623047 42.76147461 C-482.6099025 43.25597872 -489.60097961 43.39644205 -496.58789062 43.60546875 C-502.16396258 43.78544214 -507.70979933 44.03075098 -513.26953125 44.5 C-522.14301403 45.22584726 -531.0331621 45.35062968 -539.93066406 45.55224609 C-547.82471774 45.73524308 -555.66883553 45.96993039 -563.52978516 46.77246094 C-567.80369216 47.16614362 -572.08643959 47.24630962 -576.375 47.375 C-595.44946378 48.04656232 -614.48696631 49.4901923 -633.52386475 50.82684326 C-635.73924969 50.98176567 -637.954772 51.13439461 -640.17041016 51.28564453 C-652.85910822 52.15772586 -665.44561414 53.35395649 -678.06298828 54.96044922 C-685.33859965 55.86538759 -692.57592124 56.43823768 -699.90209961 56.70922852 C-703.18444263 56.83185232 -706.36733659 57.05270309 -709.62109375 57.51953125 C-712.94831929 57.99265118 -716.08062526 58.10021769 -719.4375 58.0625 C-720.48808594 58.05347656 -721.53867187 58.04445312 -722.62109375 58.03515625 C-723.40613281 58.02355469 -724.19117188 58.01195312 -725 58 C-722.78255247 61.04899035 -720.42405865 63.57402745 -717.5625 66 C-712.91033538 69.95741792 -708.66188698 74.28340637 -704.39282227 78.64453125 C-701.48805086 81.70136087 -701.48805086 81.70136087 -698 84 C-698 84.66 -698 85.32 -698 86 C-697.44441406 86.23589844 -696.88882813 86.47179687 -696.31640625 86.71484375 C-693.43624409 88.3127752 -691.33630924 90.305005 -688.9375 92.5625 C-683.48126894 97.62221326 -677.80474418 102.34261748 -672 107 C-670.82122489 107.95915669 -669.64286028 108.91881803 -668.46484375 109.87890625 C-661.90884055 115.20014267 -655.27706668 120.33741451 -648.36694336 125.19091797 C-642.86986578 129.05718288 -637.50566919 133.09166271 -632.15258789 137.15429688 C-628.72157762 139.80296566 -628.72157762 139.80296566 -625 142 C-625 142.66 -625 143.32 -625 144 C-623.94619141 144.35578125 -623.94619141 144.35578125 -622.87109375 144.71875 C-619.47903443 146.23248531 -616.96755352 148.18474928 -614.0625 150.5 C-609.49312506 154.09545577 -604.87253859 157.58056632 -600.125 160.9375 C-595.13019754 164.47283224 -590.17625274 168.05720489 -585.25 171.6875 C-581.25777694 174.62629683 -577.25912356 177.54651365 -573.1875 180.375 C-568.23142803 183.82820858 -563.29518101 187.3083804 -558.375 190.8125 C-557.55539795 191.3885498 -556.7357959 191.96459961 -555.89135742 192.55810547 C-555.13056885 193.10225098 -554.36978027 193.64639648 -553.5859375 194.20703125 C-552.8954834 194.6966333 -552.2050293 195.18623535 -551.49365234 195.69067383 C-551.00074707 196.12275146 -550.5078418 196.5548291 -550 197 C-550 197.66 -550 198.32 -550 199 C-549.34902344 199.20882812 -548.69804688 199.41765625 -548.02734375 199.6328125 C-543.82069129 201.53259103 -540.29038748 204.17382002 -536.5625 206.875 C-535.08514166 207.93560136 -533.60728609 208.99551048 -532.12890625 210.0546875 C-531.41992188 210.56338379 -530.7109375 211.07208008 -529.98046875 211.59619141 C-527.35780629 213.45520388 -524.68239399 215.22853981 -522 217 C-520.85041798 217.78739413 -519.70204253 218.57655184 -518.5546875 219.3671875 C-511.86291208 223.94443786 -505.26438863 228.14292403 -497.87890625 231.55078125 C-495.60470936 232.69559407 -493.60773357 233.88257771 -491.48828125 235.26953125 C-485.81565064 238.86832566 -479.71944629 241.5745388 -473.625 244.375 C-473.00572632 244.66068848 -472.38645264 244.94637695 -471.74841309 245.24072266 C-451.2417873 254.68844171 -430.25213202 262.75266755 -408 267 C-407.06357666 267.18095215 -406.12715332 267.3619043 -405.16235352 267.54833984 C-394.86140032 269.2840655 -384.64596398 269.3044986 -374.22436523 269.26074219 C-371.20340737 269.25005627 -368.18304886 269.26067331 -365.16210938 269.2734375 C-350.43057483 269.28610706 -336.21465869 268.64809739 -321.92773438 264.76757812 C-318.74509287 263.93316978 -315.55668666 263.27378489 -312.328125 262.640625 C-293.4653468 258.93931462 -275.20752846 254.1455796 -257 248 C-255.31662215 247.4381548 -253.63301995 246.87698144 -251.94921875 246.31640625 C-249.25995631 245.42023824 -246.57087848 244.52353481 -243.88232422 243.62524414 C-240.09100839 242.35914542 -236.29942924 241.09680544 -232.49609375 239.8671875 C-225.75050957 237.6829031 -219.20248752 235.14214047 -212.640625 232.46484375 C-210.16455988 231.46857291 -207.70202531 230.52426747 -205.1953125 229.6171875 C-200.20602621 227.75825656 -195.42495987 225.48446631 -190.625 223.1875 C-189.22302368 222.51775146 -189.22302368 222.51775146 -187.79272461 221.83447266 C-182.4974438 219.27838595 -177.3457201 216.63936274 -172.375 213.48828125 C-169.32738871 211.57851167 -166.19507478 209.82741912 -163.0625 208.0625 C-155.27751376 203.64223785 -147.71391367 198.96868851 -140.4375 193.75 C-135.10747183 189.96821811 -129.5328946 186.63014438 -123.94042969 183.2565918 C-119.09328407 180.31924552 -114.36321088 177.26418415 -109.6875 174.0625 C-102.85068039 169.39919779 -95.72277302 165.31029336 -88.49487305 161.28540039 C-83.49726436 158.49012774 -78.69400976 155.53174124 -73.95556641 152.31640625 C-71.730546 150.81861473 -69.46468121 149.43624991 -67.125 148.125 C-66.40570312 147.71507812 -65.68640625 147.30515625 -64.9453125 146.8828125 C-63 146 -63 146 -60 146 C-60 145.34 -60 144.68 -60 144 C-59.09121094 143.53851563 -58.18242188 143.07703125 -57.24609375 142.6015625 C-48.35358848 138.01431072 -40.01238919 132.91833771 -31.78466797 127.23046875 C-30.08436447 126.05816648 -28.37430738 124.90192584 -26.66015625 123.75 C-17.48465486 117.52178088 -8.72832573 110.78701378 -0.21875 103.67578125 C2 102 2 102 4 102 C4.20367188 101.443125 4.40734375 100.88625 4.6171875 100.3125 C7.77285717 95.03522191 14.03830565 91.52672503 19 88 C19.69609375 87.49210937 20.3921875 86.98421875 21.109375 86.4609375 C27.20780406 82.71013379 35.1167416 83.16771059 42 84 C46.07651225 85.72193399 48.85510595 87.04887937 51 91 C52.36715956 96.46863826 52.62729694 102.23989345 51.375 107.75 C49.47502636 110.85904777 47.14220419 112.23251014 44 114 C43.34 114 42.68 114 42 114 C41.75765625 114.74894531 41.5153125 115.49789062 41.265625 116.26953125 C39.81908407 119.39030936 38.46799554 120.61300341 35.75 122.6875 C34.40615234 123.71810547 34.40615234 123.71810547 33.03515625 124.76953125 C29.189427 127.59567205 25.31414626 130.37739886 21.41210938 133.12524414 C16.51670348 136.58392581 11.77114613 140.21358173 7.08666992 143.95263672 C3.21328818 147 3.21328818 147 1 147 C1 147.66 1 148.32 1 149 C-12.74190093 160.58101233 -30.13534515 170.03702845 -45.75 178.8125 C-53.364231 183.10118381 -60.64739405 187.87012338 -67.95117188 192.66259766 C-70.45889154 194.29954812 -72.98348049 195.90890495 -75.51000977 197.51660156 C-81.53351844 201.35366195 -87.42919353 205.3489733 -93.28515625 209.4375 C-99.61005063 213.82584456 -106.04471181 218.05357992 -112.45703125 222.3125 C-116.10855972 224.73785998 -119.75141351 227.17539414 -123.38671875 229.625 C-138.76288171 239.9731732 -154.13074977 250.0157731 -170.89013672 257.9921875 C-173.15426498 259.07368732 -175.40716128 260.17675894 -177.66015625 261.28125 C-186.41791216 265.54125242 -195.19630479 269.36697798 -204.359375 272.6640625 C-207.68886977 273.88582989 -210.9325183 275.21905241 -214.1875 276.625 C-219.14382252 278.72165049 -224.13867691 280.32586558 -229.296875 281.84765625 C-232.82923451 282.94686095 -236.29342878 284.16210898 -239.77148438 285.41894531 C-252.33670061 289.94895826 -265.09803853 293.56312275 -278 297 C-279.3627002 297.36786621 -279.3627002 297.36786621 -280.75292969 297.74316406 C-291.83494255 300.71961802 -302.84863746 302.93880724 -314.20507812 304.55688477 C-317.09621557 305.0152543 -319.96763955 305.55629782 -322.84373474 306.10002136 C-332.25733557 307.85372946 -341.56720846 308.81604913 -351.125 309.3125 C-352.27637955 309.37513031 -352.27637955 309.37513031 -353.45101929 309.43902588 C-390.55548227 311.3765534 -427.89311039 306.23915301 -462.37890625 292.05859375 C-465.35715135 290.85575557 -468.3647933 289.74532663 -471.375 288.625 C-477.81644393 286.15214696 -483.87363002 283.15983889 -490 280 C-491.92353454 279.03976421 -493.85058357 278.0867958 -495.77758789 277.13354492 C-512.14991421 269.01907821 -527.87627412 260.28926754 -543 250 C-543.63276855 249.56993652 -544.26553711 249.13987305 -544.91748047 248.69677734 C-555.30401016 241.62568629 -565.52732685 234.37663188 -575.5625 226.8125 C-586.19663198 218.81263801 -596.98702403 210.99798167 -607.95703125 203.46484375 C-609.41631668 202.41851098 -610.8404156 201.32238742 -612.23828125 200.1953125 C-615.86148633 197.31519757 -619.61435084 194.63434964 -623.375 191.9375 C-624.99507947 190.77123303 -626.61486689 189.60456025 -628.234375 188.4375 C-629.4419043 187.56738281 -629.4419043 187.56738281 -630.67382812 186.6796875 C-639.86430587 180.04340634 -648.96834386 173.29409422 -658.02441406 166.47583008 C-661.84237498 163.60495665 -665.68020198 160.76512515 -669.54418945 157.95654297 C-681.6427704 149.15728167 -693.74776916 140.25335273 -704.72265625 130.06640625 C-707.20046981 127.81809858 -709.76792663 125.72175262 -712.375 123.625 C-717.13779955 119.77943004 -721.65527203 115.72820922 -726.11669922 111.54150391 C-728.83901247 108.96910276 -728.83901247 108.96910276 -732 107 C-732 106.34 -732 105.68 -732 105 C-732.57234375 104.7421875 -733.1446875 104.484375 -733.734375 104.21875 C-736.21128995 102.88634058 -738.1341166 101.34943882 -740.25 99.5 C-740.95640625 98.8915625 -741.6628125 98.283125 -742.390625 97.65625 C-744 96 -744 96 -744 94 C-744.86625 93.62875 -744.86625 93.62875 -745.75 93.25 C-748.29350255 91.83694303 -749.95298918 90.04701082 -752 88 C-752.66 88 -753.32 88 -754 88 C-756.74564148 94.62796251 -758.2206905 101.21502402 -759.5625 108.25 C-759.77068359 109.30574219 -759.97886719 110.36148438 -760.19335938 111.44921875 C-762.15541869 121.49939093 -763.96820786 131.56493788 -765.0625 141.75 C-765.14556396 142.50442383 -765.22862793 143.25884766 -765.31420898 144.03613281 C-766.003644 150.53051579 -766.42513879 157.02520206 -766.75390625 163.546875 C-767 167 -767 167 -767.49879456 169.85940552 C-767.97537847 172.84571946 -768.17966394 175.68243259 -768.26538086 178.70263672 C-768.29896698 179.81024857 -768.3325531 180.91786041 -768.36715698 182.05903625 C-768.39939362 183.25385117 -768.43163025 184.44866608 -768.46484375 185.6796875 C-768.50239777 186.94052658 -768.53995178 188.20136566 -768.5786438 189.50041199 C-768.65935576 192.21371191 -768.7387349 194.92701333 -768.81594849 197.64041138 C-769.01964017 204.77754126 -769.24028957 211.91415882 -769.4609375 219.05078125 C-769.48302591 219.76836294 -769.50511433 220.48594463 -769.52787209 221.22527122 C-769.95850375 235.17439319 -770.47851587 249.11891543 -771.0625 263.0625 C-771.102612 264.0396698 -771.142724 265.0168396 -771.18405151 266.02362061 C-771.53031473 274.42119518 -771.87688284 282.80537863 -772.55859375 291.18359375 C-773.87730268 309.20202446 -772.58195871 327.26938785 -771.66760254 345.28009033 C-771.52606888 348.10114704 -771.39086055 350.92249377 -771.25558567 353.74385643 C-771.09230665 357.12891561 -770.92286722 360.51365709 -770.75390625 363.8984375 C-770.6934462 365.15562592 -770.63298615 366.41281433 -770.57069397 367.70809937 C-770.51070724 368.87096466 -770.45072052 370.03382996 -770.38891602 371.23193359 C-770.31230492 372.76266006 -770.31230492 372.76266006 -770.23414612 374.3243103 C-770.02847444 376.67461014 -769.61584572 378.73264055 -769 381 C-768.84777015 382.85212988 -768.72661018 384.70690457 -768.625 386.5625 C-767.98614632 395.46652316 -766.5091141 404.20978026 -765 413 C-764.88398437 413.68465332 -764.76796875 414.36930664 -764.6484375 415.07470703 C-761.63193278 432.67829201 -757.38627157 449.94508434 -751.70556641 466.87646484 C-751.05538544 468.83330706 -750.43822522 470.80103873 -749.82421875 472.76953125 C-742.12510039 496.34312045 -724.55629136 514.4712038 -707.4375 531.6875 C-706.38248291 532.74964722 -706.38248291 532.74964722 -705.30615234 533.83325195 C-704.64695801 534.490271 -703.98776367 535.14729004 -703.30859375 535.82421875 C-702.42385376 536.70726685 -702.42385376 536.70726685 -701.52124023 537.6081543 C-700.03241169 539.09788532 -700.03241169 539.09788532 -698 540 C-698 540.66 -698 541.32 -698 542 C-697.12021484 542.40798828 -697.12021484 542.40798828 -696.22265625 542.82421875 C-694.04680119 543.97524225 -692.36281365 545.28913074 -690.4375 546.8125 C-677.75617707 555.39968722 -658.56219499 556.87206357 -643.71484375 557.75390625 C-641 558 -641 558 -638 559 C-635.16363361 559.20421838 -632.3397154 559.37199947 -629.5 559.5 C-621.40540541 559.86486486 -621.40540541 559.86486486 -618 561 C-616.38579717 561.1357708 -614.76733073 561.22407323 -613.1484375 561.28125 C-611.74851562 561.33732422 -611.74851562 561.33732422 -610.3203125 561.39453125 C-608.34896832 561.46512315 -606.37761403 561.53543345 -604.40625 561.60546875 C-603.01019531 561.66154297 -603.01019531 561.66154297 -601.5859375 561.71875 C-600.30275635 561.76418945 -600.30275635 561.76418945 -598.99365234 561.81054688 C-597 562 -597 562 -596 563 C-592.68793579 563.37994486 -589.3380064 563.4120746 -586.0078125 563.53125 C-584.88303497 563.57278198 -583.75825745 563.61431396 -582.59939575 563.65710449 C-560.92722765 564.3707099 -539.2301275 564.35618746 -517.54864502 564.52606201 C-511.0214872 564.57743244 -504.49437737 564.63231802 -497.96728897 564.69187927 C-494.95655087 564.71797543 -491.94580642 564.73905232 -488.93502808 564.7598877 C-481.12237309 564.82460349 -473.35200358 564.9186026 -465.55737305 565.5 C-453.1967988 566.36160755 -440.79439022 566.21316401 -428.40931392 566.27039146 C-424.68744887 566.28880776 -420.96562293 566.31314783 -417.24378967 566.33703613 C-407.00889521 566.40169408 -396.7739562 566.45744944 -386.53900909 566.51302338 C-377.14234209 566.56413236 -367.74569683 566.61721214 -358.34908396 566.67754889 C-353.94601512 566.70556505 -349.54295228 566.72927427 -345.13984096 566.74947357 C-343.05379985 566.75974296 -340.96778357 566.77212914 -338.88175964 566.78541565 C-336.36096112 566.80146027 -333.84013949 566.81438246 -331.31930542 566.82322693 C-325.46531866 566.86600387 -319.66799735 567.0647695 -313.82943726 567.5 C-304.81802913 568.1448854 -295.82683772 568.16799607 -286.7956543 568.18945312 C-284.91493554 568.19741544 -283.03421854 568.20580489 -281.15350342 568.21458435 C-277.13659375 568.23249589 -273.11968758 568.24756107 -269.10275841 568.26036072 C-262.75384892 568.28073147 -256.40498321 568.30835555 -250.05610657 568.33703613 C-235.45285364 568.40193183 -220.84956891 568.45775693 -206.24627686 568.51302338 C-192.81863751 568.56387483 -179.39101449 568.61665708 -165.9634164 568.67754889 C-159.64748214 568.70591318 -153.33155333 568.72950035 -147.01558721 568.74947357 C-143.10187246 568.76282468 -139.1881836 568.78023641 -135.27449036 568.79878426 C-133.45474715 568.80656144 -131.63499571 568.81262172 -129.81524086 568.81687737 C-127.34033975 568.82289384 -124.86554016 568.8349264 -122.39067078 568.84851074 C-121.30000031 568.84895472 -121.30000031 568.84895472 -120.18729609 568.84940767 C-115.2281911 568.88590445 -115.2281911 568.88590445 -113 570 C-111.20386869 570.11444409 -109.40363521 570.16681877 -107.60400391 570.18945312 C-105.91182236 570.21452942 -105.91182236 570.21452942 -104.18545532 570.2401123 C-102.96152069 570.25368774 -101.73758606 570.26726318 -100.4765625 570.28125 C-99.22370453 570.29965942 -97.97084656 570.31806885 -96.68002319 570.33703613 C-92.66173025 570.39593971 -88.64339706 570.44885829 -84.625 570.5 C-79.34626053 570.56731035 -74.06766572 570.64130478 -68.7890625 570.71875 C-67.56917633 570.73232544 -66.34929016 570.74590088 -65.09243774 570.7598877 C-63.39079971 570.78496399 -63.39079971 570.78496399 -61.65478516 570.81054688 C-60.65710114 570.82307495 -59.65941711 570.83560303 -58.63150024 570.84851074 C-56 571 -56 571 -54.06587219 571.50375366 C-51.12332796 572.21058674 -48.31529762 572.12739264 -45.29125977 572.12939453 C-44.62571075 572.13114685 -43.96016174 572.13289917 -43.27444458 572.13470459 C-41.08007174 572.13909634 -38.88577988 572.13619421 -36.69140625 572.1328125 C-35.16210413 572.13348639 -33.63280212 572.13445712 -32.10350037 572.13571167 C-28.89996317 572.13718508 -25.69645387 572.13504582 -22.49291992 572.13037109 C-18.39287623 572.12467885 -14.29289807 572.12795187 -10.19285679 572.13394356 C-7.03496307 572.13756289 -3.87708479 572.13640418 -0.7191906 572.13381577 C0.79223704 572.13315005 2.3036661 572.13396249 3.81509209 572.13629532 C5.93072073 572.13884383 8.04624438 572.13495011 10.16186523 572.12939453 C11.9657798 572.12820114 11.9657798 572.12820114 13.80613708 572.12698364 C16.67560961 572.01289732 19.20387965 571.60456557 22 571 C23.3697727 570.89967833 24.74276126 570.8360075 26.1159668 570.81054688 C27.27693123 570.78547058 27.27693123 570.78547058 28.46134949 570.7598877 C29.28234634 570.74631226 30.1033432 570.73273682 30.94921875 570.71875 C31.80304642 570.70034058 32.65687408 570.68193115 33.53657532 570.66296387 C37.17798728 570.58450661 40.8195725 570.5163486 44.46118164 570.44775391 C47.1239557 570.39610476 49.78656792 570.33885319 52.44921875 570.28125 C53.68982307 570.26088684 53.68982307 570.26088684 54.95549011 570.2401123 C59.11136735 570.2526654 59.11136735 570.2526654 63 569 C65.81594854 568.79205303 68.61785111 568.62573166 71.4375 568.5 C77.30264963 568.29867395 77.30264963 568.29867395 83 567 C85.79157297 566.65611058 88.57742588 566.34683322 91.375 566.0625 C93.83351715 565.79423605 96.29150471 565.52142851 98.74951172 565.24853516 C100.63591379 565.04020826 102.5229638 564.83775987 104.41015625 564.63671875 C117.60734785 562.95088395 135.02980505 559.21926354 144.625 549.32421875 C146 548 146 548 148 548 C148.25394531 547.4328125 148.50789063 546.865625 148.76953125 546.28125 C150.14911588 543.7235439 151.83652619 541.74007833 153.6875 539.5 C162.16704845 527.98323147 165.52571332 512.87503837 168 499 C168.17660156 498.17628906 168.35320313 497.35257813 168.53515625 496.50390625 C170.35022928 486.7269162 170.07173356 476.55505841 170.05249023 466.64819336 C170.05116561 465.46766608 170.04984098 464.28713881 170.04847622 463.07083797 C170.01911168 450.2964911 169.82074005 437.52609177 169.59765625 424.75390625 C169.55508725 422.23640651 169.51264535 419.71890463 169.47032166 417.20140076 C169.38187131 411.97204928 169.29176252 406.74272981 169.20043945 401.51342773 C169.08505355 394.89749512 168.97409775 388.2814969 168.86443424 381.66546726 C168.77794432 376.48045071 168.68893721 371.2954795 168.59924126 366.1105175 C168.55741007 363.67472596 168.51633579 361.23892127 168.4761219 358.80310249 C168.25932519 345.75326577 167.96517225 332.70833131 167.52905273 319.66381836 C167.47323957 317.8944597 167.47323957 317.8944597 167.41629887 316.08935642 C167.37712565 314.98684009 167.33795244 313.88432375 167.29759216 312.74839783 C167.26434058 311.78103164 167.231089 310.81366545 167.1968298 309.81698513 C166.98804964 306.82896901 166.5158996 303.94894758 166 301 C165.86254626 298.99652285 165.76117438 296.99033875 165.69042969 294.98339844 C165.64635986 293.81102631 165.60229004 292.63865417 165.55688477 291.43075562 C165.51233154 290.16970001 165.46777832 288.90864441 165.421875 287.609375 C165.3175504 284.88709606 165.20918947 282.16498233 165.10058594 279.44287109 C165.07265205 278.73731142 165.04471817 278.03175175 165.01593781 277.30481148 C164.04719843 253.01177413 162.9379826 229.01988914 158.39050293 205.07702637 C157.80470236 201.96124121 157.24716942 198.84047277 156.6862793 195.72012329 C155.24279469 187.69423771 153.75517925 179.67772323 152.22740173 171.66748047 C151.35876172 167.06446241 150.58321613 162.45365508 149.85316467 157.82675171 C148.73544265 150.77849044 147.45448076 144.08265717 144.9375 137.375 C137.53112421 116.81624403 137.53112421 116.81624403 140.8984375 107.51953125 C141.84090967 105.63124481 142.90918827 103.80665692 144 102 C144.66 102 145.32 102 146 102 C146.20625 101.401875 146.4125 100.80375 146.625 100.1875 C148.60153083 97.04301913 150.55461243 96.375065 154 95 C157.05275034 94.5615243 160.04493341 94.53486482 163.125 94.5625 C163.92292969 94.54251953 164.72085938 94.52253906 165.54296875 94.50195312 C169.13287535 94.50494971 171.33012434 94.5603941 174.375 96.55859375 C176.47204629 99.70920416 177.7309307 102.92216867 178.875 106.5 C179.12475586 107.26683105 179.37451172 108.03366211 179.63183594 108.82373047 C184.4953087 124.4433106 188.02284628 140.90890708 189.48046875 157.21484375 C189.92681088 160.466765 190.56279869 163.50155952 191.328125 166.6875 C193.26605108 174.86654185 194.69639545 183.11624278 196.10717773 191.39916992 C196.55781636 194.03510386 197.01979448 196.66888176 197.48242188 199.30273438 C200.68979885 217.83514693 202.26314629 236.14143368 202.5625 254.9375 C202.60676059 257.46228875 202.65342704 259.98696786 202.70530701 262.51161194 C202.7367543 264.05859175 202.76379184 265.60567018 202.78553772 267.15281677 C202.85815799 270.89884602 203.2226691 274.34348384 204 278 C204.13151179 279.96267793 204.22240333 281.92833261 204.28125 283.89453125 C204.31863281 285.01537109 204.35601563 286.13621094 204.39453125 287.29101562 C204.42933594 288.45310547 204.46414063 289.61519531 204.5 290.8125 C204.56952786 293.1107821 204.64236734 295.40896675 204.71875 297.70703125 C204.74904297 298.7225708 204.77933594 299.73811035 204.81054688 300.78442383 C204.96340834 304.07634889 204.96340834 304.07634889 205.49327087 307.62269592 C206.07081084 312.16768317 206.21327007 316.67512496 206.29711914 321.25244141 C206.3265734 322.59452447 206.3265734 322.59452447 206.3566227 323.96372032 C206.42037454 326.92626249 206.47793286 329.88888756 206.53515625 332.8515625 C206.57862569 334.95947713 206.62231647 337.06738721 206.66621399 339.17529297 C206.8059616 345.99172151 206.93519798 352.80832911 207.0625 359.625 C207.08427559 360.78158867 207.10605118 361.93817734 207.12848663 363.12981415 C208.23165692 421.91120653 208.23165692 421.91120653 208.35348511 450.31707764 C208.36568471 453.13562571 208.38664305 455.9538605 208.41629028 458.77227783 C208.85997035 503.2802883 208.85997035 503.2802883 201 522 C200.50522286 523.88665022 200.04350678 525.78247886 199.625 527.6875 C196.68480309 539.68953456 191.81530141 549.72118476 185 560 C184.5565625 560.70125 184.113125 561.4025 183.65625 562.125 C181.00882235 566.13191753 177.84138759 569.11084792 174.16015625 572.1796875 C172.69475274 573.41454832 171.26520667 574.69299774 169.87109375 576.0078125 C164.37767949 581.1769286 158.74847937 584.67558131 152 588 C151.07058594 588.50402344 150.14117188 589.00804687 149.18359375 589.52734375 C139.00960996 594.74034979 128.14108799 596.80601967 117 599 C115.76862305 599.24878906 114.53724609 599.49757813 113.26855469 599.75390625 C104.17638928 601.55699155 95.11799887 602.84286724 85.875 603.625 C85.16399139 603.68692535 84.45298279 603.74885071 83.72042847 603.81265259 C60.80307077 605.75491755 37.7605634 605.76271426 14.77612305 605.97393799 C12.40733473 605.99617598 10.03864263 606.02191692 7.66992188 606.05029297 C-0.22227774 606.13796002 -8.10807584 606.10080211 -16 606 C-17.14106201 605.9870993 -17.14106201 605.9870993 -18.30517578 605.97393799 C-39.65075076 605.73213756 -60.98642347 605.33211296 -82.30957031 604.29858398 C-127.49258661 602.15422893 -172.6538994 601.65701558 -217.87890625 601.5234375 C-218.66447496 601.52108641 -219.45004368 601.51873532 -220.2594175 601.51631299 C-240.69573826 601.45571322 -261.13208004 601.4207198 -281.56847113 601.3950792 C-299.77027685 601.37209531 -317.97204991 601.33560061 -336.17382812 601.296875 C-336.98460689 601.29515449 -337.79538565 601.29343397 -338.63073346 601.29166132 C-349.97517774 601.26754425 -361.31961925 601.24229787 -372.66405958 601.21639359 C-375.0637493 601.21094353 -377.46343918 601.20557619 -379.86312914 601.20023251 C-421.24550674 601.10784833 -462.62700228 600.98219401 -504.00813174 600.62843752 C-507.20198307 600.60218201 -510.39584169 600.57899886 -513.58972359 600.55680466 C-532.87547169 600.41935629 -552.127435 600.16926629 -571.38500977 599.05615234 C-572.43659486 598.99555063 -572.43659486 598.99555063 -573.50942409 598.93372464 C-585.16495871 598.24389022 -596.74710147 597.05935065 -608.34375 595.72265625 C-615.0727752 594.96455368 -621.80933961 594.42807191 -628.5625 593.9375 C-636.36570218 593.36766942 -644.15500931 592.74596282 -651.9375 591.9375 C-652.71875244 591.85814209 -653.50000488 591.77878418 -654.30493164 591.69702148 C-657.35795997 591.36883906 -660.07669369 590.97443544 -663 590 C-664.64353822 589.84776833 -666.29005686 589.72660442 -667.9375 589.625 C-673.1327414 589.18750599 -677.95430608 588.16216806 -682.98046875 586.80078125 C-684.92754497 586.28441563 -686.88926884 585.81923457 -688.86328125 585.41796875 C-702.10321004 582.64098775 -715.48974878 575.47986178 -726 567 C-726 566.34 -726 565.68 -726 565 C-726.58402588 564.7333252 -727.16805176 564.46665039 -727.76977539 564.19189453 C-735.16863199 560.23773822 -741.18433268 552.9981816 -747.0625 547.125 C-747.82626953 546.37347656 -748.59003906 545.62195313 -749.37695312 544.84765625 C-754.37268935 539.86474057 -758.80940546 534.67422117 -763 529 C-763.62648438 528.16210938 -764.25296875 527.32421875 -764.8984375 526.4609375 C-785.96758064 496.69659243 -796.73476376 461.04085053 -801.68066406 425.13037109 C-802.20905867 421.60531654 -802.9258663 418.11940956 -803.625 414.625 C-804.78206598 408.63477301 -805.46445664 402.76209929 -805.7890625 396.671875 C-805.91189962 394.11147722 -805.91189962 394.11147722 -806.48986816 392.13372803 C-807.05014761 389.79024762 -807.23479423 387.5938755 -807.37304688 385.18847656 C-807.42982101 384.22978165 -807.48659515 383.27108673 -807.54508972 382.28334045 C-807.60239761 381.24624435 -807.65970551 380.20914825 -807.71875 379.140625 C-807.78141556 378.05643784 -807.84408112 376.97225067 -807.90864563 375.85520935 C-808.11091986 372.32040785 -808.30641968 368.78528782 -808.5 365.25 C-808.5662558 364.04606598 -808.6325116 362.84213196 -808.70077515 361.60171509 C-809.14950257 353.40193063 -809.57881247 345.20123952 -810 337 C-810.04658752 336.11173523 -810.09317505 335.22347046 -810.14117432 334.30828857 C-811.21981989 313.6863908 -810.64533395 293.55871304 -809 273 C-808.81651293 270.54826625 -808.63418536 268.0964454 -808.453125 265.64453125 C-808.13277674 261.4055043 -807.81054002 257.1667292 -807.46484375 252.9296875 C-807.399021 252.11741699 -807.33319824 251.30514648 -807.26538086 250.46826172 C-807 248 -807 248 -806.48632812 245.43041992 C-805.76680818 240.35513141 -805.8019889 235.30389278 -805.75390625 230.18359375 C-805.72252837 227.80036958 -805.69077598 225.41715031 -805.65869141 223.03393555 C-805.64332336 221.79267914 -805.62795532 220.55142273 -805.61212158 219.27255249 C-805.35783492 199.61975913 -805.05650453 180.04836988 -803.29589844 160.46533203 C-803.02055582 157.24073381 -802.78570629 154.01650272 -802.56500244 150.78787231 C-800.23950383 116.92332772 -797.21021497 76.82474077 -776 49 C-775.34 48.01 -774.68 47.02 -774 46 C-773.34 46 -772.68 46 -772 46 C-771.82984375 45.11957031 -771.6596875 44.23914063 -771.484375 43.33203125 C-771.24203125 42.17058594 -770.9996875 41.00914062 -770.75 39.8125 C-770.51796875 38.66394531 -770.2859375 37.51539063 -770.046875 36.33203125 C-768.62072354 31.79282529 -766.80113053 28.99574696 -762.59765625 26.671875 C-761.76105469 26.36765625 -760.92445313 26.0634375 -760.0625 25.75 C-759.22847656 25.43546875 -758.39445313 25.1209375 -757.53515625 24.796875 C-753.20628292 23.43618138 -749.14850838 22.87518525 -744.6171875 22.7890625 C-743.54847412 22.76263672 -742.47976074 22.73621094 -741.37866211 22.70898438 C-740.22245361 22.68126953 -739.06624512 22.65355469 -737.875 22.625 C-726.19135091 22.2811564 -714.58141039 21.50688931 -702.9375 20.5 C-701.7747757 20.40129608 -701.7747757 20.40129608 -700.58856201 20.30059814 C-692.17018479 19.79841422 -692.17018479 19.79841422 -684 18 C-681.20094513 17.69648803 -678.40114445 17.49255926 -675.59375 17.28125 C-672.88853697 17.08068739 -672.88853697 17.08068739 -670 16 C-667.69032359 15.79793839 -665.37700573 15.63600453 -663.0625 15.5 C-658.51918168 15.28898597 -658.51918168 15.28898597 -654.05732727 14.51353455 C-637.99002322 10.50293506 -619.76578923 11.47929351 -603.3125 10.9375 C-599.85324905 10.82160534 -596.39410444 10.70386894 -592.93510437 10.58070374 C-590.80733596 10.50506741 -588.67941339 10.43361891 -586.55134583 10.3669281 C-585.60152328 10.33341751 -584.65170074 10.29990692 -583.6730957 10.26538086 C-582.42360893 10.22446571 -582.42360893 10.22446571 -581.14888 10.182724 C-578.81584274 10.06900987 -578.81584274 10.06900987 -576 9 C-573.05007579 8.85732994 -570.11957725 8.76641505 -567.16796875 8.71875 C-566.29860184 8.70034058 -565.42923492 8.68193115 -564.53352356 8.66296387 C-561.75158442 8.60422377 -558.9695832 8.55143549 -556.1875 8.5 C-552.53503423 8.43208553 -548.88275112 8.35833502 -545.23046875 8.28125 C-543.97861031 8.26088684 -543.97861031 8.26088684 -542.70146179 8.2401123 C-538.35638089 8.14824486 -534.28968417 7.74552556 -530 7 C-527.58119556 6.86829049 -525.15995592 6.77752168 -522.73828125 6.71875 C-522.06580856 6.70034058 -521.39333588 6.68193115 -520.70048523 6.66296387 C-517.84759139 6.58488811 -514.99449127 6.51641135 -512.14135742 6.44775391 C-510.04854934 6.39597407 -507.9559378 6.33878354 -505.86328125 6.28125 C-504.61844971 6.25095703 -503.37361816 6.22066406 -502.09106445 6.18945312 C-498.9635982 6.13097664 -498.9635982 6.13097664 -496 5 C-493.41389441 4.8583256 -490.8496519 4.7667925 -488.26171875 4.71875 C-487.50333206 4.70034058 -486.74494537 4.68193115 -485.96357727 4.66296387 C-483.53829637 4.6042685 -481.11294439 4.55146704 -478.6875 4.5 C-475.50376934 4.43199737 -472.32024332 4.35823696 -469.13671875 4.28125 C-468.41151535 4.26767456 -467.68631195 4.25409912 -466.93913269 4.2401123 C-463.91642926 4.1669399 -461.00975725 4.00164022 -458.02563477 3.5 C-454.15669306 2.86063967 -450.36808486 2.78787433 -446.453125 2.71875 C-445.23626007 2.69113586 -445.23626007 2.69113586 -443.99481201 2.66296387 C-441.41327738 2.60456736 -438.83167779 2.55165287 -436.25 2.5 C-432.85925912 2.43159704 -429.46868987 2.35783033 -426.078125 2.28125 C-424.93697235 2.26088684 -424.93697235 2.26088684 -423.77276611 2.2401123 C-419.96159916 2.15409081 -416.22168476 1.93680423 -412.43383789 1.50219727 C-405.30285271 0.74590792 -398.14364217 0.76459216 -390.98046875 0.68359375 C-389.41560448 0.66282849 -387.85074449 0.6417385 -386.28588867 0.62034607 C-382.11751955 0.5647461 -377.94910197 0.51508413 -373.78063583 0.46736908 C-371.16792392 0.43727451 -368.55522911 0.40596124 -365.9425354 0.37432861 C-333.1406083 -0.02080688 -300.36122811 -0.1945504 -267.55859375 0.2265625 C-265.8436025 0.24853529 -264.12861125 0.27050795 -262.41362 0.29248047 C-261.54563561 0.30360619 -260.67765123 0.3147319 -259.7833643 0.32619476 C-190.26590233 1.21622312 -120.74985708 1.37022955 -51.22947693 0.6521225 C-48.52104266 0.6252091 -45.81259729 0.60152687 -43.10412598 0.57867432 C-38.91342829 0.54257988 -34.72296212 0.49646094 -30.53246307 0.44206238 C-29.01413221 0.42368798 -27.49575966 0.40843673 -25.97736359 0.3966217 C-23.91111013 0.37978366 -21.84536288 0.35088521 -19.77929688 0.31884766 C-18.05688782 0.29886215 -18.05688782 0.29886215 -16.29968262 0.2784729 C-1.95332966 -0.93227097 -1.95332966 -0.93227097 0 0 Z " fill="#301B15" transform="translate(878,147)"/>
<path d="M0 0 C7.10208332 2.74446288 11.81255066 8.23480139 15 15 C20.42894372 29.47718324 22.5268926 44.79650898 23.67480469 60.15063477 C24.04587315 63.40194109 24.7118013 66.5207698 25.40625 69.71875 C27.03682133 77.55845179 27.95560822 85.41368621 28.76473999 93.37426758 C29.16789615 97.33836631 29.59214812 101.30016762 30.01953125 105.26171875 C30.14386284 106.41617996 30.14386284 106.41617996 30.27070618 107.59396362 C30.91032995 113.42534702 31.7323581 119.21169644 32.6875 125 C33.74806967 131.5537049 34.39583774 138.05689739 34.75 144.6875 C34.79471436 145.48994141 34.83942871 146.29238281 34.88549805 147.11914062 C35.31946283 157.34570827 34.29274451 164.64860821 28 173 C23.29614979 177.94655501 18.9032644 180.24172558 12.05957031 180.53271484 C4.49980358 180.63292036 -0.55847969 180.43163783 -6.28125 174.91796875 C-6.8484375 174.28503906 -7.415625 173.65210938 -8 173 C-8.9075 172.071875 -9.815 171.14375 -10.75 170.1875 C-19.44744953 157.86611317 -21.99055991 142.88285872 -22.82421875 127.99609375 C-22.94062363 125.79181709 -22.94062363 125.79181709 -24 123 C-24.35355223 119.97846537 -24.6632862 116.96640481 -24.9375 113.9375 C-25.02249756 113.02661621 -25.10749512 112.11573242 -25.19506836 111.17724609 C-25.99838234 102.39169094 -26.66802755 93.5958473 -27.30249023 84.79663086 C-27.69292229 79.48749233 -28.24601796 74.27126044 -29 69 C-29.06252492 67.02171151 -29.08693365 65.04162549 -29.0625 63.0625 C-29.05347656 62.10472656 -29.04445313 61.14695313 -29.03515625 60.16015625 C-29.02355469 59.44730469 -29.01195312 58.73445313 -29 58 C-30.794375 58.0928125 -30.794375 58.0928125 -32.625 58.1875 C-38.37208485 58.15709214 -41.66187688 56.27865099 -45.8125 52.3125 C-48.96814704 47.53394877 -49.53063683 43.71214381 -48.4375 38.125 C-44.83158666 30.28605797 -39.89884237 23.0823264 -35 16 C-34.01 14.5459375 -34.01 14.5459375 -33 13.0625 C-30.54899655 10.53490269 -28.31584384 10.03159586 -25 9 C-24.67 8.01 -24.34 7.02 -24 6 C-22.00390625 4.6484375 -22.00390625 4.6484375 -19.5625 3.375 C-18.35787109 2.73691406 -18.35787109 2.73691406 -17.12890625 2.0859375 C-11.51132353 -0.77954506 -6.26169871 -0.73413019 0 0 Z " fill="#CD0000" transform="translate(1015,61)"/>
<path d="M0 0 C8.70667659 3.99328776 12.90977908 10.79839473 16.828125 19.265625 C18.00304318 22.56241034 18.98813024 25.8688041 19.828125 29.265625 C20.78912109 29.26949219 20.78912109 29.26949219 21.76953125 29.2734375 C27.74140937 29.54043652 31.13813935 30.48773326 35.42578125 34.71484375 C40.02861137 39.80488151 41.2401235 43.921206 41.18359375 50.75 C40.37499061 56.47242225 37.3116752 62.53935003 32.828125 66.265625 C32.168125 66.265625 31.508125 66.265625 30.828125 66.265625 C29.36668905 71.23246327 30.16456863 75.8473645 30.765625 80.890625 C31.54661263 88.04892715 32.19386116 95.05708323 31.828125 102.265625 C31.78365234 103.58626953 31.78365234 103.58626953 31.73828125 104.93359375 C31.40259713 110.47647546 30.49497712 113.88577386 26.828125 118.265625 C26.126875 119.1525 25.425625 120.039375 24.703125 120.953125 C19.96801839 124.76179771 15.12668428 126.2470677 9.05078125 126.28125 C1.49986056 125.39166047 -3.38220781 122.09305341 -8.171875 116.265625 C-9.92115871 113.3634043 -11.11303866 110.47742855 -12.171875 107.265625 C-12.56375 106.21375 -12.955625 105.161875 -13.359375 104.078125 C-14.61246993 98.19821803 -14.85595045 92.25987759 -15.171875 86.265625 C-16.17089844 86.58789062 -17.16992188 86.91015625 -18.19921875 87.2421875 C-22.06742939 88.34182977 -25.70324965 88.59928012 -29.734375 88.640625 C-30.99378906 88.66898437 -32.25320313 88.69734375 -33.55078125 88.7265625 C-37.75830055 88.19097752 -39.92884534 86.95399165 -43.171875 84.265625 C-43.171875 83.605625 -43.171875 82.945625 -43.171875 82.265625 C-43.831875 82.265625 -44.491875 82.265625 -45.171875 82.265625 C-48.22257447 78.36072968 -49.35211737 74.17722955 -49.171875 69.265625 C-48.25398341 65.73670395 -46.80250894 62.52689289 -45.171875 59.265625 C-44.511875 59.265625 -43.851875 59.265625 -43.171875 59.265625 C-43.171875 58.605625 -43.171875 57.945625 -43.171875 57.265625 C-42.511875 57.265625 -41.851875 57.265625 -41.171875 57.265625 C-41.171875 56.605625 -41.171875 55.945625 -41.171875 55.265625 C-38.78652036 53.50924447 -36.40511984 51.87216048 -33.921875 50.265625 C-33.23996094 49.81445312 -32.55804687 49.36328125 -31.85546875 48.8984375 C-28.69467865 46.8239772 -25.58027409 44.91248523 -22.171875 43.265625 C-22.31625 42.13125 -22.460625 40.996875 -22.609375 39.828125 C-22.69960938 39.09335938 -22.78984375 38.35859375 -22.8828125 37.6015625 C-23.06790577 36.10580881 -23.25996652 34.61089071 -23.4609375 33.1171875 C-24.66422151 23.59405406 -24.90082701 15.25506288 -21.171875 6.265625 C-20.511875 6.265625 -19.851875 6.265625 -19.171875 6.265625 C-19.171875 5.605625 -19.171875 4.945625 -19.171875 4.265625 C-13.47467113 -0.85720136 -7.28582941 -2.46355383 0 0 Z " fill="#CD0000" transform="translate(932.171875,105.734375)"/>
</svg>
