<?xml version="1.0" encoding="UTF-8"?>
<svg version="1.1" xmlns="http://www.w3.org/2000/svg" width="646" height="747">
<path d="M0 0 C0.56700762 3.96905334 1.05911182 7.5369896 -1.3828125 10.91015625 C-2.60037727 12.06710633 -3.84650361 13.19462458 -5.1171875 14.29296875 C-7.04183395 16.03792829 -8.37139304 17.78446894 -9.8125 19.9375 C-10.8953125 21.4534375 -10.8953125 21.4534375 -12 23 C-12.66 23 -13.32 23 -14 23 C-14 23.66 -14 24.32 -14 25 C-14.66 25 -15.32 25 -16 25 C-16.11214844 25.78310547 -16.11214844 25.78310547 -16.2265625 26.58203125 C-19.60459577 37.1426504 -29.36653375 45.75957723 -38 52 C-38.70769531 52.5465625 -39.41539062 53.093125 -40.14453125 53.65625 C-44.55642361 57 -44.55642361 57 -48 57 C-48 57.66 -48 58.32 -48 59 C-49.6796875 60.62109375 -49.6796875 60.62109375 -51.875 62.4375 C-54.46193722 64.58400884 -56.11184374 66.16776562 -58 69 C-58.66 69 -59.32 69 -60 69 C-60.66 70.32 -61.32 71.64 -62 73 C-62.66 73 -63.32 73 -64 73 C-64.23460937 73.71285156 -64.46921875 74.42570312 -64.7109375 75.16015625 C-68.48191268 83.46772883 -76.55314723 89.97933467 -84 95 C-85.7303086 96.20669755 -87.45943144 97.41509676 -89.1875 98.625 C-90.02539062 99.20894531 -90.86328125 99.79289062 -91.7265625 100.39453125 C-96.56238323 103.5572139 -96.56238323 103.5572139 -100 108 C-100.66 108 -101.32 108 -102 108 C-102.20109375 108.53109375 -102.4021875 109.0621875 -102.609375 109.609375 C-104.97604588 113.67792156 -108.56400892 116.64152575 -111.94921875 119.87109375 C-113.67251233 121.54662862 -115.3457463 123.25630764 -117 125 C-117.56187012 125.58338135 -118.12374023 126.1667627 -118.70263672 126.76782227 C-123.6423785 132.49854896 -124.11698562 138.06691213 -124.625 145.4375 C-125.21517283 153.16968618 -125.78966792 160.28065769 -130 167 C-132.3125 168.5625 -132.3125 168.5625 -135 170 C-136.81195241 171.88692975 -138.48413963 173.85592267 -140.15625 175.8671875 C-144.67109684 181.0898705 -149.17142046 184.56402494 -155.125 187.9375 C-155.88780273 188.37570068 -156.65060547 188.81390137 -157.43652344 189.26538086 C-158.94998434 190.13220742 -160.4655506 190.99537047 -161.98339844 191.85449219 C-163.60465631 192.77542947 -165.21443948 193.71655293 -166.8203125 194.6640625 C-174.56293146 199.12042518 -182.82276947 202.43892323 -191.04296875 205.8984375 C-194.66829161 207.42524449 -198.25249538 209.01283925 -201.8125 210.6875 C-217.7703299 218.00045827 -234.53539288 223.23336225 -251.8125 226.25 C-256.52446718 227.07301154 -261.19740806 228.06479662 -265.875 229.0625 C-267.09388916 229.32039307 -267.09388916 229.32039307 -268.33740234 229.58349609 C-271.57324217 230.26847433 -274.80774996 230.95799164 -278.0390625 231.6640625 C-283.26802975 232.77625553 -288.41498089 233.3825768 -293.75 233.75390625 C-296.03305818 233.87181477 -296.03305818 233.87181477 -298 235 C-299.97559868 235.20466634 -301.95588811 235.36549059 -303.9375 235.5 C-307.23044938 235.7240646 -309.86163082 235.95387694 -313 237 C-315.81558923 237.2045635 -318.61850841 237.37218678 -321.4375 237.5 C-322.95720266 237.56925227 -324.47674849 237.64205546 -325.99609375 237.71875 C-326.66825928 237.74904297 -327.3404248 237.77933594 -328.03295898 237.81054688 C-330.10132533 238.00975902 -331.99077228 238.48163936 -334 239 C-335.6647181 239.09070579 -337.33282033 239.13008286 -339 239.125 C-339.845625 239.12757813 -340.69125 239.13015625 -341.5625 239.1328125 C-344 239 -344 239 -345.88842773 238.50927734 C-348.04602279 237.98890004 -350.00771644 237.81271563 -352.22265625 237.71875 C-353.40118164 237.66267578 -353.40118164 237.66267578 -354.60351562 237.60546875 C-356.24673763 237.53498901 -357.88996684 237.4646773 -359.53320312 237.39453125 C-360.31759766 237.35714844 -361.10199219 237.31976562 -361.91015625 237.28125 C-362.62308838 237.25095703 -363.33602051 237.22066406 -364.07055664 237.18945312 C-366 237 -366 237 -369 236 C-370.78989153 235.86881902 -372.58219795 235.76984655 -374.375 235.6875 C-390.49165131 234.48903647 -405.54250885 230.57157808 -420.62304688 224.89355469 C-424.40140174 223.47317889 -428.19818168 222.10610898 -432 220.75 C-432.69488525 220.49951904 -433.38977051 220.24903809 -434.10571289 219.9909668 C-438.25962691 218.52110499 -442.37725326 217.38649652 -446.6875 216.4375 C-451.74300695 215.24306704 -454.58539707 213.96832232 -458 210 C-459.11621325 206.65136026 -459.20319004 204.77581652 -458.3125 201.375 C-456.5277926 198.14552946 -454.66489713 195.68892295 -451.1875 194.25 C-446.69008943 193.73601022 -442.84618666 193.77074679 -438.453125 194.9609375 C-425.71555176 198.24800586 -411.58481396 197.7274164 -398.87109375 194.8125 C-395.3767012 194.07906544 -392.05357928 193.67297013 -388.5078125 193.37866211 C-378.64210038 192.54336231 -369.74978951 190.18524207 -360.36816406 187.09863281 C-357.04352519 186.01419711 -353.71101762 184.95849607 -350.37522888 183.9090271 C-347.09442371 182.87545414 -343.81655769 181.83276342 -340.53921509 180.78826904 C-338.91062919 180.26993577 -337.28139298 179.75364059 -335.65145874 179.23956299 C-325.72482583 176.09979941 -316.36190437 172.59059578 -307 168 C-305.48010525 167.29851012 -303.9582064 166.60133233 -302.43359375 165.91015625 C-295.06529871 162.51628574 -287.95536513 158.96224495 -281.00854492 154.75097656 C-278.17828562 153.10376244 -275.32491593 151.64210466 -272.37890625 150.21484375 C-266.16860035 147.13715312 -260.20896685 143.72238085 -254.25 140.1875 C-252.14251728 138.94691351 -250.03444339 137.70733073 -247.92578125 136.46875 C-246.91209473 135.87320313 -245.8984082 135.27765625 -244.85400391 134.6640625 C-240.44254044 132.09190382 -235.98653985 129.60287509 -231.5222168 127.12402344 C-227.76724738 125.02809002 -224.0847248 122.84249199 -220.42529297 120.58422852 C-201.06198519 108.6642473 -172.32368429 92.07136788 -149 97 C-147.57057788 97.50704992 -146.15244962 98.04752075 -144.75 98.625 C-135.75860206 101.92184591 -125.96414057 95.41330465 -117.7734375 91.734375 C-103.8931392 85.28947059 -92.54676843 75.89723008 -81 66 C-80.37681885 65.47615723 -79.7536377 64.95231445 -79.11157227 64.41259766 C-72.42962194 58.7125093 -66.35184868 52.39544461 -60.21704102 46.12109375 C-54.24775742 40.02548137 -48.21278894 34.3251843 -41.48364258 29.04833984 C-38.87964863 26.9752079 -38.87964863 26.9752079 -36.30737305 24.24462891 C-34 22 -34 22 -32 22 C-32 21.34 -32 20.68 -32 20 C-30.34997172 18.64613064 -28.6825613 17.31321858 -27 16 C-26.67 15.34 -26.34 14.68 -26 14 C-25.34 14 -24.68 14 -24 14 C-24 13.34 -24 12.68 -24 12 C-22.4609375 10.44921875 -22.4609375 10.44921875 -20.375 8.6875 C-19.64667969 8.07003906 -18.91835938 7.45257813 -18.16796875 6.81640625 C-17.45253906 6.21699219 -16.73710938 5.61757813 -16 5 C-15.12794922 4.24009766 -15.12794922 4.24009766 -14.23828125 3.46484375 C-9.17691419 -0.9080754 -6.52407249 -1.10786137 0 0 Z " fill="#F5F4F1" transform="translate(569,380)"/>
<path d="M0 0 C2.13199602 3.19799402 2.26699047 4.25598326 1.59765625 7.92578125 C-3.30357915 24.93595118 -17.47482696 40.37863965 -29.3203125 53.109375 C-31.0590222 54.90160628 -31.0590222 54.90160628 -32 57 C-32.66 57 -33.32 57 -34 57 C-34.268125 57.57234375 -34.53625 58.1446875 -34.8125 58.734375 C-36.04132636 61.07884634 -37.42522176 63.12404938 -39 65.25 C-39.515625 65.95640625 -40.03125 66.6628125 -40.5625 67.390625 C-41.036875 67.92171875 -41.51125 68.4528125 -42 69 C-42.66 69 -43.32 69 -44 69 C-44 69.66 -44 70.32 -44 71 C-44.66 71 -45.32 71 -46 71 C-46.1546875 71.928125 -46.1546875 71.928125 -46.3125 72.875 C-47 75 -47 75 -50 77 C-51.32 77 -52.64 77 -54 77 C-54.3403125 77.86625 -54.3403125 77.86625 -54.6875 78.75 C-57.4344356 83.45903245 -62.25734535 85.85447546 -67 88.25 C-68.5159375 89.03117187 -68.5159375 89.03117187 -70.0625 89.828125 C-72.98492845 90.99398741 -74.89483158 91.25115333 -78 91 C-78 91.66 -78 92.32 -78 93 C-83.47619048 98 -83.47619048 98 -86 98 C-86.33 98.99 -86.66 99.98 -87 101 C-87.99 101 -88.98 101 -90 101 C-90 101.66 -90 102.32 -90 103 C-90.66 103 -91.32 103 -92 103 C-92 103.66 -92 104.32 -92 105 C-92.66 105 -93.32 105 -94 105 C-94.28875 105.763125 -94.5775 106.52625 -94.875 107.3125 C-96 110 -96 110 -98 113 C-98.66 113 -99.32 113 -100 113 C-100.12375 113.598125 -100.2475 114.19625 -100.375 114.8125 C-101 117 -101 117 -103 120 C-103.25030977 122.58380177 -103.25030977 122.58380177 -103 125 C-102.67 125.33 -102.34 125.66 -102 126 C-101.73214071 130.14720066 -101.72859409 134.29826079 -101.70483398 138.45336914 C-101.68776584 140.53015399 -101.6439241 142.60528515 -101.59960938 144.68164062 C-101.51140473 152.13172666 -101.75250568 157.71645364 -106 164 C-109.72022859 167.74603166 -112.49946632 169.15825217 -117.8125 169.25 C-123.73851432 169.53004031 -126.61496634 172.61496634 -130.67578125 176.67578125 C-132.99964618 178.99964618 -135.34831325 181.05898307 -138 183 C-138.66 183 -139.32 183 -140 183 C-140.26337158 183.58555664 -140.52674316 184.17111328 -140.7980957 184.77441406 C-142.05322783 187.09856286 -143.40685954 188.70607738 -145.23046875 190.609375 C-145.86919922 191.28226563 -146.50792969 191.95515625 -147.16601562 192.6484375 C-148.16665039 193.68871094 -148.16665039 193.68871094 -149.1875 194.75 C-153.70777655 199.48167257 -158.14808055 204.25112931 -162.43481445 209.19628906 C-164.42659084 211.49160087 -166.46032716 213.74722701 -168.5 216 C-169.263125 216.85078125 -170.02625 217.7015625 -170.8125 218.578125 C-172.1318305 220.03881234 -173.4620386 221.48992024 -174.8125 222.921875 C-182.68348219 231.44877238 -188.57243289 241.79617384 -194 252 C-194.68410196 253.23221191 -195.3690835 254.46393569 -196.0546875 255.6953125 C-203.54710984 269.29735982 -209.1779686 283.00746014 -212.87158203 298.09643555 C-214.85238447 305.9410168 -217.46678403 313.55319763 -220.125 321.1875 C-220.77335815 323.05015503 -220.77335815 323.05015503 -221.43481445 324.95043945 C-223.5553318 330.99409871 -225.72717689 337.0121091 -228 343 C-231.17433957 351.41477313 -234.04725756 359.6826266 -235.875 368.5 C-238.68440911 381.60855107 -244.79844589 393.44567683 -253 404 C-253.86461119 405.15134622 -254.72779223 406.30376727 -255.58984375 407.45703125 C-256.49624383 408.65972323 -257.40378967 409.86155261 -258.3125 411.0625 C-258.74546387 411.63581055 -259.17842773 412.20912109 -259.62451172 412.79980469 C-262.76523043 416.88261521 -262.76523043 416.88261521 -265 418 C-266.66234811 418.14601706 -268.33150507 418.22089834 -270 418.25 C-270.886875 418.27578125 -271.77375 418.3015625 -272.6875 418.328125 C-273.8321875 418.16570312 -273.8321875 418.16570312 -275 418 C-278.17506235 413.23740648 -277.86220064 408.56152323 -277 403 C-275.54755803 399.89838761 -273.81399427 397.1560784 -271.94921875 394.28515625 C-269.7226381 390.53254237 -268.17985546 386.77472274 -266.6875 382.6875 C-266.44563965 382.02975586 -266.2037793 381.37201172 -265.95458984 380.69433594 C-263.17396902 372.938383 -261.55388674 365.74193403 -260.875 357.5625 C-260.79080811 356.56839111 -260.70661621 355.57428223 -260.61987305 354.55004883 C-260.04404458 347.09344941 -259.81836078 339.66527114 -259.8125 332.1875 C-259.8112915 330.73162476 -259.8112915 330.73162476 -259.81005859 329.24633789 C-259.84331998 324.9648589 -259.98655316 320.76803293 -260.4921875 316.515625 C-266.03624425 265.63573409 -255.78338747 210.60449681 -223.453125 169.9375 C-220.38368651 166.26199403 -217.22489586 162.68604004 -213.9765625 159.16796875 C-212.2604353 157.28565532 -210.64947912 155.36568434 -209.0625 153.375 C-208.381875 152.59125 -207.70125 151.8075 -207 151 C-206.34 151 -205.68 151 -205 151 C-205 150.34 -205 149.68 -205 149 C-204.34 149 -203.68 149 -203 149 C-202.76796875 148.44183594 -202.5359375 147.88367188 -202.296875 147.30859375 C-198.48825883 140.5287981 -191.20226047 134.65169536 -185 130 C-184.34 130 -183.68 130 -183 130 C-183 129.34 -183 128.68 -183 128 C-175.7639763 120.33951681 -166.5072903 114.66890953 -157.3125 109.6875 C-156.6949585 109.34984619 -156.07741699 109.01219238 -155.44116211 108.66430664 C-148.20023022 104.84122613 -141.91418422 103.68584619 -133.875 103.8125 C-132.69744141 103.8134668 -132.69744141 103.8134668 -131.49609375 103.81445312 C-127.53889572 103.84448245 -123.86191009 104.03064506 -120 105 C-119.27296875 103.948125 -119.27296875 103.948125 -118.53125 102.875 C-110.48616721 91.48811359 -101.04258685 83.32335375 -90 75 C-89.45005371 74.56703613 -88.90010742 74.13407227 -88.33349609 73.68798828 C-83.79069971 70.22999959 -79.09167335 68.20277567 -73.75 66.25 C-72.94820312 65.94707031 -72.14640625 65.64414063 -71.3203125 65.33203125 C-68.22794285 64.16851424 -65.13473078 63.04491026 -62 62 C-62 61.34 -62 60.68 -62 60 C-60.3386634 58.54854756 -58.61899391 57.16351395 -56.875 55.8125 C-49.30374519 49.72845595 -44.13959424 42.88947565 -38.359375 35.12109375 C-32.8291336 27.80542673 -26.93322399 20.82071222 -20.7890625 14.015625 C-19.17448074 12.19657656 -17.64290532 10.33710082 -16.125 8.4375 C-15.42375 7.633125 -14.7225 6.82875 -14 6 C-13.34 6 -12.68 6 -12 6 C-12 5.34 -12 4.68 -12 4 C-11.34 4 -10.68 4 -10 4 C-10 3.34 -10 2.68 -10 2 C-9.34 2 -8.68 2 -8 2 C-8 1.34 -8 0.68 -8 0 C-4.67212881 -1.1092904 -3.3006216 -1.01557588 0 0 Z " fill="#F5F4F1" transform="translate(354,91)"/>
<path d="M0 0 C3.41934251 1.44664491 5.40896 2.6149106 6.8984375 6.10546875 C7.3992192 7.79897246 7.85921217 9.50489214 8.28515625 11.21875 C9.2448896 14.95279452 10.64060261 18.47641074 12.03515625 22.06640625 C14.79436172 30.45573138 15.31042146 38.24600226 15.25 47.0625 C15.26160156 48.76116211 15.26160156 48.76116211 15.2734375 50.49414062 C15.25901845 56.6835188 14.82643747 62.07857377 13 68 C12.34 68 11.68 68 11 68 C10.896875 68.825 10.79375 69.65 10.6875 70.5 C8.29249882 82.6927333 0.75022211 91.79111137 -9.08203125 99.21484375 C-25.14069834 109.03922241 -44.16823617 110.87286884 -62.3125 106.6875 C-70.30512576 104.48447266 -76.94804209 101.74936001 -83 96 C-84.92953326 92.14093348 -84.79356721 88.17789798 -84 84 C-80.4692285 77.57700077 -75.46140683 73.20821384 -69.29296875 69.41796875 C-62.06866944 64.9504719 -56.29049333 59.59981059 -51 53 C-50.58991699 52.49017578 -50.17983398 51.98035156 -49.75732422 51.45507812 C-38.45455129 37.73236727 -38.45455129 37.73236727 -29.25 22.625 C-26.7423875 17.85023099 -23.67703374 14.02154051 -20.0625 10.0625 C-19.57233398 9.51867676 -19.08216797 8.97485352 -18.57714844 8.41455078 C-13.38987386 2.92083325 -7.91913908 -1.15187478 0 0 Z " fill="#F0F0F0" transform="translate(267,303)"/>
<path d="M0 0 C4.09900287 2.22029322 7.48959149 4.95438425 11 8 C11.99 8.66 12.98 9.32 14 10 C14 10.66 14 11.32 14 12 C14.66 12 15.32 12 16 12 C16 12.66 16 13.32 16 14 C16.58265625 14.268125 17.1653125 14.53625 17.765625 14.8125 C20.02786601 16.01480991 21.80576318 17.33825913 23.75 19 C24.67039062 19.7734375 24.67039062 19.7734375 25.609375 20.5625 C27 22 27 22 27 24 C27.66 24 28.32 24 29 24 C29 24.66 29 25.32 29 26 C30.98 26.66 32.96 27.32 35 28 C35 28.66 35 29.32 35 30 C35.721875 30.28875 36.44375 30.5775 37.1875 30.875 C41.09375 32.4375 41.09375 32.4375 45 34 C45 34.66 45 35.32 45 36 C45.99 36 46.98 36 48 36 C48 36.66 48 37.32 48 38 C48.598125 38.12375 49.19625 38.2475 49.8125 38.375 C52 39 52 39 55 41 C56.65549531 41.38499891 58.3222433 41.72793135 60 42 C60 42.66 60 43.32 60 44 C60.598125 44.144375 61.19625 44.28875 61.8125 44.4375 C63.56150404 44.8872439 65.28677023 45.42892341 67 46 C67 46.66 67 47.32 67 48 C68.36125 48.2784375 68.36125 48.2784375 69.75 48.5625 C73.27519526 50.12172098 74.60193557 51.55938212 76.3046875 55.0078125 C78.0241019 59.93422456 77.55669352 63.66877636 75.5625 68.4375 C70.16074438 76.73914548 62.6367314 82.42183018 54 87 C53.32066406 87.37898438 52.64132812 87.75796875 51.94140625 88.1484375 C49.99088401 89.19237898 48.02831925 90.11726918 46 91 C44.98486328 91.45052734 44.98486328 91.45052734 43.94921875 91.91015625 C30.02014176 97.08243873 13.37762179 94.73013611 0 89 C-3.25961084 87.29734248 -6.35005121 85.57445167 -9 83 C-9 82.34 -9 81.68 -9 81 C-9.66 81 -10.32 81 -11 81 C-15 75.58823529 -15 75.58823529 -15 73 C-15.66 73 -16.32 73 -17 73 C-18.42258812 69.17679443 -19.24042276 66.08718695 -19 62 C-19.66 62 -20.32 62 -21 62 C-22.75747614 57.49646738 -23.19294408 53.82360189 -23 49 C-23.66 49 -24.32 49 -25 49 C-25.06058594 48.21753906 -25.12117188 47.43507813 -25.18359375 46.62890625 C-25.26738281 45.61699219 -25.35117187 44.60507812 -25.4375 43.5625 C-25.51871094 42.55316406 -25.59992188 41.54382813 -25.68359375 40.50390625 C-25.73211468 38.06359221 -25.73211468 38.06359221 -27 37 C-27.0979057 35.50261876 -27.12974864 34.00057108 -27.125 32.5 C-27.12757813 31.6853125 -27.13015625 30.870625 -27.1328125 30.03125 C-27 28 -27 28 -26 27 C-25.86628082 25.50234521 -25.76859544 24.00142407 -25.6875 22.5 C-25.21817901 17.0715205 -23.49305287 12.80057623 -21 8 C-20.34 8 -19.68 8 -19 8 C-18.938125 7.4225 -18.87625 6.845 -18.8125 6.25 C-15.9197233 -1.76076625 -7.00037084 -1.35234437 0 0 Z " fill="#FEFCF1" transform="translate(341,300)"/>
<path d="M0 0 C3.14231203 2.02504553 4.75630239 3.69156275 6.8125 6.8125 C8.96362497 18.55987728 5.32146975 29.57866501 1.56005859 40.58740234 C0.91811738 42.49813137 0.33759767 44.42930233 -0.23046875 46.36328125 C-4.37920368 60.33129274 -12.69041887 70.64311124 -25.04296875 78.1796875 C-37.84799384 84.82875643 -55.48312207 90.38325114 -69.8125 86.8125 C-74.32667746 85.3427678 -78.37574671 83.25408345 -82.5 80.9375 C-83.38002686 80.44636719 -83.38002686 80.44636719 -84.27783203 79.9453125 C-90.26670209 76.44396912 -94.88517838 71.9279104 -98.1875 65.8125 C-99.08095192 60.45178849 -97.84203608 57.15371098 -94.828125 52.83984375 C-84.54835369 40.13698349 -68.32113135 33.69993753 -53.82519531 27.00512695 C-48.44783233 24.49393651 -43.46240243 21.67724917 -38.53125 18.359375 C-36.26356064 16.86270002 -33.96446282 15.57928861 -31.5625 14.3125 C-24.99569161 10.74025055 -19.43768516 6.09591418 -14.1875 0.8125 C-9.71088272 -2.27482226 -4.93736346 -1.83940992 0 0 Z " fill="#F2F1F1" transform="translate(331.1875,413.1875)"/>
<path d="M0 0 C4.09900287 2.22029322 7.48959149 4.95438425 11 8 C11.99 8.66 12.98 9.32 14 10 C14 10.66 14 11.32 14 12 C14.66 12 15.32 12 16 12 C16 12.66 16 13.32 16 14 C16.58265625 14.268125 17.1653125 14.53625 17.765625 14.8125 C20.02786601 16.01480991 21.80576318 17.33825913 23.75 19 C24.67039062 19.7734375 24.67039062 19.7734375 25.609375 20.5625 C27 22 27 22 27 24 C27.66 24 28.32 24 29 24 C29 24.66 29 25.32 29 26 C30.98 26.66 32.96 27.32 35 28 C35 28.66 35 29.32 35 30 C35.721875 30.28875 36.44375 30.5775 37.1875 30.875 C39.79166667 31.91666667 42.39583333 32.95833333 45 34 C45 34.66 45 35.32 45 36 C45.99 36 46.98 36 48 36 C48 36.66 48 37.32 48 38 C48.598125 38.12375 49.19625 38.2475 49.8125 38.375 C52 39 52 39 55 41 C56.65549531 41.38499891 58.3222433 41.72793135 60 42 C60 42.66 60 43.32 60 44 C60.598125 44.144375 61.19625 44.28875 61.8125 44.4375 C63.56150404 44.8872439 65.28677023 45.42892341 67 46 C67 46.66 67 47.32 67 48 C68.36125 48.2784375 68.36125 48.2784375 69.75 48.5625 C73.27519526 50.12172098 74.60193557 51.55938212 76.3046875 55.0078125 C78.0241019 59.93422456 77.55669352 63.66877636 75.5625 68.4375 C70.16074438 76.73914548 62.6367314 82.42183018 54 87 C53.32066406 87.37898438 52.64132812 87.75796875 51.94140625 88.1484375 C49.99088401 89.19237898 48.02831925 90.11726918 46 91 C44.98486328 91.45052734 44.98486328 91.45052734 43.94921875 91.91015625 C30.02014176 97.08243873 13.37762179 94.73013611 0 89 C-3.25961084 87.29734248 -6.35005121 85.57445167 -9 83 C-9 82.34 -9 81.68 -9 81 C-9.66 81 -10.32 81 -11 81 C-15 75.58823529 -15 75.58823529 -15 73 C-15.66 73 -16.32 73 -17 73 C-18.42258812 69.17679443 -19.24042276 66.08718695 -19 62 C-16.5615972 64.4384028 -15.41079629 66.9135688 -13.875 70 C-13.33617187 71.0725 -12.79734375 72.145 -12.2421875 73.25 C-11 76 -11 76 -11 78 C-10.34 78 -9.68 78 -9 78 C-8.34 78.721875 -7.68 79.44375 -7 80.1875 C-3.32997801 83.98667233 1.20560079 85.93308123 6 88 C6.71542969 88.32355469 7.43085938 88.64710938 8.16796875 88.98046875 C19.97234198 93.43061299 35.21022044 92.45402382 46.67578125 87.69140625 C54.94442185 83.48421309 62.58102029 78.77745676 69 72 C69.7425 71.236875 70.485 70.47375 71.25 69.6875 C73.55925155 66.1411494 74.17434768 63.20925102 74 59 C72.2134857 52.6195918 67.36439203 50.25436475 62 47 C58.25098788 44.95514563 54.44132017 43.04054813 50.625 41.125 C37.1260989 34.20098089 26.56329758 25.98183911 15.46875 15.640625 C5.22856684 5.65908103 5.22856684 5.65908103 -8 2 C-12.19188843 3.42097913 -15.61042046 5.15275318 -19 8 C-18.68011555 5.01441179 -18.0308714 4.02981454 -15.83203125 1.90625 C-10.8468554 -1.44928905 -5.76621043 -1.11392701 0 0 Z " fill="#0320F4" transform="translate(341,300)"/>
<path d="M0 0 C0.33 0 0.66 0 1 0 C0.98747192 0.70932678 0.97494385 1.41865356 0.96203613 2.1494751 C0.816089 10.45207983 0.67494659 18.75476021 0.53664017 27.05749512 C0.50014271 29.24146029 0.46320656 31.42541774 0.42623901 33.609375 C0.06867114 54.13939671 0.06867114 54.13939671 0.00390625 74.671875 C0.0074411 75.5006012 0.01097595 76.32932739 0.01461792 77.1831665 C0.03395162 80.81428518 0.06822495 84.44447539 0.125 88.07519531 C0.20677893 96.91413503 -0.62238462 105.2846318 -2 114 C-2.33 114 -2.66 114 -3 114 C-2.9278125 112.8346875 -2.855625 111.669375 -2.78125 110.46875 C-2.2177578 100.76906399 -1.89323039 91.09180042 -1.875 81.375 C-1.87048828 80.39337891 -1.86597656 79.41175781 -1.86132812 78.40039062 C-1.87014577 74.07092568 -1.97324455 69.83476784 -2.4921875 65.53515625 C-3.32547053 57.97726418 -3.22376739 50.36692624 -3.24023438 42.7722168 C-3.24986568 40.09977179 -3.28093104 37.42812239 -3.3125 34.75585938 C-3.38307037 22.89388218 -2.20843585 11.65091475 0 0 Z " fill="#0A24F8" transform="translate(96,342)"/>
<path d="M0 0 C1.87491693 -0.02730462 3.74995225 -0.04653244 5.625 -0.0625 C6.66914063 -0.07410156 7.71328125 -0.08570313 8.7890625 -0.09765625 C11.96297519 -0.00112606 14.87233676 0.4707776 18 1 C38.52442486 3.5379182 57.99758711 2.58108874 78.45263672 0.30712891 C81.9879622 0.00104223 85.45341803 -0.05293406 89 0 C86.34287748 2.65712252 84.76390038 2.35163234 81.0625 2.5625 C77.75529052 2.75940555 75.15115836 2.94961388 72 4 C69.18441077 4.2045635 66.38149159 4.37218678 63.5625 4.5 C62.04279734 4.56925227 60.52325151 4.64205546 59.00390625 4.71875 C57.99565796 4.76418945 57.99565796 4.76418945 56.96704102 4.81054688 C54.89867467 5.00975902 53.00922772 5.48163936 51 6 C49.3352819 6.09070579 47.66717967 6.13008286 46 6.125 C44.7315625 6.12886719 44.7315625 6.12886719 43.4375 6.1328125 C41 6 41 6 39.11157227 5.50927734 C36.95397721 4.98890004 34.99228356 4.81271563 32.77734375 4.71875 C31.99166016 4.68136719 31.20597656 4.64398437 30.39648438 4.60546875 C28.75326237 4.53498901 27.11003316 4.4646773 25.46679688 4.39453125 C24.68240234 4.35714844 23.89800781 4.31976562 23.08984375 4.28125 C22.37691162 4.25095703 21.66397949 4.22066406 20.92944336 4.18945312 C19 4 19 4 16 3 C12.67902727 2.73038495 9.35840436 2.55500564 6.03125 2.37890625 C3 2 3 2 0 0 Z " fill="#0624F4" transform="translate(184,613)"/>
<path d="M0 0 C0.66 0 1.32 0 2 0 C1.79503906 0.64066406 1.59007812 1.28132813 1.37890625 1.94140625 C-3.53000787 17.70160422 -2.14357398 32.10296267 1 48 C1.34128867 49.99865784 1.6778307 51.99817132 2 54 C1.34 54 0.68 54 0 54 C-1.75747614 49.49646738 -2.19294408 45.82360189 -2 41 C-2.66 41 -3.32 41 -4 41 C-4.06058594 40.21753906 -4.12117188 39.43507813 -4.18359375 38.62890625 C-4.26738281 37.61699219 -4.35117187 36.60507812 -4.4375 35.5625 C-4.51871094 34.55316406 -4.59992188 33.54382813 -4.68359375 32.50390625 C-4.73211468 30.06359221 -4.73211468 30.06359221 -6 29 C-6.0979057 27.50261876 -6.12974864 26.00057108 -6.125 24.5 C-6.12757813 23.6853125 -6.13015625 22.870625 -6.1328125 22.03125 C-6 20 -6 20 -5 19 C-4.86628082 17.50234521 -4.76859544 16.00142407 -4.6875 14.5 C-4.21817901 9.0715205 -2.49305287 4.80057623 0 0 Z " fill="#0326EE" transform="translate(320,308)"/>
<path d="M0 0 C0.33 0 0.66 0 1 0 C3.40503907 6.31547665 3.37221507 12.13946355 3.37060547 18.83056641 C3.37497455 20.86316032 3.41133926 22.89357102 3.44921875 24.92578125 C3.47316775 32.98062894 3.38613977 39.57806327 -2.58544922 45.59838867 C-7.90410697 50.22459193 -14.28256967 50 -21 50 C-19.29558401 47.90140311 -18.45254723 47.06698634 -15.73046875 46.6640625 C-14.89128906 46.65117187 -14.05210937 46.63828125 -13.1875 46.625 C-9.47427975 46.32729284 -7.91723407 45.95335011 -4.5625 44.0625 C2.63602123 35.45938926 1.74130879 23.6458815 1 13 C0.57367519 9.93790511 0.04984502 6.97581419 -0.66015625 3.96875 C-1 2 -1 2 0 0 Z " fill="#0730F2" transform="translate(249,211)"/>
<path d="M0 0 C0 1.71878995 -0.00713622 3.43768846 -0.03515625 5.15625 C-0.04417969 5.9296875 -0.05320312 6.703125 -0.0625 7.5 C-0.07410156 8.2734375 -0.08570312 9.046875 -0.09765625 9.84375 C-0.08991544 12.18522404 -0.08991544 12.18522404 1 15 C3.36520728 15.89392119 3.36520728 15.89392119 6.2734375 16.43359375 C12.87101131 17.93393091 19.21413253 19.91090749 25.625 22.0625 C27.23568359 22.5894043 27.23568359 22.5894043 28.87890625 23.12695312 C29.90113281 23.46791016 30.92335937 23.80886719 31.9765625 24.16015625 C32.89518066 24.46574463 33.81379883 24.77133301 34.76025391 25.08618164 C37 26 37 26 39 28 C33.56550895 27.41747939 28.91224449 26.05030073 23.8125 24.125 C18.67882822 22.23053042 13.67353596 20.59682403 8.3125 19.4375 C3.25699305 18.24306704 0.41460293 16.96832232 -3 13 C-4.15118407 9.54644779 -4.21627775 7.732017 -3.1875 4.25 C-2 2 -2 2 0 0 Z " fill="#072BF0" transform="translate(114,577)"/>
<path d="M0 0 C3.40993531 1.41100772 5.11439624 2.81870204 7 6 C8.87773998 17.87779707 5.57016451 28.59699289 1.76953125 39.73095703 C1.0746891 41.77977142 0.41820457 43.83494953 -0.21875 45.90234375 C-2.08771532 51.85613101 -2.08771532 51.85613101 -3 54 C-3.99 54.495 -3.99 54.495 -5 55 C-3.90333648 49.31728902 -2.36504966 43.91328581 -0.5 38.4375 C-0.05824412 37.12251323 0.38317152 35.80741211 0.82421875 34.4921875 C1.46199167 32.59793836 2.10413598 30.70503615 2.76953125 28.8203125 C4.18484336 24.23836681 4.23296461 19.57768378 4.3125 14.8125 C4.33030518 14.1222876 4.34811035 13.4320752 4.36645508 12.72094727 C4.35943136 8.26412683 3.60051498 5.60121948 1 2 C0.67 1.34 0.34 0.68 0 0 Z " fill="#0A2CF4" transform="translate(331,414)"/>
<path d="M0 0 C4.47238653 1.41807378 8.71146306 3.11304374 13 5 C13 5.66 13 6.32 13 7 C13.99 7 14.98 7 16 7 C16 7.66 16 8.32 16 9 C16.66 9 17.32 9 18 9 C18 9.66 18 10.32 18 11 C14.00807706 9.52151002 10.4283407 7.63814878 6.75 5.5 C5.69296875 4.8915625 4.6359375 4.283125 3.546875 3.65625 C1 2 1 2 0 0 Z " fill="#0128F4" transform="translate(373,329)"/>
<path d="M0 0 C2.4375 0.8125 2.4375 0.8125 4.4375 3.8125 C4.13937643 7.91169904 3.56382393 11.26862679 1.4375 14.8125 C1.1075 13.8225 0.7775 12.8325 0.4375 11.8125 C0.7675 11.1525 1.0975 10.4925 1.4375 9.8125 C1.477492 7.81289988 1.48096799 5.81202758 1.4375 3.8125 C-0.8725 3.1525 -3.1825 2.4925 -5.5625 1.8125 C-2.5625 -0.1875 -2.5625 -0.1875 0 0 Z " fill="#043EEF" transform="translate(351.5625,90.1875)"/>
<path d="M0 0 C0.33 0.66 0.66 1.32 1 2 C-3.16704183 6.85743929 -7.41844996 11.53019508 -12 16 C-12.66 15.67 -13.32 15.34 -14 15 C-12.88200014 13.66079162 -11.75538103 12.32877444 -10.625 11 C-9.68527344 9.88625 -9.68527344 9.88625 -8.7265625 8.75 C-7.87191406 7.88375 -7.87191406 7.88375 -7 7 C-6.34 7 -5.68 7 -5 7 C-5 6.34 -5 5.68 -5 5 C-4.34 5 -3.68 5 -3 5 C-2.690625 4.360625 -2.38125 3.72125 -2.0625 3.0625 C-1 1 -1 1 0 0 Z " fill="#7583F0" transform="translate(154,235)"/>
<path d="M0 0 C0.66 0.33 1.32 0.66 2 1 C-1.31457218 5.69564393 -5.36279281 8.72469104 -10 12 C-10.66 11.67 -11.32 11.34 -12 11 C-10.38050958 9.49405319 -8.75424026 7.99539332 -7.125 6.5 C-5.76761719 5.24703125 -5.76761719 5.24703125 -4.3828125 3.96875 C-2 2 -2 2 0 2 C0 1.34 0 0.68 0 0 Z " fill="#6B7BF1" transform="translate(171,219)"/>
<path d="M0 0 C0.66 0.33 1.32 0.66 2 1 C-1.82573388 4.92496041 -5.61997324 8.68179791 -10 12 C-10.66 11.67 -11.32 11.34 -12 11 C-8.04 7.37 -4.08 3.74 0 0 Z " fill="#062CF5" transform="translate(226,262)"/>
<path d="M0 0 C0.66 0.33 1.32 0.66 2 1 C-1.96 4.465 -1.96 4.465 -6 8 C-6.66 7.34 -7.32 6.68 -8 6 C-5.36 4.02 -2.72 2.04 0 0 Z " fill="#8895F4" transform="translate(252,453)"/>
<path d="M0 0 C3.33717549 1.3809002 5.22301036 2.8201238 7 6 C6.6875 8.25 6.6875 8.25 6 10 C3.83516439 6.75274659 1.74661344 3.49322688 0 0 Z " fill="#012AF2" transform="translate(331,414)"/>
</svg>
