<?xml version="1.0" encoding="UTF-8"?>
<svg version="1.1" xmlns="http://www.w3.org/2000/svg" width="646" height="747">
<path d="M0 0 C0.67482422 1.30710937 0.67482422 1.30710937 1.36328125 2.640625 C6.68142318 12.60440309 13.04201524 20.27483169 21.19921875 28.11328125 C31.41863863 38.82039579 31.71346676 58.00097782 32.11328125 71.953125 C32 75 32 75 31 77 C30.34 77 29.68 77 29 77 C29 77.66 29 78.32 29 79 C28.34 79 27.68 79 27 79 C26.75636719 79.59296875 26.51273437 80.1859375 26.26171875 80.796875 C21.73122145 88.7077124 9.59182708 93.01767465 1.69335938 97.10839844 C-0.50757913 98.26725476 -2.65916198 99.50534008 -4.8125 100.75 C-7.65341402 102.34002929 -10.48421248 103.64569764 -13.51953125 104.8203125 C-19.36330692 107.12365932 -25.118742 109.61222935 -30.875 112.125 C-31.89335937 112.56714844 -32.91171875 113.00929688 -33.9609375 113.46484375 C-39.08880705 115.67045823 -39.08880705 115.67045823 -44.12060547 118.08178711 C-46.33461433 119.16348201 -48.60257744 119.78704885 -50.97460938 120.43310547 C-53.22466257 121.06288169 -55.44577697 121.76291852 -57.671875 122.47265625 C-73.42829764 127.43255499 -73.42829764 127.43255499 -81.65625 127.80078125 C-84.97059931 128.08250094 -87.89700406 129.13507888 -91.04296875 130.171875 C-95.69482283 131.47463995 -100.43703179 132.21320262 -105.19970703 132.99755859 C-108.23225509 133.49917788 -111.0779049 134.0259683 -114 135 C-117.09224276 135.30540669 -120.18511719 135.50832311 -123.28515625 135.71875 C-125.96382316 135.83496737 -125.96382316 135.83496737 -128 137 C-131.3406635 137.31648391 -134.68217611 137.51128525 -138.03125 137.71875 C-140.9264801 137.81288062 -140.9264801 137.81288062 -143 139 C-145.81594854 139.20794697 -148.61785111 139.37426834 -151.4375 139.5 C-157.30264963 139.70132605 -157.30264963 139.70132605 -163 141 C-165.1649902 141.09485782 -167.33293823 141.12988077 -169.5 141.125 C-170.6446875 141.12757813 -171.789375 141.13015625 -172.96875 141.1328125 C-176 141 -176 141 -179 140 C-180.44471422 139.86564019 -181.89394907 139.77644741 -183.34375 139.71875 C-184.17777344 139.68136719 -185.01179688 139.64398437 -185.87109375 139.60546875 C-186.73863281 139.57066406 -187.60617188 139.53585937 -188.5 139.5 C-190.21891326 139.43103914 -191.93767945 139.35828021 -193.65625 139.28125 C-194.41744141 139.25095703 -195.17863281 139.22066406 -195.96289062 139.18945312 C-198 139 -198 139 -201 138 C-202.89360304 137.84483374 -204.79018289 137.72498409 -206.6875 137.625 C-223.89931923 136.38054143 -239.68900129 131.23976764 -255.875 125.5 C-264.22851108 122.55135086 -272.4743605 119.87645382 -281.14453125 118.046875 C-284.74134454 116.72820748 -286.54269453 114.9028851 -289 112 C-290.33674137 108.15686857 -290.0871167 106.2972217 -288.9375 102.375 C-286.67585779 98.43536518 -285.10097741 96.9344233 -281 95 C-277.50668437 94.54463297 -274.22156083 94.38921959 -271 96 C-262.98346296 97.89356134 -254.95162958 98.23477573 -246.75 98.3125 C-245.82799805 98.32998291 -244.90599609 98.34746582 -243.95605469 98.36547852 C-238.49769407 98.36107187 -234.18489606 97.59534631 -229.08154297 95.68823242 C-225.9632403 94.65721023 -222.95464677 94.58569565 -219.6875 94.5 C-208.65745532 94.2087777 -198.28993825 90.58271069 -187.875 87.1875 C-186.79476562 86.83856689 -185.71453125 86.48963379 -184.6015625 86.13012695 C-176.04898445 83.36054581 -167.51077769 80.5469745 -158.99462891 77.66723633 C-157.5986722 77.20026574 -156.1996103 76.74252267 -154.79833984 76.29174805 C-149.60445587 74.60894748 -144.60700031 72.66895611 -139.625 70.4375 C-138.8611499 70.0967041 -138.0972998 69.7559082 -137.31030273 69.40478516 C-128.3329662 65.33389041 -119.66421098 60.6919011 -111 56 C-109.96101562 55.443125 -108.92203125 54.88625 -107.8515625 54.3125 C-97.64554282 48.80543953 -87.63065614 42.95960317 -77.62304688 37.10253906 C-72.42042194 34.0596509 -67.21130535 31.02799301 -62 28 C-61.01193359 27.42491699 -60.02386719 26.84983398 -59.00585938 26.25732422 C-45.62544451 18.49373794 -32.09895442 11.37104983 -18 5 C-17.34837891 4.70061523 -16.69675781 4.40123047 -16.02539062 4.09277344 C-10.41393964 1.5257029 -6.25111105 -0.27297428 0 0 Z " fill="#C90005" transform="translate(400,478)"/>
<path d="M0 0 C6.70874882 5.77871977 12.02918083 13.13907886 17.0625 20.375 C17.75980225 21.37285522 17.75980225 21.37285522 18.47119141 22.39086914 C18.9047998 23.0327417 19.3384082 23.67461426 19.78515625 24.3359375 C20.16551025 24.89845215 20.54586426 25.4609668 20.93774414 26.04052734 C23.57715213 30.90926753 24.2684477 35.44486326 24.4140625 40.9296875 C24.45273438 42.21875 24.49140625 43.5078125 24.53125 44.8359375 C24.56269758 46.18228707 24.59394511 47.52864132 24.625 48.875 C24.66323041 50.24481514 24.70228501 51.61460755 24.7421875 52.984375 C24.83622715 56.32278263 24.92188057 59.66118814 25 63 C23.97519531 63.55171875 22.95039063 64.1034375 21.89453125 64.671875 C18.12242589 66.82627816 14.94167047 69.39065226 11.6875 72.25 C6.26369382 77 6.26369382 77 4 77 C3.75507813 77.56332031 3.51015625 78.12664062 3.2578125 78.70703125 C1.76984687 81.41956487 -0.02502759 83.41557863 -2.125 85.6875 C-2.929375 86.56535156 -3.73375 87.44320312 -4.5625 88.34765625 C-5.366875 89.22292969 -6.17125 90.09820312 -7 91 C-8.37869655 92.53836177 -9.75391451 94.07985092 -11.125 95.625 C-11.78113281 96.36234375 -12.43726563 97.0996875 -13.11328125 97.859375 C-14.30824446 99.21515106 -15.49433347 100.57884481 -16.66796875 101.953125 C-20.09810507 105.96174037 -23.69571147 109.65353218 -27.5 113.3125 C-32.66714026 118.37422398 -36.39320634 123.75408903 -40 130 C-41.19125814 132.00867762 -42.38915307 134.01325621 -43.58935547 136.01660156 C-44.39138823 137.35812543 -45.18876371 138.70244706 -45.98095703 140.04980469 C-47.50185713 142.61948512 -48.87923228 144.87923228 -51 147 C-51.70273969 148.90743631 -52.40289839 150.81588944 -53.0859375 152.73046875 C-54.03295355 155.08182055 -55.16792105 157.18244495 -56.4375 159.375 C-58.68048318 163.28169744 -60.40718925 167.23836466 -62.0078125 171.4453125 C-62.75658829 173.37326276 -63.58949492 175.26883265 -64.4609375 177.14453125 C-66.83243251 182.63500939 -67.84104092 188.52916254 -69.10546875 194.34960938 C-70.22840421 199.32414193 -71.56934499 203.47754806 -74 208 C-74.64973892 209.92269679 -75.25258654 211.86175129 -75.8125 213.8125 C-77.40858311 219.15723808 -79.14382717 224.42902615 -81 229.6875 C-81.2369458 230.36337158 -81.4738916 231.03924316 -81.71801758 231.7355957 C-83.052987 235.49498194 -84.49120273 239.18291501 -86.03125 242.86328125 C-88.09413131 247.97587373 -89.34760401 253.11950286 -90.5 258.5 C-93.6353434 273.13881022 -99.6518923 285.47515717 -108.25 297.6875 C-108.90476318 298.62480957 -108.90476318 298.62480957 -109.57275391 299.58105469 C-110.66211113 301.09369774 -111.82524196 302.5526812 -113 304 C-113.66 304 -114.32 304 -115 304 C-115.12375 304.86625 -115.12375 304.86625 -115.25 305.75 C-116.32577805 308.97733416 -117.1255836 310.0837224 -120 312 C-123.7013812 312.44898411 -127.30309811 312.50465645 -131 312 C-133.75823748 309.24176252 -133.43039906 307.48575643 -133.5625 303.625 C-133.47761516 296.68566449 -131.64446891 292.71321047 -127.87890625 287.0078125 C-124.75610256 282.00872966 -122.91777752 276.54973289 -121 271 C-120.74105957 270.3402417 -120.48211914 269.6804834 -120.21533203 269.00073242 C-117.92723656 262.87156336 -117.49784855 257.19408591 -117.375 250.6875 C-117.32387796 248.7538087 -117.2693269 246.82020425 -117.2109375 244.88671875 C-117.18459229 243.62154419 -117.18459229 243.62154419 -117.15771484 242.33081055 C-117 240 -117 240 -116.49511719 237.98583984 C-115.92779535 235.71039811 -115.87050101 233.68368172 -115.8671875 231.33984375 C-115.86589844 230.46392578 -115.86460938 229.58800781 -115.86328125 228.68554688 C-115.86908203 227.32526367 -115.86908203 227.32526367 -115.875 225.9375 C-115.87113281 225.02677734 -115.86726563 224.11605469 -115.86328125 223.17773438 C-115.86457031 222.30310547 -115.86585937 221.42847656 -115.8671875 220.52734375 C-115.86831543 219.73062256 -115.86944336 218.93390137 -115.87060547 218.11303711 C-115.92063857 215.80866547 -115.92063857 215.80866547 -117 213 C-117.10666574 211.4247864 -117.158604 209.84555942 -117.17700195 208.2668457 C-117.18983719 207.30345779 -117.20267242 206.34006989 -117.21589661 205.3474884 C-117.22697701 203.77749336 -117.22697701 203.77749336 -117.23828125 202.17578125 C-117.246353 201.08275192 -117.25442474 199.9897226 -117.26274109 198.86357117 C-117.27659817 196.53414497 -117.28731302 194.20469832 -117.29516602 191.87524414 C-117.30653938 189.53761675 -117.32674954 187.20001215 -117.35668945 184.86254883 C-117.63760524 162.90874464 -114.94796505 142.13276993 -109 121 C-108.68160156 119.85273438 -108.36320312 118.70546875 -108.03515625 117.5234375 C-106.22394684 111.31149841 -104.03718287 105.47122187 -101.24609375 99.6328125 C-100.31107738 97.65726068 -99.43986831 95.65130302 -98.6015625 93.6328125 C-96.93039092 89.84210624 -95.02158275 86.32271329 -92.9375 82.75 C-92.58623047 82.13898438 -92.23496094 81.52796875 -91.87304688 80.8984375 C-90.31934581 78.2080969 -88.72395895 75.58593843 -87 73 C-86.34 73 -85.68 73 -85 73 C-84.76410156 72.11828125 -84.52820313 71.2365625 -84.28515625 70.328125 C-82.85740571 66.63072847 -81.16228388 64.60161973 -78.4375 61.75 C-75.35343369 58.63136653 -75.35343369 58.63136653 -73 55 C-72.34 55 -71.68 55 -71 55 C-71 54.34 -71 53.68 -71 53 C-70.34 53 -69.68 53 -69 53 C-68.731875 52.41734375 -68.46375 51.8346875 -68.1875 51.234375 C-66.98519009 48.97213399 -65.66174087 47.19423682 -64 45.25 C-63.484375 44.63640625 -62.96875 44.0228125 -62.4375 43.390625 C-61 42 -61 42 -59 42 C-58.64615234 41.15888672 -58.64615234 41.15888672 -58.28515625 40.30078125 C-54.24538902 33.0684928 -46.66224174 27.55166938 -40.109375 22.671875 C-37.2900886 20.43732948 -34.85635269 17.91640774 -32.41015625 15.28515625 C-31 14 -31 14 -29 14 C-29 13.34 -29 12.68 -29 12 C-23.25 9 -23.25 9 -21 9 C-21 8.34 -21 7.68 -21 7 C-18.44560598 5.62825139 -15.88335569 4.27774592 -13.3125 2.9375 C-12.59126953 2.54755859 -11.87003906 2.15761719 -11.12695312 1.75585938 C-4.07600842 -1.88229931 -4.07600842 -1.88229931 0 0 Z " fill="#CA0003" transform="translate(210,197)"/>
<path d="M0 0 C3.49580824 3.6351099 4.81918346 6.9059096 6.0625 11.75 C7.52740541 17.24627896 9.13799143 22.62745297 11 28 C15.16073353 40.48220059 13.3856565 59.08092413 8 71 C7.63777344 71.94230469 7.27554688 72.88460937 6.90234375 73.85546875 C2.3882109 84.94952406 -5.87324057 95.73916479 -16.94433594 100.90771484 C-33.50561859 107.8548702 -53.19103232 110.75049026 -70.40625 104.1328125 C-71.69015625 103.57207031 -71.69015625 103.57207031 -73 103 C-74.28390625 102.53207031 -74.28390625 102.53207031 -75.59375 102.0546875 C-80.89460833 100.0066286 -84.13867051 97.98425138 -87 93 C-88.24956946 88.11992469 -87.89998614 84.53527048 -85.33984375 80.16796875 C-80.15762824 73.39718624 -80.15762824 73.39718624 -76.734375 72.22265625 C-76.16203125 72.14917969 -75.5896875 72.07570313 -75 72 C-75 71.34 -75 70.68 -75 70 C-73.20703125 68.6328125 -73.20703125 68.6328125 -70.8125 67.125 C-55.42059623 57.13587056 -41.03723482 38.73127178 -32.5625 22.5 C-26.32243223 10.81557781 -14.89433974 -4.96477991 0 0 Z " fill="#F0F0F1" transform="translate(270,304)"/>
<path d="M0 0 C4.09900287 2.22029322 7.48959149 4.95438425 11 8 C11.99 8.66 12.98 9.32 14 10 C14 10.66 14 11.32 14 12 C14.66 12 15.32 12 16 12 C16 12.66 16 13.32 16 14 C16.58265625 14.268125 17.1653125 14.53625 17.765625 14.8125 C20.02786601 16.01480991 21.80576318 17.33825913 23.75 19 C24.67039062 19.7734375 24.67039062 19.7734375 25.609375 20.5625 C27 22 27 22 27 24 C27.66 24 28.32 24 29 24 C29 24.66 29 25.32 29 26 C30.98 26.66 32.96 27.32 35 28 C35 28.66 35 29.32 35 30 C35.721875 30.28875 36.44375 30.5775 37.1875 30.875 C41.09375 32.4375 41.09375 32.4375 45 34 C45 34.66 45 35.32 45 36 C45.99 36 46.98 36 48 36 C48 36.66 48 37.32 48 38 C48.598125 38.12375 49.19625 38.2475 49.8125 38.375 C52 39 52 39 55 41 C56.65549531 41.38499891 58.3222433 41.72793135 60 42 C60 42.66 60 43.32 60 44 C60.598125 44.144375 61.19625 44.28875 61.8125 44.4375 C63.56150404 44.8872439 65.28677023 45.42892341 67 46 C67 46.66 67 47.32 67 48 C68.36125 48.2784375 68.36125 48.2784375 69.75 48.5625 C73.27519526 50.12172098 74.60193557 51.55938212 76.3046875 55.0078125 C78.0241019 59.93422456 77.55669352 63.66877636 75.5625 68.4375 C70.16074438 76.73914548 62.6367314 82.42183018 54 87 C53.32066406 87.37898438 52.64132812 87.75796875 51.94140625 88.1484375 C49.99088401 89.19237898 48.02831925 90.11726918 46 91 C44.98486328 91.45052734 44.98486328 91.45052734 43.94921875 91.91015625 C30.02014176 97.08243873 13.37762179 94.73013611 0 89 C-3.25961084 87.29734248 -6.35005121 85.57445167 -9 83 C-9 82.34 -9 81.68 -9 81 C-9.66 81 -10.32 81 -11 81 C-15 75.58823529 -15 75.58823529 -15 73 C-15.66 73 -16.32 73 -17 73 C-18.42258812 69.17679443 -19.24042276 66.08718695 -19 62 C-19.66 62 -20.32 62 -21 62 C-22.75747614 57.49646738 -23.19294408 53.82360189 -23 49 C-23.66 49 -24.32 49 -25 49 C-25.06058594 48.21753906 -25.12117188 47.43507813 -25.18359375 46.62890625 C-25.26738281 45.61699219 -25.35117187 44.60507812 -25.4375 43.5625 C-25.51871094 42.55316406 -25.59992188 41.54382813 -25.68359375 40.50390625 C-25.73211468 38.06359221 -25.73211468 38.06359221 -27 37 C-27.0979057 35.50261876 -27.12974864 34.00057108 -27.125 32.5 C-27.12757813 31.6853125 -27.13015625 30.870625 -27.1328125 30.03125 C-27 28 -27 28 -26 27 C-25.86628082 25.50234521 -25.76859544 24.00142407 -25.6875 22.5 C-25.21817901 17.0715205 -23.49305287 12.80057623 -21 8 C-20.34 8 -19.68 8 -19 8 C-18.938125 7.4225 -18.87625 6.845 -18.8125 6.25 C-15.9197233 -1.76076625 -7.00037084 -1.35234437 0 0 Z " fill="#FEFCF1" transform="translate(341,300)"/>
<path d="M0 0 C3.70070392 1.72699516 5.92602423 3.4870579 8 7 C9.35034923 17.58381826 7.46214648 26.98988084 4 37 C3.72671875 37.84304688 3.4534375 38.68609375 3.171875 39.5546875 C2.69503817 41.02070713 2.20363328 42.48209734 1.6953125 43.9375 C1.22948317 45.31928589 0.80766498 46.71664556 0.4296875 48.125 C-2.77672441 59.4894979 -10.77746972 70.44339085 -20.9375 76.5625 C-33.79268099 83.17560669 -52.96956314 91.28102823 -67.53515625 87.30859375 C-79.20818743 83.38474783 -91.23876034 77.52247932 -97 66 C-97.45567941 61.26093417 -96.89900898 57.40470153 -94.3125 53.36328125 C-86.86834 44.68285897 -77.53395642 39.67599112 -67.5 34.5625 C-66.80511475 34.20784668 -66.11022949 33.85319336 -65.39428711 33.48779297 C-62.41841201 32.01502167 -60.36468747 31 -57 31 C-57 30.34 -57 29.68 -57 29 C-56.01902344 28.52691406 -55.03804688 28.05382812 -54.02734375 27.56640625 C-46.77502227 24.02804821 -39.66535603 20.35191031 -32.75 16.1875 C-32.13116943 15.8150415 -31.51233887 15.44258301 -30.87475586 15.05883789 C-28.3972981 13.54550212 -26.00775176 12.00594565 -23.703125 10.23828125 C-22 9 -22 9 -20 9 C-20 8.34 -20 7.68 -20 7 C-18.390625 5.5625 -18.390625 5.5625 -16.25 4 C-15.20585937 3.2265625 -15.20585937 3.2265625 -14.140625 2.4375 C-9.1948079 -0.88377864 -5.88027159 -1.42906999 0 0 Z " fill="#F3F3F1" transform="translate(330,413)"/>
<path d="M0 0 C0.05422947 1.4370809 0.09289723 2.87475462 0.125 4.3125 C0.14820313 5.11300781 0.17140625 5.91351563 0.1953125 6.73828125 C0 9 0 9 -2 12 C-2.66 12 -3.32 12 -4 12 C-4.2475 12.55171875 -4.495 13.1034375 -4.75 13.671875 C-6.24234474 16.45136707 -8.03672523 18.7814707 -10 21.25 C-10.70125 22.14203125 -11.4025 23.0340625 -12.125 23.953125 C-13.053125 24.96632813 -13.053125 24.96632813 -14 26 C-14.66 26 -15.32 26 -16 26 C-16.1546875 26.8353125 -16.1546875 26.8353125 -16.3125 27.6875 C-17.14178408 30.4769101 -18.34299056 32.6139064 -20 35 C-20.66 35 -21.32 35 -22 35 C-22 35.66 -22 36.32 -22 37 C-22.66 37 -23.32 37 -24 37 C-24.061875 37.556875 -24.12375 38.11375 -24.1875 38.6875 C-25.34151307 41.97199875 -27.47400137 43.65442984 -30 46 C-30.53625 46.598125 -31.0725 47.19625 -31.625 47.8125 C-33 49 -33 49 -36 49 C-36 49.66 -36 50.32 -36 51 C-37.609375 52.5078125 -37.609375 52.5078125 -39.75 54.125 C-40.44609375 54.66382813 -41.1421875 55.20265625 -41.859375 55.7578125 C-44 57 -44 57 -48 57 C-48.66 58.32 -49.32 59.64 -50 61 C-50.66 61 -51.32 61 -52 61 C-52 61.66 -52 62.32 -52 63 C-52.66 63 -53.32 63 -54 63 C-54 63.66 -54 64.32 -54 65 C-54.66 65 -55.32 65 -56 65 C-56.25910156 65.5775 -56.51820313 66.155 -56.78515625 66.75 C-58.09337457 69.17293811 -59.58865731 70.96428504 -61.4375 73 C-63.27897059 75.03635624 -65.00695871 77.00980004 -66.59765625 79.25 C-67.06042969 79.8275 -67.52320313 80.405 -68 81 C-68.66 81 -69.32 81 -70 81 C-70 81.66 -70 82.32 -70 83 C-70.66 83 -71.32 83 -72 83 C-72.2475 83.804375 -72.495 84.60875 -72.75 85.4375 C-74 88 -74 88 -76.125 88.8125 C-77.053125 88.9053125 -77.053125 88.9053125 -78 89 C-78 89.66 -78 90.32 -78 91 C-78.66 91 -79.32 91 -80 91 C-80 91.66 -80 92.32 -80 93 C-80.66 93 -81.32 93 -82 93 C-82 93.66 -82 94.32 -82 95 C-88.625 99 -88.625 99 -92 99 C-92 99.66 -92 100.32 -92 101 C-93.6796875 102.62109375 -93.6796875 102.62109375 -95.875 104.4375 C-98.46193722 106.58400884 -100.11184374 108.16776562 -102 111 C-102.66 111 -103.32 111 -104 111 C-104 111.66 -104 112.32 -104 113 C-104.66 113 -105.32 113 -106 113 C-106 113.66 -106 114.32 -106 115 C-106.66 115 -107.32 115 -108 115 C-108 115.66 -108 116.32 -108 117 C-108.66 117 -109.32 117 -110 117 C-110.66 118.32 -111.32 119.64 -112 121 C-112.66 121 -113.32 121 -114 121 C-114 121.66 -114 122.32 -114 123 C-114.66 123 -115.32 123 -116 123 C-116.3403125 124.0828125 -116.3403125 124.0828125 -116.6875 125.1875 C-118 128 -118 128 -120.625 130.3125 C-123.40958281 133.46347528 -123.12216182 134.68294017 -123.00292969 138.71069336 C-122.99777633 142.73761302 -123.67946631 146.65672908 -124.3125 150.625 C-124.43044922 151.44484375 -124.54839844 152.2646875 -124.66992188 153.109375 C-125.4226414 157.91133954 -126.53404317 161.73120078 -129 166 C-129.66 166 -130.32 166 -131 166 C-131.06469482 165.38181396 -131.12938965 164.76362793 -131.19604492 164.12670898 C-133.25070155 145.12333973 -135.30936118 129.44131233 -149.4375 115.625 C-155.10055052 110.08651743 -160.85371899 104.08128114 -162 96 C-157.98348398 93.99174199 -154.21667424 94.61235814 -150.08203125 95.9296875 C-148.03331198 96.66773544 -145.99343021 97.43094774 -143.96484375 98.22265625 C-137.17524476 100.00280144 -131.14795018 96.61196332 -125 93.9375 C-124.06881348 93.53337891 -123.13762695 93.12925781 -122.17822266 92.71289062 C-110.73005735 87.65821615 -100.56674548 81.96969426 -91.109375 73.6875 C-89 72 -89 72 -87 72 C-87 71.34 -87 70.68 -87 70 C-84.953125 68.125 -84.953125 68.125 -82.25 66 C-81.36828125 65.29875 -80.4865625 64.5975 -79.578125 63.875 C-77.42201936 62.30692317 -75.42251379 61.08673516 -73 60 C-73 59.34 -73 58.68 -73 58 C-71.35648543 56.63823078 -69.68477344 55.31037934 -68 54 C-65.37674162 51.50470545 -63.03637554 49.04676855 -60.8125 46.1875 C-60.214375 45.465625 -59.61625 44.74375 -59 44 C-58.34 44 -57.68 44 -57 44 C-57 43.34 -57 42.68 -57 42 C-56.34 42 -55.68 42 -55 42 C-55 41.34 -55 40.68 -55 40 C-54.34 40 -53.68 40 -53 40 C-53 39.34 -53 38.68 -53 38 C-51.5390625 36.4921875 -51.5390625 36.4921875 -49.625 34.875 C-48.99851562 34.33617187 -48.37203125 33.79734375 -47.7265625 33.2421875 C-46 32 -46 32 -44 32 C-44 31.34 -44 30.68 -44 30 C-42.28048026 28.46148234 -40.49812503 26.99268241 -38.6875 25.5625 C-34.83532998 22.54764431 -34.83532998 22.54764431 -31.26953125 19.21484375 C-30 18 -30 18 -28 18 C-27.62875 17.13375 -27.62875 17.13375 -27.25 16.25 C-25.81700012 13.67060021 -24.21575324 11.93878408 -22 10 C-21.34 10 -20.68 10 -20 10 C-20 9.34 -20 8.68 -20 8 C-15.12903646 1.9924783 -7.56352356 -3.90331841 0 0 Z " fill="#02644A" transform="translate(569,380)"/>
<path d="M0 0 C1.8125 1.0625 1.8125 1.0625 3 3 C3.67765069 9.30613763 1.85317658 13.16410029 -1.125 18.5 C-1.50398437 19.22058594 -1.88296875 19.94117187 -2.2734375 20.68359375 C-4.65428969 25.07229795 -7.32674059 28.80681874 -10.68798828 32.49902344 C-12.43718983 34.50015688 -13.71233892 36.68221006 -15 39 C-15.66 39.99 -16.32 40.98 -17 42 C-17.66 42 -18.32 42 -19 42 C-19.37125 42.82757813 -19.37125 42.82757813 -19.75 43.671875 C-21.24234474 46.45136707 -23.03672523 48.7814707 -25 51.25 C-25.70125 52.14203125 -26.4025 53.0340625 -27.125 53.953125 C-27.74375 54.62859375 -28.3625 55.3040625 -29 56 C-29.66 56 -30.32 56 -31 56 C-31.25910156 56.72574219 -31.51820313 57.45148438 -31.78515625 58.19921875 C-33.04474561 61.10315949 -34.50801206 63.31038983 -36.4375 65.8125 C-37.33275391 66.99779297 -37.33275391 66.99779297 -38.24609375 68.20703125 C-38.82488281 68.79871094 -39.40367187 69.39039063 -40 70 C-40.99 70 -41.98 70 -43 70 C-43 70.66 -43 71.32 -43 72 C-43.66 72 -44.32 72 -45 72 C-45.12375 72.61875 -45.2475 73.2375 -45.375 73.875 C-46 76 -46 76 -48 78 C-50.625 78.125 -50.625 78.125 -53 78 C-53.495 79.98 -53.495 79.98 -54 82 C-54.99 82 -55.98 82 -57 82 C-57 82.66 -57 83.32 -57 84 C-63.625 88 -63.625 88 -67 88 C-67 88.66 -67 89.32 -67 90 C-68.32 90 -69.64 90 -71 90 C-71 90.66 -71 91.32 -71 92 C-72.98 92 -74.96 92 -77 92 C-77 92.66 -77 93.32 -77 94 C-77.66 94 -78.32 94 -79 94 C-79 94.66 -79 95.32 -79 96 C-80.42578125 97.5078125 -80.42578125 97.5078125 -82.3125 99.125 C-82.92738281 99.66382813 -83.54226563 100.20265625 -84.17578125 100.7578125 C-86 102 -86 102 -89 102 C-89 102.66 -89 103.32 -89 104 C-89.66 104 -90.32 104 -91 104 C-91 104.66 -91 105.32 -91 106 C-91.66 106 -92.32 106 -93 106 C-93.144375 106.61875 -93.28875 107.2375 -93.4375 107.875 C-94 110 -94 110 -95 112 C-95.66 112 -96.32 112 -97 112 C-97 112.66 -97 113.32 -97 114 C-97.66 114 -98.32 114 -99 114 C-99.185625 114.86625 -99.185625 114.86625 -99.375 115.75 C-100 118 -100 118 -101.09375 119.6640625 C-102.41645032 123.07343661 -101.69385569 126.11521364 -101.125 129.625 C-100.24037269 135.81111722 -99.68062946 141.74033734 -100 148 C-100.01804688 148.84046875 -100.03609375 149.6809375 -100.0546875 150.546875 C-100.42776788 157.78902355 -102.87319581 162.87319581 -108 168 C-108.99 168 -109.98 168 -111 168 C-111.99555929 165.01332214 -112.13777992 162.96477999 -112.17578125 159.84375 C-112.19962891 158.82023438 -112.22347656 157.79671875 -112.24804688 156.7421875 C-112.29039058 154.61217081 -112.32197356 152.48190781 -112.34179688 150.3515625 C-112.62139782 139.92179702 -115.35441958 131.25733106 -121.6875 122.9375 C-122.11595215 122.35532715 -122.5444043 121.7731543 -122.98583984 121.17333984 C-126.99338102 115.81573525 -131.38196633 110.84112709 -136 106 C-135.505 105.01 -135.505 105.01 -135 104 C-129.54230189 103.88861841 -124.38490641 104.08342019 -119 105 C-118.44570312 104.2059375 -117.89140625 103.411875 -117.3203125 102.59375 C-116.59585938 101.5728125 -115.87140625 100.551875 -115.125 99.5 C-114.04605469 97.96859375 -114.04605469 97.96859375 -112.9453125 96.40625 C-112.30335938 95.6121875 -111.66140625 94.818125 -111 94 C-110.34 94 -109.68 94 -109 94 C-108.75765625 93.42507812 -108.5153125 92.85015625 -108.265625 92.2578125 C-101.89649601 80.89560091 -85.97487226 71.76274152 -74 67.625 C-62.27152151 63.53870845 -53.97158503 55.90782521 -46.28808594 46.3203125 C-45.86301758 45.88460937 -45.43794922 45.44890625 -45 45 C-44.34 45 -43.68 45 -43 45 C-42.7525 44.278125 -42.505 43.55625 -42.25 42.8125 C-40.86935217 39.70604238 -39.14973902 37.63333584 -37 35 C-35.81509707 33.432038 -34.63029135 31.86399945 -33.44848633 30.29370117 C-29.76593514 25.42047032 -26.08829843 20.81413169 -21.640625 16.60546875 C-19.82346213 14.82724509 -18.20402763 12.9409955 -16.5625 11 C-6.40576199 -0.68595474 -6.40576199 -0.68595474 0 0 Z " fill="#026546" transform="translate(353,90)"/>
<path d="M0 0 C4.09900287 2.22029322 7.48959149 4.95438425 11 8 C11.99 8.66 12.98 9.32 14 10 C14 10.66 14 11.32 14 12 C14.66 12 15.32 12 16 12 C16 12.66 16 13.32 16 14 C16.58265625 14.268125 17.1653125 14.53625 17.765625 14.8125 C20.02786601 16.01480991 21.80576318 17.33825913 23.75 19 C24.67039062 19.7734375 24.67039062 19.7734375 25.609375 20.5625 C27 22 27 22 27 24 C27.66 24 28.32 24 29 24 C29 24.66 29 25.32 29 26 C30.98 26.66 32.96 27.32 35 28 C35 28.66 35 29.32 35 30 C35.721875 30.28875 36.44375 30.5775 37.1875 30.875 C39.79166667 31.91666667 42.39583333 32.95833333 45 34 C45 34.66 45 35.32 45 36 C45.99 36 46.98 36 48 36 C48 36.66 48 37.32 48 38 C48.598125 38.12375 49.19625 38.2475 49.8125 38.375 C52 39 52 39 55 41 C56.65549531 41.38499891 58.3222433 41.72793135 60 42 C60 42.66 60 43.32 60 44 C60.598125 44.144375 61.19625 44.28875 61.8125 44.4375 C63.56150404 44.8872439 65.28677023 45.42892341 67 46 C67 46.66 67 47.32 67 48 C68.36125 48.2784375 68.36125 48.2784375 69.75 48.5625 C73.27519526 50.12172098 74.60193557 51.55938212 76.3046875 55.0078125 C78.0241019 59.93422456 77.55669352 63.66877636 75.5625 68.4375 C70.16074438 76.73914548 62.6367314 82.42183018 54 87 C53.32066406 87.37898438 52.64132812 87.75796875 51.94140625 88.1484375 C49.99088401 89.19237898 48.02831925 90.11726918 46 91 C44.98486328 91.45052734 44.98486328 91.45052734 43.94921875 91.91015625 C30.02014176 97.08243873 13.37762179 94.73013611 0 89 C-3.25961084 87.29734248 -6.35005121 85.57445167 -9 83 C-9 82.34 -9 81.68 -9 81 C-9.66 81 -10.32 81 -11 81 C-15 75.58823529 -15 75.58823529 -15 73 C-15.66 73 -16.32 73 -17 73 C-18.42258812 69.17679443 -19.24042276 66.08718695 -19 62 C-16.5615972 64.4384028 -15.41079629 66.9135688 -13.875 70 C-13.33617187 71.0725 -12.79734375 72.145 -12.2421875 73.25 C-11 76 -11 76 -11 78 C-10.34 78 -9.68 78 -9 78 C-8.34 78.721875 -7.68 79.44375 -7 80.1875 C-3.32997801 83.98667233 1.20560079 85.93308123 6 88 C6.71542969 88.32355469 7.43085938 88.64710938 8.16796875 88.98046875 C19.97234198 93.43061299 35.21022044 92.45402382 46.67578125 87.69140625 C54.94442185 83.48421309 62.58102029 78.77745676 69 72 C69.7425 71.236875 70.485 70.47375 71.25 69.6875 C73.55925155 66.1411494 74.17434768 63.20925102 74 59 C72.2134857 52.6195918 67.36439203 50.25436475 62 47 C58.25098788 44.95514563 54.44132017 43.04054813 50.625 41.125 C37.1260989 34.20098089 26.56329758 25.98183911 15.46875 15.640625 C5.22856684 5.65908103 5.22856684 5.65908103 -8 2 C-12.19188843 3.42097913 -15.61042046 5.15275318 -19 8 C-18.68011555 5.01441179 -18.0308714 4.02981454 -15.83203125 1.90625 C-10.8468554 -1.44928905 -5.76621043 -1.11392701 0 0 Z " fill="#0421F2" transform="translate(341,300)"/>
<path d="M0 0 C0.66 0.33 1.32 0.66 2 1 C4.20266316 1.38787256 6.41224568 1.73709495 8.625 2.0625 C10.40777344 2.32740234 10.40777344 2.32740234 12.2265625 2.59765625 C13.59941406 2.79681641 13.59941406 2.79681641 15 3 C15 3.33 15 3.66 15 4 C13.25008666 4.02715383 11.50005055 4.04646551 9.75 4.0625 C8.28820312 4.07990234 8.28820312 4.07990234 6.796875 4.09765625 C4.32129537 4.01121841 2.36948872 3.64350325 0 3 C-4.17331762 2.848243 -7.93838925 3.01536709 -12 4 C-12.89816754 6.69450262 -13.25217363 8.63611405 -13.375 11.4375 C-13.42398438 12.19933594 -13.47296875 12.96117187 -13.5234375 13.74609375 C-13.15195209 16.17751267 -13.15195209 16.17751267 -11.08203125 18.109375 C-6.99514406 20.61641353 -2.93270872 21.64208614 1.6875 22.8125 C8.56962479 24.65073383 15.12523733 26.73469799 21.6875 29.5 C38.52574472 36.41662989 56.90612182 39.67034733 75 41 C76.258125 41.10957031 77.51625 41.21914063 78.8125 41.33203125 C109.03096614 43.65414699 138.26105158 40.62992076 167.8984375 34.8515625 C168.85016846 34.66706543 169.80189941 34.48256836 170.7824707 34.29248047 C172.58179286 33.9413701 174.37991494 33.5840282 176.17651367 33.21923828 C180.5252131 32.3594556 184.53975398 31.79759013 189 32 C186.48722514 34.51277486 184.91085346 34.59725714 181.44140625 35.25390625 C180.33345703 35.46853516 179.22550781 35.68316406 178.08398438 35.90429688 C176.92189453 36.12150391 175.75980469 36.33871094 174.5625 36.5625 C172.27183436 36.99972778 169.98145541 37.438461 167.69140625 37.87890625 C166.16302124 38.16616577 166.16302124 38.16616577 164.60375977 38.45922852 C161.90444158 38.96701587 161.90444158 38.96701587 159 40 C155.90775724 40.30540669 152.81488281 40.50832311 149.71484375 40.71875 C147.03617684 40.83496737 147.03617684 40.83496737 145 42 C141.6593365 42.31648391 138.31782389 42.51128525 134.96875 42.71875 C132.0735199 42.81288062 132.0735199 42.81288062 130 44 C127.18405146 44.20794697 124.38214889 44.37426834 121.5625 44.5 C115.69735037 44.70132605 115.69735037 44.70132605 110 46 C107.8350098 46.09485782 105.66706177 46.12988077 103.5 46.125 C102.3553125 46.12757813 101.210625 46.13015625 100.03125 46.1328125 C97 46 97 46 94 45 C92.55528578 44.86564019 91.10605093 44.77644741 89.65625 44.71875 C88.82222656 44.68136719 87.98820312 44.64398437 87.12890625 44.60546875 C86.26136719 44.57066406 85.39382812 44.53585937 84.5 44.5 C82.78108674 44.43103914 81.06232055 44.35828021 79.34375 44.28125 C78.58255859 44.25095703 77.82136719 44.22066406 77.03710938 44.18945312 C75 44 75 44 72 43 C70.10639696 42.84483374 68.20981711 42.72498409 66.3125 42.625 C49.10068077 41.38054143 33.31099871 36.23976764 17.125 30.5 C8.77148892 27.55135086 0.5256395 24.87645382 -8.14453125 23.046875 C-11.74134454 21.72820748 -13.54269453 19.9028851 -16 17 C-17.33674137 13.15686857 -17.0871167 11.2972217 -15.9375 7.375 C-11.95855069 0.443927 -7.46460214 -0.62205018 0 0 Z " fill="#0629F4" transform="translate(127,573)"/>
<path d="M0 0 C0.33 0 0.66 0 1 0 C0.91525592 12.77941757 0.82024337 25.55871493 0.71247292 38.33796024 C0.66273461 44.27321645 0.61640429 50.20845677 0.578125 56.14379883 C0.54098631 61.88216695 0.4945526 67.62039434 0.44193649 73.35864067 C0.42354321 75.53722071 0.40838104 77.71583073 0.39665604 79.89445686 C0.3305817 91.75786568 0.01310258 103.28764749 -2 115 C-2.33 115 -2.66 115 -3 115 C-3.02911321 111.9166866 -3.04683682 108.83340875 -3.0625 105.75 C-3.07087891 104.87730469 -3.07925781 104.00460937 -3.08789062 103.10546875 C-3.09111328 102.26113281 -3.09433594 101.41679687 -3.09765625 100.546875 C-3.10551147 99.38430176 -3.10551147 99.38430176 -3.11352539 98.19824219 C-2.99984199 95.99694047 -2.53339448 94.13176278 -2 92 C-1.91047787 90.44856455 -1.86938443 88.89385834 -1.8671875 87.33984375 C-1.86589844 86.46392578 -1.86460938 85.58800781 -1.86328125 84.68554688 C-1.86714844 83.77869141 -1.87101562 82.87183594 -1.875 81.9375 C-1.87113281 81.02677734 -1.86726563 80.11605469 -1.86328125 79.17773438 C-1.86457031 78.30310547 -1.86585937 77.42847656 -1.8671875 76.52734375 C-1.86831543 75.73062256 -1.86944336 74.93390137 -1.87060547 74.11303711 C-1.92063857 71.80866547 -1.92063857 71.80866547 -3 69 C-3.10198244 67.38758275 -3.14839226 65.77135062 -3.16113281 64.15576172 C-3.17074036 63.16977997 -3.1803479 62.18379822 -3.19024658 61.16793823 C-3.1966214 59.56500412 -3.1966214 59.56500412 -3.203125 57.9296875 C-3.20882507 56.82005646 -3.21452515 55.71042542 -3.22039795 54.56716919 C-3.22985788 52.20836338 -3.23638586 49.8495443 -3.24023438 47.49072266 C-3.24983099 43.93757733 -3.28079884 40.38503804 -3.3125 36.83203125 C-3.36966233 24.22640773 -2.87092642 12.29994945 0 0 Z " fill="#1A37F7" transform="translate(96,341)"/>
<path d="M0 0 C0.495 1.485 0.495 1.485 1 3 C0.67 3.66 0.34 4.32 0 5 C-0.66 5 -1.32 5 -2 5 C-2 5.66 -2 6.32 -2 7 C-2.66 7 -3.32 7 -4 7 C-4.24363281 7.59296875 -4.48726563 8.1859375 -4.73828125 8.796875 C-9.26877855 16.7077124 -21.40817292 21.01767465 -29.30664062 25.10839844 C-31.50757913 26.26725476 -33.65916198 27.50534008 -35.8125 28.75 C-38.65341402 30.34002929 -41.48421248 31.64569764 -44.51953125 32.8203125 C-50.36330692 35.12365932 -56.118742 37.61222935 -61.875 40.125 C-62.89335937 40.56714844 -63.91171875 41.00929688 -64.9609375 41.46484375 C-70.10255783 43.66218607 -70.10255783 43.66218607 -75.11376953 46.13232422 C-77.76582079 47.35228153 -80.12308784 47.13076873 -83 47 C-80.45359942 44.45359942 -78.23264025 43.94481762 -74.8125 42.8125 C-68.92869966 40.79733271 -63.33838811 38.41042119 -57.73608398 35.71679688 C-54.59537967 34.2089373 -51.4547606 32.74867213 -48.234375 31.41796875 C-40.21476301 28.09732421 -32.6163766 24.283544 -25.0625 20 C-24.19866699 19.51378174 -23.33483398 19.02756348 -22.44482422 18.52661133 C-13.70702158 13.47935623 -6.30008175 7.91548732 0 0 Z " fill="#0826EF" transform="translate(431,550)"/>
<path d="M0 0 C-1.51291873 3.47971308 -3.55763329 5.90991336 -6.125 8.6875 C-7.3315625 10.00427734 -7.3315625 10.00427734 -8.5625 11.34765625 C-9.366875 12.22292969 -10.17125 13.09820312 -11 14 C-12.37869655 15.53836177 -13.75391451 17.07985092 -15.125 18.625 C-16.10919922 19.73101562 -16.10919922 19.73101562 -17.11328125 20.859375 C-18.30824446 22.21515106 -19.49433347 23.57884481 -20.66796875 24.953125 C-24.09810507 28.96174037 -27.69571147 32.65353218 -31.5 36.3125 C-36.05759542 40.79486688 -39.46159403 45.36157796 -42.66015625 50.8828125 C-44 53 -44 53 -46 54 C-42.66132238 45.14323021 -37.16665055 38.91968471 -30.43359375 32.38671875 C-27.0753149 29.09312585 -24.04227799 25.58339463 -21 22 C-20.04999924 20.89017961 -19.09942789 19.78084751 -18.1484375 18.671875 C-17.63442383 18.0722998 -17.12041016 17.47272461 -16.59082031 16.85498047 C-15.53569781 15.62465193 -14.48036147 14.39450675 -13.42480469 13.16455078 C-11.18800028 10.55730664 -8.95569507 7.94741664 -6.7421875 5.3203125 C-6.12601563 4.59585937 -5.50984375 3.87140625 -4.875 3.125 C-4.35679687 2.50882812 -3.83859375 1.89265625 -3.3046875 1.2578125 C-2 0 -2 0 0 0 Z " fill="#0729F3" transform="translate(214,274)"/>
<path d="M0 0 C0.66 0 1.32 0 2 0 C1.79503906 0.64066406 1.59007812 1.28132813 1.37890625 1.94140625 C-3.53000787 17.70160422 -2.14357398 32.10296267 1 48 C1.34128867 49.99865784 1.6778307 51.99817132 2 54 C1.34 54 0.68 54 0 54 C-1.75747614 49.49646738 -2.19294408 45.82360189 -2 41 C-2.66 41 -3.32 41 -4 41 C-4.06058594 40.21753906 -4.12117188 39.43507813 -4.18359375 38.62890625 C-4.26738281 37.61699219 -4.35117187 36.60507812 -4.4375 35.5625 C-4.51871094 34.55316406 -4.59992188 33.54382813 -4.68359375 32.50390625 C-4.73211468 30.06359221 -4.73211468 30.06359221 -6 29 C-6.0979057 27.50261876 -6.12974864 26.00057108 -6.125 24.5 C-6.12757813 23.6853125 -6.13015625 22.870625 -6.1328125 22.03125 C-6 20 -6 20 -5 19 C-4.86628082 17.50234521 -4.76859544 16.00142407 -4.6875 14.5 C-4.21817901 9.0715205 -2.49305287 4.80057623 0 0 Z " fill="#0328F4" transform="translate(320,308)"/>
<path d="M0 0 C0.33 0 0.66 0 1 0 C1.33 5.28 1.66 10.56 2 16 C2.33 16 2.66 16 3 16 C3.05021865 20.85228035 3.08609757 25.70440261 3.10986328 30.55688477 C3.11979235 32.20046633 3.13334011 33.84403086 3.15087891 35.48754883 C3.26205979 46.19034408 2.75085424 56.42677482 1 67 C0.67 67 0.34 67 0 67 C-0.02911321 63.9166866 -0.04683682 60.83340875 -0.0625 57.75 C-0.07087891 56.87730469 -0.07925781 56.00460937 -0.08789062 55.10546875 C-0.09111328 54.26113281 -0.09433594 53.41679687 -0.09765625 52.546875 C-0.10551147 51.38430176 -0.10551147 51.38430176 -0.11352539 50.19824219 C0.00015801 47.99694047 0.46660552 46.13176278 1 44 C1.08952213 42.44856455 1.13061557 40.89385834 1.1328125 39.33984375 C1.13410156 38.46392578 1.13539062 37.58800781 1.13671875 36.68554688 C1.13285156 35.77869141 1.12898438 34.87183594 1.125 33.9375 C1.12886719 33.02677734 1.13273437 32.11605469 1.13671875 31.17773438 C1.13542969 30.30310547 1.13414063 29.42847656 1.1328125 28.52734375 C1.13168457 27.73062256 1.13055664 26.93390137 1.12939453 26.11303711 C1.07936143 23.80866547 1.07936143 23.80866547 0 21 C-0.08143855 19.37280518 -0.1075302 17.74248281 -0.09765625 16.11328125 C-0.09443359 15.17548828 -0.09121094 14.23769531 -0.08789062 13.27148438 C-0.07532227 11.80678711 -0.07532227 11.80678711 -0.0625 10.3125 C-0.05798828 9.32443359 -0.05347656 8.33636719 -0.04882812 7.31835938 C-0.03704303 4.87884526 -0.02059011 2.43945311 0 0 Z " fill="#041EF3" transform="translate(93,389)"/>
<path d="M0 0 C1.06414547 3.19243642 0.81907375 3.92847342 0 7 C0.33 7.33 0.66 7.66 1 8 C1.97229468 15.28620826 2.24707665 22.6582937 2 30 C1.97486328 31.2684375 1.97486328 31.2684375 1.94921875 32.5625 C1.56318856 39.79780868 -0.87634626 44.87634626 -6 50 C-6.99 49.67 -7.98 49.34 -9 49 C-8.59007812 48.5875 -8.18015625 48.175 -7.7578125 47.75 C-7.21898437 47.1725 -6.68015625 46.595 -6.125 46 C-5.59132812 45.443125 -5.05765625 44.88625 -4.5078125 44.3125 C-0.87297213 38.73782254 -0.66856624 32.20792169 -0.75 25.75 C-0.75169189 25.01491211 -0.75338379 24.27982422 -0.75512695 23.52246094 C-0.82872298 18.02968398 -1.54913801 12.86317773 -2.85546875 7.515625 C-3.04551052 4.207871 -1.88943412 2.64615962 0 0 Z " fill="#0327F3" transform="translate(251,208)"/>
<path d="M0 0 C0.33 0 0.66 0 1 0 C0.64457067 16.1235671 -7.18709977 29.79186006 -16.25 42.6875 C-16.68658936 43.31261475 -17.12317871 43.93772949 -17.57299805 44.58178711 C-18.66237531 46.09411652 -19.82539497 47.55286971 -21 49 C-21.66 49 -22.32 49 -23 49 C-21.53808189 45.74317133 -19.60438166 42.90341278 -17.57299805 39.97705078 C-8.90782283 27.43741173 -3.95846209 14.62529134 0 0 Z " fill="#0526F3" transform="translate(118,452)"/>
<path d="M0 0 C1.37488287 -0.02749766 2.74993391 -0.0466164 4.125 -0.0625 C5.27355469 -0.07990234 5.27355469 -0.07990234 6.4453125 -0.09765625 C9 0 9 0 11.73535156 0.47924805 C15.10271469 1.01638427 18.38433507 1.25487959 21.7890625 1.4296875 C23.06007812 1.50316406 24.33109375 1.57664062 25.640625 1.65234375 C27.6394054 1.7640403 29.63821966 1.87565104 31.63769531 1.97412109 C33.58465218 2.07180248 35.53065153 2.18801194 37.4765625 2.3046875 C38.63236816 2.36640137 39.78817383 2.42811523 40.97900391 2.49169922 C44.1775931 3.02988111 45.63506858 3.8366788 48 6 C46.22925083 6.02705729 44.45838289 6.04642195 42.6875 6.0625 C41.70136719 6.07410156 40.71523437 6.08570313 39.69921875 6.09765625 C37 6 37 6 34 5 C32.55528578 4.86564019 31.10605093 4.77644741 29.65625 4.71875 C28.82222656 4.68136719 27.98820312 4.64398437 27.12890625 4.60546875 C26.26136719 4.57066406 25.39382812 4.53585937 24.5 4.5 C22.78108674 4.43103914 21.06232055 4.35828021 19.34375 4.28125 C18.20196289 4.23581055 18.20196289 4.23581055 17.03710938 4.18945312 C15 4 15 4 12 3 C9.77425665 2.77548542 7.54418481 2.59217122 5.3125 2.4375 C4.13300781 2.35371094 2.95351562 2.26992188 1.73828125 2.18359375 C0.83464844 2.12300781 -0.06898438 2.06242188 -1 2 C-0.67 1.34 -0.34 0.68 0 0 Z " fill="#052DF2" transform="translate(187,613)"/>
<path d="M0 0 C2.4384028 2.4384028 3.58920371 4.9135688 5.125 8 C5.66382813 9.0725 6.20265625 10.145 6.7578125 11.25 C8 14 8 14 8 16 C8.66 16 9.32 16 10 16 C10.99 17.0828125 10.99 17.0828125 12 18.1875 C16.74861595 23.16224052 23.70904806 25.53978844 30 28 C30 28.66 30 29.32 30 30 C22.45314885 28.39188592 15.86960819 26.20293664 10 21 C10 20.34 10 19.68 10 19 C9.34 19 8.68 19 8 19 C4 13.58823529 4 13.58823529 4 11 C3.34 11 2.68 11 2 11 C0.57741188 7.17679443 -0.24042276 4.08718695 0 0 Z " fill="#021EF7" transform="translate(322,362)"/>
<path d="M0 0 C0.33 0 0.66 0 1 0 C0.48884695 5.54357656 -0.53159165 9.89955478 -2.75 15.0625 C-5.90605784 22.59545402 -8.48974173 30.22888131 -11 38 C-11.60199904 39.8132211 -12.20578232 41.62585233 -12.8125 43.4375 C-13.204375 44.613125 -13.59625 45.78875 -14 47 C-15.22694293 43.49227322 -14.76439843 41.46333623 -13.55859375 37.9921875 C-13.22480713 37.0132251 -12.89102051 36.0342627 -12.54711914 35.02563477 C-12.18094482 33.98592529 -11.81477051 32.94621582 -11.4375 31.875 C-10.69510845 29.71491387 -9.95292311 27.55475686 -9.2109375 25.39453125 C-8.83807617 24.32025879 -8.46521484 23.24598633 -8.08105469 22.13916016 C-6.26634188 16.86960793 -4.54209584 11.57018288 -2.81616211 6.27099609 C-1.11085654 1.11085654 -1.11085654 1.11085654 0 0 Z " fill="#1135EB" transform="translate(134,405)"/>
<path d="M0 0 C1.1446875 0.4021875 1.1446875 0.4021875 2.3125 0.8125 C5.32650786 1.7831127 8.3369622 2.73344788 11.375 3.625 C12.68597656 4.01558594 12.68597656 4.01558594 14.0234375 4.4140625 C20.71892919 5.73207267 26.74738661 4.85715153 33.3125 3.4375 C40.59678094 1.86559365 40.59678094 1.86559365 44 3 C30.26885867 8.0856079 18.60427073 10.0802346 5 4 C2.16796875 2.42578125 2.16796875 2.42578125 0 1 C0 0.67 0 0.34 0 0 Z " fill="#0F2BF3" transform="translate(249,493)"/>
<path d="M0 0 C-10.18907511 4.85194053 -20.67157394 7.83229253 -32 7 C-28.99148873 4.99432582 -27.22424447 4.46258021 -23.74609375 3.74609375 C-22.72708984 3.53146484 -21.70808594 3.31683594 -20.65820312 3.09570312 C-19.59537109 2.87849609 -18.53253906 2.66128906 -17.4375 2.4375 C-15.33154467 2.00103917 -13.22604995 1.56234803 -11.12109375 1.12109375 C-10.1870874 0.9295874 -9.25308105 0.73808105 -8.29077148 0.54077148 C-2.64219965 -0.79265989 -2.64219965 -0.79265989 0 0 Z " fill="#0427F4" transform="translate(348,598)"/>
<path d="M0 0 C0 0.66 0 1.32 0 2 C-0.67579102 2.29245605 -1.35158203 2.58491211 -2.04785156 2.88623047 C-5.1157367 4.21466373 -8.18287484 5.5448131 -11.25 6.875 C-12.31347656 7.33519531 -13.37695312 7.79539062 -14.47265625 8.26953125 C-15.49746094 8.71425781 -16.52226562 9.15898438 -17.578125 9.6171875 C-18.99206543 10.22989502 -18.99206543 10.22989502 -20.43457031 10.85498047 C-22.02579279 11.5651854 -23.59883671 12.31995459 -25.13574219 13.14111328 C-27.77574912 14.35739725 -30.13618081 14.1301736 -33 14 C-30.45359942 11.45359942 -28.23264025 10.94481762 -24.8125 9.8125 C-18.59321435 7.66437031 -12.71051457 5.12089756 -6.80004883 2.2355957 C-2.18808621 0 -2.18808621 0 0 0 Z " fill="#062FED" transform="translate(381,583)"/>
<path d="M0 0 C0.69921875 1.6171875 0.69921875 1.6171875 1 4 C-0.29296875 6.8828125 -0.29296875 6.8828125 -2.1875 10.125 C-5.30350771 15.60503537 -7.77567028 21.10964536 -10 27 C-10.97789279 29.34357064 -11.98744276 31.67111836 -13 34 C-14.93392745 29.33309724 -12.5568706 25.61191903 -10.75732422 21.22436523 C-7.66807699 13.89291642 -3.87744969 6.93807622 0 0 Z " fill="#0920F3" transform="translate(157,344)"/>
<path d="M0 0 C0.66 0.33 1.32 0.66 2 1 C1.55197021 1.4125 1.10394043 1.825 0.64233398 2.25 C-1.42990424 4.16242482 -3.49619932 6.08116219 -5.5625 8 C-6.26697266 8.64839844 -6.97144531 9.29679688 -7.69726562 9.96484375 C-11.89555863 13.87293217 -15.78534339 17.89677918 -19.47851562 22.28710938 C-21.43681597 24.49176842 -23.61944796 26.26868943 -26 28 C-24.64763423 25.06120516 -23.10057341 22.70767089 -21 20.25 C-20.484375 19.63640625 -19.96875 19.0228125 -19.4375 18.390625 C-18 17 -18 17 -16 17 C-15.77054688 16.44441406 -15.54109375 15.88882813 -15.3046875 15.31640625 C-13.63977018 12.36043029 -11.54167129 10.31473006 -9.125 7.9375 C-7.82949219 6.65166016 -7.82949219 6.65166016 -6.5078125 5.33984375 C-4.41510391 3.387301 -2.33074012 1.65319939 0 0 Z " fill="#0530ED" transform="translate(167,222)"/>
<path d="M0 0 C3.41375815 1.41258958 5.14652712 2.78905402 7 6 C7.29686255 8.66303166 7.42681428 11.03263494 7.375 13.6875 C7.36919922 14.39777344 7.36339844 15.10804688 7.35742188 15.83984375 C7.22107741 21.37441888 6.19293522 25.88315116 4 31 C3.67 31 3.34 31 3 31 C3.2475 29.515 3.2475 29.515 3.5 28 C4.03553447 23.61334267 4.18170701 19.22744083 4.25 14.8125 C4.27126953 14.12349609 4.29253906 13.43449219 4.31445312 12.72460938 C4.34476882 8.25087891 3.61584726 5.61330417 1 2 C0.67 1.34 0.34 0.68 0 0 Z " fill="#082CF2" transform="translate(331,414)"/>
<path d="M0 0 C0.33 0 0.66 0 1 0 C0.58454211 9.20239216 -0.89022215 19.77300563 -7 27 C-5.74878064 21.16097633 -4.3734859 15.35837798 -2.9375 9.5625 C-2.7631543 8.85222656 -2.58880859 8.14195312 -2.40917969 7.41015625 C-1.11825591 2.23651182 -1.11825591 2.23651182 0 0 Z " fill="#0725F6" transform="translate(142,378)"/>
<path d="M0 0 C0 0.66 0 1.32 0 2 C-0.9075 2.45375 -1.815 2.9075 -2.75 3.375 C-8.73488581 6.75615198 -13.81078217 11.53505724 -19 16 C-19.66 15.67 -20.32 15.34 -21 15 C-19.10600285 13.24797712 -17.20988262 11.49835022 -15.3125 9.75 C-14.51682617 9.01330078 -14.51682617 9.01330078 -13.70507812 8.26171875 C-4.72734375 0 -4.72734375 0 0 0 Z " fill="#0826ED" transform="translate(235,258)"/>
<path d="M0 0 C0.66 0 1.32 0 2 0 C0.46386447 3.56514876 -1.6838452 6.03870356 -4.3125 8.875 C-7.64674278 12.51040019 -10.8822924 16.1782939 -14 20 C-14.99 19.67 -15.98 19.34 -17 19 C-16.52054932 18.49549316 -16.04109863 17.99098633 -15.54711914 17.47119141 C-13.38314867 15.19142055 -11.22278766 12.90826071 -9.0625 10.625 C-8.30775391 9.8309375 -7.55300781 9.036875 -6.77539062 8.21875 C-6.05673828 7.45820313 -5.33808594 6.69765625 -4.59765625 5.9140625 C-3.60004272 4.8614624 -3.60004272 4.8614624 -2.58227539 3.78759766 C-0.93092834 2.07681275 -0.93092834 2.07681275 0 0 Z " fill="#0E2AF5" transform="translate(212,274)"/>
<path d="M0 0 C2.5625 0.3125 2.5625 0.3125 4.375 1.375 C6.31732996 4.54406466 6.03564053 6.64566085 5.5625 10.3125 C4.12058842 13.46167494 2.41776879 16.39045166 0.5625 19.3125 C0.2325 18.6525 -0.0975 17.9925 -0.4375 17.3125 C0.31831528 15.60370025 1.07682033 13.89593956 1.859375 12.19921875 C2.85170526 9.5364659 2.76775426 7.11764151 2.5625 4.3125 C0.2525 3.6525 -2.0575 2.9925 -4.4375 2.3125 C-2.4375 0.3125 -2.4375 0.3125 0 0 Z " fill="#0332F4" transform="translate(350.4375,89.6875)"/>
<path d="M0 0 C4.47238653 1.41807378 8.71146306 3.11304374 13 5 C13 5.66 13 6.32 13 7 C13.99 7 14.98 7 16 7 C16 7.66 16 8.32 16 9 C16.66 9 17.32 9 18 9 C18 9.66 18 10.32 18 11 C14.00807706 9.52151002 10.4283407 7.63814878 6.75 5.5 C5.69296875 4.8915625 4.6359375 4.283125 3.546875 3.65625 C1 2 1 2 0 0 Z " fill="#0128F4" transform="translate(373,329)"/>
<path d="M0 0 C0.33 0.99 0.66 1.98 1 3 C-0.65638847 5.28467375 -1.6339676 6.55521 -4 8 C-7.71199272 8.55091535 -11.28880212 8.56773559 -15 8 C-15.66 7.34 -16.32 6.68 -17 6 C-16.625 3.875 -16.625 3.875 -16 2 C-15.34 3.32 -14.68 4.64 -14 6 C-8.00440621 6.64164649 -8.00440621 6.64164649 -3.0625 3.5625 C-2.381875 2.716875 -1.70125 1.87125 -1 1 C-0.67 0.67 -0.34 0.34 0 0 Z " fill="#082AE6" transform="translate(94,501)"/>
<path d="M0 0 C1.06414547 3.19243642 0.81907375 3.92847342 0 7 C0.33 7.33 0.66 7.66 1 8 C1.07226502 9.85287502 1.0838122 11.70833878 1.0625 13.5625 C1.05347656 14.57441406 1.04445312 15.58632812 1.03515625 16.62890625 C1.02355469 17.41136719 1.01195312 18.19382813 1 19 C-1.55161161 16.44838839 -1.67342279 14.71329331 -2.3125 11.1875 C-2.51488281 10.14980469 -2.71726563 9.11210937 -2.92578125 8.04296875 C-3.01382739 4.43307698 -2.09873674 2.87447235 0 0 Z " fill="#0E3BF6" transform="translate(251,208)"/>
<path d="M0 0 C0.99 0.33 1.98 0.66 3 1 C3.94921875 3.6171875 3.94921875 3.6171875 4.6875 6.875 C5.06455078 8.47988281 5.06455078 8.47988281 5.44921875 10.1171875 C6 13 6 13 6 16 C5.34 16 4.68 16 4 16 C2.24252386 11.49646738 1.80705592 7.82360189 2 3 C1.34 3 0.68 3 0 3 C0 2.01 0 1.02 0 0 Z " fill="#0220E7" transform="translate(316,346)"/>
<path d="M0 0 C0.33 0.99 0.66 1.98 1 3 C0.67 3.66 0.34 4.32 0 5 C-0.66 5 -1.32 5 -2 5 C-2 5.66 -2 6.32 -2 7 C-2.66 7 -3.32 7 -4 7 C-4.268125 7.61875 -4.53625 8.2375 -4.8125 8.875 C-6 11 -6 11 -9 13 C-8.43009348 9.40642281 -7.13617523 7.82750729 -4.5 5.375 C-1.88193354 2.96389084 -1.88193354 2.96389084 0 0 Z " fill="#031EEF" transform="translate(431,550)"/>
<path d="M0 0 C1.41569064 -0.08167446 2.83276805 -0.13949698 4.25 -0.1875 C5.43335938 -0.23970703 5.43335938 -0.23970703 6.640625 -0.29296875 C9.51712968 0.06421312 10.84576769 1.11751718 13 3 C11.20841511 3.02696365 9.41671527 3.04637917 7.625 3.0625 C6.62726563 3.07410156 5.62953125 3.08570313 4.6015625 3.09765625 C2 3 2 3 0 2 C0 1.34 0 0.68 0 0 Z " fill="#2B5EF3" transform="translate(222,616)"/>
<path d="M0 0 C4.71403788 0.47939368 8.66579301 0.96834048 13 3 C13 3.33 13 3.66 13 4 C11.58249437 3.88490339 10.16598831 3.75746342 8.75 3.625 C7.96109375 3.55539062 7.1721875 3.48578125 6.359375 3.4140625 C3.914123 2.98492887 2.15163097 2.21399362 0 1 C0 0.67 0 0.34 0 0 Z " fill="#092EEC" transform="translate(158,607)"/>
<path d="M0 0 C-4.77357872 2.71391278 -8.34388537 4.56561146 -14 4 C-11.8244694 1.8244694 -10.44026108 1.28120447 -7.5625 0.3125 C-6.78003906 0.04050781 -5.99757813 -0.23148438 -5.19140625 -0.51171875 C-3 -1 -3 -1 0 0 Z " fill="#0428E4" transform="translate(362,593)"/>
<path d="M0 0 C0.66 0.66 1.32 1.32 2 2 C-0.31 4.64 -2.62 7.28 -5 10 C-5.99 9.67 -6.98 9.34 -8 9 C-5.36 6.03 -2.72 3.06 0 0 Z " fill="#1D3AF5" transform="translate(203,284)"/>
<path d="M0 0 C-0.33 0.66 -0.66 1.32 -1 2 C-3.06640625 2.4140625 -3.06640625 2.4140625 -5.5625 2.625 C-6.38878906 2.69976563 -7.21507812 2.77453125 -8.06640625 2.8515625 C-9.02353516 2.92503906 -9.02353516 2.92503906 -10 3 C-10 2.34 -10 1.68 -10 1 C-6.59437148 0.22157062 -3.49234244 -0.09978121 0 0 Z " fill="#0329D6" transform="translate(299,608)"/>
<path d="M0 0 C0 3 0 3 -1.3125 4.38671875 C-2.875 5.59114583 -4.4375 6.79557292 -6 8 C-6.66 7.67 -7.32 7.34 -8 7 C-5.36 4.69 -2.72 2.38 0 0 Z " fill="#0523FA" transform="translate(222,266)"/>
<path d="M0 0 C-2.85306797 2.32472205 -5.54074837 3.7508258 -9 5 C-9.33 4.34 -9.66 3.68 -10 3 C-3.375 -1.125 -3.375 -1.125 0 0 Z " fill="#031AF4" transform="translate(410,570)"/>
<path d="M0 0 C0.66 0.33 1.32 0.66 2 1 C-0.57784846 3.64752004 -2.91648098 5.94432065 -6 8 C-4.55746343 4.63408134 -2.66735273 2.48952921 0 0 Z " fill="#0C56C7" transform="translate(547,390)"/>
</svg>
