<?xml version="1.0" encoding="UTF-8"?>
<svg version="1.1" xmlns="http://www.w3.org/2000/svg" width="361" height="473">
<path d="M0 0 C11.29283187 6.57188742 16.88151413 15.85165004 20.328125 28.0625 C22.56035956 36.99143823 22.32572179 43.82511893 18.12109375 52.234375 C18.71277344 52.26015625 19.30445313 52.2859375 19.9140625 52.3125 C23.61974242 52.57848681 26.59623739 52.99476666 29.99609375 54.546875 C34.55295132 60.30995957 35.32437187 68.06614651 35.12109375 75.234375 C35.92740234 74.99267578 35.92740234 74.99267578 36.75 74.74609375 C47.99940722 72.31829746 62.49124974 73.91227083 72.58203125 79.5 C88.16131022 90.14184594 97.42458256 104.75181904 101.12109375 123.234375 C103.67125113 139.30036648 103.77406484 157.44064856 94.12109375 171.234375 C89.10297432 177.99964072 82.78141182 183.14452966 76.12109375 188.234375 C75.00734375 189.08902344 75.00734375 189.08902344 73.87109375 189.9609375 C64.42140161 196.73553297 50.8512104 202.234375 39.12109375 202.234375 C39.26417969 203.14316406 39.26417969 203.14316406 39.41015625 204.0703125 C40.24424508 210.37447229 40.36635565 216.19539471 38.12109375 222.234375 C35.15448175 225.44152311 32.14974114 226.71002193 28.12109375 228.234375 C27.46109375 228.894375 26.80109375 229.554375 26.12109375 230.234375 C24.15673828 230.72094727 24.15673828 230.72094727 21.75390625 231.05078125 C20.86703125 231.17517578 19.98015625 231.29957031 19.06640625 231.42773438 C18.13570312 231.54955078 17.205 231.67136719 16.24609375 231.796875 C15.3540625 231.92255859 14.46203125 232.04824219 13.54296875 232.17773438 C1.88465133 233.77281935 -9.67311331 234.42098656 -21.43164062 234.41967773 C-23.61217981 234.42185827 -25.79220624 234.44007732 -27.97265625 234.45898438 C-54.6895265 234.57370879 -54.6895265 234.57370879 -62.87890625 228.234375 C-68.83169552 222.0110044 -70.19019404 216.59719282 -70.14453125 208.15625 C-70.14721512 207.36827026 -70.14989899 206.58029053 -70.15266418 205.76843262 C-70.15662417 203.17358474 -70.14387239 200.57917845 -70.12890625 197.984375 C-70.12680145 197.0919812 -70.12469666 196.1995874 -70.12252808 195.28015137 C-70.05934544 172.23051208 -69.20304557 149.12068446 -67.31640625 126.14453125 C-66.89267181 120.89022419 -66.75750712 115.69108159 -66.81640625 110.421875 C-66.82091797 109.62201172 -66.82542969 108.82214844 -66.83007812 107.99804688 C-66.84158267 106.07678842 -66.85950024 104.15556989 -66.87890625 102.234375 C-82.25106575 108.95969478 -94.05159649 116.07060782 -102.07421875 131.5390625 C-104.04095653 138.12667933 -104.02995255 145.18109424 -104.125 152.01171875 C-104.15797768 153.67773885 -104.19118858 155.34375435 -104.22460938 157.00976562 C-104.27152255 159.57589175 -104.31594335 162.14200486 -104.35571289 164.70825195 C-105.01572166 205.50627887 -105.01572166 205.50627887 -112.12890625 212.421875 C-115.80369563 213.50760823 -118.19759344 213.25696189 -121.87890625 212.234375 C-125.40026549 209.19872048 -126.16176535 204.67083912 -126.87890625 200.234375 C-127.10594784 195.75815994 -127.02040393 191.29996492 -126.92578125 186.8203125 C-126.89535736 184.88945297 -126.89535736 184.88945297 -126.86431885 182.91958618 C-126.82049762 180.20126421 -126.76922144 177.48321727 -126.71240234 174.76513672 C-126.64091769 171.32315591 -126.5866277 167.8811728 -126.53794479 164.43880272 C-126.48865293 161.10746472 -126.42539491 157.77643638 -126.36328125 154.4453125 C-126.34545593 153.23024017 -126.32763062 152.01516785 -126.30926514 150.76327515 C-125.88946171 132.03577053 -123.27990588 119.43262096 -110.87890625 105.234375 C-110.0633749 104.15332182 -109.25020416 103.07047505 -108.44140625 101.984375 C-99.64341432 92.54262757 -85.05910147 84.87674672 -72.03125 84.0546875 C-69.63771486 84.04795463 -67.26894853 84.12253644 -64.87890625 84.234375 C-64.86472656 82.92082031 -64.85054687 81.60726562 -64.8359375 80.25390625 C-64.78902637 78.51819449 -64.74077904 76.78251848 -64.69140625 75.046875 C-64.68560547 74.18255859 -64.67980469 73.31824219 -64.67382812 72.42773438 C-64.52871014 68.21931272 -64.24246652 65.80047986 -61.9296875 62.19921875 C-57.7479641 59.50599613 -54.14318146 59.26587872 -49.25390625 58.984375 C-47.5531938 58.85669388 -45.85266124 58.7265873 -44.15234375 58.59375 C-43.02965088 58.52365723 -43.02965088 58.52365723 -41.88427734 58.45214844 C-39.67388161 58.28378861 -39.67388161 58.28378861 -36.87890625 57.234375 C-37.49765625 56.1 -38.11640625 54.965625 -38.75390625 53.796875 C-43.7987941 43.58187159 -44.33880198 32.53504738 -41.25390625 21.609375 C-37.97621863 12.03990239 -33.832263 4.4078498 -24.87890625 -0.765625 C-17.63895507 -3.17894206 -7.12614143 -2.85584496 0 0 Z M-25.93530273 77.1809082 C-34.57190616 78.16670299 -43.20246353 78.75335882 -51.87890625 79.234375 C-51.86415756 79.79717667 -51.84940887 80.35997833 -51.83421326 80.93983459 C-51.67886832 86.92834983 -51.53485813 92.91706943 -51.39672852 98.90600586 C-51.34415417 101.1254741 -51.28891987 103.34488132 -51.23071289 105.56420898 C-50.91147425 117.80909278 -50.84792714 129.95277013 -51.48504639 142.18658447 C-52.08597012 154.28297096 -52.06626181 166.38556648 -52.06420898 178.49438477 C-52.06410507 181.92723994 -52.07804542 185.35989871 -52.09498119 188.79270649 C-52.10868885 192.10269344 -52.10818484 195.41264124 -52.109375 198.72265625 C-52.11656052 199.95260818 -52.12374603 201.18256012 -52.13114929 202.44978333 C-52.12807266 203.57664047 -52.12499603 204.70349762 -52.12182617 205.86450195 C-52.12325119 206.85658157 -52.12467621 207.84866119 -52.12614441 208.87080383 C-52.10993252 211.42315214 -52.10993252 211.42315214 -49.87890625 213.234375 C-47.76531682 213.54011137 -47.76531682 213.54011137 -45.3034668 213.49316406 C-44.35034103 213.49946838 -43.39721527 213.50577271 -42.41520691 213.51226807 C-40.85616386 213.50619537 -40.85616386 213.50619537 -39.265625 213.5 C-38.18626175 213.50191345 -37.1068985 213.5038269 -35.99482727 213.50579834 C-33.69389617 213.50716333 -31.39295745 213.50344514 -29.09204102 213.49511719 C-25.64645913 213.48461891 -22.20142274 213.49489754 -18.75585938 213.5078125 C-5.06078295 213.51622175 8.54100965 213.13892592 22.12109375 211.234375 C23.37534177 210.20268225 23.37534177 210.20268225 23.24414158 207.9717474 C23.24321979 206.96238408 23.24229799 205.95302076 23.24134827 204.91307068 C23.24272293 203.75895691 23.2440976 202.60484314 23.24551392 201.41575623 C23.24191864 200.13830032 23.23832336 198.86084442 23.23461914 197.54467773 C23.23433727 196.19479372 23.234495 194.84490956 23.23506165 193.49502563 C23.23534962 189.81956892 23.22945291 186.14414457 23.22248769 182.4686954 C23.21625413 178.63164351 23.21565035 174.79459096 23.21446228 170.95753479 C23.21134897 163.68666282 23.20313558 156.41580581 23.19311279 149.14494044 C23.18195165 140.86938148 23.1764412 132.59382182 23.17141736 124.31825721 C23.16095297 107.29028781 23.14335353 90.26233298 23.12109375 73.234375 C6.79305456 73.234375 -9.73594921 75.29937656 -25.93530273 77.1809082 Z M36.12109375 93.234375 C36.45109375 99.174375 36.78109375 105.114375 37.12109375 111.234375 C38.93609375 111.316875 40.75109375 111.399375 42.62109375 111.484375 C50.09206432 112.13478891 55.22784818 113.93611378 60.43359375 119.421875 C66.18775339 126.81784649 67.33358601 136.06179235 67.12109375 145.234375 C66.18834475 149.48914542 64.82505744 151.76506587 61.12109375 154.234375 C56.7802564 154.79707614 54.84398511 154.75297098 51.24609375 152.171875 C48.15437145 147.89802358 48.05115761 144.45484738 48.21484375 139.2578125 C48.24578125 138.19820312 48.27671875 137.13859375 48.30859375 136.046875 C48.36402344 135.04269531 48.41945312 134.03851563 48.4765625 133.00390625 C48.33094724 130.1468246 48.33094724 130.1468246 46.484375 127.93359375 C43.7765021 125.72230221 43.7765021 125.72230221 38.12109375 125.234375 C38.45109375 143.384375 38.78109375 161.534375 39.12109375 180.234375 C52.93554213 176.28738975 59.49695287 172.77337647 69.49609375 163.796875 C70.10388672 163.2594165 70.71167969 162.72195801 71.33789062 162.16821289 C77.38430665 156.56105917 79.57562054 150.82130425 80.12109375 142.59375 C80.12109375 126.37430759 77.65800479 113.58557101 65.91015625 101.8125 C57.4944482 94.03327408 47.29640573 93.234375 36.12109375 93.234375 Z " fill="#FBF9F1" transform="translate(194.87890625,112.765625)"/>
<path d="M0 0 C11.29283187 6.57188742 16.88151413 15.85165004 20.328125 28.0625 C22.39310374 36.32241494 22.4030899 42.22456941 19.12109375 50.234375 C17.12109375 53.234375 17.12109375 53.234375 14.12109375 54.234375 C12.47973251 55.96700133 12.47973251 55.96700133 10.87109375 58.046875 C7.59030021 61.91848942 4.72380009 64.11004899 0.12109375 66.234375 C-0.86890625 66.234375 -1.85890625 66.234375 -2.87890625 66.234375 C-2.87890625 66.894375 -2.87890625 67.554375 -2.87890625 68.234375 C-20.20817944 68.99147917 -20.20817944 68.99147917 -26.87890625 64.234375 C-27.79542969 63.68652344 -28.71195313 63.13867188 -29.65625 62.57421875 C-36.95229871 57.90513107 -39.98966354 53.66039749 -41.87890625 45.234375 C-42.06582031 44.41324219 -42.25273437 43.59210938 -42.4453125 42.74609375 C-44.62026738 30.14703079 -41.43364631 18.08468771 -34.59375 7.3984375 C-26.42271945 -2.91306802 -11.98418156 -4.80273439 0 0 Z " fill="#FEF990" transform="translate(194.87890625,112.765625)"/>
<path d="M0 0 C1.89407877 0.14924689 3.79032351 0.27238227 5.6875 0.375 C9.08429317 0.65495548 10.7347838 0.83963672 13.6875 2.625 C15.55569356 6.00554073 15.53416903 8.19404569 15 12 C12.23315789 16.54552632 12.23315789 16.54552632 9.3359375 17.61328125 C-0.267994 19.20322978 -10.46864653 19.03574819 -19 14 C-21.71349807 11.94833073 -22.70293132 10.752574 -23.9375 7.625 C-24.0221688 4.06891031 -22.83947665 1.99766565 -21 -1 C-14.83733624 -4.08133188 -6.21843853 -1.92206282 0 0 Z " fill="#FEF98F" transform="translate(119,127)"/>
<path d="M0 0 C2.625 1.5625 2.625 1.5625 4 4 C4.57923458 7.98223772 4.57254777 10.10660421 2.3828125 13.5234375 C-3.49151107 19.628882 -15.52722566 23.81310057 -24 24 C-28.18529459 22.57998933 -29.54710733 21.679339 -32 18 C-32.4375 14.625 -32.4375 14.625 -32 11 C-28.25361637 6.31702046 -24.32502038 4.52805205 -18.8125 2.6875 C-18.0594458 2.4311377 -17.3063916 2.17477539 -16.53051758 1.91064453 C-11.06739266 0.14418132 -5.73291724 -1.35935151 0 0 Z " fill="#FFFA91" transform="translate(271,109)"/>
<path d="M0 0 C5.00132797 0.93774899 7.75927867 4.02248016 10.60546875 8.05859375 C11.47456578 9.36684117 12.33511543 10.6808027 13.1875 12 C13.84395508 12.98323242 13.84395508 12.98323242 14.51367188 13.98632812 C18.04894425 19.36749844 20.70759837 23.91107529 20 30.5625 C19 32.9375 19 32.9375 17 34.5625 C11.63909774 35.34069549 11.63909774 35.34069549 9 34.5625 C4.55068896 30.80884671 1.46788346 26.16713103 -1.75 21.375 C-2.24371094 20.65119141 -2.73742187 19.92738281 -3.24609375 19.18164062 C-8.6636708 11.20370182 -8.6636708 11.20370182 -8 5.5625 C-5.53959272 2.23371368 -4.10389613 0.76948052 0 0 Z " fill="#FEFA90" transform="translate(128,78.4375)"/>
<path d="M0 0 C4.62 0 9.24 0 14 0 C14.125 12.75 14.125 12.75 13 15 C11.56344146 15.08131463 10.1255517 15.13933559 8.6875 15.1875 C7.48673828 15.23970703 7.48673828 15.23970703 6.26171875 15.29296875 C4 15 4 15 2.25 13.875 C-0.37481896 9.93777156 0.24519621 4.56064956 0 0 Z " fill="#FEF98E" transform="translate(198,86)"/>
</svg>
