<?xml version="1.0" encoding="UTF-8"?>
<svg version="1.1" xmlns="http://www.w3.org/2000/svg" width="361" height="473">
<path d="M0 0 C1.23550432 0.74855503 2.44562394 1.54080718 3.625 2.375 C4.51251953 2.97634766 4.51251953 2.97634766 5.41796875 3.58984375 C12.95224818 9.32787113 19.08761291 18.98447346 20.625 28.375 C21.23436717 36.80314878 21.49070506 44.64358987 17.625 52.375 C18.83736328 52.41367188 18.83736328 52.41367188 20.07421875 52.453125 C24.56899353 52.69168964 28.52656945 52.90424405 32.6875 54.6875 C36.96733572 60.62404632 37.82831353 68.20552305 37.625 75.375 C38.1509375 75.21386719 38.676875 75.05273438 39.21875 74.88671875 C50.62071868 72.46194944 64.78989366 74.02274774 75.05078125 79.640625 C90.68474794 90.1739804 99.93810671 104.94053357 103.625 123.375 C106.17515738 139.44099148 106.27797109 157.58127356 96.625 171.375 C91.60493181 178.14289297 85.28130875 183.27594465 78.625 188.375 C77.91730469 188.93316406 77.20960938 189.49132812 76.48046875 190.06640625 C67.27203543 196.80986698 53.08662195 202.375 41.625 202.375 C41.76808594 203.28378906 41.76808594 203.28378906 41.9140625 204.2109375 C42.74815133 210.51509729 42.8702619 216.33601971 40.625 222.375 C37.658388 225.58214811 34.65364739 226.85064693 30.625 228.375 C29.965 229.035 29.305 229.695 28.625 230.375 C26.75244141 230.86157227 26.75244141 230.86157227 24.4765625 231.19140625 C23.63480469 231.31580078 22.79304687 231.44019531 21.92578125 231.56835938 C21.04277344 231.69017578 20.15976563 231.81199219 19.25 231.9375 C18.40566406 232.06318359 17.56132812 232.18886719 16.69140625 232.31835938 C5.01715 233.99994531 -6.57244751 234.56157268 -18.35498047 234.56030273 C-20.60794151 234.56248349 -22.86040653 234.58070035 -25.11328125 234.59960938 C-52.18244861 234.71223141 -52.18244861 234.71223141 -60.375 228.375 C-66.32778927 222.1516294 -67.68628779 216.73781782 -67.640625 208.296875 C-67.64330887 207.50889526 -67.64599274 206.72091553 -67.64875793 205.90905762 C-67.65271792 203.31420974 -67.63996614 200.71980345 -67.625 198.125 C-67.6228952 197.2326062 -67.62079041 196.3402124 -67.61862183 195.42077637 C-67.55543919 172.37113708 -66.69913932 149.26130946 -64.8125 126.28515625 C-64.38876556 121.03084919 -64.25360087 115.83170659 -64.3125 110.5625 C-64.31701172 109.76263672 -64.32152344 108.96277344 -64.32617188 108.13867188 C-64.33767642 106.21741342 -64.35559399 104.29619489 -64.375 102.375 C-79.7471595 109.10031978 -91.54769024 116.21123282 -99.5703125 131.6796875 C-101.53705028 138.26730433 -101.5260463 145.32171924 -101.62109375 152.15234375 C-101.65407143 153.81836385 -101.68728233 155.48437935 -101.72070312 157.15039062 C-101.7676163 159.71651675 -101.8120371 162.28262986 -101.85180664 164.84887695 C-102.51181541 205.64690387 -102.51181541 205.64690387 -109.625 212.5625 C-113.29978938 213.64823323 -115.69368719 213.39758689 -119.375 212.375 C-122.89635924 209.33934548 -123.6578591 204.81146412 -124.375 200.375 C-124.60204159 195.89878494 -124.51649768 191.44058992 -124.421875 186.9609375 C-124.39145111 185.03007797 -124.39145111 185.03007797 -124.3604126 183.06021118 C-124.31659137 180.34188921 -124.26531519 177.62384227 -124.20849609 174.90576172 C-124.13701144 171.46378091 -124.08272145 168.0217978 -124.03403854 164.57942772 C-123.98474668 161.24808972 -123.92148866 157.91706138 -123.859375 154.5859375 C-123.84154968 153.37086517 -123.82372437 152.15579285 -123.80535889 150.90390015 C-123.38555546 132.17639553 -120.77599963 119.57324596 -108.375 105.375 C-107.55946865 104.29394682 -106.74629791 103.21110005 -105.9375 102.125 C-97.13950807 92.68325257 -82.55519522 85.01737172 -69.52734375 84.1953125 C-67.13380861 84.18857963 -64.76504228 84.26316144 -62.375 84.375 C-62.36082031 83.06144531 -62.34664062 81.74789062 -62.33203125 80.39453125 C-62.28512012 78.65881949 -62.23687279 76.92314348 -62.1875 75.1875 C-62.18169922 74.32318359 -62.17589844 73.45886719 -62.16992188 72.56835938 C-62.02466039 68.3557763 -61.74211396 65.94362362 -59.41796875 62.34375 C-55.27307985 59.66207605 -51.7278692 59.37091359 -46.875 59.0625 C-45.61236328 58.95325195 -45.61236328 58.95325195 -44.32421875 58.84179688 C-40.33605448 58.51206676 -36.37914246 58.28474269 -32.375 58.375 C-32.8803125 57.56160156 -33.385625 56.74820313 -33.90625 55.91015625 C-39.84535963 45.43422676 -41.67528462 35.77393839 -38.4453125 23.98046875 C-37.26548379 20.97691787 -35.91924787 18.20680018 -34.375 15.375 C-33.91738281 14.46878906 -33.45976562 13.56257813 -32.98828125 12.62890625 C-26.42679069 0.53059626 -13.53547628 -6.40874221 0 0 Z M9.625 74.1875 C8.43543701 74.27443115 7.24587402 74.3613623 6.02026367 74.45092773 C-3.80489743 75.19809562 -13.59300807 76.18878673 -23.38085938 77.3215332 C-32.0343254 78.30458667 -40.68212293 78.89272346 -49.375 79.375 C-49.36025131 79.93780167 -49.34550262 80.50060333 -49.33030701 81.08045959 C-49.17496207 87.06897483 -49.03095188 93.05769443 -48.89282227 99.04663086 C-48.84024792 101.2660991 -48.78501362 103.48550632 -48.72680664 105.70483398 C-48.407568 117.94971778 -48.34402089 130.09339513 -48.98114014 142.32720947 C-49.58206387 154.42359596 -49.56235556 166.52619148 -49.56030273 178.63500977 C-49.56019882 182.06786494 -49.57413917 185.50052371 -49.59107494 188.93333149 C-49.6047826 192.24331844 -49.60427859 195.55326624 -49.60546875 198.86328125 C-49.61265427 200.09323318 -49.61983978 201.32318512 -49.62724304 202.59040833 C-49.62416641 203.71726547 -49.62108978 204.84412262 -49.61791992 206.00512695 C-49.61934494 206.99720657 -49.62076996 207.98928619 -49.62223816 209.01142883 C-49.60602627 211.56377714 -49.60602627 211.56377714 -47.375 213.375 C-45.26141057 213.68073637 -45.26141057 213.68073637 -42.79956055 213.63378906 C-41.84643478 213.64009338 -40.89330902 213.64639771 -39.91130066 213.65289307 C-38.35225761 213.64682037 -38.35225761 213.64682037 -36.76171875 213.640625 C-35.6823555 213.64253845 -34.60299225 213.6444519 -33.49092102 213.64642334 C-31.18998992 213.64778833 -28.8890512 213.64407014 -26.58813477 213.63574219 C-23.14255288 213.62524391 -19.69751649 213.63552254 -16.25195312 213.6484375 C-2.5568767 213.65684675 11.0449159 213.27955092 24.625 211.375 C25.87924802 210.34330725 25.87924802 210.34330725 25.74804783 208.1123724 C25.74712604 207.10300908 25.74620424 206.09364576 25.74525452 205.05369568 C25.74662918 203.89958191 25.74800385 202.74546814 25.74942017 201.55638123 C25.74582489 200.27892532 25.74222961 199.00146942 25.73852539 197.68530273 C25.73824352 196.33541872 25.73840125 194.98553456 25.7389679 193.63565063 C25.73925587 189.96019392 25.73335916 186.28476957 25.72639394 182.6093204 C25.72016038 178.77226851 25.7195566 174.93521596 25.71836853 171.09815979 C25.71525522 163.82728782 25.70704183 156.55643081 25.69701904 149.28556544 C25.6858579 141.01000648 25.68034745 132.73444682 25.67532361 124.45888221 C25.66485922 107.43091281 25.64725978 90.40295798 25.625 73.375 C20.26826736 73.375 14.96591371 73.79706805 9.625 74.1875 Z M38.625 93.375 C38.955 99.315 39.285 105.255 39.625 111.375 C41.44 111.4575 43.255 111.54 45.125 111.625 C52.59597057 112.27541391 57.73175443 114.07673878 62.9375 119.5625 C68.69165964 126.95847149 69.83749226 136.20241735 69.625 145.375 C68.692251 149.62977042 67.32896369 151.90569087 63.625 154.375 C59.24474813 154.94281043 57.3462418 154.90809176 53.75 152.25 C49.57481543 146.60122088 50.64395485 140.11306367 50.98046875 133.3984375 C50.8606397 130.31840216 50.8606397 130.31840216 48.98828125 128.0390625 C46.27125304 125.87052631 46.27125304 125.87052631 40.625 125.375 C40.955 143.525 41.285 161.675 41.625 180.375 C55.43944838 176.42801475 62.00085912 172.91400147 72 163.9375 C72.60779297 163.4000415 73.21558594 162.86258301 73.84179688 162.30883789 C80.18383936 156.42753449 82.106342 150.49170358 82.625 141.890625 C82.625 126.95969967 80.447966 114.54962814 69.88793945 103.43481445 C61.77690389 95.32377889 53.759422 94.34990331 42.625 93.375 C41.305 93.375 39.985 93.375 38.625 93.375 Z " fill="#FBFAF1" transform="translate(192.375,112.625)"/>
</svg>
