<?xml version="1.0" encoding="UTF-8"?>
<svg version="1.1" xmlns="http://www.w3.org/2000/svg" width="690" height="690">
<path d="M0 0 C1.17597244 0.20257416 1.17597244 0.20257416 2.3757019 0.40924072 C14.60417902 2.52489205 26.53866307 5.00249174 38.1875 9.375 C38.96754395 9.66600586 39.74758789 9.95701172 40.55126953 10.25683594 C78.23432115 24.61879753 114.09588419 49.37233567 140.1875 80.16796875 C142.31849808 82.51955843 144.56549412 84.70125421 146.84936523 86.90258789 C156.63808528 96.38719778 163.6083233 107.04476236 170.22265625 118.91015625 C172.12809016 122.27023553 174.13362617 125.54151575 176.1875 128.8125 C180.12355653 135.17310597 183.73443941 141.66038345 187.13574219 148.31787109 C187.85126658 149.7173624 188.57354141 151.11341839 189.30175781 152.50634766 C198.91932481 171.01462028 203.65579312 190.69731191 208.4375 210.875 C208.60444366 211.5790799 208.77138733 212.28315979 208.94338989 213.00857544 C209.9142079 217.12788832 210.84797742 221.25363486 211.74749756 225.38909912 C212.16958132 227.29412608 212.62150427 229.19246753 213.07470703 231.09033203 C215.77448276 243.41776086 215.65269881 255.6758974 215.5625 268.25 C215.55601944 269.95092804 215.55601944 269.95092804 215.54940796 271.68621826 C215.47594005 288.09579071 215.07120974 304.18271879 212.1875 320.375 C212.01057617 321.42139648 211.83365234 322.46779297 211.65136719 323.54589844 C209.29504069 337.2565443 206.06631635 350.34945189 201.1875 363.375 C200.92791504 364.07447754 200.66833008 364.77395508 200.40087891 365.49462891 C199.37631971 368.2507122 198.34748543 371.00485628 197.29711914 373.7512207 C195.7983775 377.67574543 194.44685976 381.6179462 193.1875 385.625 C187.32190779 403.19822003 175.81116202 418.04582393 163.1875 431.375 C162.11888877 432.59885742 161.05628249 433.82798623 160 435.0625 C154.2339069 441.65796266 148.23230007 448.03554301 142.1875 454.375 C141.48093262 455.1170166 140.77436523 455.8590332 140.04638672 456.62353516 C130.11217286 466.98861999 120.00742605 476.22093786 108.1875 484.375 C107.56810547 484.81247559 106.94871094 485.24995117 106.31054688 485.70068359 C86.68700336 499.55168631 65.69797423 508.48054983 42.875 515.625 C42.18945038 515.83977997 41.50390076 516.05455994 40.7975769 516.27584839 C7.84410387 526.5498073 -35.24462105 535.0282305 -68.66015625 521.91796875 C-73.23430013 520.13142699 -77.9006409 519.11552862 -82.6875 518.0625 C-89.85613502 516.41794952 -96.89045512 514.55916132 -103.875 512.25 C-104.6179834 512.00854248 -105.3609668 511.76708496 -106.12646484 511.51831055 C-109.880662 510.24023947 -112.71644825 508.81072683 -115.8125 506.375 C-117.48083491 505.56332235 -119.15097247 504.75475375 -120.83642578 503.97924805 C-169.83721454 481.24661131 -198.61283744 439.30030872 -216.84765625 389.96484375 C-220.989596 378.31938995 -223.91048129 366.58370514 -225.8125 354.375 C-225.93496094 353.58915527 -226.05742187 352.80331055 -226.18359375 351.99365234 C-230.14299071 325.1509429 -226.07329058 299.33448477 -215.8125 274.375 C-215.29163818 273.0746582 -215.29163818 273.0746582 -214.76025391 271.74804688 C-208.44066742 256.00741093 -200.79481079 242.10348136 -190.8125 228.375 C-190.18730469 227.48296875 -189.56210938 226.5909375 -188.91796875 225.671875 C-178.34476133 210.74008701 -165.38457128 198.4587252 -149.60180664 189.10400391 C-146.80289146 187.41779683 -146.80289146 187.41779683 -144.23950195 185.49609375 C-136.14620854 179.62416484 -128.28965754 176.83358598 -118.75 174.1875 C-117.26547238 173.76363556 -115.78126258 173.33865653 -114.29736328 172.91259766 C-111.40827302 172.08602064 -108.51602386 171.27196322 -105.62158203 170.46435547 C-102.55785974 169.58816467 -99.54394507 168.65155549 -96.52734375 167.62890625 C-67.730765 158.20554585 -29.13683082 163.98415063 -2.3125 177.125 C5.20846862 181.01055168 11.73233109 185.93592249 18.1875 191.375 C19.05890625 192.08269531 19.9303125 192.79039062 20.828125 193.51953125 C42.13721218 211.57864758 58.92079011 242.40375927 61.45361328 270.30664062 C63.18343382 300.7399179 55.32442217 332.61194764 35.17578125 356.15234375 C34.51964844 356.88582031 33.86351562 357.61929687 33.1875 358.375 C32.47980469 359.20128906 31.77210938 360.02757812 31.04296875 360.87890625 C16.8625958 377.14535858 -0.98769114 390.23733664 -22.8125 393.375 C-29.89791383 393.65091175 -37.3104258 391.58714213 -42.60546875 386.73046875 C-48.5204883 380.02677992 -51.28044817 374.06118075 -51.1484375 365.09765625 C-50.23579054 357.70097097 -46.08463679 351.58139119 -40.375 346.953125 C-36.61355383 344.63662461 -32.57594853 343.17428205 -28.45703125 341.63476562 C-13.62852221 335.99638045 -3.48850974 324.2592667 3.36230469 310.22363281 C9.97824785 295.40235422 11.49041582 276.82963347 5.80859375 261.5703125 C1.29049209 250.16489391 -4.96699358 240.96411493 -13.8125 232.375 C-14.36292969 231.83875 -14.91335938 231.3025 -15.48046875 230.75 C-30.08225391 217.53707358 -50.06156937 216.4474675 -68.80859375 217.15722656 C-102.60117069 219.60707853 -131.20099874 240.71098957 -152.8125 265.375 C-155.22624047 268.50982646 -157.34876961 271.79266492 -159.39453125 275.1796875 C-160.8125 277.375 -160.8125 277.375 -162.8125 278.375 C-163.85083701 280.65873242 -164.76283379 282.89942164 -165.625 285.25 C-165.88563232 285.95455322 -166.14626465 286.65910645 -166.41479492 287.38500977 C-168.41827395 292.95739494 -170.0997247 298.59200752 -171.625 304.3125 C-171.83165283 305.07997559 -172.03830566 305.84745117 -172.2512207 306.63818359 C-179.96403538 336.70486846 -170.9721828 365.99580777 -158.8125 393.375 C-158.4834668 394.12491211 -158.15443359 394.87482422 -157.81542969 395.64746094 C-150.65869404 411.86606526 -142.33428961 426.93835602 -127.875 437.6875 C-127.12847168 438.24727539 -126.38194336 438.80705078 -125.61279297 439.38378906 C-123.3563384 441.0621437 -121.08775454 442.72224459 -118.8125 444.375 C-118.17070801 444.84405762 -117.52891602 445.31311523 -116.86767578 445.79638672 C-98.93680456 458.75840474 -79.32547524 466.47015236 -57.625 470.5 C-56.94241119 470.62884583 -56.25982239 470.75769165 -55.55654907 470.89044189 C-45.34478438 472.81501446 -35.19018353 474.64447983 -24.8125 475.375 C-23.50539063 475.50390625 -22.19828125 475.6328125 -20.8515625 475.765625 C-3.10228051 476.99330101 15.46118274 470.37273752 31.87036133 464.22363281 C34.6478642 463.20639543 37.4598346 462.40372203 40.3125 461.625 C54.5759933 457.26483262 67.17662496 450.09851499 79.1875 441.375 C79.75500977 440.96975098 80.32251953 440.56450195 80.90722656 440.14697266 C94.25302354 430.5279991 105.88270855 418.61632825 116.60375977 406.1862793 C118.80187433 403.6723573 121.12662467 401.28511538 123.4375 398.875 C133.64418279 387.8545604 141.14026405 375.98822612 146.26904297 361.88183594 C147.30417979 359.05653426 148.38864111 356.25220933 149.47265625 353.4453125 C159.91966449 325.96269066 162.64456207 299.06271135 162.6875 269.8125 C162.69051117 268.66435822 162.69352234 267.51621643 162.69662476 266.33328247 C162.69395542 250.21595339 161.98309185 235.38159844 156.99560547 219.93164062 C155.907403 216.48884418 155.0471844 213.00220028 154.17260742 209.50024414 C153.23975233 205.77292998 152.23616525 202.07127043 151.1875 198.375 C150.92251709 197.39789063 150.65753418 196.42078125 150.38452148 195.4140625 C147.99666826 187.05689048 144.59157722 179.65145878 140.5 172 C139.87693165 170.81610473 139.25437768 169.6319386 138.63232422 168.44750977 C134.86365804 161.33662398 130.97120313 154.32051481 126.67700195 147.51220703 C124.1875 143.555645 124.1875 143.555645 124.1875 141.375 C123.1975 141.045 122.2075 140.715 121.1875 140.375 C119.96720427 138.50486004 118.83545936 136.57649253 117.75 134.625 C113.62907469 127.5892502 108.55388605 121.97924351 102.89404297 116.15527344 C101.06579119 114.24803282 99.28253261 112.30512811 97.50390625 110.3515625 C83.13501232 94.6187787 67.21995244 82.65302627 48.64453125 72.3125 C45.74200724 70.68577468 42.89214609 68.99345325 40.04248047 67.27685547 C26.93220212 59.49505604 13.25772195 55.48345025 -1.67773438 52.765625 C-3.52361664 52.42786063 -5.36402001 52.06040608 -7.203125 51.6875 C-20.10376364 49.30584364 -33.66551899 49.0368806 -46.28125 52.7578125 C-53.50180865 54.51838081 -60.59619391 52.118396 -66.8125 48.375 C-72.07048723 44.3601803 -75.52768499 39.92526224 -76.8125 33.375 C-77.90897952 24.12345408 -75.66567226 17.92224329 -70.8125 10.1875 C-54.62620241 -7.57794857 -21.18152305 -3.74943737 0 0 Z " fill="#0230F6" transform="translate(434.8125,57.625)"/>
<path d="M0 0 C1.01151123 -0.00233643 2.02302246 -0.00467285 3.06518555 -0.00708008 C12.06541421 0.19594395 20.72980294 2.11566703 27.375 8.5625 C32.9241719 15.77929869 34.40754582 22.50971457 33.375 31.5625 C30.85797886 39.6781289 25.85709628 45.48024255 18.4921875 49.62109375 C13.49352065 51.66956703 8.45673748 51.75188336 3.125 51.9375 C-17.37209588 52.81375405 -33.14705289 59.62264886 -50.77148438 69.89990234 C-53.18140287 71.30403863 -55.60542352 72.67143044 -58.046875 74.01953125 C-67.05579726 79.08158902 -74.82191656 85.37324256 -82.72460938 91.99755859 C-85.5863223 94.3541336 -88.54025333 96.58136051 -91.5 98.8125 C-97.14943387 103.12406644 -102.48408893 107.65701383 -107.625 112.5625 C-108.27629883 113.17593262 -108.92759766 113.78936523 -109.59863281 114.42138672 C-120.0754116 124.34466649 -129.18560681 134.50252176 -137.22265625 146.49414062 C-138.50620105 148.38727983 -139.83260833 150.23572558 -141.1875 152.078125 C-149.08784893 163.03540862 -154.5150907 175.30785045 -160.1796875 187.51538086 C-161.42998725 190.1513591 -162.75224964 192.72512778 -164.11328125 195.3046875 C-167.75673105 202.54705686 -170.3261518 210.2357526 -173 217.875 C-173.2850238 218.68597137 -173.57004761 219.49694275 -173.8637085 220.33248901 C-183.35104535 247.47524271 -188.95584981 274.65676887 -190.85888672 303.33740234 C-191.3386792 310.38318934 -192.07585826 317.32215902 -193.0625 324.3125 C-197.0983794 354.71249586 -197.91011629 385.43370277 -197.9375 416.0625 C-197.94099457 417.31824829 -197.94448914 418.57399658 -197.9480896 419.86779785 C-197.97003421 434.0326387 -197.50508625 447.99018792 -196.1262207 462.08740234 C-195.26109019 471.07823343 -194.94545952 480.10334138 -194.5625 489.125 C-194.44605008 491.83336844 -194.32808576 494.54163339 -194.20570374 497.2497406 C-194.13090083 498.90686183 -194.05940322 500.5641371 -193.9919281 502.22157288 C-193.80372254 506.41223613 -193.39588265 510.42907473 -192.625 514.5625 C-191.85256527 523.0741366 -193.37302693 530.19844841 -198.875 536.875 C-203.57047754 541.85836094 -208.78594534 545.0895097 -215.703125 545.765625 C-224.56064378 545.95679447 -230.1139786 543.44396485 -236.765625 537.671875 C-241.61520052 532.17025571 -243.48210757 526.48525558 -244.8046875 519.42578125 C-245.05603958 518.12148918 -245.05603958 518.12148918 -245.31246948 516.79084778 C-247.05222071 507.15077566 -247.45708919 497.52248709 -247.75 487.75 C-247.8694977 484.26399756 -247.99895481 480.7784473 -248.1328125 477.29296875 C-248.16488297 476.41772552 -248.19695343 475.5424823 -248.22999573 474.64071655 C-248.48985044 468.21889158 -249.03701378 461.85249879 -249.66015625 455.45703125 C-250.89708195 442.32890833 -250.97658091 429.24033998 -250.9375 416.0625 C-250.93600952 414.81081024 -250.93451904 413.55912048 -250.9329834 412.26950073 C-250.86267077 379.10528958 -248.84645968 346.20625529 -244.77574158 313.29745483 C-243.84338306 305.74577372 -243.1895978 298.21582229 -242.6875 290.625 C-241.72568131 277.08095477 -239.37266563 263.84875495 -236.625 250.5625 C-236.42455078 249.58587402 -236.22410156 248.60924805 -236.01757812 247.60302734 C-229.24138797 215.63829426 -217.47958171 183.28765471 -201.81640625 154.62890625 C-199.95327835 151.21138795 -198.21374305 147.74613325 -196.5065918 144.24853516 C-191.13449805 133.248968 -184.7232854 123.45826212 -177.16796875 113.828125 C-174.73456319 110.72384881 -172.3977497 107.55387394 -170.0625 104.375 C-166.51152994 99.61946059 -162.72972557 95.18948886 -158.703125 90.83203125 C-156.79576738 88.74899595 -154.98527793 86.6149058 -153.1875 84.4375 C-152.341875 83.48875 -151.49625 82.54 -150.625 81.5625 C-149.965 81.5625 -149.305 81.5625 -148.625 81.5625 C-148.625 80.9025 -148.625 80.2425 -148.625 79.5625 C-147.26171875 78.1875 -147.26171875 78.1875 -145.3125 76.5625 C-141.93891308 73.70382897 -138.67381652 70.76328591 -135.4375 67.75 C-131.06062915 63.757909 -126.5354745 60.07821678 -121.80053711 56.51977539 C-118.77286588 54.23768856 -115.81099076 51.90689966 -112.91015625 49.46484375 C-98.67486594 37.49597571 -83.32756642 28.21714407 -66.8046875 19.74609375 C-63.50602758 18.04698375 -60.3317659 16.22395607 -57.1875 14.25 C-40.48510453 3.97775375 -19.37571177 0.03055876 0 0 Z " fill="#0230F6" transform="translate(302.625,60.4375)"/>
<path d="M0 0 C0 4.38968456 -2.12805101 5.76905739 -5 9 C-5.99 8.67 -6.98 8.34 -8 8 C-5.36 5.36 -2.72 2.72 0 0 Z " fill="#071CF9" transform="translate(556,459)"/>
</svg>
