<?xml version="1.0" encoding="UTF-8"?>
<svg version="1.1" xmlns="http://www.w3.org/2000/svg" width="690" height="690">
<path d="M0 0 C1.50548438 1.45342985 2.9992565 2.91793175 4.48999023 4.38647461 C4.98611816 4.86890625 5.48224609 5.35133789 5.9934082 5.84838867 C11.05322917 10.77083145 15.92525995 15.79174488 20.48999023 21.17944336 C22.62098832 23.53103304 24.86798436 25.71272882 27.15185547 27.9140625 C36.94057551 37.39867239 43.91081354 48.05623697 50.52514648 59.92163086 C52.43058039 63.28171014 54.4361164 66.55299036 56.48999023 69.82397461 C60.42604676 76.18458058 64.03692965 82.67185806 67.43823242 89.3293457 C68.15375682 90.72883701 68.87603165 92.124893 69.60424805 93.51782227 C79.634006 112.81932487 84.3747483 133.39778028 89.30249023 154.44897461 C89.49762207 155.27691528 89.69275391 156.10485596 89.89379883 156.95788574 C93.9270318 174.16913544 95.87566427 190.71263895 95.80249023 208.38647461 C95.79975601 209.75943192 95.79975601 209.75943192 95.79696655 211.16012573 C95.69122783 242.89724184 92.69476333 274.47177795 81.48999023 304.38647461 C81.23040527 305.08595215 80.97082031 305.78542969 80.70336914 306.50610352 C79.67880994 309.26218681 78.64997566 312.01633089 77.59960938 314.76269531 C76.10086773 318.68722004 74.74935 322.62942081 73.48999023 326.63647461 C67.62439803 344.20969464 56.11365225 359.05729854 43.48999023 372.38647461 C42.421379 373.61033203 41.35877272 374.83946084 40.30249023 376.07397461 C34.53639713 382.66943727 28.5347903 389.04701762 22.48999023 395.38647461 C21.78342285 396.12849121 21.07685547 396.87050781 20.34887695 397.63500977 C10.41466309 408.0000946 0.30991629 417.23241247 -11.51000977 425.38647461 C-12.1294043 425.8239502 -12.74879883 426.26142578 -13.38696289 426.7121582 C-50.69658119 453.04662853 -98.56266792 467.64659133 -144.07250977 467.57397461 C-145.12458115 467.57306824 -145.12458115 467.57306824 -146.19790649 467.57214355 C-160.79632497 467.53808702 -175.02006941 467.31526919 -188.95922852 462.51538086 C-193.48533951 461.07638628 -198.06786022 460.05884068 -202.69750977 459.01147461 C-209.75994708 457.38246609 -216.68832168 455.53329211 -223.57250977 453.26147461 C-224.315896 453.01993652 -225.05928223 452.77839844 -225.82519531 452.52954102 C-229.57886544 451.25134219 -232.41431143 449.8219234 -235.51000977 447.38647461 C-237.17834467 446.57479696 -238.84848224 445.76622836 -240.53393555 444.99072266 C-289.63704377 422.21061747 -318.06403284 380.33875219 -336.54516602 331.04663086 C-340.97132468 318.73927583 -343.60531784 306.30943056 -345.51000977 293.38647461 C-345.70336914 292.13092773 -345.89672852 290.87538086 -346.09594727 289.58178711 C-351.79332507 241.58770281 -332.44433933 197.13844842 -303.74829102 159.73803711 C-299.48803199 154.40070777 -299.48803199 154.40070777 -297.51000977 152.38647461 C-296.85000977 152.38647461 -296.19000977 152.38647461 -295.51000977 152.38647461 C-295.31793945 151.84249023 -295.12586914 151.29850586 -294.92797852 150.73803711 C-292.87404638 147.33179153 -289.91583664 145.175788 -286.82250977 142.76147461 C-286.15985107 142.23803467 -285.49719238 141.71459473 -284.81445312 141.17529297 C-278.53748283 136.2841569 -272.01030133 131.7915849 -265.29296875 127.52832031 C-264.0718333 126.74627862 -262.86338256 125.94417167 -261.66650391 125.12548828 C-256.33965834 121.57627948 -250.90187871 119.5128826 -244.82250977 117.57397461 C-243.2652417 117.07510742 -243.2652417 117.07510742 -241.67651367 116.56616211 C-239.44603155 115.86023385 -237.21319481 115.16170978 -234.97827148 114.4699707 C-232.66165301 113.74625165 -230.35066171 113.00427375 -228.0456543 112.24438477 C-193.99685646 101.04993415 -154.68463672 102.14718668 -122.01000977 118.13647461 C-114.48892532 122.02160036 -107.96507315 126.94748602 -101.51000977 132.38647461 C-100.63860352 133.09416992 -99.76719727 133.80186523 -98.86938477 134.53100586 C-77.76502739 152.41661691 -62.03170421 182.00283182 -58.51000977 209.38647461 C-56.48006842 245.62748223 -66.92435604 277.71524727 -91.16088867 304.89233398 C-103.31446624 318.35232217 -121.19257657 332.16942543 -139.95141602 333.65991211 C-148.77463929 333.90318232 -156.32146874 333.28760701 -163.12329102 327.00756836 C-168.61172483 320.59151193 -170.36599902 313.9208557 -169.98266602 305.56616211 C-168.93971388 298.54993863 -166.06400397 293.33554336 -160.69750977 288.69897461 C-155.95163959 285.30452475 -150.74229823 283.23593083 -145.39135742 281.00195312 C-130.07656164 274.49181202 -120.72006766 261.52349072 -114.51000977 246.38647461 C-109.67841907 231.16341128 -108.9659356 217.47331057 -114.51000977 202.38647461 C-114.7871582 201.5344043 -115.06430664 200.68233398 -115.34985352 199.80444336 C-120.6214698 184.76697571 -132.44428785 170.76049745 -146.77563477 163.80053711 C-162.73674987 157.67592317 -179.62361429 155.6622813 -196.32250977 159.38647461 C-197.31081787 159.60505127 -198.29912598 159.82362793 -199.31738281 160.04882812 C-230.58238636 167.35187511 -259.59173369 186.23148785 -277.44750977 213.38647461 C-278.0134082 214.33522461 -278.57930664 215.28397461 -279.16235352 216.26147461 C-280.51000977 218.38647461 -280.51000977 218.38647461 -282.51000977 219.38647461 C-283.54833289 221.6701765 -284.46017522 223.91099385 -285.32250977 226.26147461 C-285.58314209 226.96457764 -285.84377441 227.66768066 -286.11230469 228.39208984 C-296.93286769 258.44190724 -297.43705414 288.46082886 -285.51000977 318.38647461 C-285.1993457 319.16812988 -284.88868164 319.94978516 -284.56860352 320.75512695 C-274.45226314 345.85846019 -263.82371258 367.32689413 -241.51000977 383.38647461 C-240.80811523 383.89597656 -240.1062207 384.40547852 -239.38305664 384.93041992 C-211.25923439 405.11831213 -179.61622721 412.8859371 -145.51000977 416.38647461 C-144.76219238 416.46865234 -144.014375 416.55083008 -143.24389648 416.63549805 C-127.06257175 418.18953543 -111.80265088 413.04506621 -96.51000977 408.38647461 C-95.39239258 408.05019043 -94.27477539 407.71390625 -93.12329102 407.36743164 C-55.76176657 395.98490874 -26.57807489 375.24140644 -1.51000977 345.38647461 C-0.0798243 343.71352704 1.35789143 342.0469921 2.80249023 340.38647461 C3.78668945 339.24178711 3.78668945 339.24178711 4.79077148 338.07397461 C6.48999023 336.38647461 6.48999023 336.38647461 8.48999023 336.38647461 C8.75424805 335.81670898 9.01850586 335.24694336 9.29077148 334.65991211 C10.56374477 332.2466533 12.04691525 330.19801224 13.67749023 328.01147461 C20.76176245 317.94357737 25.18553827 307.05045581 29.08374023 295.47631836 C30.29526854 291.88749858 31.67936073 288.39238689 33.11499023 284.88647461 C47.12671861 248.93355099 47.96389822 202.4255457 38.48999023 165.38647461 C38.20639648 164.25935059 37.92280273 163.13222656 37.63061523 161.97094727 C35.70700564 154.40622598 33.66008681 146.88393844 31.48999023 139.38647461 C31.05940308 137.8125293 31.05940308 137.8125293 30.62011719 136.20678711 C28.25588488 127.92792676 24.85591369 120.5915839 20.80249023 113.01147461 C20.17942188 111.82757934 19.55686792 110.64341321 18.93481445 109.45898438 C15.16614828 102.34809858 11.27369337 95.33198942 6.97949219 88.52368164 C4.48999023 84.56711961 4.48999023 84.56711961 4.48999023 82.38647461 C3.49999023 82.05647461 2.50999023 81.72647461 1.48999023 81.38647461 C0.26969451 79.51633465 -0.8620504 77.58796714 -1.94750977 75.63647461 C-6.06843507 68.60072481 -11.14362372 62.99071812 -16.8034668 57.16674805 C-18.63171857 55.25950743 -20.41497716 53.31660272 -22.19360352 51.36303711 C-36.56249745 35.63025331 -52.47755733 23.66450088 -71.05297852 13.32397461 C-73.95511885 11.69746432 -76.80473704 10.00572559 -79.65356445 8.28857422 C-103.56672299 -5.89679774 -136.36707646 -13.03649391 -163.58813477 -6.92211914 C-172.01327831 -5.20468603 -178.66609631 -5.50064236 -186.05688477 -10.25024414 C-192.45325895 -15.4028789 -195.69666206 -21.03995323 -196.88110352 -29.15649414 C-197.2815617 -36.9836314 -194.56985578 -43.20135577 -189.88500977 -49.36352539 C-180.30900403 -59.62862335 -164.2827248 -60.86887435 -151.04516602 -61.54321289 C-96.26412866 -62.63278048 -39.56527043 -37.45217416 0 0 Z " fill="#CBF87F" transform="translate(554.510009765625,116.613525390625)"/>
<path d="M0 0 C1.52947266 -0.02416992 1.52947266 -0.02416992 3.08984375 -0.04882812 C12.70975488 -0.05500265 20.06273753 1.64066348 27.1484375 8.359375 C31.68489183 13.49111067 33.99151869 19.45084395 33.875 26.3125 C33.02562248 33.86542629 30.55419019 39.69284737 25.0625 45.0625 C18.48748093 49.70368993 12.33382292 51.31428421 4.41040039 51.4987793 C-16.34714269 52.12925977 -32.43354665 59.32037179 -50.25537109 69.64990234 C-52.67337536 71.05083897 -55.10471904 72.41856561 -57.55078125 73.76953125 C-66.5566013 78.8343704 -74.32280723 85.12398915 -82.22460938 91.74755859 C-85.0863223 94.1041336 -88.04025333 96.33136051 -91 98.5625 C-96.64943387 102.87406644 -101.98408893 107.40701383 -107.125 112.3125 C-107.77629883 112.92593262 -108.42759766 113.53936523 -109.09863281 114.17138672 C-119.5754116 124.09466649 -128.68560681 134.25252176 -136.72265625 146.24414062 C-138.00620105 148.13727983 -139.33260833 149.98572558 -140.6875 151.828125 C-148.58784893 162.78540862 -154.0150907 175.05785045 -159.6796875 187.26538086 C-160.92998725 189.9013591 -162.25224964 192.47512778 -163.61328125 195.0546875 C-167.25678493 202.29716397 -169.82557627 209.98585567 -172.5 217.625 C-172.7850238 218.4353067 -173.07004761 219.2456134 -173.3637085 220.08047485 C-178.68606005 235.29287329 -182.8712746 250.51542741 -186.125 266.3125 C-186.29676758 267.10366211 -186.46853516 267.89482422 -186.64550781 268.70996094 C-189.32504339 281.20107217 -190.01311664 293.98580075 -191.00097656 306.6965332 C-191.66538102 315.19066785 -192.47920753 323.61741905 -193.625 332.0625 C-198.5739916 370.40488621 -201.18016928 411.2995568 -196.97531128 449.82952881 C-196.28825776 456.18427625 -195.85068536 462.51338042 -195.58203125 468.8984375 C-195.53889297 469.8523941 -195.4957547 470.80635071 -195.4513092 471.78921509 C-195.23150089 476.67285553 -195.02598943 481.55705249 -194.82275391 486.44140625 C-194.78349289 487.3592691 -194.74423187 488.27713196 -194.70378113 489.22280884 C-194.6301329 490.95231414 -194.55938532 492.68194649 -194.49214172 494.41171265 C-194.27882033 499.43117878 -193.78003477 504.3317889 -193.125 509.3125 C-192.92982577 512.16825391 -192.89571972 515.01308902 -192.875 517.875 C-192.854375 518.59107422 -192.83375 519.30714844 -192.8125 520.04492188 C-192.75758597 527.58873728 -195.32615963 533.13111855 -200.37890625 538.73828125 C-205.36419778 543.23285057 -212.21450989 545.79332953 -218.9375 545.6484375 C-226.94779612 544.41828488 -233.85451723 540.82802374 -238.796875 534.41015625 C-247.32254323 520.94461554 -246.27584566 502.3834526 -246.94122314 487.04309082 C-247.47771048 474.68741212 -248.02752974 462.3723113 -249.25 450.0625 C-253.47569626 403.37301724 -248.93402268 355.53516608 -243.56176758 309.13696289 C-243.40357544 307.76979126 -243.40357544 307.76979126 -243.2421875 306.375 C-243.1393042 305.48611084 -243.0364209 304.59722168 -242.93041992 303.68139648 C-242.14057936 296.73511845 -241.61893815 289.78991618 -241.1875 282.8125 C-239.83653544 262.73335615 -235.20460487 242.47143418 -229.125 223.3125 C-228.75246094 222.12817383 -228.37992188 220.94384766 -227.99609375 219.72363281 C-220.50918144 196.04191723 -211.65688514 173.3499325 -200.125 151.3125 C-199.78726563 150.66313477 -199.44953125 150.01376953 -199.1015625 149.34472656 C-193.22510162 138.07230489 -187.06809024 127.25552205 -179.4375 117.0625 C-178.8280957 116.24402588 -178.21869141 115.42555176 -177.59082031 114.58227539 C-175.7760675 112.15351382 -173.95232533 109.73181161 -172.125 107.3125 C-171.61179199 106.62978027 -171.09858398 105.94706055 -170.56982422 105.24365234 C-164.59804093 97.33159299 -158.31403926 90.17030366 -151.125 83.3125 C-148.86028974 81.06486901 -146.60536231 78.81238042 -144.39453125 76.51171875 C-143.00926073 75.07445416 -141.568214 73.69157116 -140.125 72.3125 C-139.465 72.3125 -138.805 72.3125 -138.125 72.3125 C-137.91101563 71.755625 -137.69703125 71.19875 -137.4765625 70.625 C-135.67755313 67.54692616 -133.21871314 65.54551182 -130.5 63.3125 C-129.93240967 62.83901123 -129.36481934 62.36552246 -128.7800293 61.87768555 C-123.60376961 57.60760343 -118.25383042 53.5766072 -112.85888672 49.58837891 C-109.1944165 46.87908979 -105.62404566 44.11023225 -102.125 41.1875 C-87.93092844 29.79488993 -71.16864775 21.71581175 -55.125 13.3125 C-54.25770264 12.84497314 -53.39040527 12.37744629 -52.49682617 11.89575195 C-46.55917215 8.77507501 -40.67445795 6.79124888 -34.1875 5.125 C-32.81948242 4.7547168 -32.81948242 4.7547168 -31.42382812 4.37695312 C-20.89084523 1.58552656 -10.91390869 -0.03475767 0 0 Z " fill="#CBF780" transform="translate(302.125,60.6875)"/>
<path d="M0 0 C0.99 0.66 1.98 1.32 3 2 C0.03 4.475 0.03 4.475 -3 7 C-3 3.48283697 -2.17554415 2.62878252 0 0 Z " fill="#D3F8A5" transform="translate(365,67)"/>
<path d="M0 0 C0.33 0.99 0.66 1.98 1 3 C-2 5 -2 5 -4.1875 4.625 C-4.785625 4.41875 -5.38375 4.2125 -6 4 C-4.02 2.68 -2.04 1.36 0 0 Z " fill="#ACDA9D" transform="translate(291,243)"/>
</svg>
