<?xml version="1.0" encoding="UTF-8"?>
<svg version="1.1" xmlns="http://www.w3.org/2000/svg" width="690" height="690">
<path d="M0 0 C0.72522858 0.1218869 1.45045715 0.2437738 2.19766235 0.36935425 C16.80856085 2.86888362 31.10071315 6.5489464 44.6875 12.5625 C46.01297852 13.14209473 46.01297852 13.14209473 47.36523438 13.73339844 C55.61234906 17.40971529 63.39949316 21.65325721 71.125 26.3125 C71.92373535 26.78671387 72.7224707 27.26092773 73.54541016 27.74951172 C99.36683501 43.11274396 121.07938895 60.85327222 140.66699219 83.66259766 C142.60673883 85.85764249 144.72481089 87.82542869 146.875 89.8125 C157.12127163 99.96534058 164.1898815 112.78638906 171.125 125.3125 C172.45701786 127.60493153 173.7903644 129.89659151 175.125 132.1875 C179.09924418 139.10113016 182.68999541 146.1842124 186.16796875 153.35839844 C187.06990644 155.20000795 188.00275247 157.02638737 188.9375 158.8515625 C197.65648559 176.40630581 201.75602848 195.4096265 205.9375 214.4375 C206.13245056 215.32322693 206.32740112 216.20895386 206.52825928 217.121521 C207.77982371 222.84157711 208.98218072 228.56972078 210.125 234.3125 C210.46833374 236.03581543 210.46833374 236.03581543 210.81860352 237.79394531 C212.46434629 247.10736994 212.47832157 256.3850106 212.4375 265.8125 C212.43600952 266.66432861 212.43451904 267.51615723 212.4329834 268.39379883 C212.38362223 284.18200693 211.34859406 299.66665621 209.125 315.3125 C208.9081958 316.86541748 208.9081958 316.86541748 208.68701172 318.44970703 C206.7066667 332.16737932 203.49401621 345.174434 199.125 358.3125 C198.75568359 359.4459082 198.38636719 360.57931641 198.00585938 361.74707031 C190.95075286 383.3284018 183.48664755 401.58011937 169.125 419.3125 C168.66722168 419.8806543 168.20944336 420.44880859 167.73779297 421.03417969 C161.35794665 428.89527003 154.50239792 436.29771667 147.55859375 443.66015625 C144.39813653 447.01146021 141.28790389 450.40573637 138.1875 453.8125 C123.48958321 469.83686634 106.38401023 483.11444667 87.625 494.125 C86.93986328 494.53218262 86.25472656 494.93936523 85.54882812 495.35888672 C71.68237023 503.27490245 56.7679385 508.79702901 41.5625 513.5 C40.74271667 513.75641266 39.92293335 514.01282532 39.07830811 514.27700806 C20.11062875 520.18788659 1.10621472 525.03905229 -18.875 525.3125 C-19.6572998 525.33151367 -20.43959961 525.35052734 -21.24560547 525.37011719 C-41.96944093 525.85773685 -61.05867335 523.87360077 -81.00537109 518.13574219 C-83.8795441 517.31119639 -86.76049252 516.51583708 -89.64453125 515.7265625 C-91.49251553 515.21472453 -93.34018518 514.70174892 -95.1875 514.1875 C-96.43080078 513.84380371 -96.43080078 513.84380371 -97.69921875 513.49316406 C-117.98104103 507.70890649 -136.15430324 496.9500126 -152.875 484.3125 C-153.62410645 483.7565918 -154.37321289 483.20068359 -155.14501953 482.62792969 C-175.42671044 467.55812705 -190.40324587 451.21474321 -201.8125 428.625 C-202.15028473 427.96351959 -202.48806946 427.30203918 -202.83609009 426.62051392 C-224.64737953 383.81616977 -238.66738923 335.92883504 -224.33398438 288.30737305 C-214.78864429 259.12350406 -199.72886495 230.20511294 -177.875 208.3125 C-177.10671875 207.53261719 -176.3384375 206.75273437 -175.546875 205.94921875 C-167.84132281 198.53912485 -159.09249279 192.71531598 -150.18676758 186.85229492 C-148.64349479 185.82436996 -147.11443299 184.77478884 -145.6003418 183.7043457 C-140.56086557 180.17993473 -135.79836409 177.83211468 -129.9375 176 C-129.06996094 175.72148193 -128.20242188 175.44296387 -127.30859375 175.15600586 C-119.13257857 172.59473544 -110.88534894 170.25656404 -102.62252808 167.99258423 C-101.14341565 167.58614815 -99.6656005 167.17495613 -98.1892395 166.75863647 C-88.95855839 164.17074839 -80.5249002 162.7972921 -70.875 163.3125 C-69.17843715 163.34171841 -67.48181931 163.36796029 -65.78515625 163.390625 C-32.86177979 164.38840454 -4.38968435 172.99521033 20.125 195.3125 C20.77726563 195.88226563 21.42953125 196.45203125 22.1015625 197.0390625 C42.52960944 215.91806322 56.61614475 247.08376673 58.328125 274.57421875 C58.78106763 307.67677582 47.33246572 339.45292368 24.125 363.3125 C23.29355469 364.21742188 22.46210938 365.12234375 21.60546875 366.0546875 C8.95297178 379.42965501 -9.17794419 391.02336425 -28.0625 391.6875 C-35.93839618 391.37644565 -41.38977902 388.63273208 -47.11328125 383.2578125 C-51.67468615 378.22105055 -53.62332087 372.64505873 -54.02734375 365.890625 C-53.58632706 358.42726558 -49.99549873 352.21618233 -44.6015625 347.17578125 C-40.46646179 344.34993162 -35.96628874 342.73246853 -31.30810547 340.94970703 C-15.8806581 334.94695381 -5.91036977 323.06177774 1.125 308.3125 C8.16502885 288.30175133 7.93082892 270.54287902 -0.9375 251.25 C-8.62303077 236.60305698 -20.19619989 225.05224917 -35.875 219.3125 C-62.82190651 211.21831031 -90.92998637 216.48896455 -115.75 229.0625 C-128.76963114 236.73551146 -143.68471345 248.45914436 -152.5625 260.625 C-152.995625 261.181875 -153.42875 261.73875 -153.875 262.3125 C-154.535 262.3125 -155.195 262.3125 -155.875 262.3125 C-156.12636719 262.869375 -156.37773437 263.42625 -156.63671875 264 C-158.07248292 266.6813009 -159.8195627 268.91239701 -161.6875 271.3125 C-175.98509983 290.9169567 -180.66020454 318.66044445 -177.875 342.3125 C-177.78009277 343.13459961 -177.68518555 343.95669922 -177.58740234 344.80371094 C-175.59257428 360.69653905 -170.34170578 374.73110531 -163.875 389.3125 C-163.50793945 390.14749023 -163.14087891 390.98248047 -162.76269531 391.84277344 C-160.59439645 396.73319678 -158.30097852 401.54492483 -155.875 406.3125 C-155.56385254 406.93157227 -155.25270508 407.55064453 -154.93212891 408.18847656 C-147.44870802 422.86109174 -137.13486523 432.88214276 -123.875 442.3125 C-123.31989746 442.71098145 -122.76479492 443.10946289 -122.19287109 443.52001953 C-118.46532362 446.1865747 -114.68873085 448.77001277 -110.875 451.3125 C-110.06933594 451.85648437 -109.26367188 452.40046875 -108.43359375 452.9609375 C-80.69587057 470.70181629 -34.84847231 479.88755261 -2.53125 473.03051758 C2.06228831 471.92710534 6.59280041 470.64368935 11.125 469.3125 C12.36878418 468.9530127 13.61256836 468.59352539 14.89404297 468.22314453 C54.30271554 456.76746904 86.41663326 438.02527681 113.33203125 406.37890625 C114.65147297 404.85824249 116.00903336 403.37044718 117.38671875 401.90234375 C122.2202587 396.75010886 126.70527277 391.46579332 130.9375 385.8125 C131.38125977 385.23234131 131.82501953 384.65218262 132.28222656 384.05444336 C155.30961413 352.64048471 160.563283 307.07044412 160.625 269.4375 C160.62767883 268.4592627 160.63035767 267.48102539 160.63311768 266.47314453 C160.62301432 249.34621094 158.75232571 233.8567741 154.125 217.3125 C153.59359945 215.32295687 153.06234504 213.3333747 152.53125 211.34375 C151.35026873 207.01385992 150.07879835 202.71882245 148.75830078 198.4296875 C148.20837289 196.59122386 147.7214428 194.73414296 147.24609375 192.875 C143.25386396 177.75467076 134.22463397 164.00399337 126.375 150.625 C125.59781616 149.29964233 125.59781616 149.29964233 124.80493164 147.94750977 C121.18259168 141.86623007 117.2504168 136.06237449 113.125 130.3125 C112.60268799 129.57684814 112.08037598 128.84119629 111.54223633 128.08325195 C108.50183804 123.82866686 105.13524816 120.1651352 101.34765625 116.5625 C99.4171307 114.60822457 97.61670683 112.61172399 95.81640625 110.5390625 C83.70605506 96.61497499 70.89211369 85.92273593 55.125 76.3125 C54.29500488 75.80315918 53.46500977 75.29381836 52.60986328 74.76904297 C31.8521455 62.12905337 12.20954099 53.98237736 -11.8125 50 C-13.35744141 49.74234863 -13.35744141 49.74234863 -14.93359375 49.47949219 C-24.16421249 48.0550507 -32.91839673 47.5095339 -42.0625 49.75 C-43.83947266 50.1521875 -43.83947266 50.1521875 -45.65234375 50.5625 C-47.50043541 50.99260133 -49.34751295 51.42724176 -51.19140625 51.875 C-58.61959247 53.31561793 -65.14338194 49.68276448 -71.1875 45.6875 C-76.39742775 41.4709459 -79.20716239 36.14982924 -80.3515625 29.57421875 C-80.77990324 21.60482659 -78.30957376 15.28777162 -73.11328125 9.2734375 C-54.75190977 -8.23131827 -22.68453221 -3.86579044 0 0 Z " fill="#301C17" transform="translate(437.875,58.6875)"/>
<path d="M0 0 C5.32677486 4.83126092 9.19643177 11.32850169 9.890625 18.55078125 C10.07293553 27.10418368 7.11773879 32.36117025 1.50390625 38.640625 C-5.66367406 45.73113455 -14.63639054 46.49080419 -24.375 46.8125 C-44.13569189 47.69321169 -59.45108724 55.58803397 -76.3125 65.4375 C-77.81452593 66.2939836 -79.31707084 67.1495582 -80.8203125 68.00390625 C-87.18880434 71.67120391 -93.13798876 75.61809941 -98.7890625 80.33984375 C-101.73498494 82.78869878 -104.76714326 85.11494199 -107.8125 87.4375 C-109.98056023 89.10236156 -112.14642645 90.77005229 -114.3125 92.4375 C-115.1684375 93.09492188 -116.024375 93.75234375 -116.90625 94.4296875 C-135.50304125 108.98107286 -151.03084897 125.95325052 -164.3125 145.4375 C-165.00085938 146.43523437 -165.68921875 147.43296875 -166.3984375 148.4609375 C-170.51933554 154.67025445 -173.84775811 161.23593206 -177.09375 167.9296875 C-178.61326361 171.05542609 -180.20260476 174.13175899 -181.84375 177.1953125 C-201.87380518 215.0359353 -212.00449931 256.59747525 -215.23925781 299.0703125 C-215.88484845 307.52383352 -216.68038123 315.90750925 -217.8125 324.3125 C-223.37168242 367.87292811 -225.88033902 414.00256366 -219.96875 457.6171875 C-219.2635664 462.97868378 -219.20925167 468.23335868 -219.30859375 473.63549805 C-219.31266513 476.5559519 -218.97068867 479.34569016 -218.52734375 482.23046875 C-218.23574369 485.22599665 -218.32567868 488.17889935 -218.375 491.1875 C-218.42431382 495.81313678 -218.14305665 500.02577223 -217.25 504.5625 C-215.83571863 512.24881179 -215.44240952 519.99438048 -219.625 526.875 C-220.50109232 528.07713804 -221.3952963 529.26642742 -222.3125 530.4375 C-223.2096875 531.79875 -223.2096875 531.79875 -224.125 533.1875 C-228.60085497 537.79123654 -235.08451865 540.55124199 -241.5 540.6875 C-248.44194856 540.59719823 -254.36301845 538.38698155 -259.3125 533.4375 C-266.42090667 524.75146226 -268.19950386 515.63534674 -269.328125 504.7421875 C-269.41457275 503.91187012 -269.50102051 503.08155273 -269.59008789 502.22607422 C-270.48015814 493.31024304 -270.91609339 484.38635132 -271.3125 475.4375 C-271.47213122 471.99326961 -271.63676512 468.54930451 -271.8046875 465.10546875 C-271.84560516 464.26525681 -271.88652283 463.42504486 -271.92868042 462.55937195 C-272.22581148 456.66624846 -272.65608586 450.79342552 -273.1652832 444.91455078 C-276.89495876 401.55665435 -273.88882188 357.07601193 -268.46640015 313.99127197 C-267.49767339 306.2929322 -266.82420615 298.6159412 -266.3125 290.875 C-262.89344846 241.89642264 -248.1723878 191.66249527 -224.48095703 148.60888672 C-222.95454415 145.77229746 -221.53771471 142.88858426 -220.12695312 139.99316406 C-203.38410685 105.64258765 -175.71335737 75.47876646 -145.76171875 52.1328125 C-142.90405877 49.90507101 -140.07135216 47.64865084 -137.25 45.375 C-136.4559375 44.74207031 -135.661875 44.10914063 -134.84375 43.45703125 C-133.02398613 42.00515174 -131.21243428 40.54295731 -129.40625 39.07421875 C-113.87656136 26.61719693 -95.85449179 17.69465524 -78.3125 8.4375 C-77.4447998 7.97448486 -76.57709961 7.51146973 -75.68310547 7.03442383 C-70.33672303 4.25498577 -65.14463236 2.2450909 -59.3125 0.75 C-58.53068359 0.54213867 -57.74886719 0.33427734 -56.94335938 0.12011719 C-38.60130502 -4.69028859 -17.7809253 -8.38722891 0 0 Z " fill="#301C17" transform="translate(326.3125,65.5625)"/>
<path d="M0 0 C1.17949219 0.10183594 2.35898438 0.20367188 3.57421875 0.30859375 C4.47785156 0.39238281 5.38148437 0.47617187 6.3125 0.5625 C3.20263793 2.63574138 2.42141613 2.83642186 -1.125 2.8125 C-1.88683594 2.81765625 -2.64867188 2.8228125 -3.43359375 2.828125 C-5.90193018 2.5372292 -7.545186 1.79225656 -9.6875 0.5625 C-6.14075997 -0.61974668 -3.71227005 -0.33079634 0 0 Z " fill="#191B90" transform="translate(85.6875,603.4375)"/>
<path d="M0 0 C0.33 0 0.66 0 1 0 C1.05447047 1.41623216 1.09300508 2.83308191 1.125 4.25 C1.14820313 5.03890625 1.17140625 5.8278125 1.1953125 6.640625 C0.9828378 9.20731941 0.28654105 10.7916067 -1 13 C-1.33 10.69 -1.66 8.38 -2 6 C-1.34 6 -0.68 6 0 6 C0 4.02 0 2.04 0 0 Z " fill="#1615A3" transform="translate(335,82)"/>
<path d="M0 0 C0.33 0.99 0.66 1.98 1 3 C-0.9375 5.6875 -0.9375 5.6875 -3 8 C-3.99 7.67 -4.98 7.34 -6 7 C-4.02 4.69 -2.04 2.38 0 0 Z " fill="#3A2C26" transform="translate(367,66)"/>
<path d="M0 0 C0.66 0.33 1.32 0.66 2 1 C0.35 2.98 -1.3 4.96 -3 7 C-3.99 6.67 -4.98 6.34 -6 6 C-4.02 4.02 -2.04 2.04 0 0 Z " fill="#362028" transform="translate(395,405)"/>
<path d="M0 0 C0.33 0.99 0.66 1.98 1 3 C-0.98 4.98 -2.96 6.96 -5 9 C-5.66 8.67 -6.32 8.34 -7 8 C-4.69 5.36 -2.38 2.72 0 0 Z " fill="#2B282B" transform="translate(428,384)"/>
</svg>
