<?xml version="1.0" encoding="UTF-8"?>
<svg version="1.1" xmlns="http://www.w3.org/2000/svg" width="690" height="690">
<path d="M0 0 C2.22933883 1.38294735 4.47036445 2.74417089 6.71679688 4.09912109 C26.60371406 16.17256639 44.30609323 31.49046156 59.35742188 49.25537109 C61.48841996 51.60696077 63.735416 53.78865656 66.01928711 55.98999023 C75.80800715 65.47460012 82.77824518 76.1321647 89.39257812 87.99755859 C91.29801203 91.35763787 93.30354804 94.62891809 95.35742188 97.89990234 C99.29347841 104.26050832 102.90436129 110.74778579 106.30566406 117.40527344 C107.02118846 118.80476474 107.74346329 120.20082073 108.47167969 121.59375 C118.50143764 140.89525261 123.24217994 161.47370801 128.16992188 182.52490234 C128.36505371 183.35284302 128.56018555 184.18078369 128.76123047 185.03381348 C132.79446344 202.24506317 134.74309591 218.78856668 134.66992188 236.46240234 C134.66718765 237.83535965 134.66718765 237.83535965 134.66439819 239.23605347 C134.55505439 272.05522251 130.93488843 303.68527979 119.41455078 334.57128906 C117.95220906 338.57060791 116.60619694 342.60637574 115.25048828 346.64282227 C108.17271938 367.54854879 97.53328007 384.43839239 82.35742188 400.46240234 C81.28881064 401.68625976 80.22620436 402.91538857 79.16992188 404.14990234 C73.40382877 410.745365 67.40222195 417.12294535 61.35742188 423.46240234 C60.65085449 424.20441895 59.94428711 424.94643555 59.21630859 425.7109375 C49.28209473 436.07602233 39.17734793 445.30834021 27.35742188 453.46240234 C26.73802734 453.89987793 26.11863281 454.33735352 25.48046875 454.78808594 C-11.82914955 481.12255627 -59.69523628 495.72251907 -105.20507812 495.64990234 C-106.25714951 495.64899597 -106.25714951 495.64899597 -107.33047485 495.64807129 C-121.92889333 495.61401475 -136.15263777 495.39119693 -150.09179688 490.59130859 C-154.61790787 489.15231401 -159.20042858 488.13476841 -163.83007812 487.08740234 C-170.89251544 485.45839383 -177.82089004 483.60921984 -184.70507812 481.33740234 C-185.44846436 481.09586426 -186.19185059 480.85432617 -186.95776367 480.60546875 C-190.7114338 479.32726993 -193.54687979 477.89785114 -196.64257812 475.46240234 C-198.31091303 474.6507247 -199.98105059 473.8421561 -201.66650391 473.06665039 C-250.76961213 450.2865452 -279.1966012 408.41467992 -297.67773438 359.12255859 C-302.10389304 346.81520356 -304.7378862 334.3853583 -306.64257812 321.46240234 C-306.8359375 320.20685547 -307.02929688 318.95130859 -307.22851562 317.65771484 C-311.66561721 280.2800589 -301.13035829 241.8433934 -280.64257812 210.46240234 C-280.17625977 209.74036621 -279.70994141 209.01833008 -279.22949219 208.27441406 C-264.81867076 186.13084587 -248.80870894 169.7142933 -226.40942383 155.58813477 C-225.19445957 154.81402945 -223.99294492 154.01853375 -222.8034668 153.20581055 C-217.47449227 149.65473343 -212.03718167 147.58968249 -205.95507812 145.64990234 C-204.39781006 145.15103516 -204.39781006 145.15103516 -202.80908203 144.64208984 C-200.57859991 143.93616159 -198.34576317 143.23763751 -196.11083984 142.54589844 C-193.79422137 141.82217939 -191.48323007 141.08020148 -189.17822266 140.3203125 C-154.89904968 129.05011991 -115.48668051 130.32416751 -82.64257812 146.46240234 C-52.44749358 162.69684456 -32.69553074 191.28454147 -22.64257812 223.46240234 C-14.43827028 251.79926702 -20.76052488 283.2469433 -34.65478516 308.68603516 C-47.46977576 331.73148045 -67.4421418 351.63910333 -92.70507812 360.46240234 C-101.64183981 362.76000051 -111.39267591 362.73467313 -119.64257812 358.46240234 C-125.41695929 354.72603806 -128.54908834 350.02794265 -130.64257812 343.46240234 C-131.74635527 335.5440011 -131.22259021 328.17357612 -126.64257812 321.46240234 C-121.66527012 315.04140002 -114.53507409 312.51572452 -107.29077148 309.43603516 C-91.58937574 302.66995714 -82.07595342 290.12627263 -75.64257812 274.46240234 C-74.37058148 270.49676574 -73.41153905 266.55327447 -72.64257812 262.46240234 C-72.41570312 261.30740234 -72.18882812 260.15240234 -71.95507812 258.96240234 C-71.02268484 248.51959758 -72.05029389 240.3505715 -75.64257812 230.46240234 C-75.91972656 229.60904297 -76.196875 228.75568359 -76.48242188 227.87646484 C-81.76197463 212.84068788 -93.57437154 198.83763186 -107.90820312 191.87646484 C-123.86931823 185.75185091 -140.75618265 183.73820904 -157.45507812 187.46240234 C-158.44338623 187.680979 -159.43169434 187.89955566 -160.44995117 188.12475586 C-191.71495472 195.42780285 -220.72430205 214.30741558 -238.58007812 241.46240234 C-239.14597656 242.41115234 -239.711875 243.35990234 -240.29492188 244.33740234 C-241.64257812 246.46240234 -241.64257812 246.46240234 -243.64257812 247.46240234 C-244.68090125 249.74610424 -245.59274358 251.98692159 -246.45507812 254.33740234 C-246.71571045 255.04050537 -246.97634277 255.7436084 -247.24487305 256.46801758 C-258.06543605 286.51783498 -258.5696225 316.53675659 -246.64257812 346.46240234 C-246.33191406 347.24405762 -246.02125 348.02571289 -245.70117188 348.83105469 C-235.59149746 373.91784657 -224.96477529 395.43057838 -202.64257812 411.46240234 C-201.93536621 411.9719043 -201.2281543 412.48140625 -200.49951172 413.00634766 C-172.04230996 433.25583987 -141.30482583 441.28924518 -106.64257812 444.46240234 C-105.32902344 444.58744141 -104.01546875 444.71248047 -102.66210938 444.84130859 C-87.02205422 445.73983959 -72.42818835 440.97339876 -57.64257812 436.46240234 C-55.9502002 435.95 -55.9502002 435.95 -54.22363281 435.42724609 C-18.0971032 424.33815184 10.95114904 404.44947739 35.41601562 375.68115234 C36.98091384 373.89269724 38.57304456 372.15724971 40.20507812 370.43115234 C53.38079601 356.48950037 61.79317717 341.87000669 67.88476562 323.73974609 C68.82026265 320.96579404 69.8224089 318.24109605 70.92382812 315.52880859 C80.96174189 290.74360471 82.59548785 263.26264483 82.73242188 236.77490234 C82.74420471 235.66393188 82.74420471 235.66393188 82.75622559 234.53051758 C82.89371633 217.93750753 79.58495352 202.40470632 75.48242188 186.39990234 C75.30390686 185.70152252 75.12539185 185.0031427 74.94146729 184.28359985 C74.05983003 180.84276149 73.16973726 177.40428777 72.26953125 173.96826172 C71.56153883 171.24696323 70.88133688 168.52252513 70.21679688 165.79052734 C65.53585172 148.47846036 55.3606445 131.68583276 45.84667969 116.59887695 C43.35742188 112.64354951 43.35742188 112.64354951 43.35742188 110.46240234 C42.69742187 110.46240234 42.03742188 110.46240234 41.35742188 110.46240234 C39.9946451 108.42434828 38.7323144 106.38076523 37.48242188 104.27490234 C33.05770012 97.12978269 27.8860898 91.23609811 22.04785156 85.2265625 C20.22653597 83.32580766 18.45000141 81.38940643 16.67773438 79.44287109 C2.30678981 63.70906903 -13.6081362 51.74153612 -32.18554688 41.39990234 C-35.08768721 39.77339205 -37.9373054 38.08165333 -40.78613281 36.36450195 C-63.05925317 23.15200656 -96.05819922 14.50807993 -121.64257812 20.46240234 C-122.29097656 20.64544922 -122.939375 20.82849609 -123.60742188 21.01708984 C-130.91561109 22.61619458 -138.96464495 22.33930128 -145.64257812 18.85302734 C-151.73595233 14.61622809 -156.1397487 8.77527765 -157.64257812 1.46240234 C-158.78983608 -7.38582464 -156.36532801 -14.25348346 -151.01757812 -21.28759766 C-141.48598358 -31.50508858 -125.54817081 -32.78364832 -112.36499023 -33.4543457 C-72.04000225 -34.35621629 -33.79438734 -21.03017418 0 0 Z " fill="#FDFBF1" transform="translate(515.642578125,88.53759765625)"/>
<path d="M0 0 C1.03769531 -0.020625 2.07539063 -0.04125 3.14453125 -0.0625 C12.01499902 -0.10724385 20.23404278 1.27783707 27.125 7.25 C32.27286664 13.72712798 34.6113276 19.95870753 34.125 28.25 C33.0493653 35.73508686 29.95226397 41.39768212 24.125 46.25 C17.87972938 49.939415 11.87557835 51.26827553 4.66040039 51.4362793 C-16.09714269 52.06675977 -32.18354665 59.25787179 -50.00537109 69.58740234 C-52.42337536 70.98833897 -54.85471904 72.35606561 -57.30078125 73.70703125 C-66.3066013 78.7718704 -74.07280723 85.06148915 -81.97460938 91.68505859 C-84.8363223 94.0416336 -87.79025333 96.26886051 -90.75 98.5 C-96.39943387 102.81156644 -101.73408893 107.34451383 -106.875 112.25 C-107.52629883 112.86343262 -108.17759766 113.47686523 -108.84863281 114.10888672 C-119.3254116 124.03216649 -128.43560681 134.19002176 -136.47265625 146.18164062 C-137.75620105 148.07477983 -139.08260833 149.92322558 -140.4375 151.765625 C-148.33784893 162.72290862 -153.7650907 174.99535045 -159.4296875 187.20288086 C-160.67998725 189.8388591 -162.00224964 192.41262778 -163.36328125 194.9921875 C-167.00678493 202.23466397 -169.57557627 209.92335567 -172.25 217.5625 C-172.5350238 218.3728067 -172.82004761 219.1831134 -173.1137085 220.01797485 C-178.43606005 235.23037329 -182.6212746 250.45292741 -185.875 266.25 C-186.04676758 267.04116211 -186.21853516 267.83232422 -186.39550781 268.64746094 C-189.07504339 281.13857217 -189.76311664 293.92330075 -190.75097656 306.6340332 C-191.41538102 315.12816785 -192.22920753 323.55491905 -193.375 332 C-198.3239916 370.34238621 -200.93016928 411.2370568 -196.72531128 449.76702881 C-196.03825776 456.12177625 -195.60068536 462.45088042 -195.33203125 468.8359375 C-195.28889297 469.7898941 -195.2457547 470.74385071 -195.2013092 471.72671509 C-194.98150089 476.61035553 -194.77598943 481.49455249 -194.57275391 486.37890625 C-194.53349289 487.2967691 -194.49423187 488.21463196 -194.45378113 489.16030884 C-194.3801329 490.88981414 -194.30938532 492.61944649 -194.24214172 494.34921265 C-194.02882033 499.36867878 -193.53003477 504.2692889 -192.875 509.25 C-192.67982577 512.10575391 -192.64571972 514.95058902 -192.625 517.8125 C-192.604375 518.52857422 -192.58375 519.24464844 -192.5625 519.98242188 C-192.50766089 527.5159446 -195.05854495 533.10639435 -200.15234375 538.67578125 C-205.02331073 543.12702772 -210.69765592 544.99833291 -217.2265625 545.41015625 C-225.31091888 544.92127924 -232.529182 541.26953753 -237.875 535.25 C-247.45530282 522.47626291 -246.02745469 502.28385627 -246.69122314 486.98059082 C-247.22771013 474.62492015 -247.77742149 462.3097959 -249 450 C-253.11884054 404.52673549 -248.90338337 357.85006358 -243.58911133 312.65820312 C-242.54365928 303.7369189 -241.65394817 294.86638721 -241.19117737 285.89463806 C-240.92759696 280.8381515 -240.47752164 275.87505041 -239.6875 270.875 C-239.56294434 270.07030273 -239.43838867 269.26560547 -239.31005859 268.43652344 C-236.61563561 251.88462399 -233.03275417 235.29649459 -227.60400391 219.41650391 C-226.75196353 216.88435176 -225.94455836 214.33956202 -225.13671875 211.79296875 C-219.17479318 193.18675455 -212.34320878 174.92527469 -202.80859375 157.83203125 C-200.59188683 153.82079369 -198.71609004 149.66633077 -196.8125 145.5 C-191.14166419 133.26264668 -183.46941184 122.85112258 -175.32666016 112.16748047 C-174.00813793 110.4258603 -172.70811827 108.67284504 -171.41796875 106.91015625 C-167.22701087 101.20722408 -162.8634668 95.82604736 -158.0625 90.625 C-155.93011386 88.30983791 -153.8713264 85.94301803 -151.8125 83.5625 C-148.69137091 80.03884434 -145.38359916 76.95042535 -141.7890625 73.91796875 C-139.97521083 72.33732658 -138.34017655 70.68380109 -136.6875 68.9375 C-132.1632329 64.35236832 -126.97270781 60.61455181 -121.84228516 56.74658203 C-118.90503539 54.51211429 -116.00200722 52.23451612 -113.09594727 49.9597168 C-101.42804185 40.83448949 -89.88511129 32.37878845 -76.875 25.25 C-76.01277832 24.77449707 -75.15055664 24.29899414 -74.26220703 23.80908203 C-71.38527623 22.22296041 -68.5058192 20.64154767 -65.625 19.0625 C-64.71451904 18.56331055 -63.80403809 18.06412109 -62.8659668 17.54980469 C-60.20958183 16.10257438 -57.54340782 14.67491431 -54.875 13.25 C-54.07215576 12.80672363 -53.26931152 12.36344727 -52.44213867 11.90673828 C-45.77669564 8.35803512 -38.98387452 6.36486134 -31.6875 4.5 C-30.55119141 4.19707031 -29.41488281 3.89414063 -28.24414062 3.58203125 C-18.69317218 1.07594623 -9.85756511 0.04861931 0 0 Z " fill="#FDFBF1" transform="translate(301.875,60.75)"/>
<path d="M0 0 C2.1640625 0.0234375 2.1640625 0.0234375 4.625 0.375 C5.85089844 0.54128906 5.85089844 0.54128906 7.1015625 0.7109375 C7.72804688 0.80632813 8.35453125 0.90171875 9 1 C8.34 1.66 7.68 2.32 7 3 C4.8359375 2.9765625 4.8359375 2.9765625 2.375 2.625 C1.55773437 2.51414062 0.74046875 2.40328125 -0.1015625 2.2890625 C-0.72804688 2.19367187 -1.35453125 2.09828125 -2 2 C-1.34 1.34 -0.68 0.68 0 0 Z " fill="#A2A6F3" transform="translate(81,603)"/>
</svg>
