<?xml version="1.0" encoding="UTF-8"?>
<svg version="1.1" xmlns="http://www.w3.org/2000/svg" width="538" height="240">
<path d="M0 0 C0.98033203 -0.01611328 1.96066406 -0.03222656 2.97070312 -0.04882812 C11.98614702 -0.05494859 11.98614702 -0.05494859 15.9375 3.3125 C19.24980528 8.10963179 19.69565923 12.66168652 18.9375 18.3125 C17.38478802 22.37912662 16.57470598 23.88769602 12.9375 26.3125 C10.67578125 26.7265625 10.67578125 26.7265625 8.25 26.9375 C7.44175781 27.01226562 6.63351563 27.08703125 5.80078125 27.1640625 C4.87845703 27.23753906 4.87845703 27.23753906 3.9375 27.3125 C4.74574219 27.869375 5.55398437 28.42625 6.38671875 29 C13.60608744 34.15544784 19.06231924 38.68695772 21.9375 47.3125 C21.94007812 46.04535156 21.94265625 44.77820313 21.9453125 43.47265625 C22.21635586 27.30949078 22.21635586 27.30949078 26.87890625 21.1015625 C33.76795565 15.1144949 39.10501504 13.4515645 48.25 13.625 C49.77379272 13.63563477 49.77379272 13.63563477 51.32836914 13.64648438 C59.1624208 13.88313605 64.7580291 15.23596645 70.9375 20.3125 C70.9375 20.9725 70.9375 21.6325 70.9375 22.3125 C71.5975 22.3125 72.2575 22.3125 72.9375 22.3125 C72.9375 23.6325 72.9375 24.9525 72.9375 26.3125 C73.5975 26.3125 74.2575 26.3125 74.9375 26.3125 C75.85898598 43.18593217 75.85898598 43.18593217 71.421875 48.83203125 C66.94675229 53.29537732 63.21333835 54.81043293 56.9375 55.3125 C63.97969752 57.12251331 70.62027154 57.6856659 77.875 57.875 C79.92590302 57.93475973 81.97669885 57.99836273 84.02734375 58.06640625 C84.92316162 58.09033447 85.81897949 58.1142627 86.74194336 58.13891602 C88.9375 58.3125 88.9375 58.3125 90.9375 59.3125 C90.9375 61.6225 90.9375 63.9325 90.9375 66.3125 C90.2775 66.3125 89.6175 66.3125 88.9375 66.3125 C88.9375 67.6325 88.9375 68.9525 88.9375 70.3125 C88.2775 70.3125 87.6175 70.3125 86.9375 70.3125 C86.9375 70.9725 86.9375 71.6325 86.9375 72.3125 C86.2775 72.3125 85.6175 72.3125 84.9375 72.3125 C83.9475 74.2925 83.9475 74.2925 82.9375 76.3125 C82.2775 76.3125 81.6175 76.3125 80.9375 76.3125 C80.9375 76.9725 80.9375 77.6325 80.9375 78.3125 C79.25301982 79.11057198 77.56473873 79.90062301 75.875 80.6875 C74.93527344 81.12835938 73.99554688 81.56921875 73.02734375 82.0234375 C63.26506518 86.09619594 51.55179001 87.45095675 41.4375 83.6875 C32.51143406 79.41981864 27.36865641 74.17481282 22.9375 65.3125 C21.2875 68.2825 19.6375 71.2525 17.9375 74.3125 C17.2775 74.3125 16.6175 74.3125 15.9375 74.3125 C15.9375 74.9725 15.9375 75.6325 15.9375 76.3125 C12.38382642 79.64656453 8.8616792 81.34242551 4.3125 83 C3.18585938 83.41636719 2.05921875 83.83273438 0.8984375 84.26171875 C-7.7878088 87.34430484 -18.99979146 88.21799443 -27.625 84.3125 C-28.759375 83.6525 -29.89375 82.9925 -31.0625 82.3125 C-31.0625 81.6525 -31.0625 80.9925 -31.0625 80.3125 C-31.64 80.23 -32.2175 80.1475 -32.8125 80.0625 C-36.8215848 78.7261384 -38.6338121 76.00146269 -40.8125 72.5 C-42.28735369 68.7391231 -42.56375569 66.32254554 -42.0625 62.3125 C-39.61513627 57.51190191 -36.89872033 54.68664453 -32.0625 52.3125 C-28.39996167 51.71133854 -24.76955058 51.44442351 -21.0625 51.3125 C-22.3825 50.9825 -23.7025 50.6525 -25.0625 50.3125 C-25.0625 49.6525 -25.0625 48.9925 -25.0625 48.3125 C-26.3825 48.3125 -27.7025 48.3125 -29.0625 48.3125 C-29.0625 47.6525 -29.0625 46.9925 -29.0625 46.3125 C-29.64 46.27125 -30.2175 46.23 -30.8125 46.1875 C-34.23248433 44.85750609 -35.26501232 42.41161668 -37.0625 39.3125 C-39.37577028 32.37268917 -39.07691761 24.51307144 -36 17.875 C-31.13999481 9.46188177 -23.19177262 4.96975263 -14.4765625 1.19140625 C-9.63461113 -0.05509153 -4.97948153 -0.01643393 0 0 Z " fill="#2A4EE8" transform="translate(99.0625,98.6875)"/>
<path d="M0 0 C0.763125 0.33 1.52625 0.66 2.3125 1 C2.3125 1.66 2.3125 2.32 2.3125 3 C3.034375 2.938125 3.75625 2.87625 4.5 2.8125 C7.8993939 3.03912626 9.45815204 4.18992568 12.3125 6 C15.49258188 7.24437987 18.29586644 7.9978438 21.6875 8.4375 C25.86775449 9.08616018 29.41963561 10.40468891 33.3125 12 C34.15941406 12.26425781 35.00632812 12.52851562 35.87890625 12.80078125 C40.32917152 14.99376911 41.62409419 19.54812182 43.3125 24 C44.3443425 29.1592125 42.38029966 32.07314438 39.6015625 36.265625 C38.3125 38 38.3125 38 36.3125 40 C34.70351339 43.9751434 34.10514322 47.67817834 33.66015625 51.92578125 C33.1759003 54.81499371 32.09961553 57.35372688 31.00390625 60.05859375 C29.96784265 62.96776668 29.7082646 65.94695879 29.3125 69 C28.68993972 71.01416562 28.03683347 73.02015519 27.3125 75 C26.6525 75 25.9925 75 25.3125 75 C25.3125 76.32 25.3125 77.64 25.3125 79 C24.6525 79 23.9925 79 23.3125 79 C23.3125 80.32 23.3125 81.64 23.3125 83 C21.3325 83 19.3525 83 17.3125 83 C17.3125 82.34 17.3125 81.68 17.3125 81 C16.6525 81 15.9925 81 15.3125 81 C15.3125 79.68 15.3125 78.36 15.3125 77 C14.6525 77 13.9925 77 13.3125 77 C13.168125 75.865625 13.02375 74.73125 12.875 73.5625 C12.70078522 70.19222799 12.70078522 70.19222799 11.3125 69 C11.07722227 66.65012738 10.89863583 64.29443961 10.75 61.9375 C10.66621094 60.64714844 10.58242188 59.35679688 10.49609375 58.02734375 C10.43550781 57.02832031 10.37492187 56.02929688 10.3125 55 C-4.70352453 67.48085156 -15.04048908 83.31058997 -17.6875 103 C-17.81999302 104.74944866 -17.94446167 106.49951665 -18.0625 108.25 C-18.56845207 114.74458474 -20.24206808 120.96485858 -22.6875 127 C-25.57611709 128.44430855 -27.48397701 128.37688506 -30.6875 128 C-33.82618431 125.3722643 -36.4422872 122.42690375 -38.6875 119 C-38.6875 118.34 -38.6875 117.68 -38.6875 117 C-39.3475 117 -40.0075 117 -40.6875 117 C-40.6875 115.68 -40.6875 114.36 -40.6875 113 C-41.3475 113 -42.0075 113 -42.6875 113 C-44.7772163 105.49034221 -45.02785396 98.21232615 -45.00317383 90.4609375 C-44.99999524 88.37187335 -45.02361061 86.28420444 -45.04882812 84.1953125 C-45.05110017 82.84635592 -45.05180505 81.4973956 -45.05078125 80.1484375 C-45.05376221 78.94364746 -45.05674316 77.73885742 -45.05981445 76.49755859 C-44.62212445 72.38585568 -43.46287918 69.71516114 -41.6875 66 C-41.25958918 64.73290853 -40.84050746 63.46273075 -40.4375 62.1875 C-38.4585239 56.8483874 -35.07819401 52.52327023 -31.6875 48 C-31.12804687 47.22269531 -30.56859375 46.44539063 -29.9921875 45.64453125 C-25.3321734 39.3480936 -19.9200423 33.95154277 -13.48046875 29.4609375 C-11.40081091 28.03276599 -11.40081091 28.03276599 -10.6875 25 C-11.3475 25 -12.0075 25 -12.6875 25 C-12.6875 24.34 -12.6875 23.68 -12.6875 23 C-13.3475 23 -14.0075 23 -14.6875 23 C-14.6875 22.34 -14.6875 21.68 -14.6875 21 C-15.3475 21 -16.0075 21 -16.6875 21 C-19.99995345 15.43981028 -21.3367059 11.49205899 -20.6875 5 C-19.84387427 2.32851853 -19.31017431 1.38812434 -16.9453125 -0.0859375 C-11.6615543 -2.22503684 -5.37728926 -1.45824794 0 0 Z " fill="#2A4FE8" transform="translate(456.6875,48)"/>
<path d="M0 0 C10.26461112 -0.04061172 10.26461112 -0.04061172 13.74609375 1.92578125 C15.39076097 3.76055785 16.4818109 5.55665659 17.63671875 7.734375 C18.41402344 9.02021484 18.41402344 9.02021484 19.20703125 10.33203125 C22.15986347 15.40319964 24.44087813 20.42490573 26.09375 26.0546875 C26.50117851 27.75061196 26.50117851 27.75061196 27.63671875 28.734375 C27.97005208 31.06770833 28.30338542 33.40104167 28.63671875 35.734375 C28.96671875 36.064375 29.29671875 36.394375 29.63671875 36.734375 C29.84440104 38.20834239 30.00387892 39.6892876 30.13671875 41.171875 C30.42818819 44.57935005 30.42818819 44.57935005 31.63671875 47.734375 C31.92317235 53.15306182 31.95069169 58.57299263 31.98681641 63.99853516 C32.0032888 65.80823708 32.03046211 67.61787633 32.06884766 69.42724609 C32.48558394 89.1877936 32.48558394 89.1877936 26.63671875 96.734375 C22.52631964 100.65793779 19.23956925 101.16600396 13.78515625 101.0703125 C11.41425536 100.69958982 9.71552396 99.9101698 7.63671875 98.734375 C7.63671875 99.394375 7.63671875 100.054375 7.63671875 100.734375 C6.97671875 100.734375 6.31671875 100.734375 5.63671875 100.734375 C5.63671875 101.394375 5.63671875 102.054375 5.63671875 102.734375 C4.31671875 102.734375 2.99671875 102.734375 1.63671875 102.734375 C1.63671875 103.394375 1.63671875 104.054375 1.63671875 104.734375 C0.31671875 104.734375 -1.00328125 104.734375 -2.36328125 104.734375 C-2.36328125 105.394375 -2.36328125 106.054375 -2.36328125 106.734375 C-13.42221877 111.69819873 -21.72241856 113.0292232 -33.36328125 108.734375 C-38.01386079 106.15375929 -40.42536007 102.62872707 -42.36328125 97.734375 C-42.81517631 94.30996606 -42.83860112 90.93482785 -42.80078125 87.484375 C-42.7946582 86.54650146 -42.78853516 85.60862793 -42.78222656 84.64233398 C-42.63166031 77.99483384 -41.86774219 72.50642831 -38.36328125 66.734375 C-37.76515625 65.6825 -37.16703125 64.630625 -36.55078125 63.546875 C-29.55731636 54.55527728 -21.71100783 48.78068635 -10.36328125 46.734375 C-6.92578125 46.546875 -6.92578125 46.546875 -4.36328125 46.734375 C-4.03328125 47.064375 -3.70328125 47.394375 -3.36328125 47.734375 C-3.33639974 46.08862934 -3.31694002 44.44276087 -3.30078125 42.796875 C-3.28917969 41.88035156 -3.27757812 40.96382812 -3.265625 40.01953125 C-3.10379076 37.76844173 -3.10379076 37.76844173 -4.36328125 36.734375 C-4.57311404 34.59233189 -4.7315151 32.44513387 -4.86328125 30.296875 C-5.00475451 25.85653169 -5.00475451 25.85653169 -6.36328125 21.734375 C-6.51441064 19.11576765 -6.59461987 16.54146618 -6.61328125 13.921875 C-6.63390625 13.20966797 -6.65453125 12.49746094 -6.67578125 11.76367188 C-6.72027805 5.75104147 -6.40980281 1.39958528 0 0 Z M-1.36328125 68.734375 C-1.36328125 69.394375 -1.36328125 70.054375 -1.36328125 70.734375 C-2.02328125 70.734375 -2.68328125 70.734375 -3.36328125 70.734375 C-4.81292084 72.63811855 -6.17512448 74.60904659 -7.48828125 76.609375 C-8.21273437 77.69992188 -8.9371875 78.79046875 -9.68359375 79.9140625 C-11.5338456 82.47366318 -11.5338456 82.47366318 -11.36328125 84.734375 C-9.94704909 84.78884547 -8.53019934 84.82738008 -7.11328125 84.859375 C-5.92992187 84.89417969 -5.92992187 84.89417969 -4.72265625 84.9296875 C-2.15596184 84.7172128 -0.57167455 84.02091605 1.63671875 82.734375 C1.84864096 77.54228096 1.22798765 73.607636 -0.36328125 68.734375 C-0.69328125 68.734375 -1.02328125 68.734375 -1.36328125 68.734375 Z " fill="#2A4FE8" transform="translate(335.36328125,66.265625)"/>
<path d="M0 0 C1.68029297 -0.04253906 1.68029297 -0.04253906 3.39453125 -0.0859375 C13.16169514 -0.10873135 20.5697618 2.69318392 27.9375 9.1875 C28.96810547 10.05955078 28.96810547 10.05955078 30.01953125 10.94921875 C37.12053804 19.55210824 37.8425762 27.4575197 37.5625 38.375 C37.55379883 40.33179688 37.55379883 40.33179688 37.54492188 42.328125 C37.41057113 52.75374269 37.41057113 52.75374269 35.125 56.5 C34.465 56.5 33.805 56.5 33.125 56.5 C32.795 57.49 32.465 58.48 32.125 59.5 C29.155 59.17 26.185 58.84 23.125 58.5 C23.125 57.84 23.125 57.18 23.125 56.5 C22.465 56.5 21.805 56.5 21.125 56.5 C21.125 55.84 21.125 55.18 21.125 54.5 C20.465 54.5 19.805 54.5 19.125 54.5 C16.9730563 51.27208445 16.92413557 50.21599191 17.125 46.5 C16.465 46.5 15.805 46.5 15.125 46.5 C14.31167257 44.39615302 13.49936583 42.29191143 12.6875 40.1875 C12.23503906 39.01574219 11.78257812 37.84398437 11.31640625 36.63671875 C10.54515245 34.60617185 9.81187358 32.56062074 9.125 30.5 C8.465 30.5 7.805 30.5 7.125 30.5 C7.125 29.84 7.125 29.18 7.125 28.5 C6.465 28.5 5.805 28.5 5.125 28.5 C5.125 27.84 5.125 27.18 5.125 26.5 C0.835 25.84 -3.455 25.18 -7.875 24.5 C-7.875 25.16 -7.875 25.82 -7.875 26.5 C-8.535 26.5 -9.195 26.5 -9.875 26.5 C-9.875 27.16 -9.875 27.82 -9.875 28.5 C-10.535 28.5 -11.195 28.5 -11.875 28.5 C-12.84456648 31.40869945 -13.02500187 33.3968822 -13.0859375 36.4296875 C-13.12847656 37.87021484 -13.12847656 37.87021484 -13.171875 39.33984375 C-13.22375257 41.35528732 -13.26808451 43.37093993 -13.3046875 45.38671875 C-13.60293486 54.66966782 -13.60293486 54.66966782 -16.875 58.5 C-20.55422867 60.95281911 -22.49759351 60.76823919 -26.875 60.75 C-28.1125 60.75515625 -29.35 60.7603125 -30.625 60.765625 C-33.875 60.5 -33.875 60.5 -36.875 58.5 C-36.875 57.84 -36.875 57.18 -36.875 56.5 C-37.535 56.5 -38.195 56.5 -38.875 56.5 C-42.79893712 50.45059694 -42.75670877 43.77533604 -41.33203125 36.8671875 C-40.75417891 33.87420871 -41.25536665 31.46047047 -41.875 28.5 C-42.535 28.5 -43.195 28.5 -43.875 28.5 C-44.90039062 25.61914062 -44.90039062 25.61914062 -45.92578125 22.73828125 C-46.83532651 20.3976052 -46.83532651 20.3976052 -48.46875 18.125 C-50.18627653 14.91895048 -50.18152077 12.79779664 -50.0625 9.1875 C-50.03542969 8.11886719 -50.00835937 7.05023438 -49.98046875 5.94921875 C-49.94566406 5.14097656 -49.91085938 4.33273438 -49.875 3.5 C-47.35024538 2.23762269 -45.56299534 2.40143596 -42.75 2.4375 C-41.83992187 2.44652344 -40.92984375 2.45554687 -39.9921875 2.46484375 C-39.29351562 2.47644531 -38.59484375 2.48804687 -37.875 2.5 C-37.875 3.16 -37.875 3.82 -37.875 4.5 C-37.2975 4.768125 -36.72 5.03625 -36.125 5.3125 C-33.84087952 6.51800803 -31.92068469 7.93135523 -29.875 9.5 C-29.318125 9.10167969 -28.76125 8.70335938 -28.1875 8.29296875 C-27.424375 7.76316406 -26.66125 7.23335938 -25.875 6.6875 C-25.1325 6.16542969 -24.39 5.64335938 -23.625 5.10546875 C-15.73194041 0.49744674 -9.0054178 -0.02058381 0 0 Z " fill="#2A4EE9" transform="translate(243.875,114.5)"/>
</svg>
