<?xml version="1.0" encoding="UTF-8"?>
<svg version="1.1" xmlns="http://www.w3.org/2000/svg" width="538" height="240">
<path d="M0 0 C0.98033203 -0.01611328 1.96066406 -0.03222656 2.97070312 -0.04882812 C11.98614702 -0.05494859 11.98614702 -0.05494859 15.9375 3.3125 C19.24980528 8.10963179 19.69565923 12.66168652 18.9375 18.3125 C17.38478802 22.37912662 16.57470598 23.88769602 12.9375 26.3125 C10.67578125 26.7265625 10.67578125 26.7265625 8.25 26.9375 C7.44175781 27.01226562 6.63351563 27.08703125 5.80078125 27.1640625 C4.87845703 27.23753906 4.87845703 27.23753906 3.9375 27.3125 C4.74574219 27.869375 5.55398437 28.42625 6.38671875 29 C13.60608744 34.15544784 19.06231924 38.68695772 21.9375 47.3125 C21.94007812 46.04535156 21.94265625 44.77820313 21.9453125 43.47265625 C22.21635586 27.30949078 22.21635586 27.30949078 26.87890625 21.1015625 C33.76795565 15.1144949 39.10501504 13.4515645 48.25 13.625 C49.77379272 13.63563477 49.77379272 13.63563477 51.32836914 13.64648438 C59.1624208 13.88313605 64.7580291 15.23596645 70.9375 20.3125 C70.9375 20.9725 70.9375 21.6325 70.9375 22.3125 C71.5975 22.3125 72.2575 22.3125 72.9375 22.3125 C72.9375 23.6325 72.9375 24.9525 72.9375 26.3125 C73.5975 26.3125 74.2575 26.3125 74.9375 26.3125 C75.85898598 43.18593217 75.85898598 43.18593217 71.421875 48.83203125 C66.94675229 53.29537732 63.21333835 54.81043293 56.9375 55.3125 C63.97969752 57.12251331 70.62027154 57.6856659 77.875 57.875 C79.92590302 57.93475973 81.97669885 57.99836273 84.02734375 58.06640625 C84.92316162 58.09033447 85.81897949 58.1142627 86.74194336 58.13891602 C88.9375 58.3125 88.9375 58.3125 90.9375 59.3125 C90.9375 61.6225 90.9375 63.9325 90.9375 66.3125 C90.2775 66.3125 89.6175 66.3125 88.9375 66.3125 C88.9375 67.6325 88.9375 68.9525 88.9375 70.3125 C88.2775 70.3125 87.6175 70.3125 86.9375 70.3125 C86.9375 70.9725 86.9375 71.6325 86.9375 72.3125 C86.2775 72.3125 85.6175 72.3125 84.9375 72.3125 C83.9475 74.2925 83.9475 74.2925 82.9375 76.3125 C82.2775 76.3125 81.6175 76.3125 80.9375 76.3125 C80.9375 76.9725 80.9375 77.6325 80.9375 78.3125 C79.25301982 79.11057198 77.56473873 79.90062301 75.875 80.6875 C74.93527344 81.12835938 73.99554688 81.56921875 73.02734375 82.0234375 C63.26690723 86.09542745 51.52383879 87.48752044 41.4375 83.625 C39.91494712 82.89972988 38.41298192 82.12928463 36.9375 81.3125 C36.174375 80.89226562 35.41125 80.47203125 34.625 80.0390625 C31.16855539 78.00222907 29.2041764 76.71251461 26.9375 73.3125 C26.9375 72.3225 26.9375 71.3325 26.9375 70.3125 C26.2775 70.3125 25.6175 70.3125 24.9375 70.3125 C24.2775 68.6625 23.6175 67.0125 22.9375 65.3125 C21.2875 68.2825 19.6375 71.2525 17.9375 74.3125 C17.2775 74.3125 16.6175 74.3125 15.9375 74.3125 C15.9375 74.9725 15.9375 75.6325 15.9375 76.3125 C15.2775 76.3125 14.6175 76.3125 13.9375 76.3125 C13.9375 76.9725 13.9375 77.6325 13.9375 78.3125 C2.57797315 85.54128981 -8.80940162 87.67179214 -22.0625 86.3125 C-25.48411484 85.30767134 -27.96145426 84.1167448 -31.0625 82.3125 C-31.0625 81.6525 -31.0625 80.9925 -31.0625 80.3125 C-31.64 80.23 -32.2175 80.1475 -32.8125 80.0625 C-36.8215848 78.7261384 -38.6338121 76.00146269 -40.8125 72.5 C-42.48263475 68.24115638 -42.97186789 64.80427077 -41.37109375 60.41796875 C-39.80103414 57.2975574 -38.34224846 55.51719399 -35.5 53.4375 C-30.73824525 51.87910754 -26.04631807 51.56967211 -21.0625 51.3125 C-22.3825 50.9825 -23.7025 50.6525 -25.0625 50.3125 C-25.0625 49.6525 -25.0625 48.9925 -25.0625 48.3125 C-26.3825 48.3125 -27.7025 48.3125 -29.0625 48.3125 C-29.0625 47.6525 -29.0625 46.9925 -29.0625 46.3125 C-29.64 46.27125 -30.2175 46.23 -30.8125 46.1875 C-34.23248433 44.85750609 -35.26501232 42.41161668 -37.0625 39.3125 C-39.09941304 33.20176089 -39.14861284 25.78907614 -37.2265625 19.63671875 C-32.95451018 11.33632179 -25.61281723 5.74238011 -17.0625 2.3125 C-16.22074219 1.95414062 -15.37898438 1.59578125 -14.51171875 1.2265625 C-9.65486736 -0.06053062 -5.00279663 -0.01651088 0 0 Z " fill="#0431F4" transform="translate(99.0625,98.6875)"/>
<path d="M0 0 C0.763125 0.33 1.52625 0.66 2.3125 1 C2.3125 1.66 2.3125 2.32 2.3125 3 C3.034375 2.95875 3.75625 2.9175 4.5 2.875 C7.51979369 3.00921305 9.58185729 3.75170619 12.3125 5 C12.3125 5.66 12.3125 6.32 12.3125 7 C13.116875 6.979375 13.92125 6.95875 14.75 6.9375 C17.3125 7 17.3125 7 18.3125 8 C19.323125 8.12375 20.33375 8.2475 21.375 8.375 C25.68241715 9.05871701 29.3027963 10.3568077 33.3125 12 C34.15941406 12.26425781 35.00632812 12.52851562 35.87890625 12.80078125 C40.32917152 14.99376911 41.62409419 19.54812182 43.3125 24 C44.3443425 29.1592125 42.38029966 32.07314438 39.6015625 36.265625 C38.3125 38 38.3125 38 36.3125 40 C34.70351339 43.9751434 34.10514322 47.67817834 33.66015625 51.92578125 C33.1759003 54.81499371 32.09961553 57.35372688 31.00390625 60.05859375 C29.96784265 62.96776668 29.7082646 65.94695879 29.3125 69 C28.68993972 71.01416562 28.03683347 73.02015519 27.3125 75 C26.6525 75 25.9925 75 25.3125 75 C25.3125 76.32 25.3125 77.64 25.3125 79 C24.6525 79 23.9925 79 23.3125 79 C23.3125 80.32 23.3125 81.64 23.3125 83 C21.3325 83 19.3525 83 17.3125 83 C17.3125 82.34 17.3125 81.68 17.3125 81 C16.6525 81 15.9925 81 15.3125 81 C15.3125 79.68 15.3125 78.36 15.3125 77 C14.6525 77 13.9925 77 13.3125 77 C13.168125 75.865625 13.02375 74.73125 12.875 73.5625 C12.70078522 70.19222799 12.70078522 70.19222799 11.3125 69 C11.07722227 66.65012738 10.89863583 64.29443961 10.75 61.9375 C10.66621094 60.64714844 10.58242188 59.35679688 10.49609375 58.02734375 C10.43550781 57.02832031 10.37492187 56.02929688 10.3125 55 C-4.70352453 67.48085156 -15.04048908 83.31058997 -17.6875 103 C-17.81999302 104.74944866 -17.94446167 106.49951665 -18.0625 108.25 C-18.56845207 114.74458474 -20.24206808 120.96485858 -22.6875 127 C-25.57611709 128.44430855 -27.48397701 128.37688506 -30.6875 128 C-33.82618431 125.3722643 -36.4422872 122.42690375 -38.6875 119 C-38.6875 118.34 -38.6875 117.68 -38.6875 117 C-39.3475 117 -40.0075 117 -40.6875 117 C-40.6875 115.68 -40.6875 114.36 -40.6875 113 C-41.3475 113 -42.0075 113 -42.6875 113 C-42.9040625 111.2984375 -42.9040625 111.2984375 -43.125 109.5625 C-43.29921478 106.19222799 -43.29921478 106.19222799 -44.6875 105 C-44.93141515 100.54965728 -44.91608647 96.09350309 -44.92773438 91.63720703 C-44.93737099 89.40488437 -44.96834597 87.17350983 -45 84.94140625 C-45.00653701 83.51042212 -45.01178474 82.07943141 -45.015625 80.6484375 C-45.0249707 79.35083496 -45.03431641 78.05323242 -45.04394531 76.71630859 C-44.63494507 72.45206085 -43.52460476 69.83892759 -41.6875 66 C-41.419375 65.071875 -41.15125 64.14375 -40.875 63.1875 C-36.14871756 50.50116294 -25.96869243 37.90710153 -14.8125 30.25 C-11.46273516 28.30089831 -11.46273516 28.30089831 -10.6875 25 C-11.3475 25 -12.0075 25 -12.6875 25 C-12.6875 24.34 -12.6875 23.68 -12.6875 23 C-13.3475 23 -14.0075 23 -14.6875 23 C-14.6875 22.34 -14.6875 21.68 -14.6875 21 C-15.3475 21 -16.0075 21 -16.6875 21 C-19.99995345 15.43981028 -21.3367059 11.49205899 -20.6875 5 C-19.84387427 2.32851853 -19.31017431 1.38812434 -16.9453125 -0.0859375 C-11.6615543 -2.22503684 -5.37728926 -1.45824794 0 0 Z " fill="#0431F5" transform="translate(456.6875,48)"/>
<path d="M0 0 C1.97806641 -0.01546875 1.97806641 -0.01546875 3.99609375 -0.03125 C7.5625 0.5 7.5625 0.5 10.03515625 2.40625 C11.5625 4.5 11.5625 4.5 11.5625 6.5 C12.2225 6.5 12.8825 6.5 13.5625 6.5 C15.0231285 9.14738916 15.5625 10.39448334 15.5625 13.5 C16.2225 13.5 16.8825 13.5 17.5625 13.5 C17.74425781 14.16386719 17.92601562 14.82773438 18.11328125 15.51171875 C19.66298883 21.05224555 19.66298883 21.05224555 22.1875 26.1875 C23.98794197 29.21551604 24.16263915 32.03453933 24.5625 35.5 C24.8925 35.83 25.2225 36.16 25.5625 36.5 C25.77018229 37.97396739 25.92966017 39.4549126 26.0625 40.9375 C26.35396944 44.34497505 26.35396944 44.34497505 27.5625 47.5 C27.87311241 52.88176868 27.91930132 58.26445543 27.9675293 63.65429688 C27.98896511 65.45039263 28.02289348 67.24638812 28.07006836 69.04199219 C28.61905047 90.14947521 28.61905047 90.14947521 21.5625 98.5 C18.28703912 100.14709961 15.65377461 100.77541756 12 100.75 C10.88431641 100.75773437 10.88431641 100.75773437 9.74609375 100.765625 C7.31753617 100.47020118 5.67409861 99.70662778 3.5625 98.5 C3.5625 99.16 3.5625 99.82 3.5625 100.5 C2.9025 100.5 2.2425 100.5 1.5625 100.5 C1.5625 101.16 1.5625 101.82 1.5625 102.5 C0.2425 102.5 -1.0775 102.5 -2.4375 102.5 C-2.4375 103.16 -2.4375 103.82 -2.4375 104.5 C-3.7575 104.5 -5.0775 104.5 -6.4375 104.5 C-6.4375 105.16 -6.4375 105.82 -6.4375 106.5 C-16.46423931 111.00051973 -23.86683444 112.57736619 -34.625 109.5859375 C-39.32254253 107.77216413 -42.92375054 105.06438359 -45.49804688 100.70336914 C-47.23897514 96.62024087 -46.80668572 92.25315442 -46.8125 87.875 C-46.83699219 86.92753906 -46.86148437 85.98007813 -46.88671875 85.00390625 C-46.93385878 73.5174513 -42.49224953 64.62121146 -34.625 56.375 C-29.03325508 50.9592915 -24.35966757 48.29221676 -16.4375 47.5 C-16.1075 47.17 -15.7775 46.84 -15.4375 46.5 C-11.9375 46.375 -11.9375 46.375 -8.4375 46.5 C-8.1075 46.83 -7.7775 47.16 -7.4375 47.5 C-7.41061849 45.85425434 -7.39115877 44.20838587 -7.375 42.5625 C-7.36339844 41.64597656 -7.35179687 40.72945312 -7.33984375 39.78515625 C-7.17800951 37.53406673 -7.17800951 37.53406673 -8.4375 36.5 C-8.64733279 34.35795689 -8.80573385 32.21075887 -8.9375 30.0625 C-9.07897326 25.62215669 -9.07897326 25.62215669 -10.4375 21.5 C-10.58850263 18.69483579 -10.66885499 15.93107413 -10.6875 13.125 C-10.708125 12.35671875 -10.72875 11.5884375 -10.75 10.796875 C-10.77274967 7.509547 -10.66626503 5.04597453 -9.38671875 1.9921875 C-6.44921574 -0.2565623 -3.54487194 -0.08156944 0 0 Z M-5.4375 68.5 C-5.4375 69.16 -5.4375 69.82 -5.4375 70.5 C-6.0975 70.5 -6.7575 70.5 -7.4375 70.5 C-8.88713959 72.40374355 -10.24934323 74.37467159 -11.5625 76.375 C-12.28695312 77.46554688 -13.01140625 78.55609375 -13.7578125 79.6796875 C-15.60806435 82.23928818 -15.60806435 82.23928818 -15.4375 84.5 C-14.02126784 84.55447047 -12.60441809 84.59300508 -11.1875 84.625 C-10.00414062 84.65980469 -10.00414062 84.65980469 -8.796875 84.6953125 C-6.23018059 84.4828378 -4.6458933 83.78654105 -2.4375 82.5 C-2.22557779 77.30790596 -2.8462311 73.373261 -4.4375 68.5 C-4.7675 68.5 -5.0975 68.5 -5.4375 68.5 Z " fill="#0431F5" transform="translate(339.4375,66.5)"/>
<path d="M0 0 C1.10666016 -0.02384766 2.21332031 -0.04769531 3.35351562 -0.07226562 C13.02733816 -0.05512359 20.45652442 2.82114294 27.75 9.25 C28.78060547 10.12205078 28.78060547 10.12205078 29.83203125 11.01171875 C36.93303804 19.61460824 37.6550762 27.5200197 37.375 38.4375 C37.36629883 40.39429688 37.36629883 40.39429688 37.35742188 42.390625 C37.22307113 52.81624269 37.22307113 52.81624269 34.9375 56.5625 C34.2775 56.5625 33.6175 56.5625 32.9375 56.5625 C32.6075 57.5525 32.2775 58.5425 31.9375 59.5625 C28.9675 59.2325 25.9975 58.9025 22.9375 58.5625 C22.9375 57.9025 22.9375 57.2425 22.9375 56.5625 C22.2775 56.5625 21.6175 56.5625 20.9375 56.5625 C20.9375 55.9025 20.9375 55.2425 20.9375 54.5625 C20.2775 54.5625 19.6175 54.5625 18.9375 54.5625 C16.7855563 51.33458445 16.73663557 50.27849191 16.9375 46.5625 C16.2775 46.5625 15.6175 46.5625 14.9375 46.5625 C14.12417257 44.45865302 13.31186583 42.35441143 12.5 40.25 C12.04753906 39.07824219 11.59507812 37.90648437 11.12890625 36.69921875 C10.35765245 34.66867185 9.62437358 32.62312074 8.9375 30.5625 C8.2775 30.5625 7.6175 30.5625 6.9375 30.5625 C6.9375 29.9025 6.9375 29.2425 6.9375 28.5625 C6.2775 28.5625 5.6175 28.5625 4.9375 28.5625 C4.9375 27.9025 4.9375 27.2425 4.9375 26.5625 C3.6175 26.5625 2.2975 26.5625 0.9375 26.5625 C0.9375 25.9025 0.9375 25.2425 0.9375 24.5625 C-2.0325 24.5625 -5.0025 24.5625 -8.0625 24.5625 C-8.0625 25.2225 -8.0625 25.8825 -8.0625 26.5625 C-8.7225 26.5625 -9.3825 26.5625 -10.0625 26.5625 C-10.0625 27.2225 -10.0625 27.8825 -10.0625 28.5625 C-10.7225 28.5625 -11.3825 28.5625 -12.0625 28.5625 C-13.02759986 31.45779959 -13.22593635 33.47254843 -13.30859375 36.4921875 C-13.34146484 37.45253906 -13.37433594 38.41289062 -13.40820312 39.40234375 C-13.4691615 41.41786119 -13.52648228 43.43349209 -13.58007812 45.44921875 C-13.61423828 46.41214844 -13.64839844 47.37507813 -13.68359375 48.3671875 C-13.72117798 49.68178955 -13.72117798 49.68178955 -13.75952148 51.02294922 C-14.09549803 53.83908783 -14.83892283 56.00983629 -16.0625 58.5625 C-19.41695655 61.14644333 -23.0209083 60.82976222 -27.125 60.8125 C-28.35347656 60.81765625 -29.58195312 60.8228125 -30.84765625 60.828125 C-34.0625 60.5625 -34.0625 60.5625 -37.0625 58.5625 C-37.0625 57.9025 -37.0625 57.2425 -37.0625 56.5625 C-37.7225 56.5625 -38.3825 56.5625 -39.0625 56.5625 C-42.84504451 50.88868324 -42.54453104 45.21823622 -42.0625 38.5625 C-41.88332031 37.84835938 -41.70414063 37.13421875 -41.51953125 36.3984375 C-40.8375067 33.65868074 -41.50454136 31.2902978 -42.0625 28.5625 C-42.7225 28.5625 -43.3825 28.5625 -44.0625 28.5625 C-44.0625 27.2425 -44.0625 25.9225 -44.0625 24.5625 C-44.7225 24.5625 -45.3825 24.5625 -46.0625 24.5625 C-46.26746094 23.99660156 -46.47242188 23.43070313 -46.68359375 22.84765625 C-46.95300781 22.11417969 -47.22242188 21.38070312 -47.5 20.625 C-47.76683594 19.89410156 -48.03367188 19.16320312 -48.30859375 18.41015625 C-48.91636948 16.57944322 -48.91636948 16.57944322 -50.0625 15.5625 C-50.16123816 13.56450428 -50.19221799 11.56292842 -50.1875 9.5625 C-50.19007813 8.469375 -50.19265625 7.37625 -50.1953125 6.25 C-50.0625 3.5625 -50.0625 3.5625 -49.0625 2.5625 C-47.20962498 2.49023498 -45.35416122 2.4786878 -43.5 2.5 C-42.48808594 2.50902344 -41.47617188 2.51804687 -40.43359375 2.52734375 C-39.25990234 2.54474609 -39.25990234 2.54474609 -38.0625 2.5625 C-38.0625 3.2225 -38.0625 3.8825 -38.0625 4.5625 C-37.485 4.830625 -36.9075 5.09875 -36.3125 5.375 C-34.0299132 6.57969859 -32.0887058 7.97048115 -30.0625 9.5625 C-29.299375 8.82 -28.53625 8.0775 -27.75 7.3125 C-19.72036624 0.71131547 -10.01452009 -0.09950137 0 0 Z " fill="#0431F5" transform="translate(244.0625,114.4375)"/>
<path d="M0 0 C2.475 0.495 2.475 0.495 5 1 C4.67 2.32 4.34 3.64 4 5 C1 3 1 3 0 0 Z " fill="#1623EB" transform="translate(490,61)"/>
</svg>
